w<!DOCTYPE svg PUBLIC "-//W3C//DTD SVG 1.1//EN" "http://www.w3.org/Graphics/SVG/1.1/DTD/svg11.dtd">

<!-- Uploaded to: SVG Repo, www.svgrepo.com, Transformed by: SVG Repo Mixer Tools -->
<svg height="800px" width="800px" version="1.1" id="Layer_1" xmlns="http://www.w3.org/2000/svg" xmlns:xlink="http://www.w3.org/1999/xlink" viewBox="0 0 511.999 511.999" xml:space="preserve" fill="#000000">

<g id="SVGRepo_bgCarrier" stroke-width="0"/>

<g id="SVGRepo_tracerCarrier" stroke-linecap="round" stroke-linejoin="round"/>

<g id="SVGRepo_iconCarrier"> <path style="fill:#F0EFEF;" d="M421.84,221.454l-34.103-64.417c-4.694-8.867-13.906-14.413-23.939-14.413H51.553 c-13.007,0-23.551,10.545-23.551,23.551V329.96c0,11.208,9.087,20.295,20.296,20.295h417.067c11.209,0,20.295-9.087,20.295-20.295 v-58.515c0-9.059-5.467-17.223-13.841-20.676l-32.413-13.36C431.869,234.305,425.655,228.659,421.84,221.454z"/> <path style="fill:#478eff;" d="M120.774,194.795v-20.978c0-2.464-1.997-4.462-4.462-4.462h-14.72c-2.464,0-4.462,1.998-4.462,4.462 v20.978H76.153c-2.465,0-4.463,1.998-4.463,4.463v14.72c0,2.464,1.998,4.463,4.463,4.463H97.13v20.977 c0,2.465,1.998,4.463,4.462,4.463h14.721c2.465,0,4.462-1.998,4.462-4.463v-20.977h20.978c2.465,0,4.463-1.999,4.463-4.463v-14.72 c0-2.465-1.998-4.463-4.463-4.463L120.774,194.795L120.774,194.795z"/> <path style="opacity:0.08;enable-background:new ;" d="M28.001,322.782v7.179c0,11.208,9.087,20.295,20.296,20.295h417.067 c11.209,0,20.295-9.087,20.295-20.295v-7.179H28.001z"/> <g> <path style="fill:#0C7ED3;" d="M66.037,177.283h-10.3c-4.38,0-7.929-3.549-7.929-7.929c0-4.38,3.549-7.929,7.929-7.929h10.3 c4.38,0,7.929,3.549,7.929,7.929C73.966,173.734,70.416,177.283,66.037,177.283z"/> <path style="fill:#0C7ED3;" d="M162.168,177.283h-10.301c-4.38,0-7.929-3.549-7.929-7.929c0-4.38,3.549-7.929,7.929-7.929h10.301 c4.38,0,7.929,3.549,7.929,7.929S166.548,177.283,162.168,177.283z"/> </g> <path style="opacity:0.1;enable-background:new ;" d="M182.665,350.256c0-32.206-26.107-58.315-58.314-58.315 c-32.207,0-58.315,26.108-58.315,58.315H182.665z"/> <path style="opacity:0.1;enable-background:new ;" d="M431.941,350.256c0-32.206-26.107-58.315-58.314-58.315 c-32.207,0-58.315,26.108-58.315,58.315H431.941z"/> <g> <path style="fill:#57C9E8;" d="M421.84,221.454l-27.583-52.1h-16.592c-3.995,0-6.555,4.251-4.686,7.783l24.101,45.524 c1.871,3.531,5.537,5.739,9.533,5.739h20.093C424.825,226.301,423.178,223.98,421.84,221.454z"/> <path style="fill:#57C9E8;" d="M361.542,218.587l-22.199-41.932c-2.379-4.491-7.044-7.3-12.127-7.3h-24.511 c-4.96,0-8.982,4.021-8.982,8.982v41.083c0,4.96,4.021,8.982,8.982,8.982h52.927C360.672,228.401,363.9,223.04,361.542,218.587z"/> </g> <path style="opacity:0.2;fill:#FFFFFF;enable-background:new ;" d="M361.542,218.587l-19.18-36.231l-44.575,44.575 c1.413,0.927,3.103,1.471,4.918,1.471h52.927C360.672,228.401,363.9,223.04,361.542,218.587z"/> <path style="opacity:0.1;enable-background:new ;" d="M349.86,256.674h14.466c3.096,0,5.605-2.509,5.605-5.605v-24.734 c0-3.096-2.509-5.605-5.605-5.605H349.86c-3.094,0-5.604,2.509-5.604,5.605v24.734C344.257,254.165,346.767,256.674,349.86,256.674z "/> <path style="fill:#333E48;" d="M353.54,251.701h13.967c2.989,0,5.411-2.423,5.411-5.412v-23.883c0-2.989-2.422-5.412-5.411-5.412 H353.54c-2.99,0-5.412,2.423-5.412,5.412v23.883C348.129,249.278,350.551,251.701,353.54,251.701z"/> <path style="fill:#478eff;" d="M321.468,110.673H288.85c-4.995,0-9.428,3.202-10.998,7.944l-7.95,24.008h70.513l-7.95-24.008 C330.896,113.876,326.463,110.673,321.468,110.673z"/> <circle style="fill:#333E48;" cx="124.353" cy="350.255" r="51.071"/> <circle style="fill:#C3C6C8;" cx="124.353" cy="350.255" r="22.782"/> <circle style="fill:#333E48;" cx="373.629" cy="350.255" r="51.071"/> <g> <circle style="fill:#C3C6C8;" cx="373.629" cy="350.255" r="22.782"/> <path style="fill:#C3C6C8;" d="M496.466,322.782h-27.139c-4.2,0-7.604,3.405-7.604,7.605v18.899c0,4.2,3.405,7.604,7.604,7.604 h27.139c4.2,0,7.605-3.405,7.605-7.604v-18.899C504.071,326.187,500.666,322.782,496.466,322.782z"/> <path style="fill:#C3C6C8;" d="M42.672,322.782H15.534c-4.201,0-7.605,3.405-7.605,7.605v18.899c0,4.2,3.405,7.604,7.605,7.604 h27.138c4.201,0,7.605-3.405,7.605-7.604v-18.899C50.278,326.187,46.873,322.782,42.672,322.782z"/> </g> <g> <path style="fill:#FFD13F;" d="M458.288,299.187h27.372v23.595h-27.372c-3.242,0-5.872-2.629-5.872-5.872v-11.85 C452.416,301.816,455.045,299.187,458.288,299.187z"/> <path style="fill:#FFD13F;" d="M49.865,322.782H28.001v-23.595h21.864c3.243,0,5.872,2.629,5.872,5.874v11.85 C55.737,320.153,53.108,322.782,49.865,322.782z"/> </g> <path style="fill:#57C9E8;" d="M259.534,228.401h-60.981c-5.727,0-10.369-4.642-10.369-10.369v-38.31 c0-5.727,4.642-10.369,10.369-10.369h60.981c5.727,0,10.369,4.642,10.369,10.369v38.31 C269.903,223.759,265.261,228.401,259.534,228.401z"/> <path style="fill:#478eff;" d="M383.753,264.995H28.001v15.857h355.752c4.38,0,7.929-3.549,7.929-7.929 C391.681,268.544,388.131,264.995,383.753,264.995z"/> <g> <path style="opacity:0.2;fill:#FFFFFF;enable-background:new ;" d="M394.256,169.354h-16.592c-3.995,0-6.555,4.251-4.686,7.783 l18.07,34.13l16.607-16.607L394.256,169.354z"/> <path style="opacity:0.2;fill:#FFFFFF;enable-background:new ;" d="M198.553,169.354c-5.727,0-10.369,4.642-10.369,10.369v38.31 c0,5.648,4.516,10.231,10.134,10.357l59.036-59.036H198.553z"/> <path style="opacity:0.15;fill:#FFFFFF;enable-background:new ;" d="M332.466,118.617c-0.92-2.78-2.83-5.024-5.254-6.41 l-30.417,30.417h43.621L332.466,118.617z"/> </g> <path d="M367.507,209.066h-2.034l-19.124-36.123c-3.763-7.104-11.094-11.518-19.133-11.518h-24.511 c-9.324,0-16.91,7.586-16.91,16.91v41.083c0,9.324,7.586,16.91,16.91,16.91H340.2v9.959c0,7.356,5.985,13.34,13.34,13.34h13.967 c7.356,0,13.339-5.985,13.339-13.34v-23.883C380.846,215.051,374.863,209.066,367.507,209.066z M340.355,220.473h-37.65 c-0.58,0-1.053-0.473-1.053-1.053v-41.083c0-0.58,0.473-1.053,1.053-1.053h24.511c2.151,0,4.113,1.181,5.12,3.081l15.805,29.854 C344.036,212.043,341.028,215.881,340.355,220.473z M364.989,243.772h-8.932v-18.849h8.932V243.772z M259.534,161.426h-60.981 c-10.088,0-18.297,8.209-18.297,18.297v38.31c0,10.088,8.209,18.297,18.297,18.297h60.981c10.088,0,18.297-8.209,18.297-18.297 v-38.31C277.831,169.634,269.622,161.426,259.534,161.426z M261.974,218.033c0,1.346-1.094,2.44-2.44,2.44h-60.981 c-1.345,0-2.44-1.094-2.44-2.44v-38.31c0-1.345,1.094-2.44,2.44-2.44h60.981c1.345,0,2.44,1.094,2.44,2.44L261.974,218.033 L261.974,218.033z M496.466,314.853h-2.878v-43.408c0-12.318-7.359-23.311-18.748-28.006l-32.414-13.359 c-5.814-2.398-10.637-6.777-13.579-12.336l-34.103-64.417c-6.085-11.493-17.943-18.632-30.947-18.632h-17.654l-6.149-18.571 c-2.651-8.004-10.096-13.38-18.525-13.38h-32.618c-8.43,0-15.874,5.377-18.524,13.38l-6.148,18.571H51.553 c-17.358,0-31.48,14.121-31.48,31.48v148.677h-4.538C6.969,314.853,0,321.822,0,330.387v18.899c0,8.565,6.969,15.533,15.534,15.533 h27.138c5.255,0,9.9-2.629,12.712-6.634h10.517c3.887,28.794,28.608,51.07,58.45,51.07s54.562-22.275,58.449-51.07h132.377 c3.887,28.794,28.609,51.07,58.45,51.07c29.842,0,54.562-22.275,58.449-51.07h24.54c2.812,4.004,7.458,6.634,12.711,6.634h27.139 c8.566,0,15.534-6.969,15.534-15.533v-18.899C512,321.822,505.032,314.853,496.466,314.853z M389.484,177.283l22.865,43.19h-5.737 c-1.061,0-2.03-0.584-2.526-1.52l-22.061-41.67H389.484z M285.378,121.11c0.497-1.5,1.891-2.508,3.471-2.508h32.618 c1.579,0,2.975,1.007,3.471,2.508l4.499,13.588h-48.559L285.378,121.11z M42.35,348.962H15.857v-18.252H42.35 C42.35,330.711,42.35,348.962,42.35,348.962z M124.352,393.398c-23.788,0-43.141-19.353-43.141-43.141 c0-23.788,19.353-43.141,43.141-43.141c23.787,0,43.14,19.353,43.14,43.141S148.139,393.398,124.352,393.398z M373.627,393.398 c-23.788,0-43.141-19.353-43.141-43.141c0-23.788,19.353-43.141,43.141-43.141c23.787,0,43.14,19.353,43.14,43.141 C416.766,374.044,397.414,393.398,373.627,393.398z M453.794,330.387v11.941h-21.718c-3.887-28.794-28.607-51.07-58.449-51.07 c-29.841,0-54.563,22.275-58.45,51.07H182.801c-3.887-28.794-28.608-51.07-58.449-51.07c-29.842,0-54.563,22.275-58.45,51.07h-7.695 v-11.941c0-8.566-6.969-15.534-15.534-15.534H35.93V166.176c0-8.614,7.009-15.623,15.623-15.623h312.245 c7.115,0,13.603,3.906,16.932,10.194l0.359,0.679h-3.424c-4.682,0-8.92,2.396-11.335,6.406c-2.416,4.012-2.55,8.877-0.359,13.016 l24.103,45.527c3.253,6.141,9.59,9.955,16.539,9.955h16.755c3.772,3.546,8.174,6.416,13.017,8.412l32.414,13.359 c5.427,2.237,8.934,7.476,8.934,13.345v43.408h-8.404C460.763,314.853,453.794,321.822,453.794,330.387z M496.143,348.962H469.65 v-18.252h26.492V348.962z M319.451,241.317h-19.118c-4.38,0-7.929,3.549-7.929,7.929s3.549,7.929,7.929,7.929h19.118 c4.38,0,7.929-3.549,7.929-7.929C327.38,244.866,323.83,241.317,319.451,241.317z"/> </g>

</svg>