<?xml version="1.0" encoding="utf-8"?>
<!-- Uploaded to: SVG Repo, www.svgrepo.com, Generator: SVG Repo Mixer Tools -->
<svg width="800px" height="800px" viewBox="-46.34 0 287.48 287.48" xmlns="http://www.w3.org/2000/svg"><defs><style>.a{fill:#ffffff;}.b{fill:#211715;}.c{fill:#88c5e9;}</style></defs><path class="a" d="M191.26,2.817V2.4H2.4c0,3.789.308,236.691.308,282.68H192.4C192.413,262.356,191.271,32.429,191.26,2.817Z"/><path class="b" d="M190.325,235.343H4.475c-3.089,0-3.094,4.8,0,4.8h185.85c3.089,0,3.094-4.8,0-4.8Z"/><path class="b" d="M190.325,214.08H4.475c-3.089,0-3.094,4.8,0,4.8h185.85c3.089,0,3.094-4.8,0-4.8Z"/><path class="b" d="M190.325,160.754H4.475c-3.089,0-3.094,4.8,0,4.8h185.85c3.089,0,3.094-4.8,0-4.8Z"/><path class="b" d="M190.325,139.49H4.475c-3.089,0-3.094,4.8,0,4.8h185.85c3.089,0,3.094-4.8,0-4.8Z"/><path class="c" d="M88.144,40.057c-2.592,0-55.916.049-60.246.049V67.3H88.025C88.025,62.987,88.144,41.278,88.144,40.057Z"/><path class="b" d="M88.144,37.657q-10.158,0-20.316.016l-31,.026q-4.466,0-8.93.007a2.434,2.434,0,0,0-2.4,2.4V67.3a2.434,2.434,0,0,0,2.4,2.4H88.025a2.435,2.435,0,0,0,2.4-2.4c0-7.944.066-15.888.1-23.832.006-1.137.015-2.275.015-3.412,0-3.089-4.8-3.094-4.8,0,0,7.411-.074,14.822-.1,22.233-.007,1.67-.015,3.341-.015,5.011l2.4-2.4H27.9l2.4,2.4V40.106l-2.4,2.4q10.779,0,21.558-.017l30.654-.026q4.017,0,8.034-.006C91.233,42.457,91.238,37.657,88.144,37.657Z"/><path class="c" d="M169.152,40.057c-2.592,0-55.917.049-60.247.049V67.3h60.127C169.032,62.987,169.152,41.278,169.152,40.057Z"/><path class="b" d="M169.152,37.657q-10.159,0-20.317.016l-31,.026q-4.465,0-8.93.007a2.435,2.435,0,0,0-2.4,2.4V67.3a2.435,2.435,0,0,0,2.4,2.4h60.127a2.435,2.435,0,0,0,2.4-2.4c0-7.944.066-15.888.105-23.832,0-1.137.014-2.275.015-3.412,0-3.089-4.8-3.094-4.8,0,0,7.411-.075,14.822-.105,22.233-.007,1.67-.015,3.341-.015,5.011l2.4-2.4H108.905l2.4,2.4V40.106l-2.4,2.4q10.779,0,21.558-.017l30.654-.026q4.017,0,8.035-.006C172.24,42.457,172.245,37.657,169.152,37.657Z"/><path class="c" d="M88.144,113.711c-2.592,0-55.916.049-60.246.049v27.2H88.025C88.025,136.641,88.144,114.932,88.144,113.711Z"/><path class="b" d="M88.144,111.311q-10.158,0-20.316.016l-31,.026q-4.466,0-8.93.007a2.434,2.434,0,0,0-2.4,2.4v27.2a2.434,2.434,0,0,0,2.4,2.4H88.025a2.435,2.435,0,0,0,2.4-2.4c0-7.944.066-15.888.1-23.832.006-1.137.015-2.275.015-3.412,0-3.089-4.8-3.094-4.8,0,0,7.411-.074,14.822-.1,22.233-.007,1.67-.015,3.341-.015,5.011l2.4-2.4H27.9l2.4,2.4v-27.2l-2.4,2.4q10.779,0,21.558-.017l30.654-.026q4.017,0,8.034-.006C91.233,116.111,91.238,111.311,88.144,111.311Z"/><path class="c" d="M169.152,113.711c-2.592,0-55.917.049-60.247.049v27.2h60.127C169.032,136.641,169.152,114.932,169.152,113.711Z"/><path class="b" d="M169.152,111.311q-10.159,0-20.317.016l-31,.026q-4.465,0-8.93.007a2.435,2.435,0,0,0-2.4,2.4v27.2a2.435,2.435,0,0,0,2.4,2.4h60.127a2.435,2.435,0,0,0,2.4-2.4c0-7.944.066-15.888.105-23.832,0-1.137.014-2.275.015-3.412,0-3.089-4.8-3.094-4.8,0,0,7.411-.075,14.822-.105,22.233-.007,1.67-.015,3.341-.015,5.011l2.4-2.4H108.905l2.4,2.4v-27.2l-2.4,2.4q10.779,0,21.558-.017l30.654-.026q4.017,0,8.035-.006C172.24,116.111,172.245,111.311,169.152,111.311Z"/><path class="c" d="M88.144,189.411c-2.592,0-55.916.048-60.246.048v27.2H88.025C88.025,212.341,88.144,190.632,88.144,189.411Z"/><path class="b" d="M88.144,187.011q-10.158,0-20.316.016l-31,.026q-4.466,0-8.93.006a2.435,2.435,0,0,0-2.4,2.4v27.2a2.434,2.434,0,0,0,2.4,2.4H88.025a2.435,2.435,0,0,0,2.4-2.4c0-7.944.066-15.888.1-23.832.006-1.137.015-2.275.015-3.412,0-3.089-4.8-3.094-4.8,0,0,7.411-.074,14.822-.1,22.233-.007,1.67-.015,3.341-.015,5.011l2.4-2.4H27.9l2.4,2.4v-27.2l-2.4,2.4q10.779,0,21.558-.016l30.654-.026q4.017,0,8.034-.006C91.233,191.811,91.238,187.011,88.144,187.011Z"/><path class="c" d="M169.152,189.411c-2.592,0-55.917.048-60.247.048v27.2h60.127C169.032,212.341,169.152,190.632,169.152,189.411Z"/><path class="b" d="M169.152,187.011q-10.159,0-20.317.016l-31,.026q-4.465,0-8.93.006a2.436,2.436,0,0,0-2.4,2.4v27.2a2.435,2.435,0,0,0,2.4,2.4h60.127a2.435,2.435,0,0,0,2.4-2.4c0-7.944.066-15.888.105-23.832,0-1.137.014-2.275.015-3.412,0-3.089-4.8-3.094-4.8,0,0,7.411-.075,14.822-.105,22.233-.007,1.67-.015,3.341-.015,5.011l2.4-2.4H108.905l2.4,2.4v-27.2l-2.4,2.4q10.779,0,21.558-.016l30.654-.026q4.017,0,8.035-.006C172.24,191.811,172.245,187.011,169.152,187.011Z"/><path class="b" d="M190.325,86.165H4.475c-3.089,0-3.094,4.8,0,4.8h185.85c3.089,0,3.094-4.8,0-4.8Z"/><path class="b" d="M190.325,64.9H4.475c-3.089,0-3.094,4.8,0,4.8h185.85c3.089,0,3.094-4.8,0-4.8Z"/><path class="b" d="M190.325,11.678H4.475c-3.089,0-3.094,4.8,0,4.8h185.85c3.089,0,3.094-4.8,0-4.8Z"/><path class="b" d="M193.66,2.817V2.4a2.436,2.436,0,0,0-2.4-2.4H2.4A2.435,2.435,0,0,0,0,2.4Q0,6.056.008,9.71.02,18.734.031,27.758L.064,54.236q.019,16.3.04,32.6l.045,36.556L.194,161.28q.021,18.531.041,37.062Q.255,215.3.27,232.258.285,246.539.3,260.821.3,271.147.308,281.473v3.607a2.435,2.435,0,0,0,2.4,2.4H192.4a2.435,2.435,0,0,0,2.4-2.4c0-4.057-.014-8.114-.027-12.171q-.035-10.912-.081-21.825-.057-14.513-.12-29.024-.074-17.093-.149-34.184-.083-18.391-.164-36.785-.082-18.629-.165-37.257-.079-17.8-.156-35.607-.067-15.695-.132-31.389-.051-12.575-.1-25.149-.029-8.214-.047-16.429,0-1.221,0-2.443c0-3.089-4.8-3.094-4.8,0q0,6.995.033,13.989.037,11.628.086,23.255.058,15.029.124,30.055.073,17.412.151,34.824l.165,37.029.165,37.109q.078,17.53.154,35.063.066,15.227.128,30.453.049,11.909.092,23.816.025,7.353.041,14.706,0,.981,0,1.964l2.4-2.4H2.708l2.4,2.4q0-9.245-.008-18.49-.009-13.386-.022-26.771l-.033-32.795q-.019-18.252-.041-36.5-.021-19.031-.044-38.06L4.915,95.48,4.873,61.739Q4.857,47.645,4.838,33.55q-.014-10.2-.025-20.391Q4.806,8.108,4.8,3.057q0-.328,0-.657L2.4,4.8H191.26l-2.4-2.4v.417C188.86,5.906,193.66,5.911,193.66,2.817Z"/><path class="b" d="M136.628,43.689V67.3c0,3.089,4.8,3.094,4.8,0V43.689c0-3.088-4.8-3.094-4.8,0Z"/><path class="b" d="M136.628,115.3v23.612c0,3.089,4.8,3.094,4.8,0V115.3c0-3.088-4.8-3.093-4.8,0Z"/><path class="b" d="M136.628,191v23.612c0,3.089,4.8,3.094,4.8,0V191c0-3.088-4.8-3.094-4.8,0Z"/><path class="b" d="M54.79,43.689V67.3c0,3.089,4.8,3.094,4.8,0V43.689c0-3.088-4.8-3.094-4.8,0Z"/><path class="b" d="M54.79,115.3v23.612c0,3.089,4.8,3.094,4.8,0V115.3c0-3.088-4.8-3.093-4.8,0Z"/><path class="b" d="M54.79,191v23.612c0,3.089,4.8,3.094,4.8,0V191c0-3.088-4.8-3.094-4.8,0Z"/></svg>