<?xml version="1.0" encoding="utf-8"?><!-- Uploaded to: SVG Repo, www.svgrepo.com, Generator: SVG Repo Mixer Tools -->
<svg fill="#000000" width="800px" height="800px" viewBox="0 0 1024 1024" xmlns="http://www.w3.org/2000/svg"><path d="M579.589 215.017h-46.08v-46.08c0-5.652-4.588-10.24-10.24-10.24h-30.72c-5.652 0-10.24 4.588-10.24 10.24v46.08h-46.08c-5.652 0-10.24 4.588-10.24 10.24v30.72c0 5.652 4.588 10.24 10.24 10.24h46.08v46.08c0 5.652 4.588 10.24 10.24 10.24h30.72c5.652 0 10.24-4.588 10.24-10.24v-46.08h46.08c5.652 0 10.24-4.588 10.24-10.24v-30.72c0-5.652-4.588-10.24-10.24-10.24z"/><path d="M354.309 387.857v-244.5c0-16.962 13.758-30.72 30.72-30.72h245.76c16.962 0 30.72 13.758 30.72 30.72v244.5h40.96v-244.5c0-39.583-32.097-71.68-71.68-71.68h-245.76c-39.583 0-71.68 32.097-71.68 71.68v244.5h40.96z"/><path d="M882.36 913.081c16.962 0 30.72-13.758 30.72-30.72V439.696c0-16.962-13.758-30.72-30.72-30.72H133.12c-16.962 0-30.72 13.758-30.72 30.72v442.665c0 16.962 13.758 30.72 30.72 30.72h749.24zm0 40.96H133.12c-39.583 0-71.68-32.097-71.68-71.68V439.696c0-39.583 32.097-71.68 71.68-71.68h749.24c39.583 0 71.68 32.097 71.68 71.68v442.665c0 39.583-32.097 71.68-71.68 71.68z"/><path d="M606.213 711.484c0-49.011-39.734-88.74-88.75-88.74-49.013 0-88.74 39.727-88.74 88.74v201.39h177.49v-201.39zm-218.45 242.35v-242.35c0-71.635 58.065-129.7 129.7-129.7 71.636 0 129.71 58.067 129.71 129.7v242.35h-259.41z"/></svg>