<?xml version="1.0" encoding="utf-8"?>
<!-- Uploaded to: SVG Repo, www.svgrepo.com, Generator: SVG Repo Mixer Tools -->
<svg width="800px" height="800px" viewBox="-34.03 0 465.584 465.584" xmlns="http://www.w3.org/2000/svg"><defs><style>.a{fill:#d9d9d9;}.b{fill:#ffffff;}.c{fill:#211715;}.d{fill:#7a7473;}.e{fill:#5394cf;}.f{fill:#a0a0a0;}</style></defs><path class="a" d="M126.191,122.136q3.714,21.483,7.427,42.967l1.509,8.725a4.845,4.845,0,0,0,3.986,4.282,9.323,9.323,0,0,0,4.2-.772l4.981-1.536,36.995-11.4,18.5-5.7a6.291,6.291,0,0,0,3.162-1.716,4.743,4.743,0,0,0,1.095-3.82c-.169-1.226-.412-2.445-.623-3.665q-1.941-11.226-3.881-22.453c-1.179-6.817-2.213-13.678-3.538-20.468a4.783,4.783,0,0,0-5.729-3.745c-1.078.2-2.149.463-3.22.694q-4.842,1.042-9.685,2.08c-17.116,3.669-34.3,7.073-51.385,10.895a4.761,4.761,0,0,0-3.864,5.107,2.06,2.06,0,0,0,2,2,2.012,2.012,0,0,0,2-2c-.095-.857.12-1.069.928-1.25.931-.208,1.869-.388,2.8-.583q2.738-.57,5.474-1.146,6.22-1.306,12.439-2.625,12.621-2.676,25.237-5.378c5.955-1.274,11.906-2.768,17.9-3.843,1.378-.247,1.287,1.109,1.469,2.162l.692,4q.9,5.211,1.8,10.422,1.947,11.267,3.895,22.534l.768,4.443a30.566,30.566,0,0,1,.573,3.316c.034.572-.218.8-.9,1.031-1.564.532-3.164.976-4.743,1.462l-8.537,2.632-35.1,10.82-8.537,2.632-4.269,1.316c-.7.214-2.194,1.109-2.768.316a4.212,4.212,0,0,1-.335-1.53l-.309-1.788-.724-4.19q-3.648-21.1-7.3-42.2l-.534-3.087a2.017,2.017,0,0,0-2.46-1.4A2.045,2.045,0,0,0,126.191,122.136Z"/><path class="a" d="M190.126,110.578q-21.264,4.577-42.545,9.082-6.336,1.341-12.675,2.667a2.045,2.045,0,0,0-1.4,2.46l2.589,14.974,4.1,23.739.95,5.5a2.017,2.017,0,0,0,2.461,1.4q28.344-8.748,56.693-17.483a2.06,2.06,0,0,0,1.4-2.461q-3.366-19.493-6.742-38.984a2.032,2.032,0,0,0-2.46-1.4l-2.375.511c-2.515.542-1.45,4.4,1.064,3.857l2.374-.511-2.46-1.4q3.378,19.491,6.742,38.984l1.4-2.461q-28.348,8.735-56.693,17.484l2.46,1.4-2.589-14.975-4.1-23.739-.95-5.494-1.4,2.46q22.68-4.742,45.331-9.625,4.946-1.06,9.889-2.124C193.705,113.894,192.641,110.037,190.126,110.578Z"/><path class="a" d="M146.55,187.312l26.275-8.165q14.96-4.65,29.918-9.3,4.325-1.345,8.649-2.693h-1.064c9.751,2.873,19.589,5.774,29.11,9.343v-3.857q-23.727,8.326-47.463,16.628-7.385,2.577-14.775,5.134c-2.42.832-1.38,4.7,1.064,3.858,17.429-5.991,34.806-12.139,52.2-18.24L240.5,176.5a2.019,2.019,0,0,0,0-3.857c-6.621-2.482-13.424-4.508-20.172-6.611q-2.664-.829-5.331-1.646c-1.27-.388-3.068-1.284-4.4-1.122a27.042,27.042,0,0,0-4.493,1.353q-20.415,6.354-40.833,12.695l-19.781,6.147c-2.45.762-1.405,4.624,1.063,3.857Z"/><path class="a" d="M129.281,147.016c-2.064,8.219-4.5,16.34-6.589,24.555-.634,2.5,3.223,3.56,3.857,1.063,2.085-8.215,4.525-16.335,6.589-24.555.627-2.5-3.229-3.562-3.857-1.063Z"/><path class="a" d="M151.321,273.638c.013-14.2.1-28.41.152-42.615.008-2.192.021-4.385.019-6.577l-1.469,1.928q45.809-17.173,91.349-35.05,12.945-5.081,25.869-10.218a2.062,2.062,0,0,0,1.4-2.46,2.015,2.015,0,0,0-2.461-1.4q-45.462,18.071-91.2,35.448-13,4.938-26.022,9.82a2.072,2.072,0,0,0-1.468,1.929c.017,13.368-.1,26.738-.146,40.106q-.017,4.543-.025,9.086c0,2.574,4,2.578,4,0Z"/><path class="a" d="M121.082,214.09l18.289,7.525a2.012,2.012,0,0,0,2.46-1.4,2.051,2.051,0,0,0-1.4-2.46l-18.288-7.525a2.011,2.011,0,0,0-2.46,1.4,2.049,2.049,0,0,0,1.4,2.46Z"/><path class="a" d="M176.6,194.794l-29.89-9.575c-2.458-.787-3.51,3.074-1.064,3.857l29.89,9.575c2.457.788,3.509-3.073,1.064-3.857Z"/><path class="b" d="M9.4,441.737a7.235,7.235,0,0,1,7.378,7.334c0,4.577-2.854,7.471-7.379,7.471-4.63,0-7.379-2.894-7.379-7.471A7.23,7.23,0,0,1,9.4,441.737Z"/><path class="b" d="M74.4,448.756a7.235,7.235,0,0,1,7.379,7.333c0,4.578-2.854,7.471-7.379,7.471-4.63,0-7.379-2.893-7.379-7.471A7.228,7.228,0,0,1,74.4,448.756Z"/><path class="c" d="M9.4,443.737c.215,0,.428.016.644.025.626.027-.308-.089.293.037a8.859,8.859,0,0,1,.974.25c.018.006.611.244.25.083.117.052.233.11.347.169q.254.132.5.285c.065.041.638.479.357.241a7.489,7.489,0,0,1,.677.644c-.022-.024.373.438.2.225s.19.274.173.248a8.175,8.175,0,0,1,.507.893c.154.313-.137-.431.055.127.083.239.164.477.228.722a6.417,6.417,0,0,1-.13,3.527c-.052.172-.113.339-.174.507.027-.075.167-.333,0,0-.155.307-.33.592-.5.888-.04.068-.225.309.016,0-.1.13-.212.255-.325.376-.094.1-.192.2-.293.292-.071.066-.537.427-.17.164a7.068,7.068,0,0,1-.709.45c-.15.082-.3.158-.46.229.413-.19-.117.036-.174.055a7.8,7.8,0,0,1-.875.239c-.04.009-.648.113-.214.053-.193.027-.391.041-.585.053a10.447,10.447,0,0,1-1.226,0c-.134-.008-.267-.02-.4-.032-.614-.052.348.1-.236-.037-.3-.071-.6-.129-.9-.221-.171-.053-.338-.112-.505-.176.408.157-.148-.08-.229-.123a6.666,6.666,0,0,1-.783-.49c.351.255-.262-.254-.342-.336-.116-.119-.223-.243-.331-.368.25.287.06.086.011.01a9.221,9.221,0,0,1-.588-1.026c.182.378-.131-.386-.168-.512-.088-.3-.147-.6-.212-.9-.126-.586.009.379-.033-.233-.013-.2-.032-.4-.039-.6a8.87,8.87,0,0,1,.032-1.2c-.035.366.008-.047.028-.139.048-.219.094-.437.156-.652.053-.183.116-.361.178-.54.18-.519-.171.264.1-.212a9.928,9.928,0,0,1,.628-1.037c.2-.274-.309.307.094-.105.174-.178.337-.364.52-.534.092-.085.186-.166.282-.247-.283.238.293-.2.358-.238.135-.085.272-.164.412-.239.067-.036.643-.294.312-.162a5.4,5.4,0,0,1,2.275-.442c2.571-.033,2.579-4.033,0-4A9.368,9.368,0,0,0,.386,446.43c-1.026,3.56,0,7.9,2.99,10.212a10.459,10.459,0,0,0,10.881.747c3.3-1.754,4.875-5.681,4.458-9.293A9.362,9.362,0,0,0,9.4,439.737C6.824,439.7,6.822,443.7,9.4,443.737Z"/><path class="c" d="M74.4,450.756c.216,0,.429.016.644.025.627.027-.308-.089.294.037a8.842,8.842,0,0,1,.973.25c.019.006.612.244.251.083.117.052.233.109.347.169.169.088.335.183.5.285.066.041.639.479.358.241a7.482,7.482,0,0,1,.677.644c-.022-.024.373.437.2.224s.19.274.173.249a7.932,7.932,0,0,1,.507.892c.155.314-.137-.431.056.128.082.239.164.477.228.722a6.427,6.427,0,0,1-.131,3.527c-.052.171-.112.339-.174.507.028-.076.168-.333,0,.005-.156.306-.331.592-.5.888-.039.067-.225.308.017,0-.1.131-.212.256-.325.377-.095.1-.193.2-.293.292-.071.066-.537.427-.17.163a6.9,6.9,0,0,1-.709.451c-.151.082-.3.157-.46.229.413-.19-.117.035-.174.055a7.863,7.863,0,0,1-.875.239c-.041.008-.648.113-.214.052-.194.027-.391.042-.586.053a10.234,10.234,0,0,1-1.226,0c-.133-.007-.266-.02-.4-.031-.613-.052.349.1-.235-.038-.3-.07-.6-.129-.9-.22-.17-.053-.338-.113-.5-.176.407.156-.148-.081-.229-.123a6.544,6.544,0,0,1-.783-.491c.351.255-.263-.254-.343-.336-.115-.118-.222-.243-.331-.367.25.287.061.085.012.009a9.207,9.207,0,0,1-.588-1.025c.182.378-.131-.386-.169-.512-.088-.3-.146-.6-.211-.9-.127-.586.009.38-.033-.233-.014-.2-.032-.4-.04-.6a8.89,8.89,0,0,1,.033-1.2c-.036.366.008-.047.028-.139.048-.219.094-.436.156-.651.052-.183.116-.361.178-.54.18-.519-.172.263.1-.213a10.14,10.14,0,0,1,.628-1.037c.2-.274-.309.308.093-.1.175-.179.337-.365.521-.534.091-.085.186-.167.281-.247-.283.238.294-.2.359-.239.134-.084.272-.163.412-.238.067-.036.643-.294.311-.163a5.4,5.4,0,0,1,2.275-.441c2.572-.033,2.579-4.033,0-4a9.367,9.367,0,0,0-9.013,6.692c-1.025,3.561,0,7.9,2.99,10.213a10.461,10.461,0,0,0,10.881.746c3.3-1.753,4.875-5.68,4.459-9.293a9.362,9.362,0,0,0-9.317-8.358C71.827,446.723,71.826,450.723,74.4,450.756Z"/><path class="b" d="M85.553,420.259c-7.261-4.3-17.365-8.986-23.027-9.935,0-7.218.019-19.372.029-29.847H50.906c-.01,10.533-.03,22.973-.032,30.586A116.629,116.629,0,0,0,8.461,432.718c-2.866,2.26-5.96,5.11-4.541,8.034.253.519,3.93,3.5,6.9,3.539,14.179-9,25.006-15.635,42.592-20.361,4.906,6.4,11.107,16.036,17.241,25.5a3.505,3.505,0,0,0,3.584,1.036c1.289-.33,2.6-.6,3.837-.887a1.722,1.722,0,0,0,1.206-2.318c-1.562-3.887-3.876-8.869-5.43-11.843a86.2,86.2,0,0,0-8.686-13.963c4.76,1,13.325,5.331,17.252,7.953Z"/><path class="b" d="M81.942,409.532a7.054,7.054,0,0,1-3.141-.868c-3.085-1.843-3.209-6.186-2.961-9.771.628-9.086,1.313-15.847,1.317-21.208,7.72-1.743,16.054-4.441,19.787-7.241l.322-.241c-.056,13.379-.061,32.432.216,39.345l-.547,0c-4.852.036-8.089-.014-12.94.023C83.317,409.581,82.624,409.583,81.942,409.532Z"/><path class="b" d="M96.944,370.444c-5.226,3.92-19.466,7.638-28.42,8.82C58,380.653,39.778,382.422,22.3,375.344c-6.354-2.573-12.669-8.685-14.667-15.273a21.257,21.257,0,0,1-.7-10.415,14,14,0,0,1,5.495-8.7S29.107,330.9,75.773,330.23,96.944,370.444,96.944,370.444Z"/><path class="b" d="M117.1,435.316a99.455,99.455,0,0,1-12.918-1.585c-2.166-.411-4.423-.946-6.062-2.42-2.193-1.97-1.786-8.311,1.146-13.338,0,0,1.157-2.966,2.34-5.994a77.677,77.677,0,0,0,22.361-3.349c2.51,1.637,4.959,3.239,4.959,3.239,4.507,2.832,7.056,4.165,11.183,6.523,2.2,1.257,4.994,4.864,5.393,6.912.519,2.664.55,4.477-.628,5.969-1.931,2.446-6.264,2.987-9.354,3.386A99.575,99.575,0,0,1,117.1,435.316Z"/><path class="b" d="M107.2,310,103.26,307.4q-.575-.318-1.137-.633a87.758,87.758,0,0,1-12.368,8.34,81.347,81.347,0,0,1-10.38,4.031c-19.892,7.053-41.845,4.611-62.294-1.026a14.5,14.5,0,0,1-5.519-2.854l-.531,6.624c0,9.9.309,17.295,7.691,23.436a33.057,33.057,0,0,0,9.337,5.447,89.059,89.059,0,0,0,28.182,5.067A103.565,103.565,0,0,0,89,351.011c2.448-.793,6.144-1.872,8.409-2.573.027.881.047,1.474.047,1.474.079,2.238-.081,5.04-.1,6.656-.068,4.783-.3,43.7.147,53.421a2.137,2.137,0,0,0,.468,1.5,2.076,2.076,0,0,0,1.334.409c8.426.5,21.823-1.407,30.411-5.491,3.351-18.013,6.755-47.454,7.854-65.558a51.371,51.371,0,0,0-.341-12.63l-1.288-8.539c-2.576-2.47-5.555-6.07-6.165-6.407l-1.358-.75a46.34,46.34,0,0,1-9.239-1.41,46.308,46.308,0,0,1-8.094-3.914c-.709,1.361-1.444,2.673-2.21,3.908Z"/><path class="b" d="M128.914,292.137l-10.471-1.94c-2.108,5.265-4.513,11.535-7.363,17.011a46.777,46.777,0,0,0,8.1,3.909,46.34,46.34,0,0,0,9.239,1.41l1.358.75c.884.488,6.752,7.84,9.147,8.657,2.274.139,3.267-.055,4.465-2.178s.56-3.8.188-6.2a62.038,62.038,0,0,0-3.715-13.548,13.276,13.276,0,0,0-2.683-4.575c-2.1-2.094-5.2-2.73-8.114-3.27Z"/><path class="b" d="M75.764,203.448l2.031-6.615a29.276,29.276,0,0,1,2.484-5.279,30.629,30.629,0,0,0,17.067-3.625,11.207,11.207,0,0,0,4.247-3.677,19.047,19.047,0,0,0,2.286-4.828,20.779,20.779,0,0,0,.822-7.462l-.122-10.361c-.016-1.359.675-3.593.329-4.907-.864-3.275-4.314-4.829-5.851-7.846a30.842,30.842,0,0,1-1.863-5.338c-.5-1.685-.943-3.284-1.435-4.842a25.13,25.13,0,0,0-14.545,8.059c-2.739,2.846-3.6,8.128-5.777,9.443,0,0-.435.263-1.02.614a7.212,7.212,0,0,0-3.7-1.663c-3.1-.46-4.659.666-5.365,1.363-2.107,2.085-2.816,6.485-2.162,9.406a14.024,14.024,0,0,0,4.025,7.638,9.6,9.6,0,0,0,3.973,2.2c-2.375,5.226-10.2,12.354-15.246,15.413a16.449,16.449,0,0,1-9.876,2.522,11.841,11.841,0,0,1,3.87,5.395,11.71,11.71,0,0,1,.394,3.217Z"/><path class="d" d="M71.341,116.163c-.363-.076-.732-.15-1.106-.219a45.866,45.866,0,0,0-20.321.905c-6.478,1.925-16.807,6.127-23.985,21.709a41.717,41.717,0,0,0-3.348,22.157A42.307,42.307,0,0,0,38.709,188.1c2.051,1.6,4.979,3.445,7.357,5.558l.14,0a16.366,16.366,0,0,0,9.736-2.524c5.043-3.059,12.871-10.187,15.246-15.413a9.6,9.6,0,0,1-3.973-2.2,14.024,14.024,0,0,1-4.025-7.638c-.654-2.921.055-7.321,2.162-9.406.706-.7,2.264-1.823,5.365-1.363a7.212,7.212,0,0,1,3.7,1.663c.585-.351,1.02-.614,1.02-.614,2.181-1.315,3.038-6.6,5.777-9.443a25.136,25.136,0,0,1,14.545-8.06,36.766,36.766,0,0,0-2.453-6.1C88.244,123.846,82.284,118.472,71.341,116.163Z"/><path class="c" d="M91.58,133.577c2.48,4.844,3.148,10.292,5.279,15.254a17.922,17.922,0,0,0,4.082,5.379,8.888,8.888,0,0,1,1.747,2.228,4.068,4.068,0,0,1,.2,2.518c-.789,5.635.284,11.364-.277,17.016a15.926,15.926,0,0,1-2.5,6.92,11.6,11.6,0,0,1-4.954,3.911,29.477,29.477,0,0,1-15.986,2.647,2.014,2.014,0,0,0-2,2,2.044,2.044,0,0,0,2,2,32.894,32.894,0,0,0,16.2-2.386,19.2,19.2,0,0,0,6.333-3.837,18.272,18.272,0,0,0,3.954-6.871,24.577,24.577,0,0,0,1.035-8.887c-.038-3.284-.183-6.585-.116-9.868.051-2.46.837-4.51-.29-6.881-1.012-2.128-2.909-3.582-4.434-5.313-2.008-2.279-2.53-5.727-3.355-8.561a51.928,51.928,0,0,0-3.467-9.288c-1.173-2.292-4.626-.27-3.453,2.019Z"/><path class="c" d="M78.557,190.531a31.661,31.661,0,0,0-2.691,5.77c-.695,2.2-1.354,4.411-2.031,6.615a2.02,2.02,0,0,0,1.4,2.461,2.042,2.042,0,0,0,2.46-1.4q.983-3.2,1.964-6.395c.127-.41.269-.809.418-1.211.087-.215.091-.228.012-.041.05-.118.1-.236.155-.353q.123-.273.251-.541c.469-.983.989-1.939,1.518-2.889a2,2,0,0,0-3.453-2.019Z"/><path class="c" d="M68.974,175.681c-2.348,4.16-6.04,7.622-9.7,10.621a33.231,33.231,0,0,1-5.5,3.768,15.581,15.581,0,0,1-7.57,1.594c-2.574-.013-2.577,3.987,0,4a20.1,20.1,0,0,0,8.661-1.685,32.961,32.961,0,0,0,6.675-4.4c4.138-3.3,8.263-7.233,10.886-11.882,1.267-2.245-2.187-4.263-3.454-2.019Z"/><path class="c" d="M76.213,155.752a9.686,9.686,0,0,0-8.771-2.54,7.341,7.341,0,0,0-5.1,4.138,15.562,15.562,0,0,0,1.878,15.79,11.965,11.965,0,0,0,8.967,4.9c2.571.152,2.562-3.849,0-4-5.249-.308-8.4-6.083-8.219-10.924a10.168,10.168,0,0,1,.755-3.589,5.868,5.868,0,0,1,.7-1.246,4.869,4.869,0,0,1,.542-.561c.339-.318-.349.2.1-.077a4.472,4.472,0,0,1,2.912-.6,5.225,5.225,0,0,1,3.411,1.542c1.785,1.862,4.611-.969,2.828-2.828Z"/><path class="c" d="M98.289,150.427c.772,1.473,1.332,5.129-1.131,5.992-3.353.712-4.533-3.6-3.876-5.89C93.819,148.652,96.372,147.36,98.289,150.427Z"/><path class="c" d="M102.532,169.371l-.211.091.478-.2a8.415,8.415,0,0,1-2.106.6l.531-.071a6.847,6.847,0,0,1-1.606,0,2,2,0,0,0-1.414.586,2,2,0,0,0,0,2.829l.405.312a1.987,1.987,0,0,0,1.009.273,6.861,6.861,0,0,0,1.582,0,10.476,10.476,0,0,0,1.574-.287,13.827,13.827,0,0,0,1.777-.678,2.006,2.006,0,0,0,.919-1.2,2.048,2.048,0,0,0-.2-1.541,2.017,2.017,0,0,0-1.2-.919l-.532-.071a1.987,1.987,0,0,0-1.009.273Z"/><path class="c" d="M93.205,137.169a27.9,27.9,0,0,0-12.685,7.412,18.433,18.433,0,0,0-3.77,5.634c-.429.939-.831,1.894-1.317,2.806a9.614,9.614,0,0,1-.635,1.053c.213-.3-.094.1-.145.162-.078.082-.159.161-.244.235q.292-.212.019-.028c-2.153,1.395-.15,4.859,2.019,3.454,1.662-1.077,2.5-2.9,3.3-4.641a18.115,18.115,0,0,1,3.065-5.3,24.3,24.3,0,0,1,11.462-6.931c2.49-.645,1.434-4.5-1.064-3.857Z"/><path class="c" d="M95.033,131.558a38.326,38.326,0,0,0-9.722-11.5,34.1,34.1,0,0,0-14.154-5.968c-10.081-1.964-21.11-.763-30.158,4.275-9.351,5.206-16.067,14.917-19,25.083a42.426,42.426,0,0,0,5.546,35.61,46.651,46.651,0,0,0,9.865,10.551c2.336,1.821,4.869,3.387,7.1,5.343,2.327,2.043,3.832,4.12,3.818,7.322-.012,2.574,3.988,2.577,4,0a11.807,11.807,0,0,0-2.575-7.654,29.666,29.666,0,0,0-5.973-5.288,59.33,59.33,0,0,1-9.2-7.784,38.712,38.712,0,0,1-10.1-30.163c1.112-10.435,6.669-21.278,15.281-27.5,7.218-5.211,16.272-7.134,25.216-6.582a34.6,34.6,0,0,1,16.536,4.958c4.342,2.791,7.492,6.906,10.066,11.312,1.3,2.221,4.756.21,3.453-2.019Z"/><path class="e" d="M48.463,200.947c6.476-.842,17.359.335,22.749,2.243,7.709,2.57,15.131,7,19.727,13.639A54.79,54.79,0,0,1,97,235.422c.81,5.457,2.123,11.76,3.1,17.64a68.363,68.363,0,0,0,3.866,14.808c1.424,3.418,11.151,13.278,16.282,17.956-3.01,6.964-6.618,17.606-11.377,25.285L89.755,315.1a81.347,81.347,0,0,1-10.38,4.031c-19.892,7.053-41.845,4.611-62.294-1.026-3-.828-7.317-3.114-7.344-6.23a367.107,367.107,0,0,1,2.819-40.089,323.859,323.859,0,0,1,9.364-41.16c4.114-13.1,13.938-27,24.881-29.4C47.313,201.118,47.869,201.024,48.463,200.947Z"/><path class="b" d="M45.04,200.708c-.132.358-.283.745-.464,1.171a17.37,17.37,0,0,1,2.225-.649c6.1-1.334,18.527-.123,24.411,1.96A44.23,44.23,0,0,1,85,210.507c-2.42-8.218-10.3-12.089-17.961-14.18a53.423,53.423,0,0,0-17.4-2,2.687,2.687,0,0,0-2.7,1.73A23.821,23.821,0,0,0,45.04,200.708Z"/><path class="b" d="M211.768,82.158a4.46,4.46,0,0,0-1.622.7,4.672,4.672,0,0,0-1.83,4.749,2.707,2.707,0,0,0-2.028,2.936,7.87,7.87,0,0,0,1.506,3.586,4.285,4.285,0,0,0-.958,4.425,11.069,11.069,0,0,0,2.582,3.983,67.046,67.046,0,0,0,27.4,17.808c1.351,2.294,2.739,4.633,4.179,6.978L253.9,116.347q-.781-.907-1.571-1.851c2.41-7.656-.53-15.057-2.89-21.559L247.36,87.2c-.517-1.423-1.2-3.014-2.628-3.509-1.627-.563-3.428.7-4.076,2.3a10.282,10.282,0,0,0-.247,5.1l.516,4.284-3.063-1.656a70.68,70.68,0,0,1-12.2-8.882,15.527,15.527,0,0,0-4.955-3.527c-1.926-.679-4.41-.291-5.469,1.455A4.659,4.659,0,0,0,211.768,82.158Z"/><path class="c" d="M243.134,97.111c-.276-2.292-.595-4.584-.824-6.882-.138-1.39-.439-3.839,1.175-4.557,1.345-.6,1.964,2.11,2.266,2.942q1.131,3.117,2.264,6.233c1.428,3.925,2.9,7.973,3.167,12.176a21.43,21.43,0,0,1-.641,6.482c-.349,1.467.1,2.078,1.011,3.159.827.977,1.667,1.942,2.509,2.905,1.7,1.941,4.518-.9,2.828-2.829-1.058-1.21-2.11-2.426-3.143-3.659l.514,1.946c2.247-7.459-.04-14.8-2.6-21.837q-.987-2.709-1.968-5.419a13.241,13.241,0,0,0-2.3-4.637c-2.459-2.684-6.543-1.57-8.224,1.381a9.764,9.764,0,0,0-.826,5.93c.24,2.225.532,4.445.8,6.666a2.063,2.063,0,0,0,2,2,2.012,2.012,0,0,0,2-2Z"/><path class="c" d="M238.872,91.991a82.032,82.032,0,0,1-13.019-9.671c-1.854-1.631-3.9-3.063-6.422-3.295a6.323,6.323,0,0,0-5.924,2.729l2.737-.717a6.563,6.563,0,0,0-9.856,7.1l1.4-2.46a4.556,4.556,0,0,0-3.394,3.672c-.4,2.118.58,4.045,1.676,5.788l.313-2.424c-2.967,2.931-1.7,7.134.584,10.015a50.769,50.769,0,0,0,8.425,8.084,68.772,68.772,0,0,0,20.895,11.459l-1.195-.919c1.774,3.01,3.563,6.009,5.415,8.971,1.362,2.178,4.825.172,3.454-2.019q-2.031-3.249-3.982-6.547a14.228,14.228,0,0,0-1.746-2.828c-.736-.736-2.195-.953-3.153-1.314a62.54,62.54,0,0,1-11.155-5.634,64.537,64.537,0,0,1-9.981-7.684,36.53,36.53,0,0,1-4.079-4.311c-.906-1.193-1.958-3.156-.654-4.445a2.03,2.03,0,0,0,.313-2.423c-.5-.791-2.084-3.283-.673-3.584a2.042,2.042,0,0,0,1.4-2.46,2.592,2.592,0,0,1,3.98-2.581,2.044,2.044,0,0,0,2.736-.718c.83-1.228,2.761-.808,3.842-.241,1.815.953,3.238,2.573,4.774,3.9a74.606,74.606,0,0,0,11.276,8.017c2.231,1.293,4.248-2.162,2.019-3.454Z"/><path class="c" d="M232.7,95.249l-6.415,7.929a2.165,2.165,0,0,0-.585,1.414,2,2,0,0,0,3.414,1.414l6.415-7.929a2.159,2.159,0,0,0,.586-1.414,2,2,0,0,0-3.415-1.414Z"/><path class="c" d="M232.872,95.935c-2.89-2.5-5.927-4.84-8.755-7.416a2,2,0,1,0-2.828,2.828c2.828,2.577,5.865,4.911,8.755,7.417a2,2,0,1,0,2.828-2.829Z"/><path class="c" d="M229.35,101.064q-8.562-6.8-17.305-13.368a2.014,2.014,0,0,0-2.737.718,2.049,2.049,0,0,0,.718,2.736q8.334,6.259,16.495,12.743a2.064,2.064,0,0,0,2.829,0,2.015,2.015,0,0,0,0-2.829Z"/><path class="b" d="M316.947,352.376a7.352,7.352,0,0,0-8.817,5.83c-.915,4.56,1.35,8.013,5.857,8.918,4.613.925,7.93-1.408,8.845-5.968A7.345,7.345,0,0,0,316.947,352.376Z"/><path class="b" d="M388.036,350.381a7.352,7.352,0,0,0-7.5,7.445c0,4.651,2.894,7.593,7.492,7.6,4.7,0,7.5-2.934,7.5-7.585A7.345,7.345,0,0,0,388.036,350.381Z"/><path class="c" d="M317.478,350.447a9.486,9.486,0,0,0-10.362,4.717,9.945,9.945,0,0,0,.948,10.892,10.573,10.573,0,0,0,10.512,2.9c3.827-1.142,6.012-4.765,6.373-8.591a9.417,9.417,0,0,0-7.471-9.917,2.048,2.048,0,0,0-2.46,1.4,2.022,2.022,0,0,0,1.4,2.461,5.52,5.52,0,0,1,3.415,1.953c.039.042.226.3.04.043q.168.231.316.474a6.4,6.4,0,0,1,.438.837c-.161-.378.06.2.07.23.048.151.092.3.131.457s.068.311.1.466c.039.239.044.252.013.039.014.128.025.257.032.385.019.328,0,.651-.007.978-.01.6.086-.339-.026.26-.025.135-.051.269-.08.4a10.272,10.272,0,0,1-.328,1.168c-.042.122-.087.244-.134.364.139-.352-.155.311-.189.375-.141.267-.306.514-.465.769-.29.464.254-.25-.111.147-.116.126-.226.256-.347.377s-.7.582-.362.343c-.279.194-.567.351-.86.52-.458.266.363-.1-.144.068-.108.036-.215.077-.325.111a6.7,6.7,0,0,1-1.029.236c.386-.056.065-.012-.012-.01-.188,0-.375.023-.563.025a8.442,8.442,0,0,1-1.179-.068c.395.052-.289-.06-.293-.061-.2-.04-.4-.086-.6-.139-.318-.084-.628-.188-.937-.3-.557-.2.293.18-.215-.1-.107-.058-.218-.109-.326-.168q-.237-.129-.464-.276c-.1-.063-.2-.13-.292-.2.149.12.168.136.059.047a6.715,6.715,0,0,1-.683-.645s-.351-.418-.169-.186-.141-.21-.139-.207c-.155-.236-.282-.484-.414-.733-.251-.471.093.364-.061-.152-.067-.223-.144-.44-.2-.666-.029-.114-.047-.232-.076-.346-.14-.547.009.39-.033-.184-.023-.313-.042-.624-.037-.939q0-.293.028-.585c0-.017.088-.66.025-.271a8.7,8.7,0,0,1,.271-1.183,5.5,5.5,0,0,1,2.278-2.96c.108-.066.218-.13.329-.19.068-.037.734-.325.393-.2a7.549,7.549,0,0,1,1.123-.325c.03-.006.659-.078.259-.046.2-.016.407-.03.612-.033s.418,0,.626.017c.142.01.284.023.425.04-.175-.017-.136-.007.115.033a2.055,2.055,0,0,0,2.46-1.4A2.019,2.019,0,0,0,317.478,350.447Z"/><path class="c" d="M388.036,348.381a9.489,9.489,0,0,0-9.132,6.78A9.86,9.86,0,0,0,381.97,365.5a10.6,10.6,0,0,0,11.022.763c3.347-1.773,4.892-5.771,4.473-9.417a9.475,9.475,0,0,0-9.429-8.461c-2.575-.035-2.577,3.965,0,4,.218,0,.434.016.652.026.632.029-.3-.088.3.039a8.883,8.883,0,0,1,.988.252c.012,0,.615.243.261.087.119.052.237.111.352.171.172.089.34.186.5.288.064.041.641.476.37.249a7.448,7.448,0,0,1,.688.653c-.025-.027.378.441.21.231s.2.284.179.255a7.966,7.966,0,0,1,.515.908c.157.317-.136-.43.061.138.084.243.167.485.232.735a6.681,6.681,0,0,1-.124,3.61c-.052.174-.114.344-.173.515-.026.077-.161.342,0,.013a7.565,7.565,0,0,1-.5.9c-.062.093-.127.186-.195.276.275-.365-.072.064-.116.112-.095.1-.193.2-.295.3-.068.065-.535.432-.175.171a6.732,6.732,0,0,1-.72.457c-.152.083-.309.161-.468.232.407-.183-.138.042-.188.059a8.187,8.187,0,0,1-.9.242c-.031.006-.653.108-.237.054-.2.026-.4.041-.606.053a10.36,10.36,0,0,1-1.246,0c-.133-.008-.266-.02-.4-.032-.61-.054.346.1-.236-.04-.3-.073-.6-.132-.9-.225q-.258-.081-.509-.179c.4.157-.161-.088-.239-.129a6.994,6.994,0,0,1-.8-.5c.337.244-.279-.265-.359-.347s-.57-.715-.338-.371a9.337,9.337,0,0,1-.607-1.042c-.036-.071-.13-.349-.007-.013-.062-.171-.123-.341-.176-.515-.092-.3-.152-.607-.221-.913-.133-.591.01.372-.037-.246-.016-.2-.033-.405-.041-.609a8.929,8.929,0,0,1,.033-1.213c-.036.36.01-.057.03-.147.049-.221.095-.441.158-.659.054-.185.118-.366.181-.548.183-.523-.169.259.1-.222a9.888,9.888,0,0,1,.637-1.053c.2-.278-.308.307.1-.114.177-.182.342-.371.529-.543.093-.086.189-.17.286-.251-.27.227.306-.209.37-.25.137-.086.277-.166.419-.243.065-.035.641-.3.325-.169a5.517,5.517,0,0,1,2.327-.451C390.608,352.35,390.615,348.35,388.036,348.381Z"/><path class="b" d="M309.755,334.5c4.4-1.907,12.376-4.286,17.385-4.718-2.288,2.326-3.209,3.6-7.561,9.059a97.532,97.532,0,0,0-7.456,10.973,1.779,1.779,0,0,0,.739,2.551c1.175.532,2.427,1.064,3.644,1.651,1.125.543,2.93.6,3.778-.316,7.82-8.471,14.462-15.509,21.328-21.109,18.066,4.825,29.11,11.6,43.6,20.818,3.013-.04,6.751-3.062,7.008-3.59,1.445-2.969-1.7-5.868-4.607-8.167A118.471,118.471,0,0,0,345.1,319.769c0-6.837.147-39.878.167-47.984l-13.074-.416v5.1c0,7.905.02,34.949.01,42.569-6.006.19-16.282,2.907-23.925,5.736l.582,3.827Z"/><path class="b" d="M308.118,277.618c4.232,1.511,12.558,1.553,17.931.377a76.626,76.626,0,0,0,10.916-3.105c6.942-2.612,14.846-5.527,21.744-8.256,10.475-4.144,17.344-6.772,22.835-17.126,4.242-8,5.449-20.25,6.681-29.1,2.267-16.279,3.879-32.662,5.138-49.047.815-10.619,1.106-16.129.966-21.026-.141-4.947-3.358-13.32-11.936-16.179l-22.953-6.7-64.333,144Z"/><path class="b" d="M216.074,372.005c4.466,2.071,9.974,1.45,15.089-1.142,5.427-2.751,11.511-6.829,16.422-9.491,5.586-3.471,15.282-9.575,10.508-17.521l-2.484-6.918a27.547,27.547,0,0,1-16.836-.105,11.549,11.549,0,0,1-1.738-.716c-2.741,4.759-7.382,8.287-12.164,11.157-8.243,4.948-13.223,10.371-13.965,16.9-.42,3.692,2.222,6.421,5.008,7.761Z"/><path class="b" d="M252.359,391.276c-4.268-1.692-6.8-6.2-5.892-10.2,3.056-13.376,19.927-17.52,23.9-30.533,2.759,1.7,6.955,1.994,10.063,1.7a49.651,49.651,0,0,0,11.275-2.424l.249-.086,1.941,2.847c13.049,16.314-6.291,22.513-15.712,32.741-6.236,6.544-15.863,8.4-24.457,6.391A9.746,9.746,0,0,1,252.359,391.276Z"/><path class="f" d="M244.4,222.627c20.965-7.747,35.205-12.112,49.272-15.136-.587,7.549-.644,15.4.607,21.1,1.31,5.97,6.663,18.574,10.072,23.542,1.643,2.405,5,8.816,8.678,14.179l-.464.193a62.431,62.431,0,0,0-6.9,3.307c-2.847,1.546-5.46,4.193-5.472,7.432-.082,21.736-.406,47.262-2.535,68.392a2.691,2.691,0,0,1-1.14,1.77,21.1,21.1,0,0,1-4.81,2.4,49.651,49.651,0,0,1-11.275,2.424c-3.628.347-8.739-.11-11.327-2.677-2.614-2.593-2.767-6.68-2.887-10.361-.627-19.129-2.478-59.309-2.805-79.672l-.09-5.652.056,9.705c.1,17.693.18,50.582.283,68.276l-6.682,4.61a27.562,27.562,0,0,1-18.208.363,7.4,7.4,0,0,1-3.048-1.676,8.382,8.382,0,0,1-1.734-4.6c-3.421-21.805-4.263-43.934-5.106-65.993a154.052,154.052,0,0,1,.166-16.337c.187-2.783.471-5.557.9-8.32a22.893,22.893,0,0,1,4.939-10.026,31.712,31.712,0,0,1,7.928-6.477"/><path class="b" d="M346.267,31.946c-5.184-6.15-15.4-11.716-35.383-11.716-24.238,0-18.776,26.1-18.776,26.1.636,4.688,1.065,9.381,1.555,13.7.849,7.486,3.157,14.252,8.421,18.528a25.733,25.733,0,0,0,8.4,4.685c-.717,4.1-1.215,7.743-1.549,11.182-.167,1.719-.261,4.069-.3,6.786,2.625-2.059,4.849-3.806,4.849-3.806.735-.5,2.011-1.4,3.075-2.19.695,1.2,3,4.7,3.863,5.936,3.569-2.344,6.237-4.059,10.239-6.672l8.711-4.207q1.76-3.2,3.367-6.305a4.668,4.668,0,0,1-1.022-2.771c-.03-1.24-.06-4.07-.08-6.42a41.927,41.927,0,0,0,4.763-5.979s1.346-2.093,1.914-3.288l.277-.651a9.119,9.119,0,0,0,4.516-1.05,12.448,12.448,0,0,0,4.685-5.555c1.149-2.336,1.654-6.26.608-8.544a4.292,4.292,0,0,0-3.574-2.446,4.751,4.751,0,0,0-3.431.768A21.892,21.892,0,0,0,346.267,31.946Z"/><path class="d" d="M292.389,26.348A34.531,34.531,0,0,0,291.578,30a54.744,54.744,0,0,0,.2,16.293,22.288,22.288,0,0,1,.508-4.518,9.863,9.863,0,0,1,2.411-4.528c.857-.845,1.292-1.345,2.126-2.167a9.919,9.919,0,0,0,1.53-2.151l2.053-3.512a6.8,6.8,0,0,1,1.31-1.763c.074-.03.216-.11.216-.11.063-.036.129-.071.2-.1,2.338-1.168,5.925-.474,8.512.669s4.833,2.705,7.739,3.4a30.168,30.168,0,0,0,5.565.586c2.78.134,5.557.332,8.334.53,1.345.1,3.426.257,4.745.488,4.869.851,4.858,2.36,5.476,4.577.7,2.509.956,4.164,1.456,6.492.293,1.37.5,3.207.826,5.536.18,1.755.64,2.037,1.421,2.008a4.072,4.072,0,0,0,1.392-.551c1.065-.8,2.344-2.144,3.805-3.143a4.751,4.751,0,0,1,3.431-.768,4.292,4.292,0,0,1,3.574,2.446l.766,1.669c2.171-4.271,2.269-11.678,2.42-14.883a29.78,29.78,0,0,0-1.011-9.123c-1.933-7.15-4.973-12.7-11.934-17.433-8.681-6.832-16.523-8.35-24.327-7.836-11.185.736-20.118,5.2-26.039,12.405A33.184,33.184,0,0,0,292.389,26.348Z"/><path class="b" d="M309.718,136.071c-.272-1.942-1.257-22.309-1.077-34.86,2.624-2.059,4.849-3.807,4.849-3.807.735-.5,2.011-1.4,3.075-2.19.695,1.2,3,4.7,3.863,5.936,3.569-2.344,6.237-4.059,10.239-6.672l8.712-4.208A469.5,469.5,0,0,1,310.4,135.756"/><path class="c" d="M339.643,74.775c.018,2.1.021,4.2.077,6.295a7.687,7.687,0,0,0,2.513,5.371c1.343,1.249,2.873,2.34,4.3,3.5a2.057,2.057,0,0,0,2.828,0,2.014,2.014,0,0,0,0-2.828c-1.405-1.145-2.871-2.241-4.227-3.443a4.815,4.815,0,0,1-.432-.448,4.369,4.369,0,0,1-.689-.986c-.034-.063-.233-.572-.093-.164-.071-.207-.121-.414-.178-.625-.125-.461-.007.382-.008-.092,0-.187-.012-.374-.016-.561-.039-2-.054-4.011-.071-6.017a2,2,0,0,0-4,0Z"/><path class="c" d="M311.851,71.965a10.772,10.772,0,0,0,5.17,1.065,10.6,10.6,0,0,0,2.591-.373,19.343,19.343,0,0,0,2.75-1.233,2.01,2.01,0,0,0,.718-2.737,2.055,2.055,0,0,0-2.736-.717c-.366.171-.722.36-1.082.541-.087.043-.174.087-.262.129-.023.011-.445.208-.142.069.254-.117.018-.012-.042.006s-.142.047-.213.068c-.3.092-.612.145-.922.208-.258.052.429-.044.163-.021-.083.007-.166.018-.25.026-.191.016-.382.028-.573.034q-.519.015-1.036-.019c-.172-.011-.343-.029-.514-.046-.279-.029.066-.005.152.02a2.349,2.349,0,0,0-.249-.041,8.464,8.464,0,0,1-1.006-.242c-.146-.045-.288-.108-.434-.15-.226-.065.371.191.174.074-.074-.044-.161-.076-.238-.115a2,2,0,0,0-2.019,3.454Z"/><path class="c" d="M311.084,56.214c-.488.826-.956,1.668-1.369,2.535a4.114,4.114,0,0,0-.493,1.652,2.488,2.488,0,0,0,.829,1.945,3.6,3.6,0,0,0,1.5.852,8.288,8.288,0,0,0,1.077.142l-.532-.072.037.006a1.515,1.515,0,0,0,.8.035,1.486,1.486,0,0,0,.743-.237,2,2,0,0,0,.718-2.736,1.919,1.919,0,0,0-1.195-.919c-.312-.045-.622-.074-.934-.113l.532.071a1.626,1.626,0,0,1-.374-.1l.478.2a1.746,1.746,0,0,1-.312-.183l.405.313a1.907,1.907,0,0,1-.26-.24l.313.405a.477.477,0,0,1-.055-.092l.2.478a.741.741,0,0,1-.04-.152l.072.531a1.012,1.012,0,0,1,0-.165l-.071.532a1.659,1.659,0,0,1,.116-.4l-.2.478a26.187,26.187,0,0,1,1.47-2.75,2.066,2.066,0,0,0,.2-1.541,2,2,0,0,0-2.46-1.4,2.091,2.091,0,0,0-1.195.92Z"/><path class="c" d="M340.344,78.73a41.461,41.461,0,0,0,6.395-6.939,33.791,33.791,0,0,0,3.307-5.273,2,2,0,1,0-3.453-2.019,33.5,33.5,0,0,1-3.193,5.117l-.289.39s-.375.492-.161.215c-.2.259-.4.515-.612.768q-.7.852-1.439,1.663a38.736,38.736,0,0,1-3.383,3.25,2.009,2.009,0,0,0,0,2.828,2.05,2.05,0,0,0,2.828,0Z"/><path class="c" d="M347.188,6.394A35.8,35.8,0,0,0,329.161.072,42.894,42.894,0,0,0,311.5,2.784a35.434,35.434,0,0,0-13.719,9.249,34.747,34.747,0,0,0-7.916,16.28,52.122,52.122,0,0,0,.469,21.009c.545,2.515,4.4,1.451,3.857-1.063-2.316-10.675-1.676-23.525,5.508-32.338,6.606-8.1,16.96-11.878,27.228-11.911a31.975,31.975,0,0,1,18.246,5.838c2.137,1.447,4.141-2.017,2.019-3.454Z"/><path class="c" d="M331.749,78.925c-7.192,3.319-15.728,4.986-23.168,1.428a21.085,21.085,0,0,1-8.75-7.279,28.476,28.476,0,0,1-3.842-10.757c-.9-5.279-1.169-10.677-1.881-15.986a2.066,2.066,0,0,0-2-2c-.969,0-2.144.922-2,2,.707,5.271,1.067,10.589,1.835,15.851a32.99,32.99,0,0,0,4.143,12.448c4.573,7.5,13.5,11.854,22.163,11.713a38.508,38.508,0,0,0,15.519-3.964,2.017,2.017,0,0,0,.717-2.737,2.046,2.046,0,0,0-2.736-.717Z"/><path class="c" d="M352.41,49.757a3.1,3.1,0,0,1,2.949-.317,2.042,2.042,0,0,1,.537.275q.3.208.061.028c.089.076.175.156.257.24s.349.478.09.079c.1.149.194.3.276.453a4.068,4.068,0,0,1,.3.988,8.439,8.439,0,0,1,.1,1.68,11.373,11.373,0,0,1-4.1,8.382,6.329,6.329,0,0,1-5.289,1.091,2.061,2.061,0,0,0-2.737.717,2.017,2.017,0,0,0,.718,2.737,9.646,9.646,0,0,0,7.938-.265,12.442,12.442,0,0,0,5.3-5.2,15.891,15.891,0,0,0,2.149-6.945,8.509,8.509,0,0,0-1.846-6.486,7.077,7.077,0,0,0-8.709-.912,2.048,2.048,0,0,0-.717,2.736,2.019,2.019,0,0,0,2.736.718Z"/><path class="c" d="M335,52.021c1.425-.357,2.828-.806,4.236-1.222a2.089,2.089,0,0,0,1.2-.919,2.044,2.044,0,0,0,.2-1.541,2.022,2.022,0,0,0-.919-1.2,2.052,2.052,0,0,0-1.541-.2c-1.408.416-2.811.865-4.236,1.222A2,2,0,0,0,335,52.021Z"/><path class="c" d="M311.72,53.464l4.9.2a2.014,2.014,0,0,0,2-2,2.043,2.043,0,0,0-2-2l-4.9-.2a2.014,2.014,0,0,0-2,2,2.042,2.042,0,0,0,2,2Z"/><path class="c" d="M350.523,13.9a28.726,28.726,0,0,1,9.006,18.918,56.213,56.213,0,0,1-.228,9.07c-.247,2.971-.615,6.215-2.062,8.872-1.232,2.261,2.221,4.282,3.454,2.019,1.695-3.112,2.217-6.722,2.547-10.2a54.424,54.424,0,0,0,.248-10.215c-.767-7.977-4.126-15.88-10.137-21.288-1.909-1.718-4.747,1.1-2.828,2.828Z"/><path class="c" d="M325.818,55.92A7.621,7.621,0,0,1,323.8,55.6a7.8,7.8,0,0,1-.885-.3c.406.169-.112-.068-.16-.093-.149-.078-.3-.162-.438-.252s-.274-.179-.4-.277c.339.257.05.033-.025-.044-.2-.207-.406-.4-.589-.627.3.372-.146-.254-.212-.371-.079-.138-.146-.281-.219-.422-.191-.368.088.321-.046-.118-.081-.266-.174-.527-.241-.8-.042-.167-.078-.336-.11-.505-.012-.061-.091-.638-.036-.173a9.232,9.232,0,0,1-.061-2.014c-.051.494.1-.277.143-.42.138-.465-.212.3.057-.106.073-.11.138-.231.207-.344.159-.26-.32.323.032-.047.115-.121.224-.245.346-.359.083-.077.169-.152.256-.224-.336.278.247-.149.32-.192a7.809,7.809,0,0,1,3.932-.906,13.726,13.726,0,0,1,2.127.148,11.261,11.261,0,0,1,1.257.3c.13.04.259.082.387.127s.247.09.37.14c-.182-.075-.167-.065.045.032.266.146.525.3.787.452.464.268-.239-.251.146.1.082.076.167.147.248.225.119.115.226.239.338.36-.275-.3-.035-.057.028.047s.145.224.209.342c.052.093.1.189.146.286q-.141-.349-.021-.03c.074.266.151.524.2.8-.089-.456.006.367,0,.5a8.185,8.185,0,0,1-.067.939c.058-.449-.035.145-.045.2-.042.2-.091.407-.148.607-.04.141-.083.28-.131.418-.038.108-.078.216-.121.322q.138-.323,0-.012c-.164.293-.325.579-.508.861-.2.309-.039.047.013-.012-.146.166-.291.33-.45.483-.1.1-.2.186-.31.276s-.084.072.075-.055c-.092.066-.186.13-.281.191q-.217.139-.447.261c-.078.041-.546.256-.167.1a7.025,7.025,0,0,1-1.072.339,9.068,9.068,0,0,1-2.462.168,2,2,0,0,0,0,4c3.739.162,7.6-1.291,9.2-4.9a9.918,9.918,0,0,0,.775-5.745,7,7,0,0,0-2.922-4.369,11.426,11.426,0,0,0-5.7-1.831,13.345,13.345,0,0,0-6.377.864,7.169,7.169,0,0,0-4.046,3.962,9.355,9.355,0,0,0-.063,5.3,8.208,8.208,0,0,0,2.88,4.682,10.985,10.985,0,0,0,6.252,2.04,2,2,0,0,0,0-4Z"/><path class="c" d="M302.168,54.839a7.011,7.011,0,0,1-1.951-.315c-.179-.051-.352-.116-.529-.169-.071-.021-.361-.146-.017,0a8.539,8.539,0,0,1-.954-.52c-.1-.059-.374-.293-.046-.018-.12-.1-.238-.2-.351-.312s-.587-.692-.3-.291a6.169,6.169,0,0,1-.418-.652c-.076-.138-.142-.28-.212-.421.215.435-.03-.091-.066-.2a8.182,8.182,0,0,1-.246-.886c-.024-.108-.147-.94-.1-.511-.036-.341-.062-.681-.074-1.023-.006-.161-.011-.323-.009-.484,0-.125.109-.793,0-.288a6.474,6.474,0,0,1,.21-.763c-.161.461.154-.226.228-.356.239-.423-.275.248.074-.1.1-.1.184-.2.282-.291s.2-.187.31-.274c-.355.288.226-.131.3-.176.1-.06.207-.118.313-.173.033-.017.578-.258.2-.1a7.99,7.99,0,0,1,.932-.3,7.508,7.508,0,0,1,2.308-.284,11.345,11.345,0,0,1,2.017.14,10.4,10.4,0,0,1,1.208.289c.125.038.25.079.373.123s.239.087.357.135q-.288-.118.027.024c.256.144.508.292.762.438.457.261-.25-.257.13.09.1.091.2.179.3.275s.182.2.274.292c.34.358-.171-.332.067.1.05.091.112.176.163.267.062.108.274.7.128.234.08.258.149.511.214.773.124.5.01-.4.014.128,0,.144.013.287.013.431a8.328,8.328,0,0,1-.067,1.023c.049-.392,0,.009-.026.106-.046.2-.084.409-.138.612-.046.169-.1.337-.152.5-.019.056-.236.571-.048.158a6.755,6.755,0,0,1-.475.878c-.041.062-.37.486-.072.125a6.268,6.268,0,0,1-.439.483c-.077.077-.162.146-.239.223-.173.144-.167.143.019,0-.089.066-.18.13-.273.191a6.162,6.162,0,0,1-.9.492c.411-.18-.144.039-.192.055-.177.058-.357.109-.538.154s-.378.082-.569.119c-.581.112.337,0-.275.031-.517.024-1.025.043-1.543.02a2,2,0,0,0,0,4c3.858.167,7.562-1.446,9.121-5.145,1.471-3.489.965-7.545-2.2-9.872a11.093,11.093,0,0,0-5.6-1.828,12.938,12.938,0,0,0-6.4.943,7,7,0,0,0-3.686,3.609,9.308,9.308,0,0,0-.2,5.5,8.163,8.163,0,0,0,2.7,4.656,10.658,10.658,0,0,0,6.263,2.141,2,2,0,0,0,0-4Z"/><path class="c" d="M342.755,49.4A5.351,5.351,0,0,0,343.9,52.86a3.19,3.19,0,0,0,3.125.733,5.868,5.868,0,0,0,1.489-.635,12.271,12.271,0,0,0,1.468-1.18c.419-.366.831-.74,1.253-1.1.237-.2.479-.4.722-.6q.247-.2-.125.095c.062-.048.126-.1.189-.142.127-.094.256-.185.385-.274a2.142,2.142,0,0,0,.919-1.2,2,2,0,0,0-2.938-2.258,29.086,29.086,0,0,0-2.748,2.218c-.338.3-.676.6-1.024.89-.085.071-.172.14-.258.209-.175.14.439-.268.138-.116-.157.079-.309.164-.47.235l.477-.2a3.311,3.311,0,0,1-.786.254l.531-.071a2.022,2.022,0,0,1-.373-.007l.532.071a1.155,1.155,0,0,1-.284-.075l.477.2c-.048-.022-.1-.062-.144-.08.4.149.431.368.258.184.4.423.215.329.08.029l.2.478a4.339,4.339,0,0,1-.259-1.091l.071.532c-.023-.187-.041-.374-.056-.561a2.14,2.14,0,0,0-.586-1.414,2,2,0,0,0-3.414,1.414Z"/><path class="c" d="M302.943,29.266c2.94-1.56,6.922.627,9.509,1.96a23.787,23.787,0,0,0,5.622,2.26,39.639,39.639,0,0,0,6.608.644,102.9,102.9,0,0,1,11.811.909c1.159.2,2.723.515,3.386,1.194.034.034.271.481.247.414.151.416.251.848.366,1.275a98.193,98.193,0,0,1,2.334,12.126,2.014,2.014,0,0,0,2.461,1.4,2.055,2.055,0,0,0,1.4-2.46A96.482,96.482,0,0,0,344.4,37.056a9.594,9.594,0,0,0-1.094-2.894,6.584,6.584,0,0,0-3.547-2.45c-3.848-1.3-8.374-1.172-12.383-1.425-2.431-.154-4.925-.114-7.334-.485A19.382,19.382,0,0,1,314.1,27.58c-3.926-2.028-8.9-4.035-13.175-1.768-2.275,1.207-.256,4.661,2.018,3.454Z"/><path class="c" d="M293.765,46.747a19.029,19.029,0,0,1,.539-4.759,9.171,9.171,0,0,1,2.488-4.017,21.836,21.836,0,0,0,3.384-4.2l1.585-2.714a7.692,7.692,0,0,1,1.511-2.112,2.018,2.018,0,0,0,0-2.829,2.042,2.042,0,0,0-2.829,0c-1.578,1.355-2.5,3.549-3.535,5.317a11.4,11.4,0,0,1-1.617,2.344q-1.005,1.021-2.007,2.047c-2.867,2.954-3.4,6.989-3.519,10.92-.08,2.574,3.92,2.572,4,0Z"/><path class="b" d="M293.3,214.748c.053-2.4.187-4.842.375-7.257-14.067,3.024-28.307,7.389-49.272,15.136l-2.756.5c-.4.237-.762.111-.832-.256-.088-.458.373-.832.739-1.121,8.956-7.068,19.4-13.746,28.286-19.692,1.164-.646,7.454-5.234,9.615-11.456a42.94,42.94,0,0,0,2.209-10.57c.5-6.59.134-17.8-.62-29.868-.034-.547-.106-1.326-.207-2.291l-1.968,1.857c-4.846,6.1-12.913,10.506-20.389,8.311-6.1-1.791-10.224-7.368-13.486-12.823a133.242,133.242,0,0,1-6.865-13.077,1.947,1.947,0,0,1,.607-2.894l18.254-15.519a85.529,85.529,0,0,0,5.658,7.926c2.87-9.157,8.1-18.891,13.767-24.257,4.616-4.371,12.522-7.276,19.477-9.374,3.255-.987,5.974-2.46,9.757-3.832.914-.548,1.852-1.1,2.826-1.664l1.789,2.051c-.6,3.567-1.024,6.789-1.321,9.849-.938,9.655.447,39.285.778,41.647l.075.535.608-.85c12.966-18.131,25.068-37.368,33.479-54.007,1.627,1.3,3.082,2.6,4.469,3.69a16.04,16.04,0,0,1,1.873,1.8c9.012,4.22,17.234,10.257,22.1,18.312,4.19,6.93,6.21,14.6,7.62,22.4.82,4.53,3.65,23.56,4.23,28.44a235.452,235.452,0,0,1,1.64,23.72,21.092,21.092,0,0,1-1.93,8.49,13.87,13.87,0,0,1-4.16,5.14,31.089,31.089,0,0,1-5,3.211c.34,2.819.62,5.829.75,8.879l-3.861,20.313c3.265,14.429-4.545,23.415-9.787,26.411a155.338,155.338,0,0,1-17.832,8.126c-3.592,1.4-7.893,2.261-11.892,4.8-2.969,1.886-5.416,5.617-13.306,7.611-5.508-4.439-11.95-17.312-14.444-20.961-3.409-4.968-8.762-17.572-10.072-23.542A61.141,61.141,0,0,1,293.3,214.748Z"/><path class="c" d="M377.473,205.835c-.129-2.969-.4-5.929-.75-8.88a2.181,2.181,0,0,0-.586-1.414,2.032,2.032,0,0,0-1.414-.586c-.977.044-2.133.888-2,2,.354,2.951.621,5.911.75,8.88a2,2,0,0,0,4,0Z"/><path class="c" d="M349.194,88.962c9.012,4.247,17.406,10.277,22.3,19.155,4.289,7.781,5.964,16.593,7.329,25.279,1.1,6.985,2.148,13.982,3.095,20.99-.043-.317.045.338.06.45q.055.426.11.852c.122.969.232,1.939.338,2.91q.49,4.453.818,8.923.333,4.575.483,9.161a25.28,25.28,0,0,1-.763,8.674,13.573,13.573,0,0,1-4.5,6.844A30.619,30.619,0,0,1,371,196.515a70.674,70.674,0,0,1-7.756,2.666c-2.837.836-5.961,1.891-8.958,1.436a2.064,2.064,0,0,0-2.46,1.4,2.014,2.014,0,0,0,1.4,2.46c5.5.835,11.32-1.3,16.434-3.163,5.024-1.828,10.394-4.327,13.9-8.509a18.908,18.908,0,0,0,3.642-7.734,33.286,33.286,0,0,0,.492-9.359q-.354-9.559-1.489-19.068c-.832-7.055-1.951-14.084-3.027-21.1-1.33-8.672-2.737-17.361-6.276-25.462A42.718,42.718,0,0,0,366.5,95.479a61.6,61.6,0,0,0-15.291-9.971c-2.316-1.091-4.349,2.357-2.019,3.454Z"/><path class="c" d="M307.463,80.8c-2.6,1.508-5.17,3.054-7.686,4.693q-1.77,1.155-3.5,2.366a12.072,12.072,0,0,0-2.924,2.4c-1.5,2-.533,4.272.342,6.3,1.234,2.872,2.62,5.675,3.943,8.506l.718-2.736a40.594,40.594,0,0,0-5.156,2.825c-1.413.934-3.3,1.99-3.759,3.735a8.478,8.478,0,0,0,.365,3.708q.346,1.709.7,3.417,2.016,9.831,4.113,19.646,1.186,5.539,2.426,11.068c.568,2.51,4.425,1.447,3.857-1.063-2.608-11.536-5.008-23.123-7.354-34.714-.057-.279-.232-1.107-.242-1.086-.086.185.5-.265.567-.314.306-.225.615-.447.929-.662a39.925,39.925,0,0,1,5.576-3.107,2.04,2.04,0,0,0,.717-2.736c-1.09-2.332-2.223-4.646-3.278-6.994a25,25,0,0,1-1.128-2.765c-.2-.631-.32-.557.333-1.079a100.946,100.946,0,0,1,12.465-7.96c2.225-1.292.214-4.751-2.018-3.454Z"/><path class="c" d="M366.332,179.919a13.833,13.833,0,0,1,2.209.606l.238.09c.067.026.418.172.116.044-.283-.12,0,0,.053.025.1.044.193.088.289.134.345.165.684.343,1.014.536q.468.271.914.581c.156.107.3.236.465.335-.472-.291.019.019.144.124a13.773,13.773,0,0,1,1.666,1.663,2.01,2.01,0,0,0,2.829,0,2.054,2.054,0,0,0,0-2.829,15.627,15.627,0,0,0-8.874-5.166,2,2,0,0,0-1.063,3.857Z"/><path class="c" d="M270.847,127.73a85.064,85.064,0,0,1-12.133-15.014,2.036,2.036,0,0,0-3.142-.4l-15.591,13.255a19.52,19.52,0,0,0-3.544,3.207c-1.114,1.6-.577,3.186.161,4.808,1.315,2.891,2.762,5.727,4.293,8.509,2.666,4.844,5.554,9.926,9.73,13.646a17.707,17.707,0,0,0,14.693,4.634c5.917-.909,11.263-4.638,14.967-9.229a2.06,2.06,0,0,0,0-2.828,2.015,2.015,0,0,0-2.829,0c-3.977,4.931-10.492,9.4-17.151,8.109-6.806-1.315-10.935-7.686-14.19-13.242q-1.807-3.086-3.447-6.264-.819-1.589-1.6-3.2c-.452-.937-1.391-2.226-1.279-3.272l-.273,1.009c.337-.8,1.318-1.381,1.962-1.929l2.472-2.1,4.754-4.041,9.7-8.244-3.141-.405a89.861,89.861,0,0,0,12.758,15.824c1.835,1.809,4.665-1.018,2.829-2.829Z"/><path class="c" d="M347.1,319.422c.018-13.125.091-26.25.139-39.375q.015-4.131.028-8.262c.006-2.574-3.994-2.578-4,0q-.05,19.8-.145,39.6-.013,4.017-.022,8.035c0,2.574,4,2.578,4,0Z"/><path class="c" d="M330.192,276.469q0,17.534.013,35.068,0,3.741,0,7.484c0,2.574,4,2.578,4,0q.022-17.469-.007-34.936,0-3.808,0-7.616c0-2.574-4-2.578-4,0Z"/><path class="c" d="M344.568,321.7a115.935,115.935,0,0,1,24.871,10.166c3.543,1.966,6.981,4.118,10.31,6.427,3.275,2.274,7.008,4.634,9.637,7.663a4.354,4.354,0,0,1,1.193,2.5,1.782,1.782,0,0,1-.086.354c.007-.052.343-.411.126-.167a5.413,5.413,0,0,1-.732.654,8.966,8.966,0,0,1-4.675,2.113l1.01.273c-6.589-4.189-13.2-8.367-20.169-11.907a122.625,122.625,0,0,0-22.7-8.781c-2.484-.692-3.544,3.166-1.064,3.857a117.551,117.551,0,0,1,22.423,8.724c3.345,1.724,6.613,3.594,9.835,5.536q2.556,1.541,5.083,3.132,1.221.765,2.438,1.537a8.84,8.84,0,0,0,2.88,1.593c1.724.274,3.777-.7,5.238-1.513a13.511,13.511,0,0,0,3.263-2.389c3-3.2-.246-7.612-2.749-9.844A106.643,106.643,0,0,0,371.976,328.7a120.523,120.523,0,0,0-26.345-10.858c-2.481-.7-3.541,3.159-1.063,3.857Z"/><path class="c" d="M332.409,317.027A57.192,57.192,0,0,0,320.66,318.9a119.209,119.209,0,0,0-12.915,3.941c-2.395.882-1.36,4.749,1.064,3.857a119.644,119.644,0,0,1,12.533-3.847,52.89,52.89,0,0,1,11.067-1.828c2.568-.075,2.579-4.075,0-4Z"/><path class="c" d="M327.14,327.778a61.615,61.615,0,0,0-18.395,4.991,2.012,2.012,0,0,0-.717,2.736,2.052,2.052,0,0,0,2.736.718c.075-.032.283-.118.091-.039q.249-.1.5-.2.422-.168.846-.33,1.03-.391,2.076-.748,2.216-.761,4.475-1.39a49.708,49.708,0,0,1,8.388-1.734,2.053,2.053,0,0,0,2-2,2.015,2.015,0,0,0-2-2Z"/><path class="c" d="M325.726,328.364a91.411,91.411,0,0,0-6.145,7.279,110.65,110.65,0,0,0-8.856,12.594c-1.338,2.271-1.019,4.828,1.522,6.028,2.086.986,4.342,2.359,6.727,2.085,2.68-.308,4.334-2.987,6.043-4.82q2.891-3.1,5.836-6.151a146.155,146.155,0,0,1,12.4-11.561,2.014,2.014,0,0,0,0-2.829,2.046,2.046,0,0,0-2.828,0c-7.079,5.762-13.351,12.444-19.547,19.123-.584.629-1.336,1.838-2.094,2.227-.642.329-1.524-.179-2.083-.438a28.339,28.339,0,0,1-2.878-1.283c.128.078-.136.251.137.014a7.858,7.858,0,0,0,1.018-1.7,110.478,110.478,0,0,1,7.685-10.778,87.339,87.339,0,0,1,5.893-6.961c1.8-1.839-1.023-4.67-2.829-2.828Z"/><path class="c" d="M308.333,84.044a111.117,111.117,0,0,0-1.592,13.434c-.148,3.454-.139,6.915-.1,10.371.077,7.4.325,14.8.693,22.186.1,2,.121,4.046.388,6.036a2.068,2.068,0,0,0,2,2c.969,0,2.145-.922,2-2-.22-1.643-.247-3.329-.334-4.983q-.258-4.924-.424-9.855c-.261-7.38-.483-14.783-.275-22.167a103.075,103.075,0,0,1,1.5-13.959,2.06,2.06,0,0,0-1.4-2.46,2.016,2.016,0,0,0-2.46,1.4Z"/><path class="c" d="M342.076,80.891a391.652,391.652,0,0,1-24.912,41.638q-4.161,6.167-8.49,12.217a2.017,2.017,0,0,0,.718,2.737,2.043,2.043,0,0,0,2.736-.718,470.935,470.935,0,0,0,27.262-42.4q3.189-5.661,6.14-11.452c1.162-2.291-2.288-4.318-3.454-2.019Z"/><path class="c" d="M264.544,122.278c2.312-7.335,5.742-14.729,10.688-20.679a26.3,26.3,0,0,1,7.8-6.416,62.045,62.045,0,0,1,10.5-4.329c1.982-.648,3.984-1.212,5.921-1.992,2.124-.854,4.206-1.8,6.35-2.608a2.056,2.056,0,0,0,1.4-2.461,2.015,2.015,0,0,0-2.46-1.4c-3.855,1.449-7.566,3.1-11.5,4.35a73.74,73.74,0,0,0-11.353,4.519,29.551,29.551,0,0,0-8.635,6.512,52.65,52.65,0,0,0-6.842,9.926,75.974,75.974,0,0,0-5.729,13.512c-.776,2.461,3.085,3.514,3.857,1.063Z"/><path class="c" d="M342.756,83.4a56.617,56.617,0,0,1,6.886,6.2c1.841,2.085,4.011,4.206,4.728,6.98l.919-2.259a102.185,102.185,0,0,0-11.2,8.391,2.026,2.026,0,0,0-.313,2.424c.919,1.682,1.984,3.281,2.885,4.974.091.17.178.341.265.513.133.263.013.093.053.1a1.711,1.711,0,0,1,.063.187l.095-1.056c.024.014-.48.8-.5.822-.625.951-1.38,1.81-2,2.766-1.4,2.17,2.063,4.178,3.454,2.019.735-1.14,1.674-2.142,2.346-3.325a3.153,3.153,0,0,0,.062-3.26c-.92-2.006-2.221-3.821-3.277-5.755l-.313,2.424a94.543,94.543,0,0,1,10.388-7.766,2.06,2.06,0,0,0,.919-2.259c-.824-3.189-3.06-5.709-5.2-8.112a62.685,62.685,0,0,0-7.445-6.833,2.059,2.059,0,0,0-2.829,0,2.015,2.015,0,0,0,0,2.828Z"/><path class="b" d="M333.372,185.674a2.061,2.061,0,0,1,.853.067,4.435,4.435,0,0,1-1.034-6.185c.763-1,2.423-1.3,3.1-.7-.894-1.759-1.24-4.15,1-5.17,1.443-.656,2.55-.561,4.649,1.056-1.666-2.1-.969-7.293,2.859-6.661,1.215.216,4.169,1.915,6.05,3.134.3-.919.559-1.709.559-1.709.591-1.322,1.225-2.674,1.888-4.046.625-.145,1.031-.237,1.031-.237a6.277,6.277,0,0,1,4.768,1.019c.866.789,1.5,1.986,1.5,4.412,0,1.581.08,3.663-.113,6.182,2.814,3.121,1.947,8.83.706,11.31-.921,1.844-1.5,3.824-2.423,5.667-1.864,4.75-4.755,7.159-9.417,8.976a12.845,12.845,0,0,1-5.712.068,19.227,19.227,0,0,1-7.293-4.131c-3.146-2.669-6.884-7.089-5.6-10.588A3.656,3.656,0,0,1,333.372,185.674Z"/><path class="c" d="M362.5,176.718c.121-1.72.125-3.44.109-5.163a11.5,11.5,0,0,0-.831-5.021c-1.386-2.886-5.03-3.857-7.979-3.235a2.014,2.014,0,0,0-1.4,2.46,2.048,2.048,0,0,0,2.46,1.4c.407-.086.047.06-.069,0,.07.038.3-.024.394-.027.291-.011.579.009.869.024.507.025-.428-.088.079.006.154.028.307.056.459.091a6.342,6.342,0,0,1,.882.275c-.3-.12-.141-.058.052.052l.123.073c.181.123.159.1-.068-.073a5.265,5.265,0,0,1,.433.425c.292.3-.122-.227-.044-.061.048.1.128.194.185.292s.1.222.167.323c.075.117-.132-.418-.009.009.076.261.153.518.2.786.031.165.056.482.026.137.016.187.034.373.043.56.033.663.019,1.33.025,1.993.014,1.562,0,3.122-.114,4.68a2.01,2.01,0,0,0,2,2,2.049,2.049,0,0,0,2-2Z"/><path class="b" d="M350.47,171.612c3.991-8.922,10.851-21.29,14.842-30.213a11.964,11.964,0,0,0,1.466-5.544,8.117,8.117,0,0,0-2.6-5.224c-2.713-2.646-18.783-17.186-26.881-24.527a3.184,3.184,0,0,0-2.847-.806,3.373,3.373,0,0,0-2.443,2.448c-7.393,21.106-16.318,42.653-21.024,55.578-.988,2.713-1.933,5.6-2.565,7.773a6.294,6.294,0,0,0,.618,5.539c1.522,2.212,16.545,18.952,22.981,25.227"/><path class="c" d="M353.141,170.52c3.538-7.876,7.778-15.41,11.57-23.162.9-1.839,1.783-3.687,2.6-5.564a12.461,12.461,0,0,0,1.393-6.6c-.382-2.97-2.192-5.129-4.294-7.1-3.87-3.621-7.807-7.172-11.729-10.737-4.618-4.2-9.169-8.49-13.877-12.584a5.3,5.3,0,0,0-5.539-1.179c-2.041.8-2.822,2.586-3.5,4.523Q327.448,114.684,325,121.2c-3.105,8.316-6.332,16.586-9.555,24.857-2.662,6.832-5.436,13.648-7.741,20.612-1.182,3.573-2.725,7.609-.343,11.055a44.367,44.367,0,0,0,3.029,3.678c3.72,4.3,7.544,8.513,11.4,12.686,1.982,2.143,3.977,4.273,6.008,6.37,1.861,1.921,4.194,5.128,7.235,4.289a5.63,5.63,0,0,0,3.2-2.937c1.244-2.255-2.209-4.275-3.454-2.018-.207.375-.513.694-.719,1.036-.189.315-.376-.1.061.082a2.493,2.493,0,0,1-.766-.533c-.759-.693-1.465-1.456-2.183-2.191-1.814-1.859-3.6-3.75-5.366-5.651q-5.639-6.055-11.11-12.267c-1.181-1.345-2.365-2.691-3.5-4.078-.147-.181-.595-.8-.217-.26a6.362,6.362,0,0,1-.573-.887c-.732-1.525-.149-3.177.314-4.685,1.969-6.421,4.476-12.677,6.905-18.934,2.856-7.36,5.744-14.708,8.557-22.084q2.286-6,4.5-12.017,1.116-3.048,2.206-6.1c.346-.972.63-2,1.039-2.942.207-.478.466-.983,1.047-1.051.98-.114,2.125,1.4,2.78,1.995l3.008,2.725q3.342,3.03,6.683,6.062,6.072,5.511,12.118,11.051c1.119,1.032,2.271,2.042,3.336,3.131a5.825,5.825,0,0,1,1.868,4.549,17.406,17.406,0,0,1-1.96,5.338c-3.345,7.2-7.209,14.151-10.7,21.28q-1.253,2.553-2.423,5.143a2.062,2.062,0,0,0,.717,2.737,2.017,2.017,0,0,0,2.737-.718Z"/><path class="c" d="M352.99,170.258a38.447,38.447,0,0,0-4.979-3.011c-1.694-.861-3.485-1.6-5.393-.959-3.659,1.221-4.535,6.569-2.4,9.469l2.736-2.737c-2.343-1.75-5.231-2.427-7.67-.4-2.253,1.874-1.865,4.877-.719,7.248l2.736-2.736c-2.475-1.737-5.624.35-6.552,2.771a6.535,6.535,0,0,0,2.061,7.25l1.946-3.343c-2.847-.579-5.258,1.412-6.031,4.1-.691,2.408.245,4.979,1.54,7a24.426,24.426,0,0,0,11.326,9.328,13.511,13.511,0,0,0,6.152.857,14.079,14.079,0,0,0,6.083-2.252c4.325-2.63,6.29-6.787,8.088-11.334.975-2.464,2.066-4.63,2.358-7.3a11.683,11.683,0,0,0-1.7-7.962c-1.469-2.09-4.939-.094-3.454,2.018,1.818,2.586,1.5,6.363.253,9.07-1.621,3.51-2.591,7.663-5.445,10.435a11.137,11.137,0,0,1-8.036,3.365c-3.264-.106-6.39-2.229-8.808-4.422a16.5,16.5,0,0,1-4.1-5.114,4.313,4.313,0,0,1-.481-2.321c.078-.522.639-1.725,1.185-1.614,1.765.359,3.624-1.968,1.946-3.342a2.852,2.852,0,0,1-1.274-2.628,1.821,1.821,0,0,1,.448-.965,1.2,1.2,0,0,1,.491-.2c.074-.024-.475-.264-.022.054,1.783,1.25,3.524-1.107,2.737-2.737-.328-.677-.75-1.755-.031-2.27,1.006-.72,2.089.252,2.947.893,1.577,1.178,3.9-1.159,2.737-2.736a3.047,3.047,0,0,1-.52-2.467,2.265,2.265,0,0,1,.4-.96c.222-.248.338-.308.826-.27a4.676,4.676,0,0,1,1.089.4c.653.31,1.29.656,1.919,1.013a39.95,39.95,0,0,1,3.584,2.257,2.016,2.016,0,0,0,2.737-.717,2.045,2.045,0,0,0-.718-2.737Z"/><path class="c" d="M351.144,179.141c-1.181-.874-2.4-1.689-3.608-2.528-.248-.173-.5-.347-.74-.525-.137-.1-.274-.2-.411-.305-.063-.047-.126-.1-.189-.144-.175-.132.424.335.134.1-.616-.492-1.216-1-1.8-1.528a2,2,0,0,0-2.829,2.829c2.309,2.086,4.933,3.707,7.425,5.552a2.01,2.01,0,0,0,1.541.2,2.046,2.046,0,0,0,1.2-.919,2.018,2.018,0,0,0,.2-1.541,2.319,2.319,0,0,0-.919-1.2Z"/><path class="c" d="M347.047,185.414c-.148-.1-.29-.207-.432-.314-.267-.2.464.363.081.062-.126-.1-.251-.2-.376-.3-.589-.475-1.17-.96-1.746-1.449-1.317-1.118-2.618-2.259-3.871-3.448-.536-.509-1.071-1.024-1.554-1.583a2.011,2.011,0,0,0-2.828,0,2.05,2.05,0,0,0,0,2.829,35.092,35.092,0,0,0,3.222,3.114c1.253,1.118,2.527,2.215,3.832,3.271.539.436,1.076.887,1.653,1.272a2.014,2.014,0,0,0,2.737-.718,2.048,2.048,0,0,0-.718-2.736Z"/><path class="c" d="M343.7,191.483c-.4-.271-.8-.547-1.191-.832q-.273-.2-.543-.4c-.245-.187-.053-.048.076.059-.089-.074-.183-.143-.274-.215q-.936-.749-1.806-1.573c-1.163-1.1-2.227-2.3-3.286-3.506a2.012,2.012,0,0,0-2.829,0,2.048,2.048,0,0,0,0,2.828c1.082,1.229,2.171,2.455,3.363,3.579a35.224,35.224,0,0,0,4.471,3.517,2.013,2.013,0,0,0,2.736-.718,2.048,2.048,0,0,0-.717-2.736Z"/><path class="c" d="M241.811,221.676c-7.126,4.065-12.854,10.887-14,19.162-1.4,10.084-1.069,20.205-.67,30.344.79,20.06,1.682,40.258,4.953,60.1.394,2.387,1.16,4.65,3.208,6.109a16.886,16.886,0,0,0,6.8,2.336,29.95,29.95,0,0,0,15.415-1.329c2.4-.878,1.362-4.745-1.063-3.857a26.226,26.226,0,0,1-12.509,1.452,19.8,19.8,0,0,1-5.617-1.463c-1.782-.831-2.079-2.524-2.374-4.311-1.509-9.154-2.415-18.421-3.126-27.667-.721-9.38-1.173-18.779-1.556-28.178-.385-9.452-.868-18.908-.047-28.352.37-4.248.9-8.106,3.084-11.83a25.791,25.791,0,0,1,9.525-9.059c2.236-1.275.223-4.732-2.019-3.453Z"/><path class="c" d="M275.829,122.122c.863,8.15,1.953,16.274,2.861,24.419a237.8,237.8,0,0,1,1.2,25.05,72.353,72.353,0,0,1-.607,11.3,27.518,27.518,0,0,1-2.85,9.5c-3.526,6.167-9.7,9.316-15.454,13.145-4.669,3.1-9.321,6.239-13.864,9.527-2.239,1.619-4.456,3.272-6.624,4.985-1.133.9-2.05,2.068-1.507,3.584a2.435,2.435,0,0,0,3.191,1.415,2.058,2.058,0,0,0,1.4-2.461,2.013,2.013,0,0,0-2.46-1.4l-.008.026,1.009.273-.188-.126.717.717-.1-.228.273,1.01.027-.328-.273,1.01c.467-.8,1.772-1.461,2.5-2.018q1.461-1.112,2.943-2.2,2.989-2.19,6.041-4.294c3.878-2.687,7.808-5.3,11.739-7.9,5.57-3.693,11.24-7.217,14.441-13.361,3.246-6.229,3.632-13.8,3.656-20.68a237.351,237.351,0,0,0-1.042-25.086c-.893-8.642-2.1-17.25-3.02-25.891a2.059,2.059,0,0,0-2-2,2.013,2.013,0,0,0-2,2Z"/><path class="c" d="M263.521,247.234c-2.455,5.949-2.16,12.539-2.127,18.849q.04,7.552.067,15.106.067,17.065.126,34.132.032,8.266.076,16.534c.015,2.573,4.015,2.578,4,0-.123-21.235-.153-42.47-.258-63.705-.033-6.624-.609-13.6,1.973-19.853a2.012,2.012,0,0,0-1.4-2.46,2.05,2.05,0,0,0-2.46,1.4Z"/><path class="c" d="M261.414,259.526c.2,12.013.667,24.022,1.125,36.027.48,12.552,1.01,25.1,1.47,37.656.094,2.555.148,5.113.275,7.667.171,3.45.695,7,3.036,9.7,2.212,2.55,5.8,3.408,9.019,3.685a36.339,36.339,0,0,0,11.236-1.179c3.539-.83,7.8-1.931,10.591-4.429,1.433-1.284,1.5-3.09,1.674-4.874q.27-2.854.493-5.713c.641-8.174,1.034-16.368,1.3-24.563.27-8.243.41-16.489.486-24.736q.029-3.076.046-6.153c.011-1.884-.151-3.86.039-5.734.34-3.353,3.959-5.113,6.589-6.46,1.407-.719,2.846-1.367,4.3-1.98a2.067,2.067,0,0,0,1.4-2.46,2.012,2.012,0,0,0-2.46-1.4c-6.032,2.536-13.813,5.628-13.844,13.3-.031,7.911-.095,15.821-.249,23.73-.156,8.047-.4,16.094-.817,24.133q-.308,5.948-.758,11.886-.213,2.762-.468,5.517a6.666,6.666,0,0,1-.287,2.353,3.69,3.69,0,0,1-1.361.958,32.987,32.987,0,0,1-11.14,3.435,21.7,21.7,0,0,1-9.75-.211c-3.076-.934-4.422-3.266-4.869-6.343a73.629,73.629,0,0,1-.4-7.933c-.427-11.986-.934-23.97-1.4-35.955-.47-12.11-.944-24.223-1.207-36.341q-.039-1.793-.069-3.586c-.041-2.571-4.042-2.579-4,0Z"/><path class="c" d="M267.177,248.775c3.38-5.891,8.763-10.271,13.782-14.723q3.048-2.706,6.194-5.3a51.108,51.108,0,0,1,5.37-4.139c2.177-1.364.171-4.826-2.019-3.454a57.819,57.819,0,0,0-5.943,4.57q-3.261,2.692-6.431,5.5c-5.286,4.69-10.846,9.326-14.407,15.533-1.284,2.236,2.171,4.253,3.454,2.019Z"/><path class="c" d="M381.861,136.083a15.814,15.814,0,0,1,9.858,10.7c1.123,3.856.664,8.4.454,12.552-.79,15.656-2.311,31.322-4.134,46.888q-1.288,11.006-2.876,21.98c-.925,6.394-1.954,13.135-4.717,19.036A27.577,27.577,0,0,1,369.84,259.4c-5.1,3.088-10.919,5.045-16.46,7.175-3.605,1.386-7.221,2.743-10.837,4.1-3.592,1.345-7.159,2.792-10.846,3.857-6.326,1.827-12.807,2.874-19.393,2a18.974,18.974,0,0,1-3.654-.835c-2.44-.839-3.488,3.024-1.064,3.857a29.578,29.578,0,0,0,9.07,1.266,44.325,44.325,0,0,0,9.925-.889c7.9-1.685,15.358-4.754,22.894-7.6,6.452-2.438,13.07-4.736,19.27-7.78a31.529,31.529,0,0,0,12.717-10.964c3.791-5.747,5.543-12.459,6.736-19.165,1.3-7.3,2.168-14.715,3.1-22.074,2.108-16.7,3.7-33.5,4.727-50.3.287-4.714.842-9.786-.007-14.47a20.38,20.38,0,0,0-8.76-13.291,19.829,19.829,0,0,0-4.331-2.049c-2.438-.842-3.486,3.021-1.063,3.857Z"/><path class="c" d="M341.666,126.017c1.613,1.373,3.24,2.731,4.924,4.018a2.01,2.01,0,0,0,1.541.2,2.042,2.042,0,0,0,1.2-.919,2.017,2.017,0,0,0,.2-1.541l-.2-.478a2.006,2.006,0,0,0-.718-.717l-.2-.152.4.313c-1.475-1.141-2.9-2.345-4.322-3.554a2.13,2.13,0,0,0-1.414-.586,2.036,2.036,0,0,0-1.414.586,2.012,2.012,0,0,0-.586,1.414,1.977,1.977,0,0,0,.586,1.415Z"/><path class="c" d="M244.931,224.555a410.657,410.657,0,0,1,39.8-12.9q4.714-1.213,9.476-2.237c2.515-.543,1.45-4.4-1.064-3.857a311.02,311.02,0,0,0-36.22,10.449q-6.551,2.272-13.052,4.686c-2.394.884-1.359,4.752,1.063,3.857Z"/><path class="c" d="M291.672,207.491c-.51,6.687-.751,13.529.393,20.166.82,4.759,2.721,9.344,4.6,13.766a76.354,76.354,0,0,0,6.187,12.061c2.34,3.579,4.309,7.4,6.6,11.013a72.628,72.628,0,0,0,4.44,6.332c1.278,1.612,3.361,4.654,5.662,4.139,4.886-1.094,8.691-3.874,12.472-6.965a24.1,24.1,0,0,1,6.712-3.418c3.045-1.067,6.083-2.054,9.071-3.282,5.225-2.147,10.7-4.309,15.516-7.306a23.315,23.315,0,0,0,8.515-9.753,28.728,28.728,0,0,0,1.708-18.628c-.552-2.513-4.409-1.45-3.857,1.064a24.383,24.383,0,0,1-1.177,15.27,20.508,20.508,0,0,1-6.713,8.271,45.65,45.65,0,0,1-5.757,3.086q-4.18,2.019-8.475,3.8c-2.862,1.192-5.746,2.237-8.687,3.213a31.673,31.673,0,0,0-8.2,3.721c-1.573,1.1-2.941,2.455-4.5,3.565a23.7,23.7,0,0,1-7.909,3.564l1.946.514c-3.33-2.736-5.706-6.6-7.949-10.225-2.055-3.318-3.859-6.8-6-10.064a72.264,72.264,0,0,1-5.791-11.172,68.454,68.454,0,0,1-4.257-12.158c-1.473-6.667-1.051-13.818-.536-20.572.2-2.567-3.805-2.555-4,0Z"/><path class="b" d="M357.441,229.717c1.731,10.187,5.076,24.293,7.605,34.615a3.579,3.579,0,0,0,4.51,2.584,60.969,60.969,0,0,0,9.78-4.022,3.59,3.59,0,0,0,1.853-4.041q-3.99-16.557-6.844-33.361"/><path class="b" d="M388.965,220.815c3.887-2.394,5.88-5.553,4.9-11.515-.4-2.4-3.658-6.738-10.617-5.226A361.53,361.53,0,0,0,340.291,215.1c-6.627,2.118-9.038,7.105-8.384,10.97,1.038,6.143,7.159,6.833,10.916,6.1C350.129,230.737,385.8,222.765,388.965,220.815Z"/><path class="c" d="M355.513,230.249c1,5.857,2.245,11.671,3.55,17.467q1.028,4.566,2.115,9.12c.656,2.758,1.138,5.662,2.036,8.352a5.656,5.656,0,0,0,6.546,3.74,42.827,42.827,0,0,0,9.153-3.592,8.432,8.432,0,0,0,3.128-2.145,5.611,5.611,0,0,0,1.143-4.523c-.566-3.374-1.57-6.723-2.306-10.067q-2.586-11.763-4.6-23.641a2.017,2.017,0,0,0-2.46-1.4,2.047,2.047,0,0,0-1.4,2.461q1.594,9.354,3.533,18.644,1,4.764,2.086,9.506.49,2.134,1,4.264c.254,1.065.476,1.958-.554,2.641a34.765,34.765,0,0,1-7.677,3.327c-.885.307-2.071.971-3,.5-.865-.444-.934-1.519-1.14-2.366-1.29-5.284-2.551-10.577-3.746-15.884-1.305-5.795-2.549-11.61-3.55-17.467a2.017,2.017,0,0,0-2.46-1.4,2.046,2.046,0,0,0-1.4,2.461Z"/><path class="c" d="M379.471,202.819c-6.392,1.334-12.772,2.73-19.1,4.353q-5.109,1.311-10.171,2.8c-3.856,1.126-7.854,2.134-11.591,3.615-5.369,2.126-9.743,7.111-8.6,13.19,1.07,5.7,6.726,8.162,12.039,7.52,3.308-.4,6.6-1.3,9.852-2.012q7.071-1.556,14.121-3.205c4.74-1.109,9.476-2.243,14.188-3.47a68.81,68.81,0,0,0,8.739-2.592,11.863,11.863,0,0,0,7.095-12.313,9.046,9.046,0,0,0-2.755-6.208,10.727,10.727,0,0,0-7.879-2.714,39.335,39.335,0,0,0-5.939,1.041c-2.519.525-1.453,4.381,1.063,3.857,2.769-.577,5.863-1.591,8.578-.263a4.943,4.943,0,0,1,2.8,3.272,8.923,8.923,0,0,1-1.016,6.8,8.566,8.566,0,0,1-2.152,2.094c-.3.213-.626.394-.933.6-.056.037-.13.051-.183.09-.355.26.4-.149.1-.038-6.635,2.4-13.674,3.847-20.528,5.469-7.752,1.833-15.522,3.616-23.323,5.227-2.853.589-6.824,1.137-8.979-1.669-2.891-3.764.169-8.445,3.87-10.377a34.257,34.257,0,0,1,5.734-2q2.975-.925,5.961-1.807,5.109-1.5,10.264-2.847c6.561-1.7,13.18-3.153,19.813-4.538,2.518-.526,1.453-4.383-1.063-3.857Z"/><path class="c" d="M104.269,305.67c-7.546-4.182-15.184-8.825-21.18-15.119a23.2,23.2,0,0,1-5.237-7.649,42.472,42.472,0,0,1-1.729-7.5q-.641-3.734-1.072-7.5c-.653-5.706-.966-11.442-1.225-17.177-.116-2.564-4.117-2.578-4,0,.243,5.369.532,10.74,1.1,16.086A93.147,93.147,0,0,0,73.522,282.5c2.117,7.38,8.276,12.9,14.195,17.384a121.619,121.619,0,0,0,14.534,9.243c2.253,1.249,4.273-2.205,2.018-3.454Z"/><path class="c" d="M110.6,312.12c4.837-7.874,7.7-16.713,11.319-25.165a2.067,2.067,0,0,0-.717-2.736,2.015,2.015,0,0,0-2.737.718c-3.614,8.449-6.484,17.294-11.319,25.165-1.351,2.2,2.108,4.211,3.454,2.018Z"/><path class="c" d="M98.131,346.111c-12.934,4.267-26.122,7.819-39.85,7.755A91.362,91.362,0,0,1,35.118,350.9c-6.7-1.8-13.894-4.536-18.206-10.3-4-5.35-3.878-12.347-3.881-18.715,0-2.573-4-2.578-4,0,0,6.258.016,12.884,3.048,18.546,3.474,6.488,10.418,10.586,17.18,12.876,15.624,5.293,32.726,5.691,48.826,2.55a174.758,174.758,0,0,0,21.109-5.883c2.434-.8,1.391-4.667-1.063-3.857Z"/><path class="c" d="M135.3,328.755c.939,5.459.371,11.081-.031,16.569-.345,4.71-.766,9.415-1.231,14.115-1.025,10.342-2.251,20.669-3.737,30.955-.748,5.176-1.561,10.343-2.514,15.485l.919-1.195c-7.309,3.432-15.811,4.869-23.827,5.232-1.739.079-3.552-.149-5.275,0,.149-.014-.489-.023-.483-.038l.4.436-.021-.328a2.638,2.638,0,0,0-.022-.524c-.018-.452-.032-.9-.045-1.356-.065-2.212-.1-4.425-.121-6.637-.138-12.082-.091-24.166-.025-36.248.028-5.088.316-10.232.17-15.312-.073-2.569-4.074-2.58-4,0,.109,3.793-.12,7.616-.146,11.415q-.045,6.572-.062,13.143c-.03,10.087-.064,20.179.109,30.265.027,1.577.058,3.154.12,4.73.061,1.535.283,3.13,1.768,3.953,1.33.736,3.244.559,4.723.562a76.63,76.63,0,0,0,20.626-2.859c1.669-.466,3.321-1,4.938-1.622,1.519-.586,3.744-1.1,4.165-2.861.712-2.984,1.072-6.1,1.547-9.133,1.108-7.06,2.061-14.145,2.927-21.238q1.313-10.764,2.315-21.564c.626-6.829,1.431-13.791,1.291-20.655a42.507,42.507,0,0,0-.624-6.357,2.016,2.016,0,0,0-2.46-1.4,2.045,2.045,0,0,0-1.4,2.46Z"/><path class="c" d="M127.912,413.6c2.413,1.511,4.864,2.953,7.343,4.352,2.2,1.24,4.429,2.274,6.122,4.191a8.713,8.713,0,0,1,2.463,5.918c.021,2.256-1.79,3.185-3.744,3.748a42.752,42.752,0,0,1-7.709,1.208q-4.941.478-9.914.464a80.088,80.088,0,0,1-19.68-2.09,7.253,7.253,0,0,1-3.4-1.605,4.217,4.217,0,0,1-.658-2.311,15.853,15.853,0,0,1,2.252-8.488c1.273-2.242-2.181-4.26-3.454-2.019-2.465,4.341-5.031,12.645-.133,16.325,2.706,2.034,6.335,2.444,9.585,2.946a104.355,104.355,0,0,0,12.1,1.175,100.042,100.042,0,0,0,11.615-.248,61.633,61.633,0,0,0,9.769-1.316c2.881-.709,5.832-2.151,6.945-5.089a10.653,10.653,0,0,0-.89-8.23,17.049,17.049,0,0,0-6.889-6.7c-3.265-1.846-6.524-3.69-9.7-5.682-2.188-1.37-4.2,2.089-2.019,3.454Z"/><path class="c" d="M121.5,284.26c-3.61-3.315-7.086-6.793-10.393-10.41a58.347,58.347,0,0,1-4.04-4.762,18.881,18.881,0,0,1-2.66-5.933c-1.967-6.446-2.814-13.219-4.032-19.834-1.209-6.563-1.931-13.233-4.164-19.558a36.43,36.43,0,0,0-3.767-8.263,30.263,30.263,0,0,0-5.935-6.334,46.691,46.691,0,0,0-15.49-8.147,58.634,58.634,0,0,0-15.007-2.29c-4.852-.208-9.695.032-14.149,2.135-5.008,2.365-9.064,6.47-12.391,10.811a60.288,60.288,0,0,0-8.462,15.478A140.6,140.6,0,0,0,16.556,242.5q-2.1,8.379-3.812,16.852a241.411,241.411,0,0,0-3.881,28.907c-.4,5.145-.737,10.3-.95,15.453-.091,2.195-.161,4.391-.176,6.588-.018,2.52.415,4.571,2.366,6.343a16.738,16.738,0,0,0,6.888,3.521q4.869,1.341,9.817,2.386A132.622,132.622,0,0,0,47.3,325.328a93.282,93.282,0,0,0,20.142-1.07A94.016,94.016,0,0,0,83.078,320a63.668,63.668,0,0,0,7.686-3.166c2.3-1.161.276-4.613-2.018-3.454A81.115,81.115,0,0,1,75.823,318.2a77.022,77.022,0,0,1-19,3.174c-13.089.587-26.182-1.607-38.769-5.073-2.054-.566-4.493-1.444-5.823-3.22-.964-1.287-.493-3.573-.458-5.094.108-4.783.375-9.563.7-14.335a248.224,248.224,0,0,1,2.962-27.109A316.041,316.041,0,0,1,22.756,234.8c2.951-10.247,7.787-20.465,16.2-27.364a19.978,19.978,0,0,1,11.776-4.7,61.113,61.113,0,0,1,14.834,1.066,43.2,43.2,0,0,1,13.993,5.349,33.619,33.619,0,0,1,6.723,5.2,22.544,22.544,0,0,1,4.56,6.712c2.616,5.711,3.671,11.757,4.7,17.9,1.1,6.507,2.17,13.071,3.541,19.525a57.566,57.566,0,0,0,2.7,9.3,17.887,17.887,0,0,0,2.732,4.511,112.848,112.848,0,0,0,9.523,10.36c1.514,1.5,3.051,2.982,4.622,4.424,1.894,1.738,4.73-1.083,2.829-2.828Z"/><path class="c" d="M96.935,407.553c-4.314.03-8.627.007-12.94.023-1.719.007-3.818.117-5.018-1.361a7.187,7.187,0,0,1-1.2-4.19c-.187-4.126.446-8.351.757-12.463.265-3.491.53-6.984.608-10.484.057-2.575-3.943-2.575-4,0-.149,6.674-.891,13.324-1.313,19.984-.186,2.929-.139,6.229,1.446,8.811,1.983,3.229,5.47,3.723,8.96,3.7,4.233-.026,8.466.009,12.7-.021,2.573-.019,2.578-4.019,0-4Z"/><path class="c" d="M79.123,409.554c-1.092,1.48-2.18,2.966-3.183,4.51a2,2,0,0,0,3.454,2.019c1-1.544,2.091-3.03,3.183-4.511a2.013,2.013,0,0,0,.2-1.541,2,2,0,0,0-2.46-1.4l-.478.2a2.008,2.008,0,0,0-.718.718Z"/><path class="c" d="M128.765,315c-.139-.087-.307-.306.03.054.144.154.3.3.445.452.519.54,1.02,1.1,1.526,1.651,1.205,1.319,2.411,2.641,3.7,3.88a10.747,10.747,0,0,0,3.795,2.772,5.926,5.926,0,0,0,5.61-1.338A7.794,7.794,0,0,0,146,316.059a69.578,69.578,0,0,0-1.553-8.324,61.323,61.323,0,0,0-2.656-8.258c-1.021-2.534-2.219-4.869-4.471-6.518-2.236-1.637-5.052-2.224-7.722-2.723q-5.248-.982-10.5-1.946c-2.516-.466-3.595,3.389-1.063,3.858l7.875,1.458a50.135,50.135,0,0,1,6.805,1.476,7.38,7.38,0,0,1,4.4,3.682,37.842,37.842,0,0,1,2.605,6.867,62.113,62.113,0,0,1,1.777,7.531c.3,1.749,1.056,3.91.165,5.585a2.787,2.787,0,0,1-.968,1.138,2.244,2.244,0,0,1-.783.083,4.574,4.574,0,0,0-.638-.015c.236-.042.539.338.181.031-.862-.738-1.815-1.417-2.754-2.358-1.186-1.188-2.314-2.431-3.447-3.669a13.1,13.1,0,0,0-2.466-2.407c-2.188-1.37-4.2,2.09-2.019,3.454Z"/><path class="c" d="M111.444,309.738a43.736,43.736,0,0,0,7.3,3.344,24.016,24.016,0,0,0,4.108.835,39.274,39.274,0,0,0,11.371.472,2.013,2.013,0,0,0,1.4-2.46,2.051,2.051,0,0,0-2.46-1.4c.387-.058-.064.006-.139.012-.176.014-.352.03-.528.041-.387.024-.774.034-1.162.037-.874.008-1.748-.024-2.621-.077-1.688-.1-3.395-.273-5.046-.522a24.185,24.185,0,0,1-3.745-.762,36.2,36.2,0,0,1-6.459-2.977c-2.251-1.252-4.271,2.2-2.019,3.454Z"/><path class="c" d="M46.77,201.762a34.948,34.948,0,0,1,1.68-4.32c.509-.936.618-1.1,1.667-1.147.95-.046,1.9-.068,2.85-.058a52.362,52.362,0,0,1,12.162,1.657c6.156,1.543,12.824,4.043,16.379,9.651,1.375,2.168,4.838.164,3.454-2.019-4.4-6.941-12.472-10.076-20.158-11.821a54.263,54.263,0,0,0-14.212-1.432,7.5,7.5,0,0,0-3.446.649,5.611,5.611,0,0,0-1.935,2.121,35.992,35.992,0,0,0-2.3,5.656,2.015,2.015,0,0,0,1.4,2.46,2.047,2.047,0,0,0,2.461-1.4Z"/><path class="c" d="M11.422,339.23c-7.707,5.516-8.357,16.265-4.551,24.336a27.771,27.771,0,0,0,8.345,9.949,37.145,37.145,0,0,0,12.122,5.719c15.376,4.653,32.41,4.071,48.036.878A106.366,106.366,0,0,0,88,376.762c3.412-1.15,7.029-2.439,9.956-4.591a2.061,2.061,0,0,0,.717-2.737,2.014,2.014,0,0,0-2.736-.717,29.25,29.25,0,0,1-7.5,3.663,96.954,96.954,0,0,1-10.321,3.029,116.757,116.757,0,0,1-18.976,2.836,90.99,90.99,0,0,1-23.635-1.12c-8.2-1.58-16.395-4.155-22-10.677-5.356-6.231-7.788-18.238-.067-23.764a2.056,2.056,0,0,0,.718-2.737,2.015,2.015,0,0,0-2.736-.717Z"/><path class="c" d="M52.877,410.883q0-14.83.028-29.659c0-2.574-4-2.578-4,0q-.014,14.829-.028,29.659c0,2.573,4,2.578,4,0Z"/><path class="c" d="M64.526,410.317q0-14.921.029-29.84c0-2.574-4-2.578-4,0q-.015,14.919-.029,29.84c0,2.574,4,2.578,4,0Z"/><path class="c" d="M49.789,409.287A122.06,122.06,0,0,0,7.624,430.851c-2.851,2.225-6.724,5.318-5.951,9.424.541,2.871,4.062,4.656,6.556,5.533a7.457,7.457,0,0,0,2.431.475c1.121-.007,2.04-.822,2.951-1.4Q16.2,443.25,18.8,441.64c3.184-1.961,6.4-3.869,9.691-5.65a117.462,117.462,0,0,1,24.6-9.9c2.477-.687,1.425-4.547-1.063-3.857a120.757,120.757,0,0,0-22.356,8.626c-6.86,3.479-13.374,7.587-19.863,11.705l1.01-.273a8.59,8.59,0,0,1-4.345-1.908,5.951,5.951,0,0,1-.952-.811c-.251-.282.129.151.129.17,0-.08-.09-.239-.079-.332a3.239,3.239,0,0,1,.258-1.121c.859-1.818,2.8-3.177,4.337-4.384q2.279-1.788,4.64-3.464a117.237,117.237,0,0,1,21.4-12.157,115.066,115.066,0,0,1,14.645-5.14c2.474-.695,1.423-4.555-1.064-3.857Z"/><path class="c" d="M62.665,412.375a52,52,0,0,1,10.409,3.675,117.144,117.144,0,0,1,11.47,5.936c2.222,1.31,4.237-2.147,2.019-3.454a117.021,117.021,0,0,0-11.8-6.085,56.077,56.077,0,0,0-11.032-3.929c-2.511-.531-3.584,3.324-1.063,3.857Z"/><path class="c" d="M64.628,423.388a39.541,39.541,0,0,1,8.575,3.224,66.882,66.882,0,0,1,8.2,4.528,2,2,0,1,0,2.018-3.454,67.258,67.258,0,0,0-8.429-4.638,43.984,43.984,0,0,0-9.3-3.517,2.046,2.046,0,0,0-2.46,1.4,2.02,2.02,0,0,0,1.4,2.46Z"/><path class="c" d="M63.433,422.469a107.942,107.942,0,0,1,12.1,21.087c.414.924.823,1.851,1.216,2.785.2.482.379.982.6,1.457.015.032.031.086.04.106-.153-.316.481-.055-.058-.2a4.947,4.947,0,0,0-1.477.331c-.575.129-1.147.27-1.721.4a2.613,2.613,0,0,1-1.809-.068c.283.242-.3-.49-.346-.556l-.4-.616-1.063-1.641q-1.123-1.736-2.251-3.47-2.072-3.186-4.167-6.357c-2.8-4.217-5.632-8.415-8.687-12.449a2.066,2.066,0,0,0-2.737-.718,2.014,2.014,0,0,0-.717,2.736c3.1,4.1,5.978,8.361,8.815,12.643q2.436,3.679,4.832,7.385,1.129,1.738,2.255,3.48a8.312,8.312,0,0,0,2.651,3.109c2.2,1.226,4.565.391,6.833-.117a5.347,5.347,0,0,0,3.122-1.434,3.739,3.739,0,0,0,.785-3.48A50.856,50.856,0,0,0,78.2,439.8c-.971-2.1-1.987-4.186-3.069-6.236a95.873,95.873,0,0,0-8.241-13.116,2.064,2.064,0,0,0-2.736-.717,2.013,2.013,0,0,0-.717,2.736Z"/><path class="c" d="M235.381,334.983c-4.3,7.4-12.466,10.281-18.666,15.669-4.76,4.136-10.149,11.728-6.869,18.249,1.681,3.34,5.413,5.426,8.987,6.054a21.309,21.309,0,0,0,12.918-2.157c3.972-1.914,7.711-4.322,11.484-6.592,2.967-1.785,6.02-3.414,8.876-5.376,2.937-2.017,5.907-4.353,7.741-7.47a10.122,10.122,0,0,0-.032-10.518c-1.289-2.227-4.747-.215-3.454,2.019a6.119,6.119,0,0,1-.12,6.731,20.039,20.039,0,0,1-5.641,5.428c-2.421,1.707-4.993,3.122-7.538,4.627-3.429,2.026-6.8,4.154-10.281,6.086-3.358,1.863-6.842,3.492-10.762,3.51-3.048.014-6.661-1.023-8.381-3.755-1.457-2.314-.56-5.3.6-7.57a22.444,22.444,0,0,1,5.736-6.809c3.173-2.668,6.893-4.517,10.221-6.964A30.7,30.7,0,0,0,238.834,337c1.3-2.23-2.159-4.246-3.453-2.019Z"/><path class="c" d="M268.439,350.015c-2.479,7.865-10.117,12.423-15.808,17.8-5.921,5.592-12.116,15.159-5.2,22.492,3.493,3.7,9.165,4.329,14,4.151a27.052,27.052,0,0,0,14.588-4.673,47.3,47.3,0,0,0,5.142-4.637c1.394-1.327,2.881-2.553,4.388-3.747,2.987-2.368,6.109-4.6,8.86-7.244,2.848-2.741,5.291-6.056,5.777-10.076.585-4.851-1.982-9.256-4.877-12.919a2.012,2.012,0,0,0-2.829,0,2.051,2.051,0,0,0,0,2.828c2.159,2.732,4.1,6.093,3.759,9.622-.245,2.527-1.988,5-3.9,6.965a75.519,75.519,0,0,1-8,6.729,94.448,94.448,0,0,0-8.112,7.146,21.874,21.874,0,0,1-12.133,5.776,27,27,0,0,1-6.822.082,11.916,11.916,0,0,1-6.024-1.921c-6.961-5.268.076-13.906,4.543-18.058,6.25-5.809,13.806-10.693,16.5-19.25.776-2.461-3.084-3.514-3.857-1.063Z"/><path class="c" d="M314.5,99.131q1.555-1.069,3.075-2.19l-2.736-.718c1.191,2.032,2.518,4,3.863,5.936a2.033,2.033,0,0,0,2.736.718c3.406-2.235,6.828-4.445,10.239-6.672,2.148-1.4.145-4.867-2.019-3.454-3.411,2.227-6.833,4.437-10.239,6.672l2.736.717c-1.344-1.932-2.671-3.9-3.862-5.936a2.013,2.013,0,0,0-2.737-.717q-1.52,1.12-3.075,2.191a2.05,2.05,0,0,0-.717,2.736,2.017,2.017,0,0,0,2.736.717Z"/></svg>