<?xml version="1.0" encoding="utf-8"?>

<!DOCTYPE svg PUBLIC "-//W3C//DTD SVG 1.1//EN" "http://www.w3.org/Graphics/SVG/1.1/DTD/svg11.dtd">
<!-- Uploaded to: SVG Repo, www.svgrepo.com, Generator: SVG Repo Mixer Tools -->
<svg fill="#000000" version="1.1" id="Layer_1" xmlns="http://www.w3.org/2000/svg" xmlns:xlink="http://www.w3.org/1999/xlink" 
	 width="800px" height="800px" viewBox="0 0 70 70" enable-background="new 0 0 70 70" xml:space="preserve">
<g>
	<path d="M62.666,32.316L57.758,21.53c-0.457-1.007-1.646-1.449-2.648-0.992c-1.006,0.457-1.45,1.644-0.992,2.648l3.365,7.397
		H44.481c-1.104,0-2,0.896-2,2s0.896,2,2,2h13.69l-4.055,8.912c-0.458,1.004-0.014,2.191,0.992,2.648
		c0.269,0.121,0.55,0.18,0.827,0.18c0.76,0,1.486-0.436,1.821-1.172l4.939-10.855c0.104-0.196,0.172-0.407,0.206-0.625
		C62.988,33.207,62.901,32.726,62.666,32.316z"/>
	<path d="M51.583,47.577c-1.104,0-2,0.895-2,2v8.006h-11V15.269c0-1.722-0.81-3.25-2.445-3.795L24.536,7.583h25.047v9.994
		c0,1.104,0.896,2,2,2s2-0.896,2-2v-12c0-1.104,0.003-1.994-1.102-1.994H12.609l-0.325-0.109c-0.413-0.138-0.694-0.205-1.119-0.205
		c-0.829,0-1.94,0.258-2.63,0.755C7.492,4.776,6.583,5.983,6.583,7.269v47.572c0,1.721,1.393,3.25,3.026,3.795l24.146,8
		c0.413,0.137,0.913,0.205,1.337,0.205c0.83,0,1.395-0.258,2.084-0.756c1.043-0.752,1.407-1.959,1.407-3.244v-1.258h13.898
		c1.104,0,1.102-0.902,1.102-2.006v-10C53.583,48.472,52.688,47.577,51.583,47.577z M34.583,62.841l-24-8V7.583V7.504L10.8,7.345
		l23.783,7.924V62.841z"/>
	<path d="M30.583,47.577c0.553,0,1-0.447,1-1v-6c0-0.553-0.447-1-1-1s-1,0.447-1,1v6C29.583,47.13,30.03,47.577,30.583,47.577z"/>
</g>
</svg>