<?xml version="1.0" encoding="utf-8"?>
<!-- Uploaded to: SVG Repo, www.svgrepo.com, Generator: SVG Repo Mixer Tools -->
<svg width="800px" height="800px" viewBox="-151.48 0 468.217 468.217" xmlns="http://www.w3.org/2000/svg"><defs><style>.a{fill:#ffffff;}.b{fill:#7a7473;}.c{fill:#211715;}.d{fill:#bdbdbd;}.e{fill:#5394cf;}.f{fill:#645d5c;}</style></defs><path class="a" d="M95.913,125.606c.68-2.14,1.347-4.3,1.993-6.471,2.312-7.761,4.095-16.611,4.91-20.954a21.972,21.972,0,0,0-4.092-5.261,46.208,46.208,0,0,1-13.334,9.293c-.276.125-.584.278-.673.568a1.072,1.072,0,0,0,.154.753,5.825,5.825,0,0,0,.458.672c-1.928,0-4.06.009-5.781.011a5.653,5.653,0,0,0,.466-.683,1.062,1.062,0,0,0,.154-.753c-.089-.29-.4-.443-.672-.568A46.208,46.208,0,0,1,66.162,92.92a22.055,22.055,0,0,0-4.168,5.394c1.579,5.263,2.775,9.254,2.775,9.254,1.161,3.874,0,0,3.121,8.942,5,14.315,11.844,30.291,15.529,38.249,0,0,.361.779.948,2.051A323.3,323.3,0,0,0,95.913,125.606Z"/><path class="a" d="M113.218,51.042a4.518,4.518,0,0,1,3.617-1.058,4.271,4.271,0,0,1,3.069,2.04,6.028,6.028,0,0,1,.631,2.428,18.09,18.09,0,0,1-1.843,9.586,11.5,11.5,0,0,1-2.973,3.9,3.6,3.6,0,0,1-4.45.41,26.92,26.92,0,0,1-1.177,4.252c-.928,2.482-5.688,10.457-11.93,14.543a48.629,48.629,0,0,0,.771,8.594c.436,2.492.3,4.718,3.763,5.969.23.083,2.154.843,2.673,1.071,0,0-1.03,16.3-22.585,16.523s-20.133-17.594-20.133-17.594c3.464-1.251,3.327-3.477,3.763-5.969a48.8,48.8,0,0,0,.77-8.162,26.482,26.482,0,0,1-7.172-6.1,30.626,30.626,0,0,1-6.175-12.452c-1.868.75-3.262-.214-4.355-1.086a11.488,11.488,0,0,1-2.972-3.9,18.081,18.081,0,0,1-1.844-9.586,6.029,6.029,0,0,1,.632-2.428,4.269,4.269,0,0,1,3.069-2.04,4.515,4.515,0,0,1,3.616,1.058S52.117,25.744,79.9,25.3,113.218,51.042,113.218,51.042Z"/><path class="b" d="M45.59,32.289c-.59,5.677-.29,12.758,1.444,18.118a4.471,4.471,0,0,1,4.949.635s.4.359.8.692C52.534,43.482,54.117,38.077,60.339,32a15.591,15.591,0,0,1,2.3-1.629,2.2,2.2,0,0,1,2.261-.089,22.033,22.033,0,0,0,3.167,1.656c2.717.822,9.286,2.759,12.209,3.45,4.976,1.176,8.718-1.265,13.9-1.011A89.2,89.2,0,0,1,106.4,35.988a4.816,4.816,0,0,1,2.1.721,3.306,3.306,0,0,1,1.006,1.609,82.9,82.9,0,0,1,3.738,12.706,4.516,4.516,0,0,1,3.594-1.04,4.411,4.411,0,0,1,.93.246c3.843-10.229,2.653-24.936-4.916-34.241C106.224,7.846,95.911,2.974,85.37,2.075A46.091,46.091,0,0,0,70.214,3.7a18.567,18.567,0,0,0-12.6,9.96c-5.126,1.849-8.414,5.06-10.48,11.209L46.676,26.4A33.4,33.4,0,0,0,45.59,32.289Z"/><path class="a" d="M109.244,432.382a4.084,4.084,0,0,0,1.618-1.9,30.482,30.482,0,0,1-1.39-4.333,168.563,168.563,0,0,1-19.514-.72l-.018,2.727a23.9,23.9,0,0,0,15.026,5.2A8.365,8.365,0,0,0,109.244,432.382Z"/><path class="a" d="M58.733,426.27a30.632,30.632,0,0,1-1.362,4.208,4.082,4.082,0,0,0,1.617,1.9,8.37,8.37,0,0,0,4.278.966,23.9,23.9,0,0,0,15.027-5.2l-.019-2.729A142.686,142.686,0,0,1,58.733,426.27Z"/><path class="c" d="M57.6,419.23a28.7,28.7,0,0,1-3.185,12.921,2.045,2.045,0,0,0,.718,2.736,2.02,2.02,0,0,0,2.736-.717A33.17,33.17,0,0,0,61.6,419.23a2,2,0,0,0-4,0Z"/><path class="c" d="M76.239,420.27l.085,12.46a2,2,0,0,0,4,0l-.085-12.46a2,2,0,0,0-4,0Z"/><path class="c" d="M106.629,419.23a33.156,33.156,0,0,0,3.73,14.94,2,2,0,0,0,3.454-2.019,28.71,28.71,0,0,1-3.184-12.921,2,2,0,0,0-4,0Z"/><path class="c" d="M87.994,420.27l-.086,12.46a2,2,0,0,0,4,0l.086-12.46a2,2,0,0,0-4,0Z"/><path class="d" d="M83.9,424.547c9.392,1.953,31.385,2.187,36.318.542.445-7.365,1.259-80.473,3.245-113.471,1.673-27.779,2.989-61.109,4.62-78.507-19.195-.293-69.636-.6-88.785-.916,1.65,17.269,3.488,51.4,5.174,79.423,1.987,33,2.8,106.106,3.246,113.471,4.932,1.645,24.115,1.761,35.556-.426"/><path class="c" d="M37.3,232.2c1.435,15.085,2.256,30.235,3.161,45.358.91,15.208,1.938,30.417,2.6,45.638.57,13.1.932,26.209,1.256,39.318q.477,19.254.83,38.512c.152,7.68.215,15.37.524,23.046.014.341.028.681.049,1.022a2.074,2.074,0,0,0,1.468,1.928,28.762,28.762,0,0,0,6.56,1.007c3.095.241,6.2.306,9.309.289a115.96,115.96,0,0,0,20.751-1.721c2.527-.476,1.457-4.332-1.063-3.858a110.015,110.015,0,0,1-19.688,1.579c-3.011.017-6.027-.045-9.031-.268a22.976,22.976,0,0,1-5.775-.885l1.469,1.929c-.4-6.678-.361-13.4-.494-20.087q-.373-18.781-.789-37.564c-.316-13.344-.669-26.688-1.2-40.025C46.661,313,45.7,298.6,44.854,284.206c-.942-15.95-1.824-31.914-3.181-47.836q-.177-2.088-.375-4.175a2.056,2.056,0,0,0-2-2,2.014,2.014,0,0,0-2,2Z"/><path class="c" d="M126.125,232.663c-1.441,15.163-2.061,30.414-2.85,45.621-.784,15.107-1.765,30.207-2.416,45.32-.563,13.073-.924,26.154-1.247,39.234q-.471,19.156-.824,38.315c-.151,7.636-.214,15.282-.521,22.914-.014.341-.029.681-.049,1.022l1.468-1.929a12.95,12.95,0,0,1-1.907.429c-.632.1-1.358.179-2.307.26-2.358.2-4.726.283-7.091.317a164.534,164.534,0,0,1-16.542-.562,64.415,64.415,0,0,1-7.407-.985c-2.513-.514-3.588,3.341-1.064,3.857a96.6,96.6,0,0,0,15.388,1.557,138.1,138.1,0,0,0,16.11-.135,25.605,25.605,0,0,0,5.884-.881,2.073,2.073,0,0,0,1.468-1.928c.394-6.637.359-13.318.491-19.963q.37-18.6.781-37.2c.313-13.316.664-26.631,1.188-39.94.565-14.341,1.5-28.665,2.249-43,.834-16.034,1.518-32.093,2.826-48.1q.173-2.118.372-4.233a2.014,2.014,0,0,0-2-2,2.044,2.044,0,0,0-2,2Z"/><path class="c" d="M82.116,280.978c-.537,5.888-.468,11.849-.464,17.755.006,7.105.111,14.209.177,21.314.074,8.029.021,16.06,0,24.09q-.033,16.512-.062,33.024-.022,15.762-.013,31.524.008,5.4.039,10.792c.011,1.634-.054,3.3.082,4.931a2.289,2.289,0,0,0,1.011,1.866,2.012,2.012,0,0,0,2.737-.717,2.052,2.052,0,0,0-.718-2.737h0l.718.717c.118.22.245,1.377.242.66,0-.266-.018-.533-.024-.8-.021-.935-.029-1.87-.037-2.805-.03-3.287-.038-6.575-.044-9.863q-.031-15.25,0-30.5.023-16.613.061-33.227c.015-7.719.065-15.439.029-23.158-.063-13.175-.6-26.4.037-39.565.053-1.1.122-2.2.222-3.3a2.014,2.014,0,0,0-2-2,2.043,2.043,0,0,0-2,2Z"/><path class="a" d="M74.021,319.928c6.456.147,51.858.02,59.261-1.493,0-15.056-1.486-65.082-2.926-94.481a158.055,158.055,0,0,0,26.219-18.311c2.86-2.463,5.781-5.282,6.541-8.979.552-2.685-.126-5.453-.8-8.11l-14.267-56.239c-2.179-7.525-3.416-11.388-8.817-17.394-2.705-3.008-14.735-8.756-25.263-13.341-3.112-1.355-7.993-3.143-10.993-4.315a224.046,224.046,0,0,1-5.07,21.87,339.748,339.748,0,0,1-13.538,37.674l-.949-2.05C79.734,146.8,72.887,130.825,67.89,116.51c-3.121-8.942-1.96-5.068-3.121-8.942l-12.713-5.034c-10.449,4.712-22.329,10.7-24.956,13.5-2.53,2.693-5.008,8.758-6.781,13.546C13.2,148.134,7.37,167.453,2.169,194.027a19.514,19.514,0,0,0,.979,8.556,9.036,9.036,0,0,0,2.9,3.993,181.7,181.7,0,0,0,31.66,18.942c-1.867,30.084-4.349,79.72-5.316,92.1,7.842.813,29.126,1.838,38.465.626"/><path class="c" d="M65.181,87.993a63.858,63.858,0,0,1-.877,8.382c-.064.42-.13.841-.229,1.255-.051.212-.115.418-.18.625-.017.054-.142.353-.028.095.124-.283-.053.093-.084.149-.046.085-.1.164-.148.249-.164.313.166-.136,0,.013s-.291.305-.445.448.24-.139-.075.05c-.107.064-.209.133-.317.195a4,4,0,0,1-.682.324,2.057,2.057,0,0,0-1.4,2.46,2.017,2.017,0,0,0,2.461,1.4,7.706,7.706,0,0,0,3.738-2.626,7.334,7.334,0,0,0,1.169-3.118,67.6,67.6,0,0,0,1.091-9.9,2,2,0,0,0-4,0Z"/><path class="c" d="M96.166,87.993a53.643,53.643,0,0,0,.65,7.135,23.035,23.035,0,0,0,.82,4.307,6.5,6.5,0,0,0,3.391,3.729c.615.29,1.26.515,1.892.764q.483.191.965.385l.455.184c.487.195-.238-.105.02.007a2.066,2.066,0,0,0,2.737-.718,2.015,2.015,0,0,0-.718-2.736c-1.038-.45-2.092-.872-3.15-1.272a5.519,5.519,0,0,1-.834-.415c-.11-.064-.367-.246-.136-.067a3.515,3.515,0,0,1-.382-.35c-.04-.041-.319-.395-.157-.17s-.115-.206-.142-.256c-.062-.112-.118-.226-.171-.343.207.457.015-.011-.011-.1a28.243,28.243,0,0,1-.722-4.017,45.72,45.72,0,0,1-.507-6.072,2,2,0,0,0-4,0Z"/><path class="e" d="M78.105,111.753q.09.387.188.774a6.855,6.855,0,0,1,.282,1.717c-.005.618-2.594,15.7-3.307,21.633,1.906,4.613,6.691,15.486,9.424,20.193,2.413-4.6,4.612-11.4,6.262-16.71-.548-4.821-3.666-23.965-3.652-24.924a10.405,10.405,0,0,1,.669-3.048c.873-2.663,1.048-4.522,1.921-7.186-2.59,0-11.5.021-13.381.021C77.146,106.733,77.519,109.243,78.105,111.753Z"/><path class="c" d="M78.662,116.18c2.88,0,5.76-.064,8.64-.065a2,2,0,0,0,0-4c-2.88,0-5.76.064-8.64.065a2,2,0,0,0,0,4Z"/><path class="c" d="M92.763,138.025c-.961-6.449-1.941-12.9-2.883-19.346-.147-1-.293-2.009-.432-3.014-.024-.175-.049-.351-.072-.527.067.5.01.082,0-.037-.022-.188-.058-.38-.065-.569-.054-1.458.745-2.988,1.111-4.379.475-1.808.834-3.635,1.4-5.419a2.017,2.017,0,0,0-1.928-2.532c-4.461,0-8.921.021-13.381.021a2.024,2.024,0,0,0-1.929,2.532c.385,1.558.689,3.132,1,4.706.287,1.456.833,2.978.978,4.45a16.243,16.243,0,0,1-.327,3.366q-1,8.451-2.048,16.9a2.01,2.01,0,0,0,2,2,2.049,2.049,0,0,0,2-2c.7-5.722,1.4-11.443,2.08-17.168a14.072,14.072,0,0,0,.216-3.728c-.221-1.481-.656-2.94-.949-4.41-.346-1.73-.67-3.463-1.093-5.176l-1.928,2.531c4.46,0,8.92-.02,13.381-.021l-1.929-2.531c-.567,1.783-.927,3.611-1.4,5.418-.458,1.739-1.317,3.541-1.258,5.376a43.192,43.192,0,0,0,.638,4.715c.965,6.64,1.976,13.272,2.965,19.909a2.012,2.012,0,0,0,2.46,1.4,2.05,2.05,0,0,0,1.4-2.46Z"/><path class="a" d="M93.121,113.756c4.282-4.255,7.086-9.41,10.249-14.558a22.828,22.828,0,0,0-4.646-6.278,46.208,46.208,0,0,1-13.334,9.293c-.276.125-.584.278-.673.568a1.072,1.072,0,0,0,.154.753,43.453,43.453,0,0,0,2.758,3.561C89.505,109.391,91.861,112.2,93.121,113.756Z"/><path class="a" d="M71.764,113.756c-4.281-4.255-7.086-9.41-10.249-14.558a22.832,22.832,0,0,1,4.647-6.278A46.208,46.208,0,0,0,79.5,102.213c.276.125.583.278.672.568a1.062,1.062,0,0,1-.154.753,42.964,42.964,0,0,1-2.758,3.561C75.38,109.391,73.024,112.2,71.764,113.756Z"/><path class="c" d="M94.536,115.17a59.559,59.559,0,0,0,8.37-11.348c.6-.994,1.2-1.991,1.806-2.984a2.9,2.9,0,0,0,.623-1.906,5.222,5.222,0,0,0-.817-1.8,24.324,24.324,0,0,0-4.38-5.623,2.035,2.035,0,0,0-2.829,0,43.431,43.431,0,0,1-7.169,5.811c-1.259.816-2.556,1.574-3.89,2.262-1.265.653-3.034,1.117-3.461,2.67a3.629,3.629,0,0,0,.946,3.142c.866,1.148,1.779,2.262,2.69,3.375,1.753,2.141,3.536,4.258,5.282,6.4a2.014,2.014,0,0,0,2.829,0,2.048,2.048,0,0,0,0-2.829c-1.458-1.791-2.942-3.561-4.411-5.343-.827-1-1.653-2.008-2.463-3.026-.228-.287-.458-.572-.675-.869-.095-.129-.184-.286-.288-.409-.178-.208.044-.246.018.087l-.273,1.009q-.5.409-.045.15l.311-.143c.312-.147.625-.3.935-.448q.948-.471,1.874-.988,1.908-1.064,3.71-2.305a48.345,48.345,0,0,0,6.909-5.722H97.309a21.847,21.847,0,0,1,4.334,5.874V98.189c-3.018,4.924-5.83,10.025-9.936,14.152C89.889,114.168,92.717,117,94.536,115.17Z"/><path class="c" d="M73.178,112.341c-4.106-4.127-6.917-9.228-9.936-14.152v2.019a21.847,21.847,0,0,1,4.334-5.874H64.748a48.526,48.526,0,0,0,6.908,5.722q1.8,1.237,3.71,2.305.849.474,1.719.91.465.233.935.453.233.109.466.216.453.26-.045-.15l-.273-1.009c-.022-.285.216-.318.019-.087-.086.1-.154.224-.232.332-.232.324-.483.635-.731.946-.81,1.018-1.636,2.022-2.463,3.026-1.469,1.782-2.953,3.552-4.411,5.343a2.06,2.06,0,0,0,0,2.829,2.014,2.014,0,0,0,2.828,0c1.711-2.1,3.457-4.177,5.175-6.273.923-1.126,1.844-2.253,2.725-3.411a3.717,3.717,0,0,0,1.019-3.237c-.415-1.509-2.074-1.961-3.306-2.59q-2-1.023-3.891-2.243a43.515,43.515,0,0,1-7.324-5.91,2.036,2.036,0,0,0-2.828,0,24.2,24.2,0,0,0-4.293,5.472,7.649,7.649,0,0,0-.868,1.689,2.679,2.679,0,0,0,.587,2.171c.605.993,1.2,1.99,1.806,2.984a59.516,59.516,0,0,0,8.37,11.348C72.168,117,75,114.169,73.178,112.341Z"/><path class="c" d="M103.811,99.456c8.179,3.323,16.309,6.849,24.185,10.843a64.689,64.689,0,0,1,8.513,4.893,16.228,16.228,0,0,1,2.532,2.552,30.5,30.5,0,0,1,3.053,4.345,48.155,48.155,0,0,1,4.027,10.758c.715,2.467,4.576,1.417,3.857-1.064a58.438,58.438,0,0,0-3.821-10.592,28.432,28.432,0,0,0-6.2-8.343,42.335,42.335,0,0,0-8.047-5.024c-3.972-2.089-8.04-4-12.13-5.842q-7.391-3.336-14.907-6.383a2.012,2.012,0,0,0-2.46,1.4,2.049,2.049,0,0,0,1.4,2.46Z"/><path class="c" d="M129.262,148.134c-1.459,11.86-1.963,23.876-2.685,35.8q-.181,3-.358,6a70.749,70.749,0,0,0,.627,12.365c.437,3.793.714,7.6.946,11.407.678,11.111,1.124,22.237,1.551,33.359q.758,19.692,1.3,39.393c.277,9.926.556,19.857.626,29.788q.007,1.1.009,2.192c0,2.573,4,2.578,4,0,0-9.127-.269-18.257-.51-27.38q-.519-19.6-1.248-39.19c-.431-11.649-.891-23.3-1.543-34.938-.206-3.674-.417-7.352-.75-11.017-.356-3.917-.988-7.812-1.107-11.749-.067-2.25.11-4.5.243-6.74.718-12.063,1.369-24.153,2.556-36.181.1-1.037.211-2.072.339-3.106a2.011,2.011,0,0,0-2-2,2.049,2.049,0,0,0-2,2Z"/><path class="c" d="M35.075,149.268c1.481,12.037,2.028,24.225,2.777,36.324.106,1.711.215,3.421.313,5.133.274,4.8-.5,9.553-.978,14.317-.344,3.4-.576,6.816-.812,10.227-.784,11.337-1.423,22.685-2.063,34.032q-1.1,19.415-2.15,38.833c-.511,9.2-.987,18.413-1.635,27.608q-.066.94-.138,1.88c-.2,2.567,3.8,2.554,4,0,.654-8.406,1.066-16.835,1.537-25.253Q37,273.2,38.046,254.034c.661-11.821,1.324-23.641,2.105-35.454.256-3.866.517-7.733.855-11.593.256-2.925.65-5.834.932-8.756a60.912,60.912,0,0,0,.1-9.6c-.729-12.02-1.414-24.062-2.6-36.047-.109-1.107-.227-2.214-.362-3.318a2.063,2.063,0,0,0-2-2,2.012,2.012,0,0,0-2,2Z"/><path class="c" d="M51.047,100.807c-7.386,3.336-14.932,6.735-21.781,11.1A16.831,16.831,0,0,0,23.5,117.6a67.422,67.422,0,0,0-5.106,11.444c-.9,2.416,2.967,3.459,3.857,1.064a61.664,61.664,0,0,1,4.7-10.489,12.882,12.882,0,0,1,5.076-4.722,187.378,187.378,0,0,1,21.039-10.638,2.015,2.015,0,0,0,.718-2.736,2.048,2.048,0,0,0-2.736-.718Z"/><path class="c" d="M132.75,316.506c-.2.041-.408.072-.612.108-.594.105.3-.027-.335.045s-1.276.133-1.915.186c-1.712.14-3.428.231-5.144.309-4.605.211-9.215.318-13.824.4-9.94.179-19.883.223-29.825.193-3.116-.009-6.233-.008-9.348-.077l2,2c-.179-16.432-.032-32.912.537-49.334.4-11.446.595-22.9.8-34.347q.408-22.167.733-44.335.1-6.695.191-13.39c.01-.757.006-1.516.025-2.273.054-2.266,1.305-4.34,2.529-6.174,1.261-1.891,2.721-3.631,4.079-5.45,2.5-3.35,3.958-7.618,5.543-11.453,2.287-5.534,4.372-11.151,6.338-16.807a259,259,0,0,0,9.836-35.415c.275-1.409.541-2.82.786-4.234a2.06,2.06,0,0,0-1.4-2.461,2.019,2.019,0,0,0-2.461,1.4,227.283,227.283,0,0,1-7.614,30.646A265.909,265.909,0,0,1,81.4,158.513c-2.944,6.232-9.292,10.735-9.368,18.137-.036,3.537-.093,7.074-.145,10.611q-.314,21.5-.694,42.993c-.222,12.479-.393,24.964-.812,37.438-.544,16.212-.692,32.441-.653,48.661,0,1.106.007,2.211.019,3.317a2.035,2.035,0,0,0,2,2c7.224.161,14.459.1,21.684.067,10.041-.044,20.092-.114,30.126-.531a66.786,66.786,0,0,0,10.256-.843c2.522-.5,1.455-4.36-1.063-3.857Z"/><path class="c" d="M32.389,319.622c6.2.635,12.446.9,18.671,1.072,6.563.181,13.265.381,19.794-.446a2.063,2.063,0,0,0,2-2,2.012,2.012,0,0,0-2-2c-6.529.827-13.231.627-19.794.446-6.225-.172-12.474-.437-18.671-1.072a2.013,2.013,0,0,0-2,2,2.044,2.044,0,0,0,2,2Z"/><path class="c" d="M62.84,108.1c1.177,3.925,2.684,7.765,4.07,11.618,3.084,8.581,6.5,17.045,10.079,25.429,1.521,3.561,3.078,7.108,4.7,10.623a2.017,2.017,0,0,0,2.737.717,2.045,2.045,0,0,0,.717-2.736c-3.169-6.853-6.113-13.813-8.926-20.819-3.014-7.5-5.6-15.145-8.46-22.7-.4-1.055-.739-2.11-1.063-3.191-.737-2.46-4.6-1.412-3.857,1.063Z"/><path class="c" d="M146,132.383l10.819,42.648,2.7,10.662c.807,3.18,2.183,6.745,1.729,10.074-.381,2.794-2.363,5.021-4.332,6.883-2.329,2.2-4.86,4.219-7.381,6.2a156.045,156.045,0,0,1-18.821,12.6c-2.234,1.278-.221,4.736,2.019,3.454a159.854,159.854,0,0,0,17.427-11.528c2.771-2.108,5.492-4.288,8.118-6.576a22.226,22.226,0,0,0,5.827-6.941c1.525-3.237,1.341-6.636.568-10.052-.833-3.683-1.844-7.334-2.772-10.994l-5.656-22.293-6.393-25.2c-.632-2.494-4.491-1.437-3.857,1.063Z"/><path class="c" d="M129.645,194.212c1.571-.931,3.333-1.539,4.692-2.8a5.446,5.446,0,0,0,1.74-5.419,15.427,15.427,0,0,0-1.881-4.228l-3.118-5.261c-1.311-2.213-4.771-.2-3.454,2.019l2.67,4.5c.39.659.828,1.307,1.159,2,.069.143.131.29.2.435.152.336-.041-.1.046.1.1.247.207.494.3.745a5.754,5.754,0,0,1,.27.956c-.063-.359-.005.206,0,.24.025.372.047-.121-.01.076-.049.17-.134.337-.008.09a3.307,3.307,0,0,1-.283.466c.167-.226-.066.059-.138.134-.127.136-.267.259-.4.391-.324.33.265-.13-.178.135-.148.089-.291.186-.439.274-.353.208-.716.4-1.08.584-.705.36-1.421.7-2.1,1.1-2.213,1.311-.2,4.77,2.019,3.454Z"/><path class="c" d="M40.349,191.128a25.786,25.786,0,0,1-3.643-2.465q-.174-.158-.338-.327s-.406-.491-.226-.238a3.542,3.542,0,0,1-.243-.406q-.1-.194.028.06l-.049-.173-.038-.176c.028.2.038.221.03.07.005-.108.031-.439-.01-.172a5.327,5.327,0,0,1,.3-1.041c.087-.234.184-.465.28-.695.086-.208-.106.232.045-.1.056-.123.109-.247.166-.369.327-.7.766-1.349,1.159-2.013l2.7-4.555c1.316-2.219-2.14-4.234-3.453-2.019l-3.1,5.229a16,16,0,0,0-1.877,4.175,5.427,5.427,0,0,0,1.627,5.418,25.447,25.447,0,0,0,4.627,3.255c2.2,1.341,4.217-2.117,2.019-3.454Z"/><path class="c" d="M18.39,129.046a358.031,358.031,0,0,0-12.9,40.8q-1.49,5.927-2.8,11.894A126.273,126.273,0,0,0,.112,194.387a18.707,18.707,0,0,0,1.208,8.966,11.386,11.386,0,0,0,2.874,4.284A63.443,63.443,0,0,0,9.319,211.4a182.883,182.883,0,0,0,25.138,14.778c2.3,1.121,4.336-2.327,2.018-3.453a183.506,183.506,0,0,1-21.533-12.313q-2.677-1.785-5.291-3.663c-1.387-1-2.967-1.913-3.876-3.4a14.469,14.469,0,0,1-1.733-8.141,38.418,38.418,0,0,1,1-5.374q.63-3.077,1.3-6.143,1.268-5.794,2.691-11.553,2.617-10.554,5.852-20.941c2.225-7.106,4.694-14.134,7.358-21.087a2.016,2.016,0,0,0-1.4-2.461,2.047,2.047,0,0,0-2.461,1.4Z"/><path class="a" d="M112.2,138.923c2.6-11.929,1.779-25.375-1.155-37.252-.139-.564-2.463-6.569-7-6.569l-.643,6.257c3.331,12.348,4.527,23.462,1.805,35.958"/><path class="c" d="M105.45,157.466a4.622,4.622,0,0,1-3.739-1.917,8.768,8.768,0,0,1-1.309-4.591,19.265,19.265,0,0,1,.455-5.354c.383-1.591,1.111-3.517,2.61-4.37a6.4,6.4,0,0,1,5.137-.26,5.489,5.489,0,0,1,2.651,2.516,13.047,13.047,0,0,1,1.5,8.051c.05-.4-.041.224-.047.249-.046.216-.089.431-.147.645a6.456,6.456,0,0,1-.4,1.1,7.077,7.077,0,0,1-1.686,2.231,6.965,6.965,0,0,1-5.031,1.7c-2.573-.11-2.568,3.891,0,4a10.971,10.971,0,0,0,10.97-7.968,16.728,16.728,0,0,0-1.483-11.613,9.8,9.8,0,0,0-11.971-4.779c-5.246,1.846-6.593,8.02-6.584,12.99a13.491,13.491,0,0,0,1.947,7.581,8.9,8.9,0,0,0,7.121,3.789,2.016,2.016,0,0,0,2-2A2.04,2.04,0,0,0,105.45,157.466Z"/><path class="c" d="M84.71,179.892c-.082,0-.164-.012-.246-.013.6.008.4.061.2.012s-.581-.289-.017.03c-.132-.075-.272-.133-.4-.214-.079-.049-.152-.11-.232-.157.494.289.244.192.112.071a1.744,1.744,0,0,1-.4-.425s.3.436.137.167c-.051-.087-.109-.168-.158-.255s-.076-.15-.115-.225c-.12-.226.171.507.065.148-.059-.2-.09-.413-.155-.607.162.484.038.33.031.1,0-.088,0-.177,0-.265.005-.134.021-.265.032-.4-.062.75-.029.236.014.048a4.742,4.742,0,0,1,.14-.482c.057-.162.21-.4-.078.164.038-.075.07-.153.108-.228a4.155,4.155,0,0,1,.213-.366c.267-.4-.326.365,0,0,.114-.129.247-.233.368-.353-.4.4-.29.216-.127.111.074-.047.15-.091.227-.131.052-.027.109-.048.16-.077-.5.283-.323.132-.137.075.075-.023.152-.038.227-.059.177-.052.362.012-.195.014.216,0,.429-.027.646-.018.109,0,.227.03.335.025-.521.024-.322-.049-.113,0a3.926,3.926,0,0,1,.478.131c.069.025.374.149.023,0s-.061-.019.007.018.154.087.228.135c.163.1.268.276-.126-.111.12.118.25.221.362.347.037.041.07.087.107.126-.409-.432-.22-.292-.12-.139a3.454,3.454,0,0,1,.2.354c.081.162.117.41-.069-.179.024.077.058.153.083.23a4.1,4.1,0,0,1,.116.435c.014.067.026.134.038.2.066.345-.052-.557-.03-.207.009.136.02.271.021.408,0,.09-.008.18-.01.271-.007.353.107-.517.025-.176-.042.175-.088.344-.141.515-.107.343.234-.465.062-.149-.057.1-.11.211-.174.312-.032.051-.067.1-.1.15-.177.275.362-.416.029-.051-.126.138-.273.25-.4.38.384-.38.288-.207.138-.118-.1.057-.188.121-.286.175a.949.949,0,0,1-.262.132l.3-.124c-.063.025-.126.049-.189.07-.2.068-.4.111-.6.159-.394.094.513-.034.1-.011-.15.008-.3.018-.449.02a2,2,0,1,0,0,4,5.711,5.711,0,0,0,4.386-9.674,5.813,5.813,0,0,0-6.725-1.022,5.954,5.954,0,0,0-2.839,5.181,5.516,5.516,0,0,0,5.178,5.515,2,2,0,0,0,0-4Z"/><path class="c" d="M84.71,205.67c-.082,0-.164-.012-.246-.014.6.009.4.062.2.013s-.581-.289-.017.03c-.132-.075-.272-.133-.4-.214-.079-.049-.152-.111-.232-.157.494.289.244.192.112.071a1.744,1.744,0,0,1-.4-.425s.3.436.137.166c-.051-.086-.109-.167-.158-.255-.041-.073-.076-.149-.115-.224-.12-.226.171.507.065.148-.059-.2-.09-.413-.155-.607.162.484.038.329.031.1,0-.088,0-.177,0-.266.005-.133.021-.264.032-.4-.062.749-.029.236.014.048a4.742,4.742,0,0,1,.14-.482c.057-.162.21-.4-.078.164.038-.075.07-.154.108-.229.065-.125.136-.247.213-.365.267-.4-.326.364,0,0,.114-.128.247-.232.368-.352-.4.4-.29.215-.127.111.074-.047.15-.091.227-.131.052-.027.109-.048.16-.077-.5.283-.323.131-.137.075.075-.023.152-.038.227-.06.177-.051.362.013-.195.015.216,0,.429-.028.646-.018.109,0,.227.03.335.025-.521.023-.322-.049-.113,0a3.926,3.926,0,0,1,.478.131c.069.024.374.149.023,0s-.061-.019.007.018.154.086.228.135c.163.1.268.276-.126-.111.12.118.25.221.362.347.037.041.07.087.107.126-.409-.432-.22-.292-.12-.139a3.454,3.454,0,0,1,.2.354c.081.162.117.41-.069-.18.024.078.058.154.083.231a4.1,4.1,0,0,1,.116.435c.014.067.026.134.038.2.066.345-.052-.557-.03-.206.009.136.02.271.021.407,0,.091-.008.181-.01.272-.007.353.107-.518.025-.176-.042.174-.088.344-.141.515-.107.343.234-.465.062-.15-.057.105-.11.211-.174.313-.032.051-.067.1-.1.15-.177.275.362-.416.029-.051-.126.137-.273.249-.4.379.384-.379.288-.206.138-.117-.1.057-.188.12-.286.175a.919.919,0,0,1-.262.131l.3-.123c-.063.025-.126.048-.189.07-.2.068-.4.11-.6.159-.394.094.513-.034.1-.012-.15.009-.3.019-.449.021a2,2,0,0,0,0,4A5.711,5.711,0,0,0,89.1,200a5.813,5.813,0,0,0-6.725-1.022,5.953,5.953,0,0,0-2.839,5.181,5.517,5.517,0,0,0,5.178,5.515,2,2,0,1,0,0-4Z"/><path class="a" d="M58.7,172.749c2.889,0,8.087-1.817,8.574-2.092,3.068-1.734,4.307-4.2,5.069-8.432.883-4.9-.537-9.926-2.468-14.514s-7.443-18.721-9.119-23.647c-1.6-4.713.07-16.913,1.435-22.358l-1.238-5.78c-4.123,1.175-5.928,3.352-7.827,5.78a37.373,37.373,0,0,0-5.037,9.765,111.97,111.97,0,0,0-3.22,14.291,105.771,105.771,0,0,0-.766,22.1c.37,4.546,1.526,14.064,4.23,17.755l9.14-1.7c-2.239-3.575-4.14-9.818-4.717-13.943-.7-5.022-.7-17.17.3-21.244,2.16,4.444,7.482,15.778,8.667,19.393.682,2.081,2.6,6.927,2.592,9.111-.013,2.937-.157,4.936-2.135,6.973-.406.418-2.827,1.413-6.674,2.022Z"/><path class="c" d="M50.063,164.611c-2.2-3.108-2.763-7.469-3.318-11.139a84.841,84.841,0,0,1-.9-12.323,93.846,93.846,0,0,1,1.031-15.332c.917-5.671,2.026-11.608,4.383-16.876,2.09-4.671,5.062-9.541,10.229-11.087l-2.461-1.4,1.239,5.78v-1.063a75.021,75.021,0,0,0-2.152,16.262,22.12,22.12,0,0,0,.716,7.159c.632,1.962,1.4,3.89,2.12,5.819q2.772,7.364,5.706,14.666c2.322,5.775,4.95,11.583,3.492,17.937a10.389,10.389,0,0,1-1.674,4.083,6.618,6.618,0,0,1-1.139,1.142c-.291.23-.621.4-.926.6-.222.151-.366.182-.019.037a21.99,21.99,0,0,1-7.687,1.865c-2.571.046-2.579,4.046,0,4a25.926,25.926,0,0,0,8.608-1.953,10.685,10.685,0,0,0,5.954-6.261,21.934,21.934,0,0,0,.786-12.437,56.752,56.752,0,0,0-3.349-9.611q-3.441-8.524-6.646-17.146a24.851,24.851,0,0,1-1.858-6.377,50.655,50.655,0,0,1,.382-9.906q.314-2.714.814-5.4c.256-1.386.967-3.141.718-4.533-.344-1.919-.819-3.822-1.227-5.729A2.021,2.021,0,0,0,60.424,94c-5.065,1.515-8.558,5.332-11.086,9.846-3.051,5.449-4.555,11.5-5.73,17.591a97.478,97.478,0,0,0-1.024,30.925,66.366,66.366,0,0,0,1.436,7.916,19.262,19.262,0,0,0,2.589,6.355c1.475,2.085,4.945.089,3.454-2.019Z"/><path class="c" d="M59.2,162.908c-3.245-5.3-4.544-11.613-4.821-17.491-.142-3.027-.157-6.063-.059-9.091a36.292,36.292,0,0,1,.661-7.064l-3.656.478c2.476,5.1,4.9,10.243,7.116,15.463.886,2.085,1.622,4.219,2.363,6.358.992,2.862,1.894,5.49,1.35,8.5a5.062,5.062,0,0,1-.847,2.1c-.089.124-.194.232-.287.354-.537.707.012.077-.048.114a4.981,4.981,0,0,1-.57.3,24.709,24.709,0,0,1-5.432,1.372,2.015,2.015,0,0,0-1.4,2.46,2.046,2.046,0,0,0,2.46,1.4c3.31-.546,6.963-1.157,8.866-4.195,1.851-2.953,1.7-7,.8-10.235a114.4,114.4,0,0,0-6.564-16.758q-2.127-4.647-4.352-9.249a2.02,2.02,0,0,0-3.655.478,40.5,40.5,0,0,0-.793,7.8c-.116,3.237-.1,6.485.063,9.721.333,6.592,1.871,13.523,5.352,19.206,1.343,2.192,4.8.184,3.454-2.019Z"/><path class="c" d="M55.505,166.23c-1.7.394-4.667,1.113-5.39,1.691-1.53,1.222-1.249,4.519.454,4.692a33.14,33.14,0,0,0,8.134.136Z"/><path class="c" d="M54.973,164.3c-1.359.316-2.726.635-4.048,1.084a7.8,7.8,0,0,0-1.753.76,4.385,4.385,0,0,0-1.625,2.032,5.439,5.439,0,0,0,.176,4.623,3.537,3.537,0,0,0,2.016,1.675c.241.077.522.04.752.128-.408-.155-.308-.039-.117-.008s.4.057.6.084c.557.075,1.115.141,1.676.183a40.615,40.615,0,0,0,6.051-.113,2,2,0,0,0,0-4c-1.53.116-3.062.211-4.6.18-.846-.017-1.689-.076-2.53-.171-.387-.044-.042,0,.029,0-.11-.008-.227-.034-.336-.051-.234-.036-.46-.071-.7-.1-.07-.008.548.076.342.037-.371-.07.464.229.136.059s.368.375.088.052c-.178-.2.277.47.1.124a1.35,1.35,0,0,0-.134-.252c.241.267.163.436.109.241-.016-.056-.036-.111-.051-.167-.027-.1-.106-.579-.051-.176s.008-.009.005-.1a3.643,3.643,0,0,1,.008-.377.744.744,0,0,1,.018-.19c.011-.016-.11.565-.027.25.032-.122.055-.246.093-.367a1.166,1.166,0,0,0,.061-.178c0,.015-.234.478-.091.221.052-.094.106-.188.157-.282.186-.348-.326.309-.036.045.031-.029.066-.064.095-.1.207-.239-.371.219-.18.13a3.337,3.337,0,0,0,.443-.234c-.366.249-.4.164-.234.1l.178-.068c.145-.055.292-.106.439-.155,1.306-.439,2.655-.755,4-1.067a2.017,2.017,0,0,0,1.4-2.46,2.044,2.044,0,0,0-2.46-1.4Z"/><path class="c" d="M103.336,146.729a9.075,9.075,0,0,0-.3,1.694,6.222,6.222,0,0,0,.009,1.228,2.057,2.057,0,0,0,2,2,2.029,2.029,0,0,0,1.414-.586l.313-.405a1.987,1.987,0,0,0,.273-1.009,6.257,6.257,0,0,1,.019-1.473l-.072.532a6.518,6.518,0,0,1,.2-.918,2.244,2.244,0,0,0-.2-1.541,2.238,2.238,0,0,0-1.2-.919,2.025,2.025,0,0,0-1.542.2,2.12,2.12,0,0,0-.919,1.2Z"/><path class="c" d="M44.541,146.329q3.282-.18,6.552-.52a2.171,2.171,0,0,0,1.414-.586,2,2,0,0,0-1.414-3.414q-3.27.339-6.552.52a2,2,0,0,0,0,4Z"/><path class="c" d="M61.965,144.363l.25-.107-.478.2a28.425,28.425,0,0,1,4.56-1.473,2.017,2.017,0,0,0,1.4-2.46,2.044,2.044,0,0,0-2.46-1.4,31.19,31.19,0,0,0-5.287,1.781,2,2,0,0,0-.92,1.2,2.047,2.047,0,0,0,.2,1.541,2.017,2.017,0,0,0,1.2.919l.532.072a1.985,1.985,0,0,0,1.009-.273Z"/><path class="c" d="M114.13,139.455a79.531,79.531,0,0,0,1.251-23.98,98.07,98.07,0,0,0-1.852-11.954,16.349,16.349,0,0,0-2.179-5.74c-1.681-2.57-4.111-4.588-7.3-4.679a2.048,2.048,0,0,0-2,2l-.552,5.371a9.094,9.094,0,0,0,.476,3.308c.565,2.225,1.07,4.466,1.49,6.722a66.741,66.741,0,0,1-.181,26.282c-.537,2.51,3.318,3.583,3.857,1.063a71.216,71.216,0,0,0,.426-27.036c-.382-2.245-.852-4.475-1.387-6.688a10.658,10.658,0,0,1-.69-3.566l.561-5.456-2,2c2.4.069,3.833,2.492,4.794,4.4.049.1.1.207.142.311q-.138-.334-.059-.141c.045.118.1.235.135.357.221.77.389,1.558.562,2.34q.734,3.3,1.228,6.653a77.462,77.462,0,0,1-.579,27.372c-.538,2.511,3.317,3.584,3.857,1.064Z"/><path class="f" d="M37,461.751c-.116-.151-.225-.308-.329-.47a8.808,8.808,0,0,1-.582-7.379,24.157,24.157,0,0,1,3.787-6.608q5.481-7.486,11.587-14.49c1.587-1.82,3.38-3.717,5.753-4.164a3.569,3.569,0,0,0,1.773,3.742,8.37,8.37,0,0,0,4.278.966,23.746,23.746,0,0,0,16.62-6.614c-.028,5,.022,6.663,0,11.664a10.48,10.48,0,0,1-.438,3.607c-1.028,2.78-4.076,4.119-6.521,5.792-6.364,4.355-9.715,12.3-16.383,16.171a17.215,17.215,0,0,1-15.913.57A10.03,10.03,0,0,1,37,461.751Z"/><path class="f" d="M131.233,461.751q.174-.226.329-.47a8.8,8.8,0,0,0,.583-7.379,24.183,24.183,0,0,0-3.787-6.608q-5.483-7.486-11.588-14.49c-1.586-1.82-3.38-3.717-5.752-4.164a3.568,3.568,0,0,1-1.774,3.742,8.365,8.365,0,0,1-4.278.966,23.741,23.741,0,0,1-16.619-6.614c.027,5-.023,6.663,0,11.664a10.48,10.48,0,0,0,.438,3.607c1.028,2.78,4.076,4.119,6.522,5.792,6.363,4.355,9.714,12.3,16.382,16.171a17.217,17.217,0,0,0,15.914.57A10.026,10.026,0,0,0,131.233,461.751Z"/><path class="c" d="M38.726,460.742c-1.764-2.411-1.3-5.449-.01-7.976a55.593,55.593,0,0,1,5.739-8.271q3.172-4.14,6.559-8.113c1.828-2.152,3.807-5.161,6.732-5.814l-2.46-2.46a5.829,5.829,0,0,0,3.884,6.568c2.632,1.032,5.78.761,8.51.323a25.448,25.448,0,0,0,13.62-6.851l-3.414-1.414c-.022,4.261.164,8.553-.021,12.81-.093,2.138-1.179,3.407-2.893,4.565a57.657,57.657,0,0,0-5.2,3.609c-6.048,5.129-9.633,13.857-17.855,16-4.468,1.166-10.438.409-13.5-3.383a2.012,2.012,0,0,0-2.828,0,2.048,2.048,0,0,0,0,2.829c3.11,3.849,8.921,5.341,13.677,5.006a20.356,20.356,0,0,0,12.98-6.145c3.2-3.156,5.678-6.959,8.876-10.118a31.092,31.092,0,0,1,5.264-3.947,11.793,11.793,0,0,0,4.659-4.621c1.26-2.721.856-6.042.849-8.965-.006-2.547-.017-5.095,0-7.642a2.023,2.023,0,0,0-3.415-1.414,21.43,21.43,0,0,1-9.4,5.292,20.489,20.489,0,0,1-6.213.725c-1.138-.045-4.061-.4-3.719-2.165a2.028,2.028,0,0,0-2.46-2.461c-3.578.8-5.931,3.834-8.189,6.481q-4.026,4.721-7.782,9.662c-4.04,5.3-10.39,13.142-5.44,19.907a2.06,2.06,0,0,0,2.737.717A2.014,2.014,0,0,0,38.726,460.742Z"/><path class="c" d="M132.96,462.761c4.95-6.764-1.4-14.611-5.439-19.907q-3.764-4.932-7.783-9.662c-2.258-2.648-4.61-5.683-8.189-6.481a2.028,2.028,0,0,0-2.46,2.461c.343,1.766-2.586,2.12-3.718,2.165a20.454,20.454,0,0,1-6.213-.725,21.433,21.433,0,0,1-9.4-5.292,2.022,2.022,0,0,0-3.414,1.414c.011,2.268.006,4.537,0,6.805a48.186,48.186,0,0,0,.189,7.676c.812,5.082,5.969,6.587,9.377,9.57,3.39,2.968,5.9,6.764,8.938,10.058,3.234,3.5,7.2,6.272,11.985,7.07,5.371.894,12.207-.283,15.813-4.747a2.06,2.06,0,0,0,0-2.829,2.015,2.015,0,0,0-2.828,0c-2.682,3.32-7.738,4.32-11.787,3.739-4.287-.615-7.624-3.079-10.479-6.2-2.743-3-5.056-6.374-8-9.183a30.389,30.389,0,0,0-4.906-3.7c-1.437-.9-3.229-1.88-3.929-3.522a11.011,11.011,0,0,1-.371-4.221q0-1.774,0-3.548c.007-2.324.014-4.647,0-6.97l-3.414,1.414A25.442,25.442,0,0,0,100.552,435c2.665.427,5.737.7,8.324-.252a5.866,5.866,0,0,0,4.07-6.639l-2.46,2.46c2.863.639,4.786,3.527,6.578,5.633q3.458,4.063,6.714,8.294a57.644,57.644,0,0,1,5.642,8.083c1.343,2.571,1.9,5.682.086,8.164a2.014,2.014,0,0,0,.718,2.736A2.046,2.046,0,0,0,132.96,462.761Z"/><path class="c" d="M48.683,48.95a43.793,43.793,0,0,1-.6-19.883c1.073-5.279,3.373-10.206,8.352-12.753,2.293-1.173.271-4.625-2.019-3.454-5.762,2.948-8.813,8.7-10.127,14.838a48.051,48.051,0,0,0,.54,22.315c.686,2.478,4.546,1.426,3.857-1.063Z"/><path class="c" d="M61.335,11.5c3.811-4.643,9.323-6.238,15.074-7.081A39.308,39.308,0,0,1,94.548,5.989a36.791,36.791,0,0,1,15.065,9.352,29.961,29.961,0,0,1,7.542,14.9,36.238,36.238,0,0,1-.932,18.363c-.8,2.454,3.063,3.505,3.857,1.064,3.783-11.643,1.857-25.878-6.067-35.4C105.424,3.954,91.172-1.175,77.962.228,70.748.994,63.3,2.83,58.507,8.675,56.886,10.649,59.7,13.5,61.335,11.5Z"/><path class="c" d="M54.778,51.734c-.136-5.195.554-10.107,3.595-14.449a25.3,25.3,0,0,1,2.523-3c.612-.637,1.83-2.017,2.749-2.18.662-.118,1.68.756,2.295,1.069a17.172,17.172,0,0,0,2.971,1.113c2.424.723,4.853,1.432,7.29,2.107a23.777,23.777,0,0,0,7.711,1.3c2.886-.167,5.656-1.137,8.537-1.3a42.583,42.583,0,0,1,9.22.809c.947.156,1.892.323,2.837.486a8.7,8.7,0,0,1,2.484.482c.951.517,1.334,2.767,1.669,3.756a64.159,64.159,0,0,1,2.653,9.634,2.018,2.018,0,0,0,2.461,1.4,2.046,2.046,0,0,0,1.4-2.461,62.921,62.921,0,0,0-2.528-9.264,38.656,38.656,0,0,0-1.622-4.443,5.176,5.176,0,0,0-4.091-2.726c-3.341-.607-6.7-1.2-10.088-1.5a27.137,27.137,0,0,0-5.421-.084c-1.684.187-3.332.544-4.994.861a14.988,14.988,0,0,1-4.635.307,26.054,26.054,0,0,1-3.592-.857c-2.708-.736-5.4-1.523-8.09-2.323a12.682,12.682,0,0,1-2.7-1.039c-1.222-.66-2.293-1.479-3.76-1.388-2.919.18-5.513,3.168-7.234,5.264a23.922,23.922,0,0,0-4.609,8.428,32.5,32.5,0,0,0-1.031,10c.068,2.569,4.068,2.579,4,0Z"/><path class="c" d="M109.428,66.753a16.5,16.5,0,0,1-.992,4.514c-.071.213-.145.426-.217.638-.012.035-.223.591-.082.242s-.092.2-.119.251q-.1.212-.2.42a36.922,36.922,0,0,1-3.191,5.129c-2.823,3.879-6.616,7.941-11.362,9.317-2.467.716-1.417,4.577,1.064,3.857,5.728-1.661,10.152-6.27,13.592-10.937,2.911-3.949,5.3-8.416,5.511-13.431.106-2.575-3.895-2.57-4,0Z"/><path class="c" d="M51.344,66.96a34.5,34.5,0,0,0,6.723,15.285c3.634,4.553,8.686,8.41,14.559,9.328a2.062,2.062,0,0,0,2.46-1.4,2.015,2.015,0,0,0-1.4-2.46C63.21,86.078,57.005,75.493,55.2,65.9a2.018,2.018,0,0,0-2.46-1.4,2.044,2.044,0,0,0-1.4,2.461Z"/><path class="c" d="M114.632,52.456a2.428,2.428,0,0,1,3.545.578A5.744,5.744,0,0,1,118.6,55.6a15.237,15.237,0,0,1-.219,3.061,16.107,16.107,0,0,1-2.158,5.7c-.748,1.189-1.98,2.849-3.443,2.459-2.489-.664-3.552,3.194-1.063,3.857,3.273.873,5.835-1.239,7.619-3.784a19.248,19.248,0,0,0,3.125-8.677c.351-2.877.353-6.534-1.978-8.627a6.573,6.573,0,0,0-8.675.037,2.015,2.015,0,0,0,0,2.828,2.043,2.043,0,0,0,2.828,0Z"/><path class="c" d="M53.4,49.628a6.578,6.578,0,0,0-8.676-.037c-2.391,2.146-2.326,5.92-1.947,8.853a18.963,18.963,0,0,0,3.274,8.7c1.843,2.527,4.594,4.684,7.881,3.96,2.513-.554,1.45-4.411-1.063-3.857-1.465.322-3.012-1.565-3.718-2.626a15.876,15.876,0,0,1-2.294-5.8,15.224,15.224,0,0,1-.254-3.014,6.048,6.048,0,0,1,.424-2.774,2.427,2.427,0,0,1,3.544-.578,2.055,2.055,0,0,0,2.829,0,2.016,2.016,0,0,0,0-2.828Z"/><path class="c" d="M78.073,52.4c0,.073.008.146.009.219l3.928-.531c-.507-2.745-2.7-3.926-5.2-4.62a23.994,23.994,0,0,0-7.579-.7,22.155,22.155,0,0,0-8.008,1.607c-2.414,1.113-3.217,3.437-3.208,5.943A12.735,12.735,0,0,0,59.57,60.6a9.17,9.17,0,0,0,5.137,3.761,17.965,17.965,0,0,0,12.259-.4C81.807,61.976,82.689,56.5,82,51.868a2.013,2.013,0,0,0-2.46-1.4,2.053,2.053,0,0,0-1.4,2.461c.332,2.233.173,5.447-1.815,6.877A8.909,8.909,0,0,1,72.4,61.046a17.68,17.68,0,0,1-4.26.089A9.392,9.392,0,0,1,63.8,59.472a5.375,5.375,0,0,1-1.635-3.421c-.178-.956-.475-2.865.209-3.68a3.993,3.993,0,0,1,2.052-.863,22.124,22.124,0,0,1,3.135-.6,24.776,24.776,0,0,1,6.3.016,13.378,13.378,0,0,1,3.043.778,8.117,8.117,0,0,1,.9.453c.242.136.241.428.346,1,.415,2.245,3.949,1.685,3.929-.532,0-.073-.008-.146-.009-.219C82.035,49.828,78.035,49.821,78.073,52.4Z"/><path class="c" d="M84.864,52.4c0,.073-.009.146-.009.219-.02,2.194,3.509,2.8,3.928.532.039-.207.095-.414.13-.621.076-.447.138-.342.02-.184a1.98,1.98,0,0,1,.754-.5,11.1,11.1,0,0,1,2.519-.763,21.9,21.9,0,0,1,5.682-.3,19.139,19.139,0,0,1,5.848,1.089,1.453,1.453,0,0,1,1.075,1.087,7.687,7.687,0,0,1,.075,2.19,7.172,7.172,0,0,1-1.28,3.9,6.82,6.82,0,0,1-3.7,1.841,12.24,12.24,0,0,1-4.021.25,13.42,13.42,0,0,1-4.617-.952c-2.544-1.124-2.849-4.766-2.479-7.259a2.066,2.066,0,0,0-1.4-2.461,2.015,2.015,0,0,0-2.46,1.4c-.6,4.047-.11,8.81,3.548,11.321a13.258,13.258,0,0,0,6.168,1.868,18.445,18.445,0,0,0,6.031-.233,11.662,11.662,0,0,0,5.743-2.933,10.752,10.752,0,0,0,2.407-6.174c.246-2.22.086-4.782-1.665-6.385-1.89-1.73-4.986-2.086-7.421-2.383a26.307,26.307,0,0,0-8.775.308c-2.767.609-5.48,1.774-6.045,4.831l3.929.531c0-.073.008-.146.009-.219C88.9,49.825,84.9,49.824,84.864,52.4Z"/><path class="c" d="M81.278,55.2a11.929,11.929,0,0,1,1.285-.245l-.531.071a11.531,11.531,0,0,1,2.929.008l-.532-.071a11.8,11.8,0,0,1,1.6.338,2,2,0,1,0,1.063-3.857,13.389,13.389,0,0,0-6.878-.1,2.02,2.02,0,0,0-1.4,2.46,2.041,2.041,0,0,0,2.46,1.4Z"/><path class="c" d="M60.527,50.731a12.212,12.212,0,0,0-3.025-.308,2.087,2.087,0,0,0-1.414.586,2.216,2.216,0,0,0-.586,1.414,2,2,0,0,0,2,2,10.189,10.189,0,0,1,1.638.082l-.531-.071c.287.039.572.091.855.154a2.114,2.114,0,0,0,1.541-.2,2.245,2.245,0,0,0,.919-1.2,2,2,0,0,0-1.4-2.46Z"/><path class="c" d="M107.506,54.588c.283-.063.568-.115.855-.154l-.531.071a10.189,10.189,0,0,1,1.638-.082,2.056,2.056,0,0,0,2-2,2.018,2.018,0,0,0-.586-1.414,2.129,2.129,0,0,0-1.414-.586,9.907,9.907,0,0,0-1.278.041,14.278,14.278,0,0,0-1.747.267,1.924,1.924,0,0,0-1.433,1.663,1.512,1.512,0,0,0,.036.8,2.022,2.022,0,0,0,.919,1.2l.478.2a2.018,2.018,0,0,0,1.063,0Z"/><path class="c" d="M76.309,75.367c1.836,1.8,4.711,2.353,7.184,2.353s5.348-.548,7.188-2.347a2,2,0,1,0-2.829-2.828c-.077.075-.42.353-.107.112s-.13.08-.23.142c-.15.092-.3.176-.461.255a1.6,1.6,0,0,0-.32.151c.1-.114.389-.148.06-.034a10.576,10.576,0,0,1-1.534.419c-.051.01-.616.091-.169.037-.157.019-.314.034-.471.047q-.562.046-1.127.046c-.344,0-.688-.012-1.032-.039-.189-.014-.379-.033-.568-.056.286.035.086.009-.084-.022a9.474,9.474,0,0,1-1.555-.412c-.063-.023-.125-.046-.187-.071-.143-.057-.082-.03.185.08a1.077,1.077,0,0,0-.268-.125c-.175-.086-.346-.179-.511-.281-.123-.076-.242-.188-.37-.251.52.255.228.186.034,0a2,2,0,0,0-2.828,2.828Z"/><path class="c" d="M82.186,62.4a27.467,27.467,0,0,1,.648,2.972l-.071-.531a1.814,1.814,0,0,1,.011.41l.071-.532a1.062,1.062,0,0,1-.045.185l.2-.478a.762.762,0,0,1-.065.119l.313-.405a.733.733,0,0,1-.1.1l.405-.313a1.966,1.966,0,0,1-.236.124l.478-.2a1.719,1.719,0,0,1-.4.115l.532-.071a1.552,1.552,0,0,1-.373,0l.532.071c-.14-.019-.278-.053-.419-.072a2.244,2.244,0,0,0-1.541.2,2,2,0,0,0-.717,2.736,1.915,1.915,0,0,0,1.2.92c.362.049.713.139,1.081.156a3.537,3.537,0,0,0,1.648-.4,2.482,2.482,0,0,0,1.345-1.623,3.863,3.863,0,0,0-.014-1.7c-.161-.958-.382-1.907-.628-2.846a2,2,0,0,0-2.46-1.4,2.017,2.017,0,0,0-1.195.919,2.1,2.1,0,0,0-.2,1.541Z"/><path class="c" d="M67.614,53.989c-.466,1.514-.165,5,2.7,5.294,3.79-.021,3.994-4.231,2.719-6.211C71.992,51.451,68.921,50.775,67.614,53.989Z"/><path class="c" d="M98.854,54.005c.465,1.514.16,5-2.708,5.291-3.791-.025-3.99-4.235-2.713-6.214C94.478,51.462,97.55,50.79,98.854,54.005Z"/></svg>