<?xml version="1.0" encoding="utf-8"?>
<!-- Uploaded to: SVG Repo, www.svgrepo.com, Generator: SVG Repo Mixer Tools -->
<svg width="800px" height="800px" viewBox="-4.94 0 360.445 360.445" xmlns="http://www.w3.org/2000/svg"><defs><style>.a{fill:#ffffff;}.b{fill:#211715;}.c{fill:#a0a0a0;}.d{fill:#908b8a;}.e{fill:#5394cf;}</style></defs><path class="a" d="M277.781,87.657a7.949,7.949,0,0,1,6.36-1.861,7.507,7.507,0,0,1,5.4,3.588,10.609,10.609,0,0,1,1.111,4.269,31.8,31.8,0,0,1-3.243,16.857,20.223,20.223,0,0,1-5.226,6.86c-2.136,1.7-4.283,2.517-7.825.726a47.766,47.766,0,0,1-2.071,7.472c-1.677,4.482-10.458,19.15-21.871,26.14.013,3.6.207,7.353,1.408,10.327,2.58,6.39,16.52,14.43,17.48,14.85,0,0-7.9,29.916-45.234,29.916s-42.246-29.916-42.246-29.916c.96-.42,12.71-7.34,15.3-13.73,1.215-3,1.4-6.769,1.409-10.376a44.775,44.775,0,0,1-14.316-11.6,53.851,53.851,0,0,1-10.857-21.89c-3.287,1.312-5.739-.384-7.66-1.916a20.21,20.21,0,0,1-5.226-6.86,31.8,31.8,0,0,1-3.243-16.857,10.609,10.609,0,0,1,1.111-4.269,7.507,7.507,0,0,1,5.4-3.588,7.949,7.949,0,0,1,6.36,1.861S166.512,35.69,220.067,35.69C281.623,35.69,277.781,87.657,277.781,87.657Z"/><path class="b" d="M183.032,178.958a28.825,28.825,0,0,0,3.958-2.421,58.666,58.666,0,0,0,6.77-5.238,21.916,21.916,0,0,0,5.235-6.48c1.767-3.73,1.916-8.029,1.936-12.084.014-3.089-4.786-3.093-4.8,0a44.4,44.4,0,0,1-.29,5.754,15.278,15.278,0,0,1-1.217,4.36,20.143,20.143,0,0,1-4.722,5.471,51.71,51.71,0,0,1-5.751,4.351,26.919,26.919,0,0,1-3.542,2.142,2.419,2.419,0,0,0-.861,3.284,2.458,2.458,0,0,0,3.284.861Z"/><path class="b" d="M248.021,152.705c.073,4.05.3,8.588,2.552,12.1a28.387,28.387,0,0,0,6.077,6.416,78.023,78.023,0,0,0,7.328,5.294,33.853,33.853,0,0,0,4.111,2.441,2.472,2.472,0,0,0,3.284-.861,2.42,2.42,0,0,0-.861-3.284,31.681,31.681,0,0,1-3.711-2.185,70.746,70.746,0,0,1-6.292-4.423,43.082,43.082,0,0,1-3.307-2.91,20.773,20.773,0,0,1-2.219-2.514,11.245,11.245,0,0,1-.922-1.572c.262.55-.188-.519-.2-.563a16.152,16.152,0,0,1-.442-1.587,30.841,30.841,0,0,1-.595-6.354c-.057-3.085-4.857-3.095-4.8,0Z"/><path class="a" d="M257.272,164.586a24.511,24.511,0,0,0-5.075-6.39c-3.861,5.19-12.676,11.671-23.241,15.921a5.993,5.993,0,0,0-2.053,1.162c-.253.471.239.885.47,1.255a16.691,16.691,0,0,0,1.658,1.741c-3.321,0-5.788.013-8.911.015a16.631,16.631,0,0,0,1.675-1.756c.232-.37.724-.784.471-1.255a6,6,0,0,0-2.054-1.162c-10.565-4.25-19.38-10.731-23.24-15.921-3.483,3.2-4.792,5.74-6.884,9.776,3.555,38.346,19.773,69.9,33.086,100.213a283.941,283.941,0,0,0,13.56-27.829c5.333-12.666,13.167-34.827,15.555-41.333,3.1-8.451,5.921-20.847,7.437-29.809C258.8,167.435,258.045,165.941,257.272,164.586Z"/><path class="a" d="M348.169,357.83C343.28,290.275,335.8,231.406,329.623,210.8a24.11,24.11,0,0,0-7.926-12.148,64.082,64.082,0,0,0-10.971-6.569c-11.131-5.377-28.954-12.524-40.362-17.283L259.415,171c-1.572,8.765-4.225,20.118-7.126,28.021-2.388,6.506-10.222,28.667-15.555,41.333a283.941,283.941,0,0,1-13.56,27.829c-12.884-29.335-28.489-59.835-32.7-96.53l-11.965,3.59c-11.409,4.759-29.969,12.146-41.1,17.523a33.634,33.634,0,0,0-9.345,6.31,30.1,30.1,0,0,0-7.037,10.167c-7.752,20.242-8.765,30.369-16.6,50.735-4.462-10.446-8.367-20.145-12.8-31.027-11.213,5.908-29.081,14.091-40.292,16.521,5.589,17.9,11.2,37.144,19.072,55.064,5.472,12.45,11.338,25.213,24.765,27.373,8.6,1.383,18.833-2.123,25.388-7.858,9.451-8.269,26.651-29.85,24.363-27.8,2.99,13.338,2.6,24.384,2.6,37.287,0,9.95-.59,17.3-.6,28.59Z"/><path class="a" d="M181.178,280.912l-1.428-2.767c-4.1-6.828-6.424-18.651-7.283-24.789-1.046-7.472,1.7-23.58,3.186-29.643,1.366,2.428,7.375,16.331,9.047,20.255,3.177,7.457,8.626,17.6,6.316,25.832-1.745,6.218-4.567,7.02-8.08,8.876-3.749,1.98-7.209.86-10.729,2.592-2.606,1.283-3.109,3.744-2.772,6.165.44,3.157,3.138,6.592,6.677,5.786,1.613-.368,2.909-1.525,4.349-2.34,1.911-1.082,4.279-2.02,6.268-2.948,4.552-2.124,8.827-4.431,11.607-8.724,3-4.627,4.774-9.845,4.173-15.325-2.048-18.662-14.781-34.452-20.483-51.207-.5-8.563,2.687-28.5,7.486-38.763,0,0,.436-.5,1.077-1.251q-.514-4.278-.814-8.67c-6.054,2.72-13.531,11.888-15.791,24.787-1.247,7.121-2.91,14.472-4.4,22.911-5.584,13.9-7.619,32.834-7,42.069.6,8.978,3.086,20.4,7.8,27.758l1.347,3.062Z"/><path class="a" d="M280.491,247.717c.589-5.152-1.037-10.831-5.676-13.261,4.313-23.468,2.831-34.992-.081-48.211-1.714-7.779-7.246-18.2-14.226-22.209-.3,2.327-.756,5.182-1.33,8.32,1.611,1.611,4.056,7.222,4.778,9.889,5.068,18.79,5.584,30.782,2.474,51.1-5.574,1.228-7.9,6.555-8.393,8.618-1.316,5.544-.873,12.741,4.13,16.317a9.622,9.622,0,0,0,3.824,1.614c7.9,1.5,13.042-4.277,14.3-10.874C280.374,248.592,280.44,248.156,280.491,247.717Z"/><path class="a" d="M73.89,183.261c-2.282-2.475-4.363-4.716-5.142-8.279-.864-3.948-2.961-9.129-7.155-9.376-2.78-.163-3.639,1.959-4.01,3.208,0,0-.266.9-.7,2.376a18.436,18.436,0,0,0-2.219-.544c-7.272-1.333-15.217.276-15.476,4.036-.3,1.717.077,3.258,1.284,5.784a4.09,4.09,0,0,0-.555.5c-1.257,1.356-2.142,4.946-1.174,5.723l1.132,2.024a4.932,4.932,0,0,0-5.261,1.341c-1.493,1.634-2.63,5.16-.829,6.446.786.561,1.483,1.128,2.153,1.677l-.092,0c-3.022-1.048-7.219,1.618-6.97,4.379.192,2.12,1.872,4.1,3.606,5.472q.192.153.387.3A48.089,48.089,0,0,0,45.5,223.32c1.3,1.023,2.662,1.98,3.923,3.056a26.78,26.78,0,0,1,5.327,6.182l.775,1.343c6.015-2.233,19.058-7.155,26.817-10.752-.089-1.137-.147-1.906-.147-1.906-1.11-14.68-1.642-28.955-4.256-33A36.35,36.35,0,0,0,73.89,183.261Z"/><path class="a" d="M53.242,236.784c-.319-.87-.564-1.523-.684-1.787,2.6-.96,23.845-8.734,32.4-13.115.884,1.767,2.679,5.956,3.894,8.513-9.622,4.909-22.761,10.854-32.818,13.86C55.156,242.092,54,238.837,53.242,236.784Z"/><path class="c" d="M195.12,291.384a4.891,4.891,0,0,0-2.585-4l-2.411-1.14c-1.1.593-2.239,1.144-3.395,1.684-1.465.684-3.135,1.373-4.677,2.12a18.9,18.9,0,0,0,2.252,4.05,5.771,5.771,0,0,0,3.519,2.207,6.675,6.675,0,0,0,2.65-.247c1.8-.474,3.65-1.418,4.425-3.114A3.152,3.152,0,0,0,195.12,291.384Z"/><path class="c" d="M169.351,286.535a5.144,5.144,0,0,1,2.856-5.267,17.307,17.307,0,0,1,6.043-1.286,26.245,26.245,0,0,1,2.5,10.741c-.1.048-.2.1-.293.156-1.44.815-2.736,1.972-4.349,2.34-3.539.806-6.237-2.629-6.677-5.786C169.394,287.133,169.365,286.833,169.351,286.535Z"/><path class="c" d="M42.025,154.384c1.684,4.628,3.662,10.084,5.113,13.766l.747,2.085a28.279,28.279,0,0,1,6.779.411,17.039,17.039,0,0,1,3.238.906c-.745-2.15-1.523-4.4-1.523-4.4-1.345-3.693-5.044-13.3-7.532-19.609a3.369,3.369,0,0,0-4.363-1.908c-.773.305-1.543.634-2.289.949a2.982,2.982,0,0,0-1.64,3.779C41,151.567,41.5,152.935,42.025,154.384Z"/><path class="c" d="M2.8,48.092c.116.287.692,1.7,1.641,4.035A3.2,3.2,0,0,0,8.592,53.9l2.115-.847A3.2,3.2,0,0,0,12.488,48.9c-.889-2.247-1.209-3.045-1.6-4.024-.937-2.33-4.03-4.408-6.037-3.746C3.117,41.7,1.7,45.383,2.8,48.092Z"/><path class="d" d="M182.13,17.182c4.424-5.57,11.826-9.937,19.271-11.826A78.057,78.057,0,0,1,227.393,2.54c18.078,1.563,35.765,10.028,47.126,24.176,12.862,16.019,14.984,41.251,8.611,59.006a7.87,7.87,0,0,0-5.311,1.9c-1.083-6.528-4.253-16.018-6.572-22.342a5.808,5.808,0,0,0-1.769-2.829,8.461,8.461,0,0,0-3.693-1.269c-8.294-1.4-13.032-2.411-21.5-2.827-9.113-.448-15.693,3.846-24.444,1.778-5.141-1.215-16.635-7.045-20.556-9.951-1.055-.771-2-1.518-2.88-2.1-1.05-.7-2.434-1.374-3.545-.782a3.856,3.856,0,0,0-.618.437c-.59.48-1.458,1.17-2.008,1.664-12.252,10.4-19.175,24.96-18.744,39.471v.047l-1.4-1.263a7.949,7.949,0,0,0-6.36-1.861,7.671,7.671,0,0,0-2.366.762c-4.221-13.012-3.572-31.866-.636-41.757l.79-2.661c3.051-9.079,8.063-15.765,13.878-19.058Z"/><path class="e" d="M211.661,235.958l.008-.128c2.1-17.254,5-38.413,5-39.017a13.3,13.3,0,0,0-.517-3.175c-.121-.483-.242-.949-.346-1.432-.641-2.746-1.05-4.654-1.632-7.673.828-.862,1.646-1.728,2.433-2.592,1.47-1.613,2.646-2.8,3.511-3.648,3.121,0,5.588-.013,8.906-.018.866.852,2.05,2.04,3.531,3.666,1.019,1.118,2.089,2.239,3.165,3.351-.332,1.331-.52,2.083-.52,2.083-.328,1.311-.69,2.674-1.173,4.158a19.374,19.374,0,0,0-1.243,5.625c-.017.984,2.795,19.549,5.452,37.32,0,0,.087.623.231,1.646-.6,1.5-1.181,2.915-1.736,4.232a283.941,283.941,0,0,1-13.56,27.829c-3.84-8.743-7.921-17.589-11.871-26.671C211.474,238.87,211.625,236.52,211.661,235.958Z"/><path class="a" d="M242.892,192.941a103.473,103.473,0,0,0,16-25.333c-1.985-3.827-3.319-6.308-6.695-9.412-3.861,5.19-12.676,11.671-23.241,15.921a5.993,5.993,0,0,0-2.053,1.162c-.253.471.239.885.47,1.255.364.582,2.148,2.074,5.185,5.407C236,185.723,240.04,189.534,242.892,192.941Z"/><path class="a" d="M206.277,192.941a103.443,103.443,0,0,1-16-25.333c1.984-3.827,3.318-6.308,6.7-9.412,3.86,5.19,12.675,11.671,23.24,15.921a6,6,0,0,1,2.054,1.162c.253.471-.239.885-.471,1.255-.363.582-2.148,2.074-5.185,5.407C213.164,185.723,209.128,189.534,206.277,192.941Z"/><path class="b" d="M177.874,172.931c-13.923,5.8-28.1,11.171-41.673,17.764-8,3.884-14.558,10.2-17.749,18.6-2.922,7.7-5.372,15.539-7.662,23.442-2.561,8.843-5.245,17.623-8.531,26.229a2.418,2.418,0,0,0,1.676,2.952,2.452,2.452,0,0,0,2.952-1.676c5.637-14.76,9.173-30.167,14.483-45.031,1.426-3.99,2.8-7.866,5.484-11.215a31.033,31.033,0,0,1,9.335-7.905c6.34-3.5,13.22-6.188,19.887-8.992,7.672-3.226,15.391-6.341,23.074-9.544a2.48,2.48,0,0,0,1.676-2.952,2.415,2.415,0,0,0-2.952-1.676Z"/><path class="b" d="M269.725,177.115c13.36,5.571,26.928,10.784,39.952,17.12,6.269,3.05,12.546,6.551,15.9,12.919,2.038,3.869,2.92,8.427,3.865,12.671,2.369,10.642,4.035,21.445,5.574,32.234,2.123,14.891,3.859,29.838,5.416,44.8q2.8,26.863,4.805,53.8.272,3.584.531,7.168a2.458,2.458,0,0,0,2.4,2.4,2.42,2.42,0,0,0,2.4-2.4q-2.015-27.779-4.775-55.5c-1.589-15.769-3.385-31.521-5.543-47.223-1.576-11.464-3.291-22.937-5.682-34.263a104.583,104.583,0,0,0-2.9-11.536,27.855,27.855,0,0,0-5.763-10,35.615,35.615,0,0,0-8.676-6.5c-6.351-3.67-13.212-6.5-19.945-9.378-7.215-3.086-14.476-6.064-21.728-9.06q-2.279-.941-4.553-1.889a2.415,2.415,0,0,0-2.953,1.677,2.462,2.462,0,0,0,1.676,2.952Z"/><path class="b" d="M58.344,243.605c-1.3-3.247-2.309-6.621-3.712-9.823L53.2,237.307c8.617-3.168,17.212-6.416,25.66-10.013,2.466-1.05,4.926-2.129,7.314-3.349l-3.284-.861c1.377,2.8,2.564,5.691,3.9,8.51a2.422,2.422,0,0,0,3.284.861,2.452,2.452,0,0,0,.861-3.283c-1.337-2.82-2.523-5.711-3.9-8.51a2.441,2.441,0,0,0-3.284-.861c-8.863,4.527-18.392,7.882-27.716,11.358q-2.053.765-4.111,1.52a2.453,2.453,0,0,0-1.434,3.525c-.242-.552-.106-.257.021.08q.16.425.318.85c.3.818.6,1.639.9,2.459.646,1.769,1.292,3.539,1.991,5.288a2.474,2.474,0,0,0,2.952,1.676,2.416,2.416,0,0,0,1.677-2.952Z"/><path class="b" d="M303.185,358.127c-.015-9.172-.558-18.332-.6-27.5-.043-10.076-.312-20.261,1.141-30.26.7-4.847,1.678-9.659,2.5-14.488q1.233-7.27,2.374-14.557,2.326-14.822,4.319-29.693,2.1-15.643,3.829-31.336a2.415,2.415,0,0,0-2.4-2.4,2.455,2.455,0,0,0-2.4,2.4q-3.1,28.6-7.553,57.037c-1.492,9.645-3.148,19.257-4.83,28.87-1.777,10.156-1.812,20.4-1.783,30.679.028,10.422.587,20.83.6,31.251,0,3.088,4.805,3.094,4.8,0Z"/><path class="b" d="M131.238,213.021q3.125,28.446,7.606,56.725c1.515,9.666,3.306,19.283,4.878,28.938,1.583,9.717,1.422,19.583,1.4,29.395-.018,10.021-.585,20.028-.6,30.048,0,3.089,4.795,3.093,4.8,0,.014-8.816.517-17.62.591-26.435.082-9.776.286-19.637-.876-29.362-.591-4.952-1.571-9.847-2.421-14.759q-1.251-7.229-2.412-14.473-2.346-14.613-4.356-29.276-2.109-15.373-3.813-30.8a2.472,2.472,0,0,0-2.4-2.4,2.415,2.415,0,0,0-2.4,2.4Z"/><path class="b" d="M113.485,274.662c-6.906-15.285-13.216-30.817-19.545-46.347a2.447,2.447,0,0,0-3.526-1.434q-9.78,5.143-19.962,9.486A113.263,113.263,0,0,1,50.7,243.16a2.422,2.422,0,0,0-1.676,2.953c3.731,11.953,7.319,23.955,11.5,35.762,2.115,5.974,4.39,11.889,6.88,17.717a146.524,146.524,0,0,0,6.4,13.587c4.507,8.125,11.123,15.5,20.735,17.046,10.422,1.673,21.254-2.47,28.885-9.522,7.537-6.966,14.233-15.016,20.6-23.046a2.477,2.477,0,0,0,0-3.394,2.416,2.416,0,0,0-3.394,0A245.905,245.905,0,0,1,123,314.414a39.919,39.919,0,0,1-10.3,8,30.38,30.38,0,0,1-14.194,3.392,20.144,20.144,0,0,1-11.69-3.968,31.838,31.838,0,0,1-8-9.551A117,117,0,0,1,72.7,299.827c-2.395-5.441-4.568-10.975-6.595-16.563-4.594-12.662-8.443-25.574-12.455-38.428l-1.676,2.953c7.074-1.556,13.885-4.3,20.534-7.12q10.359-4.392,20.332-9.643l-3.526-1.435c6.486,15.914,12.953,31.831,20.03,47.494a2.418,2.418,0,0,0,3.283.861,2.458,2.458,0,0,0,.861-3.284Z"/><path class="b" d="M7.442,54.04C11.259,64.1,14.95,74.216,18.655,84.322q7.923,21.613,15.672,43.291c2.27,6.381,4.528,12.767,6.692,19.185.982,2.912,5.62,1.663,4.629-1.276-4.289-12.719-8.869-25.341-13.435-37.963Q24.764,86.968,17.167,66.431c-1.687-4.56-3.372-9.121-5.1-13.667a2.469,2.469,0,0,0-2.953-1.677A2.419,2.419,0,0,0,7.442,54.04Z"/><path class="b" d="M.483,48.73Q1.041,50.1,1.6,51.478a12.439,12.439,0,0,0,1.19,2.6,5.61,5.61,0,0,0,4.973,2.425,9.775,9.775,0,0,0,2.878-.861A8.118,8.118,0,0,0,13.4,54.108a5.7,5.7,0,0,0,1.477-2.436c.576-1.84-.092-3.452-.761-5.135a34.4,34.4,0,0,0-1.373-3.327c-1.481-2.817-5.258-5.41-8.537-4.4C2.29,39.405,1.139,41.207.5,43.005a8.567,8.567,0,0,0-.02,5.725,2.456,2.456,0,0,0,2.952,1.676,2.425,2.425,0,0,0,1.676-2.952,8.538,8.538,0,0,1-.264-.874c-.119-.444-.02.038,0,.095a1.7,1.7,0,0,1-.032-.458c-.01-.277,0-.55.022-.826.037-.591-.091.364,0,.006.044-.174.07-.353.115-.527.028-.108.28-.647.239-.751.074.185-.208.4-.007.033.065-.118.123-.24.191-.356.052-.09.113-.175.165-.265.244-.426-.292.256-.063.073a2.21,2.21,0,0,0,.239-.254c.281-.321-.451.289-.082.054.025-.015.21-.119.211-.117.024.133-.643.2-.159.1.314-.065-.643,0-.149.019.093,0,.2,0,.291,0,.426-.012-.165.019-.189-.033a3.383,3.383,0,0,0,.459.107c.105.031.206.069.309.1.52.165-.447-.244.044.024.256.141.51.278.753.442.1.066.194.137.291.206-.424-.3-.153-.122-.066-.038.217.209.44.4.643.627a1.489,1.489,0,0,1,.232.269c-.21-.5-.055-.066.039.079a5.45,5.45,0,0,0,.406.742c-.062-.009-.206-.5-.1-.221.032.083.066.165.1.248q.219.544.436,1.088.288.723.574,1.445c.123.31.248.618.368.928.056.147.113.292.155.444l.041.166c.05.268.044.223-.016-.136a2.633,2.633,0,0,1,0,.332c.019.481.15-.283.006-.068-.041.062-.045.371-.116.392-.039.012.315-.536.038-.128-.026.038-.334.468-.086.165s-.116.1-.142.126c-.233.263-.035-.12.094-.061-.006,0-.425.242-.447.254.426-.226-.058.016-.174.062l-.588.236c-.313.126-.624.261-.941.377-.164.06-.329.1-.5.154-.385.12.154-.081.137-.015a2,2,0,0,1-.332,0c-.488.023.413.149-.011-.011L7.1,51.667c-.247-.087-.208-.067.118.062a1.63,1.63,0,0,1-.424-.248c0-.031.43.431.1.064-.06-.057-.118-.117-.173-.18q-.174-.2.116.157c-.084-.026-.168-.294-.217-.369q-.1-.206.039.106l-.135-.333-.449-1.1-.963-2.369a2.462,2.462,0,0,0-2.952-1.676A2.423,2.423,0,0,0,.483,48.73Z"/><path class="b" d="M49.452,167.512c-1.214-3.09-2.356-6.208-3.495-9.326q-.921-2.517-1.835-5.038-.393-1.077-.786-2.153c-.194-.529-.667-1.348-.56-1.845.1-.457,2.334-1.321,2.877-1.351a.915.915,0,0,1,.871.422,9.11,9.11,0,0,1,.683,1.671q1.839,4.688,3.642,9.387c1.087,2.83,2.176,5.66,3.216,8.508a2.463,2.463,0,0,0,2.952,1.676,2.42,2.42,0,0,0,1.676-2.952c-2.4-6.571-4.89-13.132-7.532-19.609a5.767,5.767,0,0,0-7.7-3.43,12.958,12.958,0,0,0-3.508,1.713c-3.66,2.984-1.081,7.53.2,11.041,1.527,4.2,3.041,8.4,4.675,12.562a2.472,2.472,0,0,0,2.952,1.677,2.417,2.417,0,0,0,1.676-2.953Z"/><path class="b" d="M163.185,84.275c-2.512-8.98-2.876-18.6-2.07-27.854.653-7.5,2.479-15.051,6.307-21.6a26.04,26.04,0,0,1,9.191-9.671c2.676-1.542.261-5.692-2.422-4.144-8.038,4.634-12.882,13.421-15.448,22.063a78.251,78.251,0,0,0-2.689,25.519,74.973,74.973,0,0,0,2.5,16.959c.831,2.97,5.463,1.708,4.628-1.276Z"/><path class="b" d="M183.827,18.879C190.774,10.269,201.758,7,212.306,5.5a67.56,67.56,0,0,1,31.8,3.043,63.838,63.838,0,0,1,26.012,16.74,53.432,53.432,0,0,1,12.835,26.2A64.6,64.6,0,0,1,281.3,83.674c-.953,2.946,3.68,4.208,4.628,1.276a69.4,69.4,0,0,0,2.289-31.033c-1.5-10.511-5.418-20.752-12.124-29.051C261.817,7.2,237.847-1.886,215.444.328c-12.7,1.255-26.631,4.771-35.011,15.157a2.473,2.473,0,0,0,0,3.394,2.417,2.417,0,0,0,3.394,0Z"/><path class="b" d="M173.894,88.873a46.405,46.405,0,0,1,9-28.055,51.6,51.6,0,0,1,10.782-11.165c.455-.342,0-.177.425-.107a4.317,4.317,0,0,1,1.43.835c1.064.728,2.061,1.55,3.121,2.283,1.446,1,2.977,1.88,4.514,2.731a102.228,102.228,0,0,0,11.919,5.679A26.443,26.443,0,0,0,228.3,62.861c5.283-.654,10.39-2.321,15.763-2.114a120.955,120.955,0,0,1,15.817,1.845q2.4.411,4.789.825c1.133.194,2.907.263,3.679,1.269a11.779,11.779,0,0,1,1.288,3.185q.7,1.964,1.367,3.94a109.469,109.469,0,0,1,4.5,16.452,2.42,2.42,0,0,0,2.952,1.677,2.456,2.456,0,0,0,1.676-2.953,106.744,106.744,0,0,0-4.248-15.7c-.778-2.34-1.562-4.689-2.453-6.988a8.3,8.3,0,0,0-2.259-3.546,9.245,9.245,0,0,0-4.352-1.816c-5.546-1.042-11.153-2.006-16.771-2.563A54.761,54.761,0,0,0,240.824,56a67.95,67.95,0,0,0-8.576,1.349c-4.767.956-9.349,1.416-14.026-.208a80.593,80.593,0,0,1-11.792-5.429c-1.73-.937-3.453-1.908-5.086-3.008-2.193-1.477-4.288-3.725-7.055-3.984-2.792-.261-5.088,2.359-7.007,4.085a56.522,56.522,0,0,0-5.955,6.228c-7.795,9.52-12.546,21.441-12.233,33.84.077,3.084,4.878,3.095,4.8,0Z"/><path class="b" d="M41.793,205.369c.045.062.087.126.13.19.139.207,0,.25.05.069.028-.1-.042-.194-.016.022.013.112.132.271.021.015-.125-.286,0-.025,0,.118,0,.091.005.182,0,.273a2.347,2.347,0,0,0-.014.277c.026.268.107-.42,0,.019-.046.187-.081.375-.135.561-.035.123-.079.242-.117.365-.015.049-.14.341-.019.064s-.164.3-.2.369a1.309,1.309,0,0,0-.14.222c-.071.231.247-.233.074-.089-.234.194-.392.289-.054.108a6.932,6.932,0,0,0-.608.359c-.21.142.04,0,.092-.026-.1.041-.2.076-.3.111a6.837,6.837,0,0,1-.853.229c-.11.023-.22.044-.33.061.112-.017.434-.027-.03-.013-.222.007-.442.017-.664.009-.146,0-.291-.016-.435-.03.054.005.36.088.111,0-.286-.1-.584-.153-.871-.259-.256-.094-.086-.028-.031,0-.12-.051-.238-.11-.355-.168q-.411-.2-.808-.437a18.4,18.4,0,0,1-1.54-1.027c-.142-.1-.284-.21-.424-.318.046.035.174.136-.037-.031s-.444-.356-.657-.544a14.63,14.63,0,0,1-1.219-1.221c.006.006-.257-.3-.125-.139s-.112-.154-.109-.149c-.162-.232-.316-.469-.456-.715-.055-.1-.35-.758-.212-.388a6.056,6.056,0,0,1-.251-.887c.068.329.022.026.013-.138-.02-.374-.155.438.034-.081.028-.076.057-.157.079-.235-.014.05-.219.368-.068.19.057-.067.439-.643.243-.414s.007,0,.043-.034c.109-.107.218-.219.326-.327.066-.067.141-.124.21-.188-.238.217-.161.11.05-.026.191-.123.382-.244.583-.351.116-.062.236-.115.352-.175-.184.1-.272.1-.027.019s.5-.16.754-.217c.1-.021.193-.032.287-.056.307-.078-.536,0,.034.012.221,0,.448.018.667.015.3,0-.327-.16-.078,0a2.638,2.638,0,0,0,3.405-1.55,2.453,2.453,0,0,0-1.677-2.952A8.34,8.34,0,0,0,28.461,198a6.315,6.315,0,0,0-1.964,3.91,7.383,7.383,0,0,0,1.261,4.468,13.99,13.99,0,0,0,3.235,3.511,19.808,19.808,0,0,0,4.151,2.7c2.988,1.327,6.789,1.228,9.348-1.029,2.139-1.887,3.209-6.174,1.445-8.613a2.455,2.455,0,0,0-3.283-.861,2.427,2.427,0,0,0-.861,3.284Z"/><path class="b" d="M42.794,187.343a9.213,9.213,0,0,0-6.392-1.06,7.51,7.51,0,0,0-4.383,3.229,8.784,8.784,0,0,0-1.542,5.212,5.07,5.07,0,0,0,.816,2.583,11.47,11.47,0,0,0,2.517,2.215c2.431,1.969,5.007,3.742,7.525,5.6a19.733,19.733,0,0,0,3.319,2.133,7.7,7.7,0,0,0,5.373.274,7,7,0,0,0,4.762-4.2,7.424,7.424,0,0,0-.957-7.043,2.466,2.466,0,0,0-3.283-.861,2.42,2.42,0,0,0-.861,3.284,5.208,5.208,0,0,1,.68,1.135c-.042-.113.157.758.115.441a2.206,2.206,0,0,1-.234,1.555c.164-.379-.159.215-.216.317-.182.324.233-.281,0,.015-.035.045-.357.367-.163.194a3.016,3.016,0,0,1-1.239.568c-.162.043-.326.078-.491.112-.406.083.3-.016-.1.016-.283.022-.559.013-.841.019-.461.009-.16-.019-.034.011a1.286,1.286,0,0,1-.218-.054c-.55-.241.359.222-.145-.061A26.7,26.7,0,0,1,44.2,201.3q-2.52-1.822-5.046-3.624c-1.3-.931-2.568-2.273-3.856-3.024-.018-.011-.088-.25-.045-.018s.082-.011-.025-.074c.035.021.231.331.039.027-.172-.273-.005-.178,0,.029,0-.162.065-.893-.01-.461a6.457,6.457,0,0,1,.23-.908c.048-.149.1-.3.162-.447-.147.347.071-.12.105-.179a8.433,8.433,0,0,1,.535-.871c-.268.364.317-.3.411-.387.266-.253-.28.17.031-.026.155-.1.311-.189.47-.281.088-.05.405-.138.04-.02.144-.047.292-.081.436-.127.409-.131.192-.041.057-.028a5.08,5.08,0,0,1,.617-.016,2.3,2.3,0,0,1,.827.142,6.011,6.011,0,0,1,1.192.478,2.457,2.457,0,0,0,3.284-.861,2.425,2.425,0,0,0-.861-3.284Z"/><path class="b" d="M51.052,193.886c-2.835-2.3-5.589-4.691-8.376-7.046q-.785-.663-1.58-1.316a4.451,4.451,0,0,0-.468-.381c-.236-.142-.216-.36.018.143.256.551.11.327.075.165.131.6.011.1.011-.086,0-.14.011-.278.02-.417-.03.47,0-.025.034-.151.084-.354.168-.7.286-1.05.051-.153.1-.309.168-.457-.143.334.025-.022.052-.072.087-.165.182-.322.276-.482s.073-.124-.078.069a2.606,2.606,0,0,1,.219-.239,3.153,3.153,0,0,1,3.324-.46c-.1-.038-.447-.233.244.118.2.1.4.21.6.317q.653.351,1.286.733a25.169,25.169,0,0,1,2.435,1.647,28.837,28.837,0,0,1,3.656,3.463,11.788,11.788,0,0,1,2.331,3.881c.036.1.112.6.072.192a3.112,3.112,0,0,1-.014.741c.068-.448-.292.819-.163.512a4.27,4.27,0,0,1-.242.465c.005-.01-.393.588-.223.371a4.215,4.215,0,0,1-.349.381c-.017.017-.558.439-.294.264a3.184,3.184,0,0,1-.424.246c.28-.125-.39-.012-.1.007a2.656,2.656,0,0,1-.658-.13,8.325,8.325,0,0,1-2.145-1.428,2.474,2.474,0,0,0-3.4,0,2.419,2.419,0,0,0,0,3.4c1.847,1.5,3.943,3.126,6.471,2.946a7.048,7.048,0,0,0,5.606-4.334c2.145-4.813-1.4-9.416-4.755-12.628a30.772,30.772,0,0,0-5.807-4.383c-2.32-1.347-4.656-2.194-7.362-1.619a7.135,7.135,0,0,0-5.105,4.53c-.725,1.768-1.249,4.164-.2,5.915a10.439,10.439,0,0,0,2.408,2.212c.836.7,1.663,1.412,2.491,2.121,2.066,1.771,4.144,3.526,6.257,5.24a2.474,2.474,0,0,0,3.4,0A2.42,2.42,0,0,0,51.052,193.886Z"/><path class="b" d="M59.9,169.452c.049-.161.1-.321.156-.479.125-.348-.157.3.02-.052.2-.4.21-.462.4-.637a1.492,1.492,0,0,1,1.392-.227c1.468.313,2.443,1.843,3.129,3.2a35.413,35.413,0,0,1,1.74,5.478,17.832,17.832,0,0,0,3.419,5.928c1.406,1.707,3.007,3.243,4.4,4.963a15.652,15.652,0,0,1,1.488,2.111c.062.109.365.761.281.557-.063-.151.222.645.282.837a55.175,55.175,0,0,1,1.8,11.434c.57,6.216.922,12.451,1.39,18.676a2.46,2.46,0,0,0,2.4,2.4,2.419,2.419,0,0,0,2.4-2.4c-.463-6.156-.813-12.322-1.371-18.471-.4-4.409-.68-9.13-2.137-13.348C79.6,185.1,75.831,182.34,73.17,178.8c-1.441-1.918-1.879-3.888-2.537-6.136a17.622,17.622,0,0,0-3.261-6.482,7.836,7.836,0,0,0-7.16-2.874c-2.621.419-4.2,2.457-4.943,4.871-.906,2.96,3.725,4.226,4.629,1.276Z"/><path class="b" d="M53.5,180.842c.449,3.791,1.766,7.275,2.941,10.881,1.082,3.322,1.969,6.8.962,10.253-.867,2.971,3.764,4.24,4.629,1.276,1.125-3.857.542-7.868-.6-11.649-1.071-3.552-2.693-7.049-3.133-10.761a2.475,2.475,0,0,0-2.4-2.4,2.414,2.414,0,0,0-2.4,2.4Z"/><path class="b" d="M51.413,182.52c3.454.547,8.11,1,11-1.45a6.406,6.406,0,0,0-.075-9.606c-3.178-2.82-7.842-3.545-11.944-3.668-3.563-.106-7.857.258-10.87,2.376a6.967,6.967,0,0,0-1.956,1.971A5.128,5.128,0,0,0,37,173.4c-.052.177-.249,1.5-.171.923a12.479,12.479,0,0,0,1.465,7.135,2.419,2.419,0,0,0,3.283.861,2.455,2.455,0,0,0,.861-3.284,7.974,7.974,0,0,1-.944-3.527c0-.107.173-1.065.076-.692-.109.42.213-.486.043-.114s.306-.411.09-.129c-.192.248.512-.466.314-.305a4.308,4.308,0,0,0,.423-.269q.322-.191.662-.349a14.343,14.343,0,0,1,1.537-.5,18.008,18.008,0,0,1,3.948-.542c2.941-.106,6.3.1,8.983,1.414.267.131.529.275.783.431.073.044.564.374.4.248a5.739,5.739,0,0,1,.622.585c.19.2.016-.006-.016-.05a3.624,3.624,0,0,1,.231.357,1.668,1.668,0,0,1,.2.69,1.27,1.27,0,0,1-.307,1,2.257,2.257,0,0,1-.931.545c-.146.045-.3.073-.446.1-.13.027-.812.122-.383.071a18.518,18.518,0,0,1-5.032-.1,2.474,2.474,0,0,0-2.952,1.676,2.418,2.418,0,0,0,1.676,2.952Z"/><path class="b" d="M31.9,211.487a51.019,51.019,0,0,0,9.713,11.7c1.957,1.733,4.129,3.189,6.114,4.884a25.266,25.266,0,0,1,4.952,5.7c1.651,2.6,5.807.2,4.145-2.423a29.9,29.9,0,0,0-5.117-6.152c-1.94-1.757-4.141-3.195-6.126-4.9a46.745,46.745,0,0,1-9.536-11.23c-1.6-2.637-5.755-.227-4.145,2.422Z"/><path class="b" d="M217.405,199.067c4.97,0,9.939-.11,14.908-.112a2.4,2.4,0,0,0,0-4.8c-4.969,0-9.938.11-14.908.112a2.4,2.4,0,0,0,0,4.8Z"/><path class="b" d="M212.1,186.374q.643,3.247,1.4,6.47a14.579,14.579,0,0,1,.759,4.184c-.1,1.483-.371,2.972-.563,4.445q-1.331,10.174-2.66,20.349-.9,7-1.762,14.008a2.413,2.413,0,0,0,2.4,2.4,2.458,2.458,0,0,0,2.4-2.4c.992-8.115,2.042-16.223,3.1-24.329.625-4.764,1.472-9.554,1.867-14.344a13.9,13.9,0,0,0-.631-4.4c-.629-2.538-1.175-5.1-1.683-7.663a2.4,2.4,0,1,0-4.628,1.276Z"/><path class="b" d="M228.743,175.875l-8.841.019a2.4,2.4,0,0,0,0,4.8l8.841-.019a2.4,2.4,0,0,0,0-4.8Z"/><path class="b" d="M240.554,233.84q-1.738-11.624-3.476-23.248-.642-4.32-1.267-8.644-.221-1.541-.432-3.083c-.026-.185.056.441-.007-.052-.019-.149-.039-.3-.058-.446-.033-.261-.072-.523-.094-.785a9.425,9.425,0,0,1,.459-3.278c.583-2.108,1.3-4.167,1.838-6.291.755-3-3.873-4.274-4.628-1.276-.853,3.385-2.635,6.991-2.5,10.536a44.706,44.706,0,0,0,.576,4.444c.9,6.405,1.873,12.8,2.83,19.2q1.064,7.1,2.127,14.2a2.416,2.416,0,0,0,2.952,1.676,2.461,2.461,0,0,0,1.677-2.952Z"/><path class="b" d="M249.04,263.892c-5.3,5.1-10.676,10.118-16.2,14.965a2.4,2.4,0,0,0,3.394,3.395c5.529-4.848,10.907-9.868,16.2-14.966a2.4,2.4,0,0,0-3.394-3.394Z"/><path class="b" d="M226.338,302.139c.266.24.482.531.741.773q-.364-.481-.15-.185c.047.066.092.134.135.2.074.116.143.236.208.358.1.192.208.609-.024-.107.045.141.105.276.149.418a5.54,5.54,0,0,1,.183.834l-.086-.638a6.032,6.032,0,0,1,0,1.513l.086-.638a6.626,6.626,0,0,1-.173.838c-.033.117-.068.233-.108.348s-.231.587-.035.123,0-.018-.053.091-.11.208-.169.309-.117.185-.177.277c-.248.383.42-.482.142-.178-.1.107-.5.649-.645.625.016,0,.556-.389.189-.155-.06.037-.118.078-.178.115-.135.084-.274.163-.416.235-.063.032-.128.061-.192.092-.338.167.5-.184.229-.1-.137.044-.269.1-.406.139a7,7,0,0,1-1,.219l.638-.086a7.121,7.121,0,0,1-1.816.006l.638.086a8.361,8.361,0,0,1-1.4-.358c.723.231.394.171.208.08-.117-.058-.233-.12-.345-.187-.083-.05-.162-.105-.243-.158-.33-.212.512.441.129.1a8.718,8.718,0,0,1-.624-.622c-.283-.311.343.508-.006-.014-.067-.1-.13-.2-.189-.307s-.107-.208-.161-.311c-.187-.363.22.622.035.045a4.707,4.707,0,0,1-.171-.75l.086.638a5.2,5.2,0,0,1,0-1.3l-.086.638a6.059,6.059,0,0,1,.2-.9c.042-.141.092-.279.142-.417.162-.457-.243.5-.024.063a9.052,9.052,0,0,1,.46-.829q.12-.189.251-.37a1.034,1.034,0,0,1,.133-.18c-.073.063-.394.477-.132.181.09-.1.177-.2.274-.3s.465-.391.1-.113.041-.019.14-.081q.2-.127.416-.235c.024-.012.173-.1.194-.093,0,0-.592.227-.273.117.139-.048.276-.1.417-.142a6.329,6.329,0,0,1,.982-.208l-.638.085a6.45,6.45,0,0,1,1.577,0l-.638-.086a6.2,6.2,0,0,1,.662.132c.091.025.18.051.269.08s.5.195.08.015c-.4-.171-.073-.028.019.018s.2.1.294.161.188.122.282.183c.337.221-.46-.377-.132-.095a2.555,2.555,0,0,0,1.7.7,2.4,2.4,0,0,0,1.7-4.1,7.634,7.634,0,0,0-4.905-1.866,8.111,8.111,0,0,0-4.511,1.236,8.607,8.607,0,0,0-3.607,8.656,7.446,7.446,0,0,0,3.058,4.352,8.368,8.368,0,0,0,11.584-2.63,8.382,8.382,0,0,0,.967-4.491,7.95,7.95,0,0,0-2.586-5.257,2.4,2.4,0,0,0-3.394,3.394Z"/><path class="b" d="M266.629,257.581c-5.654-1.188-7.153-6.912-6.759-12a17.3,17.3,0,0,1,.536-3.195c.056-.208.121-.414.19-.618.049-.142.1-.28.154-.42.127-.361-.22.428.081-.191a10.137,10.137,0,0,1,2.5-3.566,7.3,7.3,0,0,1,1.885-1.3,8.635,8.635,0,0,1,2.757-.766,10.04,10.04,0,0,1,6.806,1.732c3.49,2.724,3.99,8.088,2.987,12.08-1.3,5.193-5.516,9.234-11.139,8.246a2.468,2.468,0,0,0-2.952,1.677,2.419,2.419,0,0,0,1.676,2.952,14.223,14.223,0,0,0,9.984-1.555,15.516,15.516,0,0,0,6.117-7.311c2.466-5.809,2.151-13.21-1.993-18.189-3.991-4.794-12.058-5.867-17.322-2.642a15.111,15.111,0,0,0-6.766,10.588,21.1,21.1,0,0,0,.851,11.129,12.69,12.69,0,0,0,9.129,7.98C268.367,262.843,269.655,258.217,266.629,257.581Z"/><path class="b" d="M268.027,250.714a2.964,2.964,0,0,1-1.171-.494c-1.531-1.095-1.667-3.3-1.264-5a3.483,3.483,0,0,1,4.516-2.543c2.037.558,2.656,2.824,2.3,4.7C272.019,249.4,270.444,251.172,268.027,250.714Z"/><path class="b" d="M189.874,161.375c-6.608,2.511-11.413,8.836-14.391,15.008a50.808,50.808,0,0,0-4.07,13.2c-.89,4.9-1.917,9.763-2.869,14.645-.492,2.523-.7,5.313-1.621,7.707-.772,2-1.452,4.042-2.06,6.1a112.626,112.626,0,0,0-3.021,13.283c-1.255,7.464-2.177,15.224-1.631,22.8.7,9.74,2.821,20.248,8.1,28.609,1.645,2.605,5.8.2,4.144-2.423-4.385-6.94-6.353-15.519-7.216-23.6a84.952,84.952,0,0,1,.745-21.02,121.778,121.778,0,0,1,2.5-12.709c.524-2.058,1.109-4.1,1.77-6.12a49.03,49.03,0,0,0,1.99-6.459c.887-4.855,1.89-9.688,2.843-14.53.879-4.469,1.489-9.007,3-13.322a34.979,34.979,0,0,1,6.032-10.874,26.871,26.871,0,0,1,3.734-3.707,18.574,18.574,0,0,1,1.746-1.178c.3-.178.61-.347.924-.5.134-.067.269-.131.405-.193.472-.216-.291.108.224-.087a2.468,2.468,0,0,0,1.676-2.952,2.418,2.418,0,0,0-2.952-1.677Z"/><path class="b" d="M181.822,276.933c-3.888-6.58-5.509-14.637-6.72-22.1q-.09-.549-.173-1.1c-.011-.077-.149-1.055-.092-.606-.1-.756-.148-1.518-.176-2.28-.061-1.663-.011-3.329.085-4.989.215-3.732.666-7.45,1.239-11.142.539-3.473,1.152-6.948,1.983-10.365l-4.387.573c2.591,4.67,4.523,9.795,6.648,14.687,2.682,6.177,5.811,12.318,7.735,18.777,1.108,3.724,1.729,7.621.55,11.4-.988,3.173-2.479,4.6-5.245,6.021A15.032,15.032,0,0,1,178.1,277.6a21.6,21.6,0,0,0-6.9,1.5c-3.914,1.86-5.047,6.493-3.731,10.392s4.984,7.041,9.282,6.039c2.238-.521,4.025-2.161,6.04-3.176,2.039-1.027,4.166-1.87,6.223-2.861,3.748-1.805,7.465-4,10.094-7.3a27.3,27.3,0,0,0,5.611-12.573c.7-4.571-.1-9.2-1.229-13.647a82.048,82.048,0,0,0-4.454-12.538c-3.464-7.954-7.82-15.476-11.442-23.356-.855-1.858-1.662-3.736-2.389-5.649a17.124,17.124,0,0,1-.8-2.181,11.338,11.338,0,0,1-.027-1.985,82.22,82.22,0,0,1,.751-9.559,108.277,108.277,0,0,1,4.82-21.447,44.12,44.12,0,0,1,1.635-4.138,2.471,2.471,0,0,0-.861-3.284,2.421,2.421,0,0,0-3.284.861c-2.98,6.438-4.665,13.463-5.938,20.414-.658,3.6-1.185,7.223-1.544,10.862a52.434,52.434,0,0,0-.347,8.383c.121,1.94,1.174,3.951,1.914,5.736q1.269,3.058,2.691,6.051c1.811,3.813,3.769,7.553,5.683,11.315,3.811,7.49,7.5,15.135,9.344,23.383.926,4.138,1.413,8.246.216,12.382a20.693,20.693,0,0,1-6.587,10.43c-3.167,2.531-7.062,4.052-10.719,5.711-.982.445-1.965.9-2.9,1.44-.959.548-1.832,1.263-2.825,1.751a2.619,2.619,0,0,1-3.455-.805,5.648,5.648,0,0,1-1.219-3.963c.124-1.626,1.188-2.39,2.716-2.826,2-.57,4.108-.513,6.135-.933a21.229,21.229,0,0,0,5.432-2.251,13.088,13.088,0,0,0,6.262-6.465,21.061,21.061,0,0,0,1.224-12.34c-1.266-7.205-4.879-13.889-7.749-20.554-2.275-5.283-4.539-10.58-6.987-15.785-.338-.718-.673-1.44-1.058-2.134a2.426,2.426,0,0,0-4.387.573,132.343,132.343,0,0,0-3.306,21.462,46.046,46.046,0,0,0,.228,10.21,106.515,106.515,0,0,0,2.319,11.383,51.681,51.681,0,0,0,5.1,13.226c1.57,2.657,5.721.245,4.144-2.423Z"/><path class="b" d="M163.233,256.6q4.455-.267,8.893-.774a2.61,2.61,0,0,0,1.7-.7,2.438,2.438,0,0,0,.7-1.7c-.053-1.178-1.064-2.552-2.4-2.4q-4.435.506-8.893.774a2.4,2.4,0,0,0,0,4.8Z"/><path class="b" d="M189.364,252.764c.124-.054.248-.106.372-.159l-.574.242a42.3,42.3,0,0,1,6.785-2.191,2.42,2.42,0,0,0,1.676-2.952,2.451,2.451,0,0,0-2.952-1.676,45.5,45.5,0,0,0-7.73,2.591,2.4,2.4,0,0,0-1.1,1.434,2.458,2.458,0,0,0,.242,1.85,2.43,2.43,0,0,0,1.435,1.1l.638.085a2.384,2.384,0,0,0,1.211-.327Z"/><path class="b" d="M277.233,234.525c2-11.124,3.359-22.483,2.309-33.787-.871-9.386-2.617-19.08-7.355-27.341-3.007-5.242-7.117-10.183-12.815-12.54a2.414,2.414,0,0,0-2.952,1.676,2.46,2.46,0,0,0,1.676,2.952c4.15,1.717,7.318,5.916,9.574,9.7a43.007,43.007,0,0,1,5.081,13.229,96.771,96.771,0,0,1,2.257,25.067,150.58,150.58,0,0,1-2.4,19.771,2.467,2.467,0,0,0,1.676,2.952,2.421,2.421,0,0,0,2.952-1.676Z"/><path class="b" d="M176.433,281.739a26.917,26.917,0,0,1,1.774,6.557l-.086-.638q.135,1.021.2,2.05a2.4,2.4,0,1,0,4.8,0,28.621,28.621,0,0,0-2.056-9.245,2.637,2.637,0,0,0-1.1-1.434,2.451,2.451,0,0,0-1.85-.242,2.426,2.426,0,0,0-1.434,1.1,2.317,2.317,0,0,0-.242,1.849Z"/><path class="b" d="M191.525,289.114c.178.075.336.17.506.261.36.191-.2-.234.06.048.139.149.285.288.418.443-.3-.354-.007.01.054.105.114.181.207.37.307.559.211.4-.068-.283.043.112.057.2.127.4.174.606.054.239.044.407.027.072.01.194.009.389.017.584.018.428.115-.352,0,.016-.176.571.21-.239-.043.184-.094.159-.18.319-.283.473.215-.321-.215.225-.28.287s-.429.366-.159.16a6.785,6.785,0,0,1-1.213.709q-.194.087.042-.012c-.117.047-.236.092-.355.134-.208.075-.418.141-.63.2-.233.067-.468.128-.706.181-.145.033-.292.062-.439.087.125-.011.118-.01-.023,0a6.964,6.964,0,0,1-.778.022c-.262-.021-.3-.023-.1,0-.094-.018-.188-.039-.28-.065s-.664-.244-.332-.092a5.032,5.032,0,0,1-.589-.325c-.083-.051-.163-.1-.242-.16.144.121.126.107-.056-.044s-.338-.3-.5-.466a4.672,4.672,0,0,1-.726-.917,22.506,22.506,0,0,1-1.5-2.878,2.008,2.008,0,0,0-2.736-.717,2.056,2.056,0,0,0-.718,2.736,13.882,13.882,0,0,0,3.421,5.133,7.816,7.816,0,0,0,2.816,1.563,7.687,7.687,0,0,0,3.622.027,9.72,9.72,0,0,0,5.2-2.646,5.649,5.649,0,0,0,1.4-5.311,6.542,6.542,0,0,0-3.4-4.525,2.057,2.057,0,0,0-2.736.717,2.022,2.022,0,0,0,.717,2.737Z"/><path class="b" d="M272.232,115.285a25.618,25.618,0,0,1-1.219,6.465c-.238.794-.5,1.581-.766,2.366-.092.271-.182.544-.277.814-.064.181-.361.838-.051.145a49.889,49.889,0,0,1-3.316,6.069,64.418,64.418,0,0,1-13.548,15.765,28.618,28.618,0,0,1-10.072,5.524c-2.965.847-1.705,5.48,1.276,4.628,7.661-2.188,14.042-7.7,19.168-13.613a66.164,66.164,0,0,0,10.486-15.611,34.005,34.005,0,0,0,3.119-12.552c.105-3.09-4.695-3.086-4.8,0Z"/><path class="b" d="M170.049,115.352c2.86,15.318,11.035,30.027,24.739,38.146a33.3,33.3,0,0,0,11.906,4.358,2.476,2.476,0,0,0,2.952-1.676,2.418,2.418,0,0,0-1.676-2.952c-14.622-2.222-25.813-15.469-30.547-28.775a68.323,68.323,0,0,1-2.745-10.377,2.421,2.421,0,0,0-2.952-1.676,2.453,2.453,0,0,0-1.677,2.952Z"/><path class="b" d="M279.478,89.354a5.482,5.482,0,0,1,7.6.636c1.081,1.368,1.183,3.325,1.255,4.992a28.271,28.271,0,0,1-.3,5.777,29.311,29.311,0,0,1-4,10.866c-1.537,2.445-4.083,5.752-7.328,4.86-2.982-.821-4.255,3.808-1.276,4.628,8.347,2.3,13.821-7.566,16-14.107a33.679,33.679,0,0,0,1.691-12.245c-.2-4.015-1.271-7.835-4.927-10.017a10.438,10.438,0,0,0-12.113,1.216,2.42,2.42,0,0,0,0,3.394,2.448,2.448,0,0,0,3.394,0Z"/><path class="b" d="M171.793,85.96a10.449,10.449,0,0,0-11.1-1.724c-3.836,1.7-5.447,5.237-5.842,9.218-.8,8.1,1.63,17.156,6.923,23.417,2.833,3.352,6.92,6.044,11.451,4.99,3.008-.7,1.735-5.329-1.276-4.629-3.153.734-6.22-2.765-7.77-5.088a28.83,28.83,0,0,1-4.258-10.946,28.462,28.462,0,0,1-.392-5.772c.047-1.678.087-3.7,1.069-5.138a5.437,5.437,0,0,1,7.8-.934,2.462,2.462,0,0,0,3.394,0,2.421,2.421,0,0,0,0-3.394Z"/><path class="b" d="M257.948,165.192a203.848,203.848,0,0,1-4.413,21.482c-1.474,5.685-3.378,11.188-5.371,16.7-4.434,12.276-8.775,24.629-13.876,36.648-6.4,15.079-14.449,29.25-22.515,43.477a110.528,110.528,0,0,0-5.221,10.258,52.678,52.678,0,0,0-3.258,8.62c-1.18,4.919-1.349,10.135-1.5,15.17-.363,12.03.189,24.063.48,36.088q.037,1.543.061,3.087c.042,3.086,4.843,3.1,4.8,0-.158-11.477-.756-22.941-.635-34.423.032-2.976.105-5.954.27-8.926.073-1.321.164-2.641.285-3.959q.081-.874.181-1.748c.037-.315.074-.63.117-.945-.06.445.058-.379.074-.485.892-5.755,3.595-11.295,6.3-16.394,3.771-7.115,7.987-14,11.857-21.063,3.844-7.014,7.459-14.148,10.724-21.451,5.695-12.737,10.415-25.9,15.162-39.009,1.784-4.928,3.677-9.832,5.169-14.858a201.864,201.864,0,0,0,5.181-22.32q.412-2.334.759-4.678a2.479,2.479,0,0,0-1.676-2.952,2.418,2.418,0,0,0-2.952,1.676Z"/><path class="b" d="M187.463,165.335a193.844,193.844,0,0,0,8.753,43.6,384.57,384.57,0,0,0,15.346,39.1c3.087,6.965,6.252,13.9,9.322,20.869a2.416,2.416,0,0,0,3.283.861,2.46,2.46,0,0,0,.861-3.284c-11.007-25-22.97-49.708-29.009-76.51a173.633,173.633,0,0,1-3.756-24.633,2.46,2.46,0,0,0-2.4-2.4,2.419,2.419,0,0,0-2.4,2.4Z"/><path class="b" d="M244.589,194.639a109.718,109.718,0,0,0,12.858-18.7q1.314-2.456,2.511-4.971a17.441,17.441,0,0,0,1.248-2.718c.327-1.191-.451-2.264-.984-3.268a31.5,31.5,0,0,0-6.328-8.479,2.447,2.447,0,0,0-3.77.486c-4.024,5.337-10.918,9.6-17.06,12.667-2,1-4.088,1.762-6.09,2.731-2.092,1.012-3.315,2.981-1.835,5.135,1.559,2.271,3.865,4.1,5.722,6.121,3.405,3.7,7.088,7.154,10.334,11a2.42,2.42,0,0,0,3.394,0,2.453,2.453,0,0,0,0-3.4c-3.052-3.615-6.506-6.865-9.72-10.332-1.381-1.491-2.765-2.972-4.209-4.4-.389-.386-.772-.778-1.162-1.164-.156-.153-.5-.659-.008.044-.059-.085-.38-.634-.344-.472v1.276l.071-.276-.617,1.059c-.244.286.25-.17.432-.267s.373-.192.562-.277c.808-.365,1.643-.677,2.456-1.031q2.142-.933,4.221-2a69.685,69.685,0,0,0,7.382-4.372,43.986,43.986,0,0,0,10.616-9.62l-3.769.485a31.179,31.179,0,0,1,6.319,8.926V166.4A109.918,109.918,0,0,1,241.2,191.244a2.466,2.466,0,0,0,0,3.4A2.421,2.421,0,0,0,244.589,194.639Z"/><path class="b" d="M207.974,191.244A109.886,109.886,0,0,1,192.349,166.4v2.422a31.176,31.176,0,0,1,6.32-8.926l-3.77-.485a43.986,43.986,0,0,0,10.616,9.62A69.957,69.957,0,0,0,212.9,173.4q1.977,1.017,4.015,1.911c.812.357,1.638.681,2.451,1.035.263.115.518.227.773.363.163.086.721.606.433.267l-.618-1.059.071.276v-1.276c.037-.162-.284.387-.344.472.5-.7.148-.2-.008-.044-.389.386-.773.778-1.162,1.164-1.444,1.431-2.827,2.912-4.209,4.4-3.214,3.467-6.668,6.717-9.719,10.332a2.465,2.465,0,0,0,0,3.4,2.421,2.421,0,0,0,3.394,0c2.855-3.383,6.065-6.444,9.095-9.665,1.406-1.494,2.778-3.016,4.227-4.468.7-.7,1.459-1.373,2.1-2.136,1.371-1.643,1.984-3.83-.031-5.3-1.65-1.2-3.817-1.782-5.661-2.647a69.695,69.695,0,0,1-10.889-6.325,37.491,37.491,0,0,1-7.768-7.115,2.447,2.447,0,0,0-3.77-.486,31.521,31.521,0,0,0-6.328,8.479c-.487.917-1.172,1.87-1.027,2.949a10.662,10.662,0,0,0,1.2,2.846q1.245,2.609,2.6,5.162a109.6,109.6,0,0,0,12.858,18.7,2.42,2.42,0,0,0,3.394,0A2.453,2.453,0,0,0,207.974,191.244Z"/><path class="b" d="M257.481,174.053c.379.4.1.055.317.37.183.262.354.532.519.805.445.733.84,1.5,1.215,2.266a36.056,36.056,0,0,1,1.774,4.3,106.091,106.091,0,0,1,4.513,35.219c-.262,5.045-.859,10.066-1.606,15.06a2.478,2.478,0,0,0,1.676,2.953,2.418,2.418,0,0,0,2.952-1.677c1.334-8.914,2.286-17.916,1.777-26.938a107.213,107.213,0,0,0-4.518-25.381,42.392,42.392,0,0,0-2.275-5.646,17.834,17.834,0,0,0-2.95-4.722c-2.132-2.243-5.523,1.155-3.394,3.394Z"/><path class="b" d="M217.093,90.045c0,.129.021.257.015.386l4.715-.638a7.463,7.463,0,0,0-3.118-5.136,17.617,17.617,0,0,0-5.555-2.3,41.9,41.9,0,0,0-12.887-1.087,39.846,39.846,0,0,0-12.813,2.441,8.381,8.381,0,0,0-4.6,4.006A13.529,13.529,0,0,0,181.83,93.7a20.389,20.389,0,0,0,2.94,10.784c2.041,3.064,5.485,4.716,8.893,5.815a26.413,26.413,0,0,0,10.008,1.037,30.676,30.676,0,0,0,10.616-2.288c7.461-3.313,8.6-12.489,7.52-19.639a2.416,2.416,0,0,0-2.952-1.676,2.462,2.462,0,0,0-1.677,2.952c.654,4.326.344,10.349-3.5,13.219-1.974,1.473-4.884,2.113-7.287,2.428a31.675,31.675,0,0,1-7.86.2,18.455,18.455,0,0,1-8.03-2.959c-2.193-1.468-3.055-4.181-3.543-6.659a18.609,18.609,0,0,1-.319-4.074c.036-1.369.1-2.985,1.244-3.923a9.526,9.526,0,0,1,3.685-1.485,40.163,40.163,0,0,1,5.709-1.107,42.98,42.98,0,0,1,12,.108,23.214,23.214,0,0,1,5.519,1.523,4.978,4.978,0,0,1,1.7,1.047,4.147,4.147,0,0,1,.7,2.067c.5,2.769,4.6,1.948,4.714-.638.006-.129-.02-.257-.015-.386C222.006,86.956,217.205,86.96,217.093,90.045Z"/><path class="b" d="M229.035,90.045c0,.129-.022.257-.016.386a2.409,2.409,0,0,0,2.081,2.357,2.378,2.378,0,0,0,2.634-1.719,3.277,3.277,0,0,1,2.021-2.929,19.441,19.441,0,0,1,4.589-1.457,39.493,39.493,0,0,1,10.552-.6A36.639,36.639,0,0,1,261.5,88.069a3.661,3.661,0,0,1,2.537,2.5,13.548,13.548,0,0,1,.2,4.379c-.191,2.539-.864,5.619-2.589,7.6-1.8,2.063-4.688,2.922-7.181,3.56a30.425,30.425,0,0,1-15.547-1.269c-5.3-2.234-5.923-9.2-5.174-14.159a2.477,2.477,0,0,0-1.676-2.952,2.418,2.418,0,0,0-2.952,1.676c-.989,6.544-.236,14.378,5.582,18.546,2.75,1.969,6.531,2.806,9.839,3.177a33.253,33.253,0,0,0,9.975-.114,21.257,21.257,0,0,0,10.034-4.586c2.66-2.379,3.82-6.321,4.292-9.736.523-3.782.611-8.58-2.543-11.292a13.842,13.842,0,0,0-5.659-2.6,48.688,48.688,0,0,0-6.756-1.251,45.74,45.74,0,0,0-14.6.459,21.744,21.744,0,0,0-6.438,2.249,7.52,7.52,0,0,0-3.742,5.534l4.714.638c-.006-.129.021-.257.016-.386C233.723,86.966,228.922,86.951,229.035,90.045Z"/><path class="b" d="M221.316,93.894c.435-.108.872-.205,1.313-.285.189-.034.378-.063.567-.094.638-.1-.521.047.122-.013a22.866,22.866,0,0,1,2.483-.115q.573.011,1.146.054.334.025.667.063.143.015.285.033-.483-.066-.069-.006a24.455,24.455,0,0,1,2.436.541,2.4,2.4,0,0,0,1.276-4.629,22.373,22.373,0,0,0-11.5-.178,2.424,2.424,0,0,0-1.677,2.952,2.45,2.45,0,0,0,2.953,1.677Z"/><path class="b" d="M184.824,88.187a20.255,20.255,0,0,0-5.023-.5,2.511,2.511,0,0,0-1.7.7,2.4,2.4,0,0,0,1.7,4.1,17.68,17.68,0,0,1,2.881.146l-.638-.086q.757.1,1.5.271a2.533,2.533,0,0,0,1.849-.242,2.4,2.4,0,0,0,.861-3.284,2.417,2.417,0,0,0-1.434-1.1Z"/><path class="b" d="M267.439,92.816q.745-.168,1.5-.271l-.638.086a17.674,17.674,0,0,1,2.881-.146,2.4,2.4,0,0,0,1.7-4.1,2.564,2.564,0,0,0-1.7-.7,20.25,20.25,0,0,0-5.023.5,2.4,2.4,0,0,0-.574,4.387,2.6,2.6,0,0,0,1.85.242Z"/><path class="b" d="M213.663,129.644c3.015,2.955,7.8,3.811,11.844,3.81s8.831-.847,11.851-3.8c2.212-2.164-1.183-5.557-3.394-3.395-.1.1-.6.522-.3.286.279-.221-.369.245-.518.336-.263.162-.534.311-.81.449-.185.093-.374.182-.564.265.325-.142-.008,0-.16.054a17.732,17.732,0,0,1-6.1,1,17.243,17.243,0,0,1-5.993-.97c-.028-.01-.722-.3-.27-.1q-.238-.1-.472-.221c-.307-.151-.608-.314-.9-.494-.223-.138-.433-.292-.649-.44.613.418-.017-.036-.167-.183-2.208-2.164-5.6,1.228-3.394,3.394Z"/><path class="b" d="M224.286,107.33a48.684,48.684,0,0,1,1.14,5.227l-.086-.638a3.115,3.115,0,0,1,.019.722l.086-.638a1.8,1.8,0,0,1-.079.324l.242-.573a1.313,1.313,0,0,1-.115.208l.375-.485a1.132,1.132,0,0,1-.171.168l.486-.375a3.477,3.477,0,0,1-.414.219l.573-.242a3.035,3.035,0,0,1-.7.2l.638-.086a2.805,2.805,0,0,1-.654,0l.638.085c-.247-.034-.49-.094-.737-.128a2.655,2.655,0,0,0-1.849.242,2.4,2.4,0,0,0-.861,3.284,2.3,2.3,0,0,0,1.434,1.1c.537.072,1.059.21,1.605.234a5.064,5.064,0,0,0,2.334-.55,3.3,3.3,0,0,0,1.851-2.187,5.6,5.6,0,0,0-.024-2.387c-.284-1.684-.672-3.353-1.1-5a2.4,2.4,0,0,0-4.629,1.276Z"/><path class="b" d="M197.584,92.84c-.821,2.661-.29,8.785,4.753,9.309,6.665-.036,7.024-7.44,4.782-10.922C205.283,88.376,199.882,87.188,197.584,92.84Z"/><path class="b" d="M252.521,92.868c.818,2.662.281,8.786-4.763,9.3-6.665-.043-7.017-7.447-4.771-10.927C244.825,88.4,250.228,87.213,252.521,92.868Z"/></svg>