<!DOCTYPE svg PUBLIC "-//W3C//DTD SVG 1.1//EN" "http://www.w3.org/Graphics/SVG/1.1/DTD/svg11.dtd">
<!-- Uploaded to: SVG Repo, www.svgrepo.com, Transformed by: SVG Repo Mixer Tools -->
<svg width="800px" height="800px" viewBox="-43.77 0 317.289 317.289" xmlns="http://www.w3.org/2000/svg" fill="#000000">
<g id="SVGRepo_bgCarrier" stroke-width="0"/>
<g id="SVGRepo_tracerCarrier" stroke-linecap="round" stroke-linejoin="round"/>
<g id="SVGRepo_iconCarrier">
<defs>
<style>.a{fill:#ffffff;}.b{fill:#3f88c9;}.c{fill:#211715;}.d{fill:#a0a0a0;}</style>
</defs>
<path class="a" d="M84.425,61.03a188.332,188.332,0,0,1,22.612-2.394c4.914-.145,9.838-.049,14.756.046a200.412,200.412,0,0,1,37.536,4.206q2.725,9.776,5.458,19.548a7.243,7.243,0,0,1,6.275-2.121,6.934,6.934,0,0,1,4.983,3.313,9.78,9.78,0,0,1,1.026,3.943,29.361,29.361,0,0,1-2.994,15.566,18.663,18.663,0,0,1-4.826,6.335,5.673,5.673,0,0,1-6.385,1.053c-.786,2.35-1.809,4.462-2.146,5.487-1.586,4.3-10.1,19.019-21.015,25.534.173,2.106.455,4.19.814,6.285.575,3.3.4,6.242,4.983,7.9.079.028,1.054.483,2.452,1.14-7.087,7.4-18.829,11.188-33.286,11.188-13.225,0-25.747-5.049-32.431-11.13,1.5-.7,2.537-1.174,2.617-1.2,4.584-1.657,4.4-4.6,4.98-7.9a64.262,64.262,0,0,0,.871-6.765A51.792,51.792,0,0,1,79.233,130.68a57.658,57.658,0,0,1-10.565-19.366l-.623.168c-2.681.722-4.728-.708-6.36-2.01a18.666,18.666,0,0,1-4.827-6.335,29.361,29.361,0,0,1-2.994-15.566,9.78,9.78,0,0,1,1.026-3.943,6.934,6.934,0,0,1,4.983-3.313,7.34,7.34,0,0,1,5.888,1.732l5.15-18.439C74.9,62.7,79.581,61.805,84.425,61.03Z"/>
<path class="b" d="M68.72,161.272c1.575-.623,3.093-1.242,4.521-1.85L81.266,156c6.391,6.488,19.509,12.06,33.4,12.06,14.97,0,27.029-4.057,34.023-11.988l7.857,3.348c7.72,3.29,18.07,6.86,25.81,10.02,6.63,2.99,10.54,6,15.56,10.37a62.4,62.4,0,0,1,11.83,14.5,69.514,69.514,0,0,1,7.51,18.44,333.985,333.985,0,0,1,10.08,69.03c.43,11.73-2.14,25.2-12.38,30.93-4.677,2.615-10.342,2.718-15.528,1.159h-4.088c-17.575,0-144.5.017-160,.024,0,0-1.885,0-5.078.006-5.159,1.528-10.784,1.411-15.433-1.188-10.24-5.73-12.81-19.2-12.38-30.93a333.985,333.985,0,0,1,10.08-69.03,69.514,69.514,0,0,1,7.51-18.44,62.4,62.4,0,0,1,11.83-14.5c5.02-4.37,8.93-7.38,15.56-10.37C53.739,166.866,61.781,164.019,68.72,161.272Z"/>
<path class="c" d="M195.342,311.47l-21.2,0-36.248,0-41.525.006-37.1.006q-11.319,0-22.64,0H35.342c-3.088,0-3.093,4.8,0,4.8q10.112,0,20.223,0l35.745-.006,41.5-.006,37.548,0,23.563,0h1.425c3.089,0,3.094-4.8,0-4.8Z"/>
<path class="d" d="M159.146,78.611c-12.98-1.625-28.723-3.247-43.819-3.213C99,75.434,84.961,76.784,66.562,79.179l2.221-7.953c17.322-2.216,30.875-3.46,46.544-3.5,16.09-.035,32.915,1.809,46.34,3.535q1.113,3.977,2.226,7.953Q161.592,78.919,159.146,78.611Z"/>
<path class="b" d="M59.94,26.056a28.205,28.205,0,0,0-8.339,9.08c-3.147,5.968-2.93,13.155-2.293,19.91.871,9.223,2.574,18.872,8.673,25.828a7.2,7.2,0,0,1,1.892-.559,7.34,7.34,0,0,1,5.888,1.732q2.574-9.219,5.143-18.441c10.473-2.385,25.726-4.664,36.133-4.97,4.914-.145,9.838-.049,14.756.046a200.412,200.412,0,0,1,37.536,4.206q2.725,9.776,5.458,19.548a7.243,7.243,0,0,1,6.275-2.121,6.849,6.849,0,0,1,1.322.334c5.94-6.939,7.616-16.479,8.477-25.6.638-6.755.855-13.942-2.293-19.91-2.817-5.34-7.923-8.929-12.864-12.27q-7.97-5.389-16.022-10.647a69.744,69.744,0,0,0-9.506-5.5C132.351,3.221,123,2.4,115.085,2.4c-7.417,0-17.267.818-25.092,4.318a69.744,69.744,0,0,0-9.506,5.5q-8.052,5.258-16.022,10.647C62.949,23.891,61.417,24.94,59.94,26.056Z"/>
<path class="c" d="M69.1,66.5a199.624,199.624,0,0,1,32.7-5.181c6.327-.476,12.672-.378,19.01-.257,6.548.125,13.084.5,19.6,1.208a170,170,0,0,1,21.555,3.683c3,.724,4.283-3.9,1.277-4.628a192.856,192.856,0,0,0-39.669-5c-6.641-.187-13.322-.338-19.957.071-5.831.36-11.643,1.081-17.419,1.947-6.165.925-12.316,2.038-18.37,3.53-3,.739-1.728,5.37,1.276,4.629Z"/>
<path class="c" d="M59.118,78.532C54.7,72.78,52.951,65.621,52.083,58.54c-.86-7.024-1.89-15.243,1.4-21.818,3.251-6.5,10.06-10.362,15.878-14.264q5.531-3.709,11.1-7.357A80.1,80.1,0,0,1,91,8.888c6.539-2.973,14.046-3.831,21.155-4.042A72.423,72.423,0,0,1,133.849,7c7.935,2.227,14.638,7.269,21.421,11.763,3.582,2.375,7.167,4.75,10.708,7.187a42.436,42.436,0,0,1,7.938,6.657c5.031,5.7,5.273,13.323,4.711,20.529-.547,7.016-1.456,14.425-4.671,20.784a29.25,29.25,0,0,1-2.905,4.612,2.414,2.414,0,0,0,.861,3.284,2.462,2.462,0,0,0,3.284-.861c4.849-6.319,6.657-14.253,7.639-22,1-7.906,1.716-16.431-1.643-23.894-3.3-7.323-10.529-11.75-16.935-16.057q-5.834-3.923-11.713-7.775a81.389,81.389,0,0,0-11.156-6.577C133.843,1.274,125.5.192,117.3.025A76.422,76.422,0,0,0,94.418,2.566c-8.409,2.456-15.554,7.812-22.763,12.6-3.7,2.453-7.416,4.883-11.038,7.444a40.938,40.938,0,0,0-8.523,7.514c-5.3,6.6-5.988,14.852-5.351,23.014.611,7.841,1.688,15.908,5.234,23.026a29.373,29.373,0,0,0,3,4.793,2.479,2.479,0,0,0,3.283.861,2.416,2.416,0,0,0,.861-3.284Z"/>
<path class="c" d="M76.685,162.131q3.787-1.743,7.567-3.5c.577-.267,1.206-.5,1.76-.808-1.138.642.069-.01.35-.129.359-.152.718-.306,1.062-.491A9.416,9.416,0,0,0,89.138,156a9.3,9.3,0,0,0,2.742-5.806c.467-3,.987-6,1.218-9.031a2.421,2.421,0,0,0-2.4-2.4,2.447,2.447,0,0,0-2.4,2.4c-.2,2.61-.646,5.172-1.047,7.755a12.722,12.722,0,0,1-.607,2.571c.192-.51-.029.032-.091.144-.037.067-.421.643-.259.433s-.323.332-.383.389c-.337.327.211-.091-.245.207a33.358,33.358,0,0,1-4.251,2.022q-3.575,1.655-7.152,3.307a2.419,2.419,0,0,0-.861,3.284,2.455,2.455,0,0,0,3.283.861Z"/>
<path class="c" d="M137.3,141.545a84.652,84.652,0,0,0,1.356,9.731,8.526,8.526,0,0,0,4.9,6.235,6.281,6.281,0,0,1,1.308.537c-.353-.3-.712-.318-.383-.158.266.131.539.25.808.375q1.431.668,2.856,1.342,3.655,1.724,7.306,3.454a2.465,2.465,0,0,0,3.283-.861,2.421,2.421,0,0,0-.861-3.284c-3.7-1.754-7.381-3.588-11.13-5.242a7.575,7.575,0,0,1-2.65-1.582c-.181-.213-.186-.218-.017-.015-.078-.113-.151-.229-.22-.348a5.323,5.323,0,0,1-.276-.543c.229.523-.069-.28-.1-.382-.066-.231-.121-.466-.172-.7a69.528,69.528,0,0,1-1.206-8.557,2.462,2.462,0,0,0-2.4-2.4,2.419,2.419,0,0,0-2.4,2.4Z"/>
<path class="c" d="M78.875,156.961A36.207,36.207,0,0,0,90.4,165.042a56.961,56.961,0,0,0,16.087,4.8c10.787,1.541,22.539.463,32.561-3.973a32.59,32.59,0,0,0,12.027-8.906,2.47,2.47,0,0,0,0-3.394,2.419,2.419,0,0,0-3.394,0c-5.535,6.732-13.877,9.938-22.278,11.309a56.861,56.861,0,0,1-31.159-3.341,33.786,33.786,0,0,1-11.974-7.968c-2.083-2.29-5.47,1.112-3.394,3.394Z"/>
<path class="c" d="M161.377,106.718a25.3,25.3,0,0,1-1.956,6.143c-.279.677-.579,1.348-.84,2.032-.082.214-.161.428-.237.644-.222.631.122-.247-.034.1a54.816,54.816,0,0,1-3.253,6.032A60.39,60.39,0,0,1,142,137.04a23.93,23.93,0,0,1-9.583,4.934c-3.009.694-1.735,5.324,1.276,4.629,7.355-1.7,13.48-7.064,18.287-12.641A66.461,66.461,0,0,0,162.27,118.47c1.7-3.729,3.367-7.676,3.907-11.752a2.412,2.412,0,0,0-2.4-2.4,2.461,2.461,0,0,0-2.4,2.4Z"/>
<path class="c" d="M64.582,104.976c2.96,15.593,12.409,30.8,26.227,38.977a34.392,34.392,0,0,0,12.368,4.525,2.48,2.48,0,0,0,2.953-1.676,2.42,2.42,0,0,0-1.677-2.953c-7.329-1.088-13.732-4.971-19.024-10.037a54.98,54.98,0,0,1-13.256-19.767A59.229,59.229,0,0,1,69.211,103.7a2.423,2.423,0,0,0-2.953-1.676,2.451,2.451,0,0,0-1.676,2.952Z"/>
<path class="c" d="M166.885,83.731a4.84,4.84,0,0,1,6.908.808c.885,1.28.922,3.091.969,4.583a25.805,25.805,0,0,1-.345,5.333,26.683,26.683,0,0,1-3.785,9.892c-1.375,2.115-3.59,4.9-6.386,4.13-2.984-.816-4.257,3.814-1.276,4.629,7.723,2.111,12.795-6.777,14.9-12.847A31.235,31.235,0,0,0,179.555,88.9c-.149-3.785-1.05-7.327-4.364-9.529a9.806,9.806,0,0,0-11.7.965,2.422,2.422,0,0,0,0,3.395,2.451,2.451,0,0,0,3.394,0Z"/>
<path class="c" d="M67.444,80.336a9.867,9.867,0,0,0-10.571-1.581c-3.614,1.641-5.068,5.061-5.409,8.816-.687,7.538,1.612,16.008,6.633,21.766,2.668,3.059,6.412,5.422,10.586,4.459,3.008-.694,1.735-5.323-1.276-4.628-2.7.623-5.4-2.347-6.769-4.324a26.616,26.616,0,0,1-4.476-15.278,10.338,10.338,0,0,1,.8-4.726c1.358-2.472,5-2.876,7.088-1.109a2.464,2.464,0,0,0,3.394,0,2.422,2.422,0,0,0,0-3.395Z"/>
<path class="c" d="M89.627,85.927c-.769,2.5-.268,8.24,4.462,8.729,6.251-.038,6.584-6.982,4.48-10.246C96.846,81.736,91.779,80.625,89.627,85.927Z"/>
<path class="c" d="M141.667,85.927c.769,2.5.268,8.24-4.462,8.729-6.251-.038-6.584-6.982-4.48-10.247C134.448,81.736,139.514,80.625,141.667,85.927Z"/>
<path class="c" d="M155.337,161.494c8.032,3.41,16.286,6.251,24.4,9.464a56.144,56.144,0,0,1,19.479,13.414A62.412,62.412,0,0,1,212.7,206.079a113.846,113.846,0,0,1,3.705,13.263q1.684,7.167,3.054,14.4,2.719,14.35,4.174,28.9.711,7.2,1.1,14.43a88.855,88.855,0,0,1,.056,12.09c-.545,6.569-2.376,13.677-7.134,18.5-5.6,5.681-14.033,5.98-20.965,2.577a47.757,47.757,0,0,1-18.426-16.138,107.977,107.977,0,0,1-12.276-24.1c-.736-2.018-1.42-4.054-2.068-6.1-.928-2.935-5.564-1.681-4.628,1.276a122.966,122.966,0,0,0,11.286,25.8,76.174,76.174,0,0,0,8.393,11.909,49.818,49.818,0,0,0,10,8.405c7.423,4.843,16.525,8.054,25.188,4.445,7.374-3.072,11.874-10.13,13.919-17.6,2.224-8.123,1.775-16.541,1.233-24.848-.67-10.284-1.847-20.536-3.46-30.714q-2.4-15.135-6.154-30.016a70.749,70.749,0,0,0-11.409-24.811,65.9,65.9,0,0,0-19.341-17.636,81.244,81.244,0,0,0-12.353-5.506c-4.33-1.649-8.68-3.245-13-4.922-1.951-.758-3.9-1.527-5.826-2.345a2.481,2.481,0,0,0-3.283.861,2.416,2.416,0,0,0,.861,3.284Z"/>
<path class="a" d="M115.276,97.51c-7.753,0-20.468,1.494-29.295,2.779-1.539.225-5.348.559-6.352,1.691-1.867,2.1-1.158,6.595-1.4,9.146a65.2,65.2,0,0,0,.363,12.24c.559,5.379.831,11.112,4.518,15.309,6.816,7.756,22.612,11.887,32.99,11.887a62.756,62.756,0,0,0,20.305-3.678c5.659-2.028,10.95-5.432,13.912-10.325,2.792-4.614,2.683-9.24,3.282-14.5a54.511,54.511,0,0,0,.216-11.135c-.256-2.545.394-6.7-1.5-8.832-1-1.13-4.143-1.583-5.685-1.79C136.939,99,123.889,97.51,115.276,97.51Z"/>
<path class="c" d="M75.985,105.458c-.214,2.443-.169,4.937-.276,7.39a61.554,61.554,0,0,0,.227,7.812c.393,4.707.572,9.807,2.268,14.259,3.179,8.35,12.1,12.619,20.121,15.142a58.98,58.98,0,0,0,26.525,2.181c9.679-1.438,20.349-4.751,26.467-12.9,3.54-4.714,3.99-10.324,4.542-15.984a78.084,78.084,0,0,0,.541-9.259c-.029-1.381-.195-2.75-.245-4.128-.055-1.55,0-3.092-.18-4.635a2.475,2.475,0,0,0-2.4-2.4,2.414,2.414,0,0,0-2.4,2.4c.282,2.387.233,4.845.368,7.248a53.647,53.647,0,0,1-.162,7.648c-.376,4.317-.414,9.144-2.134,13.189-3.6,8.462-13.659,11.792-21.915,13.518a53.613,53.613,0,0,1-24.76-.657,49.112,49.112,0,0,1-10.933-4.141c-3.039-1.634-6.189-3.737-7.963-6.783-2.375-4.079-2.451-9.31-2.87-13.893a65.946,65.946,0,0,1-.314-8.182c.086-2.592.067-5.246.293-7.827a2.419,2.419,0,0,0-2.4-2.4,2.449,2.449,0,0,0-2.4,2.4Z"/>
<path class="c" d="M118.305,95.168c-1.729-.065-3.461-.088-5.19-.02a2.511,2.511,0,0,0-1.7.7,2.4,2.4,0,0,0,1.7,4.1c1.729-.068,3.461-.045,5.19.02a2.4,2.4,0,1,0,0-4.8Z"/>
<path class="c" d="M104.669,180.876a26.581,26.581,0,0,0,19.776-.111,2.48,2.48,0,0,0,1.676-2.953,2.416,2.416,0,0,0-2.952-1.676,22.5,22.5,0,0,1-17.224.111,2.414,2.414,0,0,0-2.952,1.677,2.459,2.459,0,0,0,1.676,2.952Z"/>
<path class="a" d="M141.9,157.335a7.04,7.04,0,0,1,1.151.938c-.85-3.383-.791-7.121,3.14-8.463a4.894,4.894,0,0,1,6.095,2.348c.349.677,1.347,2.733,1.347,2.733l.474.976a4.747,4.747,0,0,1,3.048-5.309c3.526-1.223,6.139.764,8.066,4.785,1.1,2.3,2.744,6.464,4.9,11.781,2.685,6.633,5.819,12.957,8.221,17.522,1-3.6,1-7.939,1.768-11.712.4-1.979.849-4.055,2.176-5.577a4.526,4.526,0,0,1,5.388-.915,5.007,5.007,0,0,1,2.523,3.229,126.209,126.209,0,0,1,.849,33.6c-.286,2.9-1.492,5.63-2.536,8.347-.5,1.3-.988,2.112-.743,3.434a16.932,16.932,0,0,0,1.771,4.3c2.961,5.669,6.912,11.75,10.466,18.1-13.839,9.189-27.371,14.508-39.3,19.139-1.954.759-1.933-.122-2.572-2.119-2.882-9.007-2.173-23.9-3.154-27.09-.92-2.99-6.553-10.231-7.818-12.131a106.312,106.312,0,0,1-7.141-12.751c-2.2-4.772-6.8-14.737-8.15-19.257a7.308,7.308,0,0,1,.228-5.482,4.631,4.631,0,0,1,2.262-2.257,4.706,4.706,0,0,1,3.771.06l.557.169c-1.333-3.924-2.564-7.781-3.7-11.278-.281-.866-.959-5.43,2.625-7.195A4.042,4.042,0,0,1,141.9,157.335Z"/>
<path class="c" d="M181.006,183.8c.6-3.1.719-6.26,1.255-9.366.294-1.7.614-5.431,2.671-6.013a2.291,2.291,0,0,1,2.193.556c.972.915.933,2.408,1.112,3.644.433,2.99.722,6,.906,9.018a132.96,132.96,0,0,1-.279,19.2,30.574,30.574,0,0,1-2.169,8.845,15.777,15.777,0,0,0-1.358,4.172,9.649,9.649,0,0,0,1.179,4.8c2.832,6.2,6.768,11.931,10.176,17.823,1.546,2.673,5.695.259,4.144-2.423-3.341-5.777-7.118-11.389-9.989-17.425a3.911,3.911,0,0,1-.494-3.21c.611-1.7,1.358-3.351,1.946-5.061a39.407,39.407,0,0,0,1.578-10.4,127.3,127.3,0,0,0-.282-20.691c-.165-1.673-.37-3.342-.6-5.007a13.685,13.685,0,0,0-1.2-5.035,7.268,7.268,0,0,0-7.809-3.516c-3.709.807-5.3,4.424-6.029,7.786-.792,3.637-.871,7.373-1.58,11.022a2.463,2.463,0,0,0,1.676,2.952,2.422,2.422,0,0,0,2.952-1.676Z"/>
<path class="c" d="M180.414,183.439c-2.757-5.246-5.361-10.589-7.621-16.07-1.153-2.8-2.258-5.614-3.411-8.411a46.437,46.437,0,0,0-2.82-6.2,9.824,9.824,0,0,0-5.406-4.674,7.74,7.74,0,0,0-6.871,1.4,7.179,7.179,0,0,0-2.46,7.214,38.707,38.707,0,0,0,1.51,4.362q.814,2.273,1.637,4.541c2.228,6.127,4.594,12.2,7.2,18.173a2.417,2.417,0,0,0,3.284.861,2.463,2.463,0,0,0,.861-3.284c-2-4.581-3.836-9.227-5.574-13.913-.944-2.545-1.864-5.1-2.78-7.654-.449-1.252-.948-2.5-1.344-3.77a2.5,2.5,0,0,1,.223-2.335,2.866,2.866,0,0,1,3.114-.967c1.6.627,2.568,2.519,3.288,4.038,1.971,4.16,3.508,8.526,5.286,12.768,2.33,5.562,4.935,11,7.739,16.339,1.437,2.736,5.582.312,4.145-2.423Z"/>
<path class="c" d="M156.232,185.172c-2.84-5.392-4.86-11.147-7.058-16.883-1.032-2.692-2.052-5.389-3.012-8.107a19.585,19.585,0,0,1-1.106-4.07,4.563,4.563,0,0,1,.528-3.154,3.032,3.032,0,0,1,3.773-.643c1.108.762,1.639,2.623,2.2,3.787a2.422,2.422,0,0,0,3.284.861,2.45,2.45,0,0,0,.861-3.283,17.1,17.1,0,0,0-2.482-4.308,7.362,7.362,0,0,0-6.938-2.075,7.635,7.635,0,0,0-5.146,3.745,9.822,9.822,0,0,0-.753,6.054c.445,3.132,1.774,6.144,2.877,9.089q2.088,5.572,4.311,11.091a112.509,112.509,0,0,0,4.512,10.318c1.44,2.734,5.585.311,4.145-2.422Z"/>
<path class="c" d="M146.531,189.609a214.711,214.711,0,0,1-7.77-21.276c-.494-1.523-1.089-3.05-1.487-4.6-.029-.116-.049-.234-.08-.349-.1-.387.014.52-.017-.123a10.43,10.43,0,0,1,0-1.447c.065-.723-.112.372.064-.362a5.453,5.453,0,0,1,.22-.763,3.116,3.116,0,0,1,.782-1.028,2.163,2.163,0,0,1,2.969.12,2.416,2.416,0,0,0,3.284-.861,2.459,2.459,0,0,0-.861-3.284c-3.42-2.581-8.493-1.059-10.353,2.7-1.3,2.629-1.042,5.4-.172,8.095a255.442,255.442,0,0,0,9.281,25.6,2.417,2.417,0,0,0,3.284.861,2.459,2.459,0,0,0,.861-3.283Z"/>
<path class="c" d="M138.764,173.248a6.876,6.876,0,0,0-8.124,2.33,9.5,9.5,0,0,0-1.025,8.51,108.283,108.283,0,0,0,5.1,12.542c2.032,4.547,4.069,9.1,6.5,13.446a109.521,109.521,0,0,0,6.651,10.269c1.251,1.748,2.493,3.511,3.6,5.356a16.563,16.563,0,0,1,1.166,2.188c-.209-.51.047.2.085.353.073.283.114.573.16.862-.112-.714.029.339.042.483.035.37.063.741.089,1.112.069.974.118,1.95.166,2.925.11,2.227.209,4.454.358,6.679a64.882,64.882,0,0,0,2.185,14.509c.728,2.4,1.688,4.942,4.753,4.343a20.163,20.163,0,0,0,3.338-1.218q1.894-.745,3.784-1.51a199.893,199.893,0,0,0,36.852-19.06c2.549-1.717.149-5.877-2.423-4.145a186.3,186.3,0,0,1-30.731,16.509c-2.308.99-4.634,1.938-6.967,2.868q-1.6.639-3.21,1.265c-.376.147-1.439.344-1.667.611.175-.2,2.9,1.088,1.226.453.237.09.232.656.142.121-.154-.917-.578-1.831-.815-2.735-.283-1.082-.512-2.179-.707-3.281-.4-2.245-.635-4.514-.818-6.786-.316-3.923-.391-7.859-.683-11.782a17.349,17.349,0,0,0-.534-3.806,19.477,19.477,0,0,0-2.424-4.627c-1.846-2.868-3.991-5.527-5.86-8.376a100.566,100.566,0,0,1-7.2-13.051c-1.983-4.3-3.973-8.608-5.756-13a27.376,27.376,0,0,1-2.118-6.183c-.34-2.432,1.024-4.56,3.589-3.547a2.418,2.418,0,0,0,2.952-1.677,2.456,2.456,0,0,0-1.676-2.952Z"/>
<path class="c" d="M72.03,157.349c-8.248,3.5-16.773,6.3-25.06,9.706a59.928,59.928,0,0,0-20.961,15.183,68.771,68.771,0,0,0-13.9,23.569A133.314,133.314,0,0,0,8.28,220.14q-1.719,7.536-3.095,15.144Q2.452,250.4,1.072,265.726C.274,274.677-.64,283.859.63,292.8c1.034,7.281,3.849,14.929,9.709,19.705,7.169,5.842,16.676,5.9,24.823,2.055A51.548,51.548,0,0,0,55.285,297.1a112.312,112.312,0,0,0,13.005-25.41c.791-2.15,1.524-4.322,2.216-6.506.934-2.952-3.7-4.216-4.629-1.276A117.543,117.543,0,0,1,55.3,288.175a71.313,71.313,0,0,1-7.737,11.171,44.85,44.85,0,0,1-9.161,7.807,31.157,31.157,0,0,1-11.31,5.041,16.668,16.668,0,0,1-11.2-1.64c-5.971-3.4-8.885-9.931-10.188-16.411-1.606-7.986-.782-16.342-.167-24.391Q6.651,255.2,9.076,240.8c1.6-9.565,3.535-19.127,6.056-28.5a65.078,65.078,0,0,1,11.19-23,59.88,59.88,0,0,1,18.145-15.709,89.209,89.209,0,0,1,11.614-4.952c4.2-1.585,8.406-3.136,12.581-4.776q2.911-1.144,5.791-2.367a2.415,2.415,0,0,0,.861-3.284,2.465,2.465,0,0,0-3.284-.861Z"/>
<path class="a" d="M87.889,157.335a7.04,7.04,0,0,0-1.151.938c.851-3.383.792-7.121-3.14-8.463a4.893,4.893,0,0,0-6.094,2.348c-.35.677-1.348,2.733-1.348,2.733l-.474.976a4.745,4.745,0,0,0-3.048-5.309c-3.526-1.223-6.139.764-8.065,4.785-1.1,2.3-2.745,6.464-4.9,11.781-2.685,6.633-5.818,12.957-8.221,17.522-1-3.6-1-7.939-1.768-11.712-.4-1.979-.849-4.055-2.176-5.577a4.526,4.526,0,0,0-5.388-.915,5.013,5.013,0,0,0-2.523,3.229,126.168,126.168,0,0,0-.848,33.6c.285,2.9,1.491,5.63,2.535,8.347.5,1.3.988,2.112.743,3.434a16.9,16.9,0,0,1-1.771,4.3c-2.96,5.669-7.865,12.861-11.419,19.216,13.838,9.188,28.324,13.4,40.254,18.027,1.954.759,1.933-.122,2.572-2.119,2.882-9.007,2.173-23.9,3.154-27.09.92-2.99,6.553-10.231,7.818-12.131A106.312,106.312,0,0,0,89.774,202.5c2.2-4.772,6.8-14.737,8.15-19.257a7.308,7.308,0,0,0-.228-5.482,4.631,4.631,0,0,0-2.262-2.257,4.706,4.706,0,0,0-3.771.06l-.557.169c1.333-3.924,2.564-7.781,3.7-11.278.281-.866.959-5.43-2.625-7.195A4.042,4.042,0,0,0,87.889,157.335Z"/>
<path class="c" d="M53.411,182.523c-.67-3.448-.755-6.98-1.455-10.425-.632-3.112-1.75-6.573-4.9-7.955a7.154,7.154,0,0,0-8.656,2.482,9,9,0,0,0-1.41,4.257c-.281,1.895-.528,3.8-.727,5.7a127.108,127.108,0,0,0-.352,21.38A39.14,39.14,0,0,0,37.644,208.8c.556,1.557,1.233,3.07,1.793,4.625.518,1.442-.217,2.681-.878,3.982C35.437,223.552,31.45,229.217,28,235.173c-1.552,2.678,2.595,5.1,4.144,2.423,2.9-5,6.128-9.81,8.981-14.841,1.386-2.444,3.216-5.253,3.355-8.129a10.429,10.429,0,0,0-1.134-4.293c-.614-1.577-1.253-3.149-1.711-4.782-.893-3.182-.9-6.677-1.057-9.963-.157-3.265-.2-6.535-.114-9.8q.132-4.956.675-9.89.258-2.338.622-4.66c.177-1.134.407-2.2,1.568-2.721,2.78-1.236,3.583,2.855,3.958,4.661.727,3.507.813,7.108,1.5,10.624a2.423,2.423,0,0,0,2.952,1.676,2.449,2.449,0,0,0,1.676-2.952Z"/>
<path class="c" d="M53.52,185.862c2.414-4.594,4.691-9.263,6.755-14.025,2-4.613,3.723-9.342,5.752-13.941.741-1.678,1.539-3.673,3.079-4.786a2.9,2.9,0,0,1,3.26-.011c1.611,1.127.766,3.042.168,4.714-.92,2.568-1.839,5.137-2.776,7.7-1.954,5.338-4.014,10.633-6.285,15.844a2.478,2.478,0,0,0,.861,3.284,2.418,2.418,0,0,0,3.283-.861c2.328-5.339,4.474-10.748,6.484-16.213,1.064-2.894,2.1-5.8,3.141-8.7,1.048-2.927,1.38-5.764-.7-8.341a7.578,7.578,0,0,0-6.173-2.714A8.141,8.141,0,0,0,64.4,151.1a26.041,26.041,0,0,0-3.34,6.3c-1.082,2.569-2.114,5.158-3.158,7.743-2.522,6.246-5.391,12.332-8.523,18.294-1.436,2.732,2.705,5.161,4.144,2.423Z"/>
<path class="c" d="M77.7,187.594c1.525-2.895,2.736-5.97,3.974-8.994q2.247-5.493,4.335-11.048c2.172-5.744,7.146-15.99-.722-19.629a7.546,7.546,0,0,0-8.122.9c-1.513,1.272-2.24,3.124-3.083,4.86a2.461,2.461,0,0,0,.861,3.283,2.42,2.42,0,0,0,3.283-.861,16.8,16.8,0,0,1,1.713-3.321,2.836,2.836,0,0,1,4.837,2.378,14.053,14.053,0,0,1-.922,4.367c-2.018,5.905-4.333,11.73-6.69,17.507-1.114,2.732-2.2,5.46-3.609,8.139-1.438,2.731,2.7,5.159,4.145,2.422Z"/>
<path class="c" d="M87.4,192.031a255.2,255.2,0,0,0,9.281-25.6c.871-2.692,1.129-5.464-.172-8.095-1.86-3.762-6.933-5.284-10.353-2.7a2.477,2.477,0,0,0-.861,3.284,2.418,2.418,0,0,0,3.284.861,2.157,2.157,0,0,1,2.969-.12,3.253,3.253,0,0,1,1.066,2.153,11.04,11.04,0,0,1,0,1.349c-.01.127-.023.253-.038.38.047-.329.055-.407.025-.232-.035.139-.057.282-.093.422-.395,1.55-.993,3.079-1.487,4.6a214.711,214.711,0,0,1-7.77,21.276,2.475,2.475,0,0,0,.861,3.283,2.418,2.418,0,0,0,3.284-.861Z"/>
<path class="c" d="M92.3,177.877c2.27-.9,3.735.66,3.637,2.978a17.445,17.445,0,0,1-1.57,5.258c-1.6,4.1-3.429,8.117-5.261,12.12a125.023,125.023,0,0,1-6.72,12.918c-1.826,3.009-3.954,5.783-5.955,8.673-1.878,2.715-3.841,5.47-4.261,8.811-.449,3.572-.44,7.207-.661,10.8A65.579,65.579,0,0,1,69.7,252.625c-.126.463-.269.92-.409,1.377-.064.207-.483,1.065-.407,1.289-.107-.315.714-.578.757-.6.764-.338.7-.084.408-.3a7.424,7.424,0,0,0-1.712-.652c-2.337-.9-4.682-1.769-7.024-2.651-12.019-4.531-23.8-9.561-34.505-16.756-2.571-1.728-4.976,2.428-2.423,4.145,10.421,7.006,21.9,12.014,33.6,16.463,2.553.971,5.115,1.923,7.669,2.892,2.119.8,4.956,2.457,6.906.423a7.123,7.123,0,0,0,1.358-2.978c.335-1.088.633-2.179.873-3.293a69.155,69.155,0,0,0,1.123-7.594c.45-4.474.541-8.968.843-13.452.047-.71.105-1.42.187-2.127-.081.7.032-.17.063-.313a6.927,6.927,0,0,1,.235-.818c-.178.514.218-.45.3-.6.2-.385.413-.762.633-1.135.557-.949,1.16-1.871,1.775-2.782,2.1-3.112,4.422-6.058,6.384-9.264a128.631,128.631,0,0,0,7.181-13.822c2.224-4.873,4.514-9.772,6.278-14.835.992-2.851,1.426-5.906-.026-8.691a6.944,6.944,0,0,0-8.744-3.3,2.472,2.472,0,0,0-1.676,2.952,2.417,2.417,0,0,0,2.952,1.677Z"/>
<path class="c" d="M68.275,64.122,64.664,77.051a2.4,2.4,0,0,0,4.628,1.276L72.9,65.4a2.4,2.4,0,0,0-4.629-1.276Z"/>
<path class="c" d="M157.07,63.732l3.611,12.928a2.4,2.4,0,1,0,4.629-1.276L161.7,62.456a2.4,2.4,0,1,0-4.628,1.276Z"/>
<path class="c" d="M67.173,81.5c12.426-1.606,24.888-2.988,37.415-3.48a290.4,290.4,0,0,1,39.068,1.263c6.805.65,13.593,1.47,20.371,2.356a2.413,2.413,0,0,0,2.4-2.4,2.461,2.461,0,0,0-2.4-2.4c-12.534-1.639-25.112-3.044-37.746-3.6a280.434,280.434,0,0,0-37.275,1c-7.3.652-14.569,1.523-21.833,2.462a2.479,2.479,0,0,0-2.4,2.4,2.413,2.413,0,0,0,2.4,2.4Z"/>
<path class="c" d="M67.173,73.832c12.426-1.607,24.888-2.988,37.415-3.48a290.232,290.232,0,0,1,39.068,1.262c6.805.651,13.593,1.47,20.371,2.356a2.412,2.412,0,0,0,2.4-2.4,2.461,2.461,0,0,0-2.4-2.4c-12.534-1.639-25.112-3.044-37.746-3.6a280.6,280.6,0,0,0-37.275,1c-7.3.653-14.569,1.524-21.833,2.463a2.478,2.478,0,0,0-2.4,2.4,2.415,2.415,0,0,0,2.4,2.4Z"/>
<path class="c" d="M61.63,80.524l5.786.874a2.627,2.627,0,0,0,1.849-.242,2.4,2.4,0,0,0,.861-3.284,2.315,2.315,0,0,0-1.434-1.1L62.907,75.9a2.63,2.63,0,0,0-1.85.242,2.4,2.4,0,0,0-.861,3.284,2.319,2.319,0,0,0,1.434,1.1Z"/>
<path class="c" d="M61.63,73.1l5.786.874a2.627,2.627,0,0,0,1.849-.242,2.4,2.4,0,0,0,.861-3.283,2.313,2.313,0,0,0-1.434-1.1l-5.785-.874a2.629,2.629,0,0,0-1.85.241A2.4,2.4,0,0,0,60.2,72a2.319,2.319,0,0,0,1.434,1.1Z"/>
<path class="c" d="M168.613,76.152l-5.778.926a2.4,2.4,0,0,0-1.434,1.1,2.4,2.4,0,0,0,.861,3.283l.573.242a2.423,2.423,0,0,0,1.276,0l5.778-.925a2.4,2.4,0,0,0,1.434-1.1,2.4,2.4,0,0,0-.861-3.284l-.573-.242a2.423,2.423,0,0,0-1.276,0Z"/>
<path class="c" d="M168.613,68.442l-5.778.925a2.4,2.4,0,0,0-1.434,1.1,2.4,2.4,0,0,0,.861,3.284l.573.242a2.423,2.423,0,0,0,1.276,0l5.778-.926a2.4,2.4,0,0,0,1.434-1.1,2.4,2.4,0,0,0-.861-3.283l-.573-.242a2.4,2.4,0,0,0-1.276,0Z"/>
<path class="c" d="M161.27,79.07c-.993,4.056-1.754,8.166-2.7,12.234-.5,2.147-1.028,4.288-1.666,6.4-.44,1.457-.82,3.658-1.894,4.612-.777.689-2.21.744-3.19.954q-2.1.45-4.224.814-4.142.71-8.33,1.046c-2.786.228-5.58.345-8.375.366a7.917,7.917,0,0,1-3.03-.312,4.049,4.049,0,0,1-.5-.266c-.674-.388.089.123-.21-.137a12.771,12.771,0,0,1-1.288-1.461q-2.051-2.451-4-4.984c-1.167-1.523-2.236-3.456-3.976-4.378-4.535-2.4-7.442,3.253-9.768,6.184q-1.132,1.428-2.3,2.83a8.938,8.938,0,0,1-1.908,2.015c-2.105,1-4.976.51-7.252.418a100.453,100.453,0,0,1-16.735-2.065c-1.192-.251-3.044-.274-3.836-1.34a7.5,7.5,0,0,1-.9-2.163,70.511,70.511,0,0,1-1.978-6.914c-1.117-4.6-1.959-9.257-3.084-13.851-.735-3-5.365-1.729-4.629,1.276,1.038,4.236,1.828,8.53,2.827,12.775.538,2.284,1.114,4.564,1.834,6.8.652,2.024,1.318,4.392,2.93,5.868,2.147,1.967,5.52,2.21,8.268,2.714,2.988.549,6,.97,9.027,1.269,3.038.3,6.087.464,9.139.513,2.783.044,5.595-.028,7.843-1.885a34.444,34.444,0,0,0,4.587-5.42c1.133-1.44,2.208-3.15,3.44-4.444.439-.461.385-.285.837.254s.882,1.174,1.32,1.747c1.508,1.971,3.043,3.921,4.631,5.829,1.524,1.831,3,3.228,5.433,3.7,3,.588,6.331.206,9.366.022a108.635,108.635,0,0,0,17.674-2.539,7.4,7.4,0,0,0,4.046-2.159,10.739,10.739,0,0,0,1.828-3.442,59.329,59.329,0,0,0,2.114-7.042c1.2-4.828,2.071-9.731,3.255-14.562.735-3-3.893-4.28-4.629-1.276Z"/>
</g>
</svg>