<?xml version="1.0" encoding="utf-8"?>
<!-- Uploaded to: SVG Repo, www.svgrepo.com, Generator: SVG Repo Mixer Tools -->
<svg width="800px" height="800px" viewBox="-19.1 0 327.97 327.97" xmlns="http://www.w3.org/2000/svg"><defs><style>.a{fill:#ffffff;}.b{fill:#b5886a;}.c{fill:#79c6e0;}.d{fill:#a0a0a0;}.e{fill:#211715;}</style></defs><path class="a" d="M287.377,325.565c-2.97-58.96-5.53-109.59-11.13-128.26a25.244,25.244,0,0,0-7.44-11.89,53.968,53.968,0,0,0-9.34-6.07c-8.54-4.12-19.62-9.12-27.23-13.52L219.7,160.977c-3.477,34.451-18.077,62.906-30.088,90.253a260.1,260.1,0,0,1-12.384-25.4c-4.87-11.57-12.02-31.81-14.2-37.75-2.88-7.84-5.494-19.414-6.86-27.623l-9.528,3.717c-9.2,4.71-20.38,7.85-29.65,12.33a29.752,29.752,0,0,0-8.59,5.73,26.617,26.617,0,0,0-5.63,8.67c-6.529,17.036-7.55,25.726-13.817,42.369-1.776-5.975-3.489-11.911-5.351-18.306-10.158,4.073-26.233,9.505-36.077,10.591,3.2,15.866,6.3,32.9,11.463,48.989,3.588,11.18,8.986,21.814,19.971,25.961a29,29,0,0,0,25.413-1.988c7.408-4.316,16.208-14.372,20.7-18.759.027.5.041.963.041,1.374,0,6.94-2.54,30.24-3.58,44.44Z"/><path class="b" d="M151.232,129.883a48.318,48.318,0,0,1-7.261-13.647c-.976,6.421-4.5,9.127-8.3,11.74-3.455,2.381-7.209,4.625-9.426,9.186a26.73,26.73,0,0,0-2.134,12.021c.1,4.213,3.48,15.1,7.678,19.64l.93,1.257a110.7,110.7,0,0,0,13.913-5.915l10.188-3.312c4.58-2.84,8.83-5.93,9.68-8.03,1.12-2.78,1.07-6.44,1.049-9.685a41.482,41.482,0,0,1-15.241-11.907Q151.754,130.562,151.232,129.883Z"/><path class="a" d="M248.439,88.4a9.677,9.677,0,0,0-1.013-3.894,6.85,6.85,0,0,0-4.923-3.273,7.252,7.252,0,0,0-5.8,1.7s1.255-41.918-49.412-41.918-47.9,41.918-47.9,41.918a7.252,7.252,0,0,0-5.8-1.7,6.848,6.848,0,0,0-4.923,3.273,9.694,9.694,0,0,0-1.014,3.894,29.02,29.02,0,0,0,2.958,15.378,18.445,18.445,0,0,0,4.768,6.257,11.656,11.656,0,0,0,7.488,2.67,49.422,49.422,0,0,0,9.452,18.53,41.581,41.581,0,0,0,15.241,11.914v.008c.02,3.23.07,6.89-1.05,9.67-.883,2.181-5.435,5.431-10.214,8.359a197.4,197.4,0,0,0,4.67,20.522l1.956.521a109.788,109.788,0,0,0,25.057,3.6c7.99.019,19.36-1.244,27.165-4.348l1.247-.5a162.941,162.941,0,0,0,3.293-19.784c-4.364-2.935-8.561-6.192-9.444-8.376-1.15-2.83-1.08-6.6-1.06-9.88v-.006h0c12.151-5.212,21.927-21.568,23.632-26.2.257-.78.781-2.251,1.248-4l.973-.151a12.223,12.223,0,0,0,5.685-2.562,18.429,18.429,0,0,0,4.767-6.257A29.01,29.01,0,0,0,248.439,88.4Z"/><path class="b" d="M129.1,74.193c.387,2.131,1.3,5.72,1.979,7.928a6.852,6.852,0,0,1,2.5-.892,7.367,7.367,0,0,1,4.653.872c7.648-3.329,13.035-9.872,16.681-15.046C162.005,57,164.03,49.988,165.352,42.92c5.514,7.251,55.8,34.623,70.209,36.8L238.052,82a7.327,7.327,0,0,1,4.451-.768,7.037,7.037,0,0,1,3.645,1.71,127.959,127.959,0,0,0,1.246-22.272c-1.049-15.052-6.967-31.913-16.445-41.255-12.3-12.118-22.407-16.964-45.415-16.964A58.852,58.852,0,0,0,144.893,18.8c-12.421,12.148-17.867,29.16-16.976,44.761A76.826,76.826,0,0,0,129.093,74"/><path class="c" d="M184.563,185.722a115.613,115.613,0,0,1-21.646-3.5l-1.958-.523c.661,2.281,1.355,4.442,2.065,6.376,2.181,5.941,9.334,26.176,14.2,37.742a259.007,259.007,0,0,0,12.383,25.411c9.6-21.857,20.853-44.423,26.76-70.2l-1.232.443c-7.805,3.1-19.175,4.367-27.165,4.348C186.884,185.823,185.742,185.787,184.563,185.722Z"/><path class="a" d="M137.749,263.007c-4.32-6.744-6.593-17.2-7.146-25.425-.569-8.459,1.295-25.8,6.411-38.535,1.364-7.73,2.888-14.464,4.03-20.986,1.7-9.723,6.1-17.022,14.559-21.3.192,1.419.442,3.027.745,4.763-5.386,8.114-8.38,30.8-7.938,38.426,5.223,15.347,16.886,29.811,18.762,46.905.551,5.019-1.077,9.8-3.822,14.037-2.547,3.932-6.462,6.045-10.632,7.991-1.822.851-3.991,1.709-5.741,2.7-1.319.747-2.506,1.807-3.984,2.144-3.242.738-5.713-2.409-6.116-5.3-.308-2.218.152-4.472,2.539-5.647,3.225-1.587,6.393-.561,9.828-2.375,3.217-1.7,5.8-2.434,7.4-8.13,2.117-7.542-2.875-16.831-5.785-23.661-1.531-3.595-7.035-16.33-8.286-18.553-1.362,5.553-3.877,20.308-2.919,27.152.787,5.622,2.919,16.452,6.671,22.706l1.925,3.679-8.593,2.963Z"/><path class="d" d="M160.412,272.555a4.538,4.538,0,0,0-2.376-4.17l-2.4-.94c-.947.5-1.924.976-2.915,1.438-1.342.627-2.872,1.258-4.285,1.942a17.42,17.42,0,0,0,2.064,3.71,5.288,5.288,0,0,0,3.223,2.021,6.113,6.113,0,0,0,2.427-.226,5.885,5.885,0,0,0,4.054-2.853A2.544,2.544,0,0,0,160.412,272.555Z"/><path class="d" d="M137.241,264.959a4.43,4.43,0,0,1,2.175-2.179,15.847,15.847,0,0,1,5.535-1.178,24.038,24.038,0,0,1,2.294,9.845,2.322,2.322,0,0,0-.268.136c-1.319.747-2.506,1.807-3.984,2.144-3.242.738-5.713-2.409-6.116-5.3A6.338,6.338,0,0,1,137.241,264.959Z"/><path class="e" d="M162.279,184.54a112.993,112.993,0,0,0,21.5,3.534,88.67,88.67,0,0,0,20.72-1.291,57.627,57.627,0,0,0,11.279-2.99,2.472,2.472,0,0,0,1.676-2.953,2.417,2.417,0,0,0-2.952-1.676,67.881,67.881,0,0,1-19.715,4.006,86.1,86.1,0,0,1-19.68-.867,113.017,113.017,0,0,1-11.551-2.392c-2.989-.792-4.264,3.837-1.276,4.629Z"/><path class="e" d="M238.4,84.624a4.753,4.753,0,0,1,6.778.793,8.138,8.138,0,0,1,.946,4.293,25.469,25.469,0,0,1-.3,5.263c-1.073,6.345-4.371,14.076-11.434,15.306a2.42,2.42,0,0,0-1.676,2.952,2.455,2.455,0,0,0,2.952,1.677c9.711-1.692,14.351-12.708,15.156-21.474.39-4.242.282-9.548-3.3-12.474A9.711,9.711,0,0,0,235,81.23a2.42,2.42,0,0,0,0,3.394,2.45,2.45,0,0,0,3.394,0Z"/><path class="e" d="M232.554,107.2a24.092,24.092,0,0,1-1.127,6.024c-.228.771-.48,1.535-.736,2.3-.078.233-.158.464-.238.7-.161.469-.1.235-.033.1a50.732,50.732,0,0,1-3.237,5.924,57.5,57.5,0,0,1-12.836,14.8,24.372,24.372,0,0,1-9.466,4.786c-3.009.694-1.736,5.323,1.276,4.628,7.306-1.685,13.425-6.942,18.242-12.459a62.653,62.653,0,0,0,10.014-14.913,32.1,32.1,0,0,0,2.941-11.878c.106-3.089-4.694-3.085-4.8,0Z"/><path class="e" d="M141.083,81.23a9.712,9.712,0,0,0-12.518-.27c-3.583,2.926-3.691,8.232-3.3,12.474.8,8.766,5.446,19.782,15.157,21.474a2.47,2.47,0,0,0,2.952-1.677,2.42,2.42,0,0,0-1.676-2.952c-7.064-1.23-10.361-8.961-11.435-15.306a25.611,25.611,0,0,1-.3-5.263,8.277,8.277,0,0,1,.946-4.293,4.747,4.747,0,0,1,6.778-.793,2.464,2.464,0,0,0,3.394,0,2.421,2.421,0,0,0,0-3.394Z"/><path class="e" d="M139.528,109.152c3.071,14.516,11.639,28.664,25.318,35.38a34.3,34.3,0,0,0,11.661,3.341,2.417,2.417,0,0,0,2.4-2.4,2.454,2.454,0,0,0-2.4-2.4c-13.461-1.4-24.472-13.04-29.314-25.052a60.77,60.77,0,0,1-3.036-10.145c-.639-3.02-5.267-1.742-4.629,1.276Z"/><path class="e" d="M206.775,142.943a50.386,50.386,0,0,0,.209,6.337,12.522,12.522,0,0,0,1.69,5.667c2.372,3.425,6.2,5.888,9.589,8.188a2.4,2.4,0,1,0,2.423-4.144c-1.614-1.1-3.219-2.214-4.728-3.45-.661-.541-1.308-1.1-1.922-1.7-.268-.26-.53-.526-.78-.8-.127-.141-.25-.283-.371-.429-.245-.293.264.433-.066-.09-.145-.23-.29-.45-.413-.694-.132-.259.131.389-.006-.037-.072-.226-.152-.448-.218-.676a13.87,13.87,0,0,1-.449-2.294,53.655,53.655,0,0,1-.158-5.88c.019-3.089-4.781-3.093-4.8,0Z"/><path class="e" d="M165.155,143.153a51.44,51.44,0,0,1-.165,5.757,14.206,14.206,0,0,1-.482,2.362c-.067.222-.142.439-.219.658.054-.152.135-.232.016-.045-.084.133-.548.819-.212.393-2.189,2.771-5.51,4.655-8.48,6.5a2.4,2.4,0,1,0,2.423,4.144c1.939-1.206,3.852-2.459,5.668-3.846a20.629,20.629,0,0,0,4.277-4.045,11.19,11.19,0,0,0,1.7-5.211,47.924,47.924,0,0,0,.278-6.67c-.02-3.088-4.82-3.094-4.8,0Z"/><path class="e" d="M91.263,233.917c4.165-11.1,6.972-22.593,10.74-33.816,2.031-6.051,3.927-12.212,8.664-16.749a28.857,28.857,0,0,1,7.533-4.781c2.819-1.365,5.719-2.549,8.636-3.684,7.056-2.746,14.251-5.209,21.014-8.646,2.755-1.4.328-5.542-2.423-4.144-6,3.047-12.353,5.271-18.62,7.679-6.157,2.366-12.72,4.734-17.964,8.841a27.2,27.2,0,0,0-6.315,7.342,51.6,51.6,0,0,0-4.028,9.6c-1.993,5.629-3.69,11.349-5.357,17.081-1.958,6.738-4.042,13.426-6.509,20a2.42,2.42,0,0,0,1.677,2.952,2.452,2.452,0,0,0,2.952-1.676Z"/><path class="e" d="M231.025,167.9c5.769,3.321,11.8,6.183,17.8,9.037,6.156,2.925,12.378,5.6,17.8,9.8,6.868,5.322,8.426,14.47,9.771,22.538,1.524,9.146,2.433,18.487,3.253,27.939,1.1,12.68,1.916,25.384,2.66,38.09.981,16.749,1.817,33.507,2.661,50.264.154,3.074,4.955,3.093,4.8,0-1.43-28.39-2.7-56.811-5.049-85.144-.836-10.1-1.8-20.207-3.344-30.225-1.339-8.663-2.887-17.82-8.924-24.593a37.29,37.29,0,0,0-8.455-6.491,104.565,104.565,0,0,0-10.018-5.025c-6.921-3.278-13.9-6.51-20.539-10.334-2.682-1.544-5.1,2.6-2.423,4.144Z"/><path class="e" d="M257.009,325.57c-.7-9.447-1.648-18.873-2.481-28.309-.566-6.41-1.47-12.987-.929-19.428,1.264-15.068,4.758-30.185,7.329-45.238,1.891-11.065,3.287-22.229,5.467-33.242a2.461,2.461,0,0,0-1.676-2.952,2.422,2.422,0,0,0-2.952,1.676c-1.928,9.736-3.214,19.6-4.822,29.389-1.285,7.821-2.851,15.589-4.213,23.395-1.413,8.1-2.786,16.226-3.681,24.4-.684,6.246-.146,12.373.384,18.617.9,10.566,2,21.116,2.774,31.693a2.459,2.459,0,0,0,2.4,2.4,2.42,2.42,0,0,0,2.4-2.4Z"/><path class="e" d="M110.6,199.877c1.362,10.655,2.759,21.308,4.422,31.921,1.206,7.692,2.658,15.337,4.018,23,1.321,7.444,2.691,14.936,3.413,22.258.6,6.035-.148,12.132-.668,18.149-.874,10.121-1.914,20.23-2.66,30.362a2.421,2.421,0,0,0,2.4,2.4,2.447,2.447,0,0,0,2.4-2.4c.665-9.038,1.567-18.057,2.372-27.083.353-3.957.7-7.915.965-11.879a56.223,56.223,0,0,0,.158-7.6,217.21,217.21,0,0,0-3.151-22.062c-1.231-7.1-2.606-14.174-3.789-21.282-1.977-11.887-3.553-23.836-5.08-35.787a2.479,2.479,0,0,0-2.4-2.4,2.413,2.413,0,0,0-2.4,2.4Z"/><path class="e" d="M163.813,44.826c2.269,2.687,5.548,4.7,8.443,6.625,4.71,3.139,9.59,6.027,14.512,8.82a323.91,323.91,0,0,0,34.31,17.155c4.424,1.858,9.069,3.865,13.845,4.6a2.476,2.476,0,0,0,2.952-1.677A2.419,2.419,0,0,0,236.2,77.4a54.029,54.029,0,0,1-11.694-3.716c-2.48-1-4.84-2.036-7.491-3.247q-4.233-1.935-8.4-4.006A322.689,322.689,0,0,1,176.437,48.46c-2.063-1.334-4.1-2.709-6.064-4.185l-.263-.2c-.355-.268.271.214.043.033-.178-.142-.358-.283-.535-.426-.322-.261-.641-.527-.952-.8a13.861,13.861,0,0,1-1.458-1.45,2.421,2.421,0,0,0-3.4,0,2.452,2.452,0,0,0,0,3.394Z"/><path class="e" d="M140.692,83.6c6.045-3.053,10.8-7.952,14.829-13.308a67.159,67.159,0,0,0,9.628-17.19,57.443,57.443,0,0,0,2.305-8.441,2.46,2.46,0,0,0-1.676-2.952,2.422,2.422,0,0,0-2.952,1.676,55.629,55.629,0,0,1-7.877,19.34c-4.278,6.673-9.481,13.094-16.68,16.731-2.758,1.393-.331,5.535,2.423,4.144Z"/><path class="e" d="M168.2,42.642q-3.225-3.671-6.337-7.438a2.409,2.409,0,0,0-1.7-.7,2.439,2.439,0,0,0-1.7.7,2.411,2.411,0,0,0-.7,1.7,2.73,2.73,0,0,0,.7,1.7q3.111,3.768,6.337,7.439a2.414,2.414,0,0,0,3.394,0,2.459,2.459,0,0,0,0-3.395Z"/><path class="e" d="M141.338,117.222c-1,3.9-3.516,6.36-6.737,8.588-3.6,2.493-7.268,4.9-9.63,8.7-4.531,7.3-3.8,16.577-1.1,24.35,1.435,4.132,3.26,8.376,6.223,11.657,2.076,2.3,5.462-1.106,3.4-3.394-2.137-2.366-3.635-5.784-4.757-8.885a49.881,49.881,0,0,1-1.581-5.2,18.933,18.933,0,0,1-.631-3.676c-.208-4.325.388-9.08,2.808-12.767,2.114-3.221,5.586-5.119,8.64-7.309,3.864-2.772,6.79-6.092,8-10.793.769-2.994-3.86-4.271-4.629-1.276Z"/><path class="e" d="M213.661,244.182c-3.19,2.932-6.426,5.816-9.749,8.6a2.41,2.41,0,0,0,0,3.394,2.464,2.464,0,0,0,3.394,0c3.323-2.78,6.559-5.665,9.749-8.6a2.418,2.418,0,0,0,0-3.394,2.452,2.452,0,0,0-3.394,0Z"/><path class="e" d="M183.475,278.989a7.422,7.422,0,0,0-1.987,8.053,6.826,6.826,0,0,0,2.044,3.033,8.173,8.173,0,0,0,4.5,1.741,7.226,7.226,0,0,0,7.229-4.041,6.943,6.943,0,0,0,.322-4.835,8.872,8.872,0,0,0-2.223-3.747,7.551,7.551,0,0,0-4.848-1.962,7.134,7.134,0,0,0-5.039,1.758,2.411,2.411,0,0,0,0,3.394,2.46,2.46,0,0,0,3.394,0c.051-.045.1-.089.158-.132l-.485.375a4.442,4.442,0,0,1,.968-.565l-.573.242a5.159,5.159,0,0,1,1.185-.316l-.638.085a5.88,5.88,0,0,1,1.44,0l-.638-.086a5.8,5.8,0,0,1,1.462.395l-.574-.242a4.862,4.862,0,0,1,1,.583l-.486-.375a4.529,4.529,0,0,1,.726.745l-.376-.486a7.482,7.482,0,0,1,.938,1.571l-.242-.573a5.872,5.872,0,0,1,.405,1.442l-.086-.638a4.779,4.779,0,0,1,0,1.183l.086-.638a4.455,4.455,0,0,1-.262.976l.242-.574a4.7,4.7,0,0,1-.6,1.032l.376-.486a5.531,5.531,0,0,1-.9.9l.486-.375a4.487,4.487,0,0,1-.927.531l.573-.242a5.7,5.7,0,0,1-1.36.362l.638-.086a6.525,6.525,0,0,1-1.658,0l.638.085a6.134,6.134,0,0,1-1.42-.381l.574.242a5.225,5.225,0,0,1-1.092-.623l.486.375a4.356,4.356,0,0,1-.769-.76l.375.486a5.015,5.015,0,0,1-.584-1.031l.242.573a6.04,6.04,0,0,1-.4-1.457l.086.638a5.456,5.456,0,0,1,0-1.381l-.086.638a5.058,5.058,0,0,1,.343-1.238l-.242.573a5.352,5.352,0,0,1,.606-1.027l-.375.486a6.353,6.353,0,0,1,.749-.8,2.417,2.417,0,0,0,0-3.394A2.455,2.455,0,0,0,183.475,278.989Z"/><path class="e" d="M153.432,158.4a168.967,168.967,0,0,0,8.231,32.926c3.685,10.192,7.335,20.4,11.346,30.473a293.344,293.344,0,0,0,17.09,35.237c3.266,5.805,6.847,11.5,9.671,17.536a61.658,61.658,0,0,1,3.306,8.125,21.057,21.057,0,0,1,.521,2.2,28.919,28.919,0,0,1,.414,2.865,162.226,162.226,0,0,1,.625,18.538c-.044,6.422-.244,12.84-.429,19.258-.09,3.09,4.71,3.087,4.8,0,.333-11.5.873-23.09.082-34.586a67.073,67.073,0,0,0-.781-6.9,30.772,30.772,0,0,0-1.918-6.219,147.539,147.539,0,0,0-9.1-17.87c-6.645-11.685-13.059-23.472-18.208-35.907-4.259-10.285-8.006-20.784-11.786-31.251-1.844-5.108-3.653-10.192-5.039-15.451a184.961,184.961,0,0,1-4.2-20.258,2.415,2.415,0,0,0-2.952-1.676,2.462,2.462,0,0,0-1.677,2.952Z"/><path class="a" d="M236.629,240.814a10.449,10.449,0,0,1-8.8,2.048,9,9,0,0,1-3.587-1.514c-4.693-3.354-5.109-10.106-3.875-15.307.46-1.935,2.645-6.93,7.871-8.076,2.952-18.787,1.055-43.08-6.733-55.809l-1.77-1.558q.217-2.187.373-4.407c7.855,3.3,13.046,9.2,14.619,14.979a98.6,98.6,0,0,1,1.37,47.821c4.731,2.471,6.127,8.541,5.148,13.671A13.772,13.772,0,0,1,236.629,240.814Z"/><path class="e" d="M217.627,157.316c-2.024,25.842-11.133,50.108-21.56,73.6-2.761,6.222-5.587,12.416-8.33,18.647a2.477,2.477,0,0,0,.861,3.284,2.418,2.418,0,0,0,3.283-.861c10.272-23.327,21.492-46.4,27.058-71.431a167.144,167.144,0,0,0,3.488-23.244,2.419,2.419,0,0,0-2.4-2.4,2.448,2.448,0,0,0-2.4,2.4Z"/><path class="e" d="M228.471,240.548c-5.177-1.088-6.573-6.3-6.242-10.975a16.338,16.338,0,0,1,.482-3c.053-.2.111-.4.176-.593.055-.166.431-1.048.146-.428a14.267,14.267,0,0,1,.978-1.814c.081-.126.637-.882.364-.54a10.759,10.759,0,0,1,.978-1.069,7.33,7.33,0,0,1,4.133-1.968,9.351,9.351,0,0,1,6.406,1.507c3.315,2.476,3.785,7.553,2.834,11.29-1.215,4.778-5.078,8.493-10.255,7.587a2.469,2.469,0,0,0-2.952,1.676,2.419,2.419,0,0,0,1.676,2.952,13.484,13.484,0,0,0,9.536-1.507,14.652,14.652,0,0,0,5.681-6.745c2.392-5.551,2.138-12.618-1.847-17.387-3.818-4.569-11.558-5.569-16.545-2.413a14.429,14.429,0,0,0-6.326,10.171,19.841,19.841,0,0,0,.873,10.388,12.026,12.026,0,0,0,8.628,7.493C230.209,245.81,231.5,241.184,228.471,240.548Z"/><path class="e" d="M162.575,151.694c-7.348,1.84-14.014,5.581-18.438,11.849-4.589,6.5-5.436,14.4-6.952,21.986-.483,2.419-.972,4.836-1.441,7.257a46.814,46.814,0,0,1-1.728,7.4,88.342,88.342,0,0,0-3.516,12.646,99.471,99.471,0,0,0-2.36,23.529,70.645,70.645,0,0,0,2.008,13.933,46.706,46.706,0,0,0,5.528,13.923c1.645,2.606,5.8.2,4.145-2.423-4.333-6.868-6.14-15.479-6.765-23.483a84.331,84.331,0,0,1,1.471-21.059,99.786,99.786,0,0,1,2.989-12.464,51.617,51.617,0,0,0,1.983-6.066c.442-2.457.917-4.908,1.4-7.357q1.322-6.662,2.578-13.335a32.556,32.556,0,0,1,3.09-9.283c3.591-6.734,9.96-10.593,17.281-12.427,3-.75,1.726-5.38-1.276-4.628Z"/><path class="e" d="M148.4,258.708c-3.562-6.036-5.043-13.426-6.148-20.271a22.681,22.681,0,0,1-.384-3.5c-.057-1.521-.012-3.046.075-4.565.2-3.415.608-6.818,1.132-10.2.493-3.177,1.055-6.354,1.814-9.479l-4.386.573c2.5,4.515,4.364,9.472,6.413,14.2,2.656,6.131,5.938,12.271,7.37,18.827.766,3.5.7,7.326-1.247,10.461a5.731,5.731,0,0,1-1.09,1.3,8.2,8.2,0,0,1-1.411.97,17.357,17.357,0,0,1-4.045,1.877c-2.134.559-4.393.405-6.506,1.079a7.692,7.692,0,0,0-4.8,3.726,9.4,9.4,0,0,0,2.346,10.747,6.841,6.841,0,0,0,5.755,1.649c2.185-.393,3.881-1.951,5.808-2.934,3.705-1.888,7.666-3.235,11.068-5.686a23,23,0,0,0,7.807-10.3,23.883,23.883,0,0,0,1.213-13.211c-1.354-8.443-4.985-16.331-8.8-23.91-1.894-3.764-3.866-7.49-5.691-11.289-.86-1.79-1.7-3.593-2.45-5.431q-.558-1.363-1.064-2.747a3.6,3.6,0,0,1-.4-1.595,87.5,87.5,0,0,1,1.57-16.508c.561-3.277,1.239-6.539,2.105-9.75.4-1.48.84-2.95,1.344-4.4a27.7,27.7,0,0,1,1.39-3.419,17.739,17.739,0,0,1,1.714-2.865,2.415,2.415,0,0,0-.861-3.283,2.457,2.457,0,0,0-3.284.861c-3.265,4.355-4.665,10.3-5.841,15.515a125.223,125.223,0,0,0-2.773,18.8c-.154,2.218-.6,5.05.149,7.186a103.22,103.22,0,0,0,4.788,11.149c3.591,7.34,7.7,14.47,10.549,22.151a54.8,54.8,0,0,1,3.05,11.6,18.935,18.935,0,0,1-2.4,11.982,18.7,18.7,0,0,1-8.309,7.591c-1.817.94-3.7,1.741-5.558,2.587-.9.407-1.792.824-2.646,1.314a24.4,24.4,0,0,1-2.83,1.727c-2.608,1.051-4.1-2.736-3.671-4.78.341-1.634,2.257-2.013,3.689-2.234,2.168-.336,4.3-.376,6.362-1.228,2.762-1.143,5.57-2.656,7.376-5.1a16.654,16.654,0,0,0,2.818-10.779c-.507-7.474-4.254-14.309-7.156-21.069-2.172-5.059-4.34-10.13-6.678-15.116-.328-.7-.654-1.407-1.03-2.085a2.426,2.426,0,0,0-4.386.574,121.783,121.783,0,0,0-3.03,19.621,42.5,42.5,0,0,0,.2,9.439,97.314,97.314,0,0,0,2.085,10.3,47.965,47.965,0,0,0,4.737,12.345c1.569,2.659,5.719.247,4.145-2.422Z"/><path class="e" d="M131.2,240.389q4.082-.246,8.146-.709a2.615,2.615,0,0,0,1.7-.7,2.4,2.4,0,0,0,0-3.394,2.322,2.322,0,0,0-1.7-.7q-4.064.464-8.146.709a2.4,2.4,0,0,0,0,4.8Z"/><path class="e" d="M155.233,236.845l.341-.146-.574.242a38.727,38.727,0,0,1,6.215-2.007,2.419,2.419,0,0,0,1.676-2.952,2.452,2.452,0,0,0-2.952-1.676,41.937,41.937,0,0,0-7.128,2.394,2.4,2.4,0,0,0-1.1,1.434,2.449,2.449,0,0,0,.242,1.85,2.425,2.425,0,0,0,1.434,1.1l.638.085a2.384,2.384,0,0,0,1.211-.327Z"/><path class="e" d="M230.65,218a120.394,120.394,0,0,0,1.149-23.958,92.858,92.858,0,0,0-3.74-22.815,46.77,46.77,0,0,0-4.477-10.278c-1.6-2.64-5.75-.23-4.145,2.422,3.337,5.514,5.044,11.9,6.174,18.2a116.371,116.371,0,0,1,.411,35.156,2.477,2.477,0,0,0,1.676,2.952A2.418,2.418,0,0,0,230.65,218Z"/><path class="e" d="M238.523,219.1a101.773,101.773,0,0,0-1.478-48.569,23.285,23.285,0,0,0-6.52-10.427,33.06,33.06,0,0,0-14.415-7.782c-2.991-.783-4.266,3.845-1.276,4.629,7.329,1.919,15.1,6.806,17.425,14.315a89.973,89.973,0,0,1,3.711,28.323,104.574,104.574,0,0,1-2.076,18.235,2.461,2.461,0,0,0,1.676,2.952,2.423,2.423,0,0,0,2.953-1.676Z"/><path class="e" d="M143.092,263.265a24.58,24.58,0,0,1,1.625,6.006l-.085-.638q.123.936.179,1.878a2.4,2.4,0,1,0,4.8,0,26.4,26.4,0,0,0-1.89-8.522,2.643,2.643,0,0,0-1.1-1.434,2.4,2.4,0,0,0-3.284.861,2.317,2.317,0,0,0-.242,1.849Z"/><path class="e" d="M157.026,270.112c.163.069.308.156.463.239.353.187-.236-.259.022.017.127.137.259.266.383.407-.33-.373-.046-.047.022.062.1.165.19.339.282.511.207.386-.087-.324.022.063.052.186.117.366.159.555.112.5.062.034.019.021.046.014.014.481.016.535.016.414.117-.388.007-.03-.169.557.228-.285-.022.129-.087.145-.168.291-.259.432.242-.373-.152.154-.23.23-.1.1-.389.326-.111.121a9.512,9.512,0,0,1-1.112.649c-.131.059-.105.05.079-.029-.108.044-.216.085-.325.124-.191.068-.383.129-.577.185-.214.062-.429.118-.647.166-.133.03-.268.057-.4.08.16-.016.168-.017.025,0-.239.022-.474.018-.713.019q-.382-.032-.049,0c-.086-.016-.172-.036-.257-.059s-.649-.252-.263-.068a5.436,5.436,0,0,1-.54-.3c-.076-.047-.149-.1-.222-.147l-.017-.014c-.155-.139-.309-.277-.454-.427a6.045,6.045,0,0,1-.413-.465c.176.224-.187-.282-.226-.341a20.588,20.588,0,0,1-1.372-2.636,2.008,2.008,0,0,0-2.736-.717,2.056,2.056,0,0,0-.718,2.736,12.817,12.817,0,0,0,3.16,4.735,7.317,7.317,0,0,0,2.653,1.475,7.231,7.231,0,0,0,3.408.026,9.06,9.06,0,0,0,4.834-2.468,5.351,5.351,0,0,0,1.323-5.028,6.15,6.15,0,0,0-3.192-4.245,2.058,2.058,0,0,0-2.736.717,2.022,2.022,0,0,0,.717,2.737Z"/><path class="e" d="M218.929,52.1a43.082,43.082,0,0,1,16.5,28.773,2.473,2.473,0,0,0,2.4,2.4,2.415,2.415,0,0,0,2.4-2.4A47.7,47.7,0,0,0,222.323,48.7a2.481,2.481,0,0,0-3.394,0,2.416,2.416,0,0,0,0,3.394Z"/><path class="e" d="M248.543,83.086a113.372,113.372,0,0,0,1.311-21.2,76.894,76.894,0,0,0-4.717-23.312C242.462,31.21,238.73,24,233.248,18.324a63.7,63.7,0,0,0-14.581-11.56,51.209,51.209,0,0,0-17.673-5.72A85.6,85.6,0,0,0,175.823.837a58.824,58.824,0,0,0-48.084,42.642,66.41,66.41,0,0,0-1.94,24.027,71.064,71.064,0,0,0,.98,7.134,2.423,2.423,0,0,0,2.952,1.677,2.45,2.45,0,0,0,1.676-2.953c-2.927-15.159-.492-31.179,8.024-44.18A54.706,54.706,0,0,1,171.518,6.622c7.87-2.039,16.028-2.066,24.087-1.395a54.327,54.327,0,0,1,17.268,4,50.942,50.942,0,0,1,13.591,9.232,47.933,47.933,0,0,1,6.636,7.126,55.835,55.835,0,0,1,5.554,9.692,74.314,74.314,0,0,1,6.034,22.087,96.634,96.634,0,0,1-.23,19.908c-.142,1.519-.308,3.034-.543,4.541a2.476,2.476,0,0,0,1.676,2.953,2.418,2.418,0,0,0,2.952-1.677Z"/><path class="e" d="M126.788,74.831a72.5,72.5,0,0,0,1.888,7.63,2.4,2.4,0,0,0,4.629-1.276,72.26,72.26,0,0,1-1.889-7.63,2.414,2.414,0,0,0-1.1-1.434,2.4,2.4,0,0,0-3.284.861,2.693,2.693,0,0,0-.241,1.849Z"/><path class="e" d="M229.824,234.1a2.661,2.661,0,0,1-1.065-.449c-1.394-1-1.518-3-1.151-4.547a3.171,3.171,0,0,1,4.111-2.315c1.855.508,2.417,2.571,2.091,4.281C233.459,232.909,232.024,234.517,229.824,234.1Z"/><path class="a" d="M72.937,176.324A194.4,194.4,0,0,0,64.5,158.785c-.219-.422-1.753-2.561-3.209-2.982a3.743,3.743,0,0,0-3.732.961,4.84,4.84,0,0,0-1.522,3.465A45.616,45.616,0,0,0,58.077,173.6c-7.749-1.04-23.268-8.406-31.544-12.781-1.988-1.05-3.966-2.253-6.2-2.569-2.3-.337-6.38,1.256-7.186,3.469-3.143-1.521-4.857-1.49-6.815-.746-2.324.887-3.006,1.814-3.465,3.129a5.647,5.647,0,0,0,.208,4.528,1.586,1.586,0,0,1,.2.632,1.318,1.318,0,0,1-.224.633A7.045,7.045,0,0,0,4.7,178.071a3.889,3.889,0,0,0,.413,4.566c5.992,6.8,27.4,19.295,39.632,24.011a5.464,5.464,0,0,1,1.877,1,5.388,5.388,0,0,1,1.213,2.172c.847,2.32,1.458,3.879,2.171,6.092,5.122-1.393,18.45-5.082,25.783-7.79a41.719,41.719,0,0,1-1.349-6.076s-.1-1.131-.17-2.007c1.457-7.577,2.135-15.116-.753-22.293Q73.221,177.013,72.937,176.324Z"/><path class="e" d="M6.648,179.54c.062-.445.042-.06-.109,0a1.789,1.789,0,0,1,.765-.153,8.2,8.2,0,0,1,2.57,1.151c2.23,1.115,4.445,2.258,6.677,3.368A83.334,83.334,0,0,0,30.115,189.6c2.971.869,4.239-3.761,1.276-4.628-5.459-1.6-10.546-4.243-15.6-6.806-1.291-.654-2.58-1.31-3.875-1.955a13.209,13.209,0,0,0-3.782-1.528c-2.415-.365-5.731.82-6.116,3.584A2.483,2.483,0,0,0,3.7,181.216a2.417,2.417,0,0,0,2.953-1.676Z"/><path class="e" d="M5.419,170.673c.254-.294.133-.159,0-.084.054-.03.564-.157.528-.152a2.108,2.108,0,0,1,1.144.092,33.053,33.053,0,0,1,3.47,1.6c2.659,1.276,5.322,2.526,8.023,3.711,4.79,2.1,9.522,4.343,14.365,6.321a2.415,2.415,0,0,0,2.953-1.676,2.46,2.46,0,0,0-1.676-2.952c-4.741-1.937-9.959-4.406-14.885-6.561-3.071-1.344-6.044-2.9-9.1-4.273a8.926,8.926,0,0,0-3.99-1.079,5.749,5.749,0,0,0-4.221,1.659,2.462,2.462,0,0,0,0,3.394,2.421,2.421,0,0,0,3.394,0Z"/><path class="e" d="M2.019,178.264c-1.166,4.354,2.259,7.22,5.285,9.661a107.809,107.809,0,0,0,9.873,6.984,168.26,168.26,0,0,0,23.234,12.528c1.017.441,2.04.873,3.071,1.281.9.358,1.494.474,1.912,1.4a67.862,67.862,0,0,1,2.83,8.15c.891,2.949,5.526,1.692,4.628-1.276-.717-2.373-1.558-4.7-2.414-7.021a12.953,12.953,0,0,0-1.5-3.278,7.037,7.037,0,0,0-3.387-2.3c-3.467-1.363-6.922-2.983-10.337-4.724A163.346,163.346,0,0,1,13.019,186.3a51.089,51.089,0,0,1-4.046-3.227c-1-.889-2.73-2.026-2.325-3.536.8-2.987-3.829-4.262-4.629-1.276Z"/><path class="e" d="M56.291,170.82c-6.214-1.5-12.172-4.155-17.954-6.835q-4.415-2.048-8.744-4.276c-3.055-1.574-6.232-3.792-9.778-3.9-3.579-.113-7.573,1.923-8.981,5.274l3.526-1.435c-3.63-1.706-7.359-2.219-10.9.056a6.944,6.944,0,0,0-2.907,3.762,8.362,8.362,0,0,0-.443,3.132,21.627,21.627,0,0,0,.855,3.3v-1.276c-.174.814-.662,1.577-.81,2.439a9.52,9.52,0,0,0-.1,2.68,9.951,9.951,0,0,0,2.51,5.6c2.047,2.322,5.431-1.084,3.394-3.394a4.7,4.7,0,0,1-.992-4.4c.343-1.037.907-1.89.6-3.083-.267-1.026-.809-1.761-.618-2.873a5.564,5.564,0,0,1,.241-.85c.044-.129.133-.329.029-.088.181-.419.108-.29.3-.488a5,5,0,0,1,1.741-.978c1.6-.567,3.017-.18,4.687.6a2.456,2.456,0,0,0,3.526-1.434c-.1.227.248-.216.3-.265a4.066,4.066,0,0,1,.754-.542,7.247,7.247,0,0,1,2.163-.832c1.6-.35,3.283.406,4.772,1.176,3.292,1.7,6.56,3.432,9.9,5.033,6.941,3.321,14.15,6.7,21.658,8.523,3,.727,4.282-3.9,1.276-4.628Z"/><path class="e" d="M11.937,163.789c3.973,1.862,7.79,4.06,11.748,5.962,4.556,2.188,8.977,4.651,13.461,6.98,2.738,1.423,5.168-2.718,2.423-4.144-4.484-2.33-8.905-4.793-13.462-6.981-3.958-1.9-7.774-4.1-11.747-5.962a2.47,2.47,0,0,0-3.284.861,2.421,2.421,0,0,0,.861,3.284Z"/><path class="e" d="M39.725,174.065q-6.47,5.382-12.391,11.373a2.4,2.4,0,1,0,3.394,3.394q5.914-5.983,12.391-11.373a2.409,2.409,0,0,0,0-3.394,2.465,2.465,0,0,0-3.394,0Z"/><path class="e" d="M32.057,190.043q3.51.074,7.011.336a32.34,32.34,0,0,1,6.061.805,11.156,11.156,0,0,1,7.042,5.983,2.423,2.423,0,0,0,3.284.861,2.449,2.449,0,0,0,.861-3.283,15.914,15.914,0,0,0-9.249-7.991,30.967,30.967,0,0,0-7.125-1.1c-2.623-.221-5.253-.352-7.885-.407-3.09-.064-3.089,4.736,0,4.8Z"/><path class="e" d="M72.038,202.045c.308,3.407,1.454,6.719,2.352,10a2.4,2.4,0,0,0,4.628-1.276c-.429-1.57-.885-3.132-1.3-4.706-.216-.822-.422-1.646-.6-2.475-.08-.367-.154-.734-.218-1.1a3.232,3.232,0,0,0-.083-.521s.073.662.048.349c-.007-.09-.019-.18-.027-.27a2.577,2.577,0,0,0-.7-1.7,2.4,2.4,0,0,0-4.1,1.7Z"/><path class="a" d="M48.5,216.322c3.5-.946,21.5-5.822,29.02-8.868.678,1.72,2.047,5.922,2.91,8.187l.2.485c-9.022,3.461-21.2,7.471-30.066,8.991l-.053-.173c-.853-2.767-2.08-7.7-2.367-8.526Z"/><path class="e" d="M52.824,224.306c-.859-2.817-1.436-5.733-2.367-8.526l-1.676,2.952c4.221-1.143,8.436-2.311,12.635-3.532,5.62-1.633,11.306-3.245,16.741-5.431L75.2,208.092c1.048,2.7,1.886,5.478,2.91,8.187a2.467,2.467,0,0,0,2.952,1.676A2.419,2.419,0,0,0,82.743,215c-1.024-2.709-1.862-5.487-2.91-8.187-.427-1.1-1.652-2.2-2.953-1.676-5.434,2.187-11.12,3.8-16.74,5.432-4.2,1.22-8.414,2.388-12.635,3.532a2.425,2.425,0,0,0-1.677,2.952c.931,2.793,1.508,5.709,2.367,8.526.9,2.946,5.533,1.69,4.629-1.276Z"/><path class="e" d="M98.719,256.384c-4.622-13.913-8.7-27.987-12.8-42.06a2.416,2.416,0,0,0-2.952-1.676Q74.116,216.187,65,219a98.947,98.947,0,0,1-17.475,4.149,2.449,2.449,0,0,0-2.315,3.038c2.048,10.158,3.98,20.342,6.37,30.427,2.221,9.371,4.589,18.953,8.613,27.74,3.28,7.162,8.289,13.869,15.54,17.355a31.976,31.976,0,0,0,27.735,0c4.389-2.119,8.188-5.353,11.736-8.65,3.417-3.175,6.616-6.568,9.87-9.907,2.158-2.213-1.233-5.611-3.394-3.394-5.438,5.58-10.764,11.7-17.351,15.962a27.258,27.258,0,0,1-24.9,2.4c-6.835-2.642-11.436-8.642-14.545-15.037-3.906-8.038-6.065-17.021-8.171-25.662-2.624-10.763-4.681-21.651-6.87-32.508l-2.314,3.038a102.855,102.855,0,0,0,18.367-4.2q9.3-2.847,18.348-6.474L81.286,215.6c4.1,14.073,8.183,28.147,12.8,42.06.969,2.917,5.606,1.667,4.628-1.276Z"/><path class="e" d="M76.307,202.07c1.119-5.553,2.035-11.291,1.418-16.964-.593-5.453-2.757-10.369-5.023-15.31-.96-2.093-1.978-4.158-3.022-6.21-1.053-2.068-2.01-4.282-3.248-6.244-1.087-1.725-2.809-3.5-4.864-3.939a6.456,6.456,0,0,0-6.827,3.078c-1.577,2.433-1.123,5.572-.853,8.309a46.755,46.755,0,0,0,1.944,9.689c.938,2.931,5.573,1.678,4.628-1.276a41.45,41.45,0,0,1-1.608-6.982c-.143-1.04-.235-2.088-.3-3.135a14.531,14.531,0,0,1-.1-3.259c.2-1.135,1.432-2.224,2.449-1.556,1.255.825,1.77,2.189,2.477,3.552,1.842,3.549,3.682,7.1,5.34,10.742,1.8,3.944,3.645,7.975,4.184,12.315.662,5.321-.171,10.7-1.222,15.914a2.46,2.46,0,0,0,1.676,2.952,2.424,2.424,0,0,0,2.953-1.676Z"/><path class="e" d="M184.938,88.272c.421-.105.845-.2,1.272-.276.183-.033.366-.061.549-.091.623-.1-.529.048.1-.01a22.183,22.183,0,0,1,2.4-.111q.556.01,1.11.052.324.025.646.061c.092.01.184.02.276.032-.331-.046-.36-.048-.086-.008a23.451,23.451,0,0,1,2.358.523,2.4,2.4,0,1,0,1.276-4.628,21.741,21.741,0,0,0-11.179-.173,2.424,2.424,0,0,0-1.676,2.952,2.449,2.449,0,0,0,2.952,1.677Z"/><path class="e" d="M229.074,84.5c.3-.055.594-.1.893-.143l-.638.085a17.128,17.128,0,0,1,3.365-.105,2.4,2.4,0,0,0,1.7-4.1l-.485-.376a2.388,2.388,0,0,0-1.212-.327,19.527,19.527,0,0,0-4.9.335,2.411,2.411,0,0,0-1.434,1.1,2.448,2.448,0,0,0-.242,1.849,2.422,2.422,0,0,0,1.1,1.434l.573.242a2.4,2.4,0,0,0,1.276,0Z"/><path class="e" d="M151.857,79.868a19.527,19.527,0,0,0-4.9-.335,2.548,2.548,0,0,0-1.7.7,2.4,2.4,0,0,0,0,3.394,2.387,2.387,0,0,0,1.7.7,17.131,17.131,0,0,1,3.365.105l-.638-.085c.3.04.6.088.893.143a2.579,2.579,0,0,0,1.849-.242,2.4,2.4,0,0,0,.861-3.283,2.361,2.361,0,0,0-1.434-1.1Z"/><path class="e" d="M186.113,83.264a7.2,7.2,0,0,0-2.728-4.934,14.214,14.214,0,0,0-5.574-1.99,46.929,46.929,0,0,0-12.633-.8c-3.963.269-8.35.825-11.965,2.571-3.692,1.782-4.411,5.39-4.526,9.13-.1,3.3.027,6.743,1.434,9.781,1.608,3.473,5.282,5.017,8.814,5.819a45.173,45.173,0,0,0,11.816.723c3.619-.142,7.657-.1,10.745-2.282,5.579-3.949,5.553-11.95,4.617-18.014a2.417,2.417,0,0,0-2.952-1.676,2.459,2.459,0,0,0-1.676,2.952c.534,3.466.739,8.73-1.549,11.693-1.473,1.907-4.009,2.286-6.366,2.405a82,82,0,0,1-9.432.118c-2.748-.178-6.3-.584-8.547-2.333-1.731-1.346-1.992-3.979-2.092-6-.061-1.225-.04-2.451,0-3.675.041-1.1-.023-2.48.657-3.422.763-1.058,2.3-1.385,3.465-1.707a37.313,37.313,0,0,1,4.975-1.029,45.4,45.4,0,0,1,11.057-.087,32.849,32.849,0,0,1,5.424,1.094,3.856,3.856,0,0,1,1.675.754,3.916,3.916,0,0,1,.728,2.194,2.418,2.418,0,0,0,2.952,1.676A2.457,2.457,0,0,0,186.113,83.264Z"/><path class="e" d="M197.521,84.54c.208-1.266.35-2.2,1.607-2.7a23.739,23.739,0,0,1,5.023-1.171,44.021,44.021,0,0,1,10.247-.294,28.423,28.423,0,0,1,9.142,1.885c2.477,1.114,2.176,3.861,2.2,6.188.02,2.278.035,5.057-1.274,7.035-1.419,2.143-4.913,2.715-7.252,3.06a49.858,49.858,0,0,1-9.312.2c-2.516-.1-5.764.034-7.8-1.5-3.479-2.628-3.157-8.966-2.578-12.706a2.476,2.476,0,0,0-1.677-2.952,2.418,2.418,0,0,0-2.952,1.676c-.851,5.5-.955,12.163,2.988,16.581,2.428,2.721,6.145,3.422,9.621,3.6a67.288,67.288,0,0,0,11.471-.062c3.636-.44,8.136-1.311,10.683-4.2,2.267-2.573,2.789-6.167,2.871-9.477.084-3.381.21-7.478-2.364-10.04-2.747-2.733-7.476-3.317-11.135-3.8a48.991,48.991,0,0,0-14.152.184,21.186,21.186,0,0,0-6.458,1.784,7.035,7.035,0,0,0-3.525,5.437,2.473,2.473,0,0,0,1.676,2.952A2.42,2.42,0,0,0,197.521,84.54Z"/><path class="e" d="M180.184,122.048a19.4,19.4,0,0,0,9.349,2.163,15.2,15.2,0,0,0,9.427-2.778,2.412,2.412,0,0,0,0-3.394,2.462,2.462,0,0,0-3.394,0c.726-.565.155-.128-.031-.008s-.382.232-.579.335c-.164.086-.874.368-.221.126-.266.1-.528.2-.8.291a14.018,14.018,0,0,1-2.235.51c.351-.052-.085.006-.221.02-.22.021-.439.04-.659.054-.529.034-1.059.047-1.589.044-.475,0-.949-.019-1.423-.051-.217-.015-.435-.032-.651-.054-.019,0-.8-.11-.324-.035a16.013,16.013,0,0,1-2.088-.464c-.293-.087-.578-.192-.866-.291-.616-.211.343.179-.212-.083q-.537-.254-1.061-.53a2.453,2.453,0,0,0-3.284.861,2.427,2.427,0,0,0,.861,3.284Z"/><path class="e" d="M188.328,100.005a44,44,0,0,1,1.034,4.732l-.086-.638a2.852,2.852,0,0,1,.018.653l.086-.638a1.66,1.66,0,0,1-.072.294l.242-.574a1.12,1.12,0,0,1-.1.189l.376-.486a.975.975,0,0,1-.155.153l.486-.375a3.27,3.27,0,0,1-.375.2l.573-.242a2.733,2.733,0,0,1-.631.184l.638-.085a2.5,2.5,0,0,1-.593,0l.638.086c-.224-.031-.443-.085-.667-.115a1.812,1.812,0,0,0-.957-.043,1.783,1.783,0,0,0-.892.284,2.4,2.4,0,0,0-.861,3.284,2.3,2.3,0,0,0,1.434,1.1c.506.068,1,.2,1.513.22a4.847,4.847,0,0,0,2.228-.529,3.208,3.208,0,0,0,1.78-2.116,5.312,5.312,0,0,0-.023-2.283c-.257-1.524-.609-3.035-1-4.53a2.4,2.4,0,1,0-4.628,1.276Z"/><path class="e" d="M163.483,86.713c-.759,2.465-.264,8.136,4.406,8.619,6.174-.037,6.5-6.894,4.424-10.118C170.612,82.575,165.609,81.477,163.483,86.713Z"/><path class="e" d="M214.573,86.713c.758,2.465.264,8.136-4.406,8.619-6.173-.037-6.5-6.894-4.424-10.118C207.444,82.575,212.447,81.477,214.573,86.713Z"/></svg>