<!DOCTYPE svg PUBLIC "-//W3C//DTD SVG 1.1//EN" "http://www.w3.org/Graphics/SVG/1.1/DTD/svg11.dtd">
<!-- Uploaded to: SVG Repo, www.svgrepo.com, Transformed by: SVG Repo Mixer Tools -->
<svg width="800px" height="800px" viewBox="0 0 20.00 20.00" xmlns="http://www.w3.org/2000/svg" fill="#000000" stroke="#000000">
<g id="SVGRepo_bgCarrier" stroke-width="0"/>
<g id="SVGRepo_tracerCarrier" stroke-linecap="round" stroke-linejoin="round" stroke="#CCCCCC" stroke-width="0.76"/>
<g id="SVGRepo_iconCarrier"> <g id="delete-user-square" transform="translate(-2 -2)"> <path id="secondary" fill="#ff0000" d="M12,15h0a5,5,0,0,1,5,5v1H7V20a5,5,0,0,1,5-5Z"/> <path id="primary" d="M14.64,14A4,4,0,1,1,12,7a3.66,3.66,0,0,1,1,.13" fill="none" stroke="#000000" stroke-linecap="round" stroke-linejoin="round" stroke-width="2"/> <path id="primary-2" data-name="primary" d="M17,20v1H7V20a5,5,0,0,1,5-5h0A5,5,0,0,1,17,20Zm3.5-9.5-3-3m0,3,3-3" fill="none" stroke="#000000" stroke-linecap="round" stroke-linejoin="round" stroke-width="2"/> <path id="primary-3" data-name="primary" d="M19,3H4A1,1,0,0,0,3,4V20a1,1,0,0,0,1,1H20a1,1,0,0,0,1-1V15" fill="none" stroke="#000000" stroke-linecap="round" stroke-linejoin="round" stroke-width="2"/> </g> </g>
</svg>