<?xml version="1.0" encoding="utf-8"?>
<!-- Uploaded to: SVG Repo, www.svgrepo.com, Generator: SVG Repo Mixer Tools -->
<svg width="800px" height="800px" viewBox="0 -39.06 358.933 358.933" xmlns="http://www.w3.org/2000/svg"><defs><style>.a{fill:#ffffff;}.b{fill:#a98a75;}.c{fill:#211715;}.d{fill:#95cbeb;}.e{fill:#bdbdbd;}.f{fill:#74c66d;}.g{fill:#7abee6;}.h{fill:#a095c1;}.i{fill:#b3b3b3;}</style></defs><path class="a" d="M276.018,189.736a9.928,9.928,0,0,1,5.612.216,8.57,8.57,0,0,1,3.867,2.269,8.722,8.722,0,0,1,1.543,2.579,11.343,11.343,0,0,1,.443,8.038,8.254,8.254,0,0,1-5.97,5.041,10.329,10.329,0,0,1-6.744-.44,8.218,8.218,0,0,1-4.23-4.327,12.764,12.764,0,0,1-.661-6.272,6.765,6.765,0,0,1,2.152-4.5,9.925,9.925,0,0,1,3.184-2.315A7.111,7.111,0,0,1,276.018,189.736Z"/><path class="b" d="M270.066,195.741a6.454,6.454,0,0,1,.49-1.427,7.951,7.951,0,0,1,1.474-1.979,9.925,9.925,0,0,1,3.184-2.315,7.111,7.111,0,0,1,.8-.284,9.928,9.928,0,0,1,5.612.216,9.282,9.282,0,0,1,3.268,1.693c-.667,4.467-10,7.989-14.912,9.558a13.82,13.82,0,0,1-.108-4.363C269.924,196.471,269.984,196.1,270.066,195.741Z"/><path class="a" d="M331.981,259.407a12.287,12.287,0,0,0-3.524,4.194,54.437,54.437,0,0,0-1.942,7.6l-2.965-.056c-.593-1.905-3.1-2.318-4.48-1.633l-2.107-1.137c-.432-1.947-2.894-2.568-4.328-2l-.438-.854a21.085,21.085,0,0,1,2.387-7.152,21.878,21.878,0,0,1,1.84-2.463,29.9,29.9,0,0,1,3.446-2.6Z"/><path class="a" d="M273.209,266.157a3.714,3.714,0,0,1-.457-.593c-.986-1.43-.816-4.047.178-6.548a23.444,23.444,0,0,0,5.4-.277l.591-.132.352,1.936a6.782,6.782,0,0,1-.413,4.1C277.892,266.9,274.957,267.994,273.209,266.157Z"/><path class="a" d="M280.413,257.3a16.948,16.948,0,0,0,5.59-.457,6.519,6.519,0,0,1,3.534,2.122,2.866,2.866,0,0,1-1.447,3.892,8.841,8.841,0,0,1-4.739.21,4.609,4.609,0,0,1-3.708-3.274Z"/><path class="a" d="M271.673,257.406c-.151-4-.29-8.418-.3-11.959a65.025,65.025,0,0,0,14.218-.559c.01.385.019.624.019.624.122,3.587.242,8.175.358,11.353a17.361,17.361,0,0,1-5.551.438l-2.083,1.436a21.483,21.483,0,0,1-6.6.119C271.71,258.382,271.692,257.9,271.673,257.406Z"/><path class="a" d="M266.32,225.549a10.137,10.137,0,0,1-.389-5.5,19.529,19.529,0,0,1,8.447-12.819c.126.076.258.143.391.208a10.329,10.329,0,0,0,6.744.44,8.156,8.156,0,0,0,2.247-.837c1.006.168,1.76.3,1.76.3a4.231,4.231,0,0,1,2.909,2.69c.543,1.266.743,2.652,1.208,3.948.315.875,1.422,1.4,2.712,1.837a3.268,3.268,0,0,0-.269.724,5.688,5.688,0,0,0,.45,3.883,4.62,4.62,0,0,0,1.564,1.627c-1.361,1.083-4.564,1.228-6.78.691l-.4-.111c-.012,5.4.087,20.062-.021,21.94-2.379.833-11.925,1.457-16.951.714-.134-4.326-.3-11.658-.476-15.643,0,0,0-.493,0-1.141a4.69,4.69,0,0,1-1.41-.688A5.164,5.164,0,0,1,266.32,225.549Z"/><path class="a" d="M153.335,21.408l16.3-9.416a3.987,3.987,0,0,1,3.994,0q36.833,21.27,73.659,42.529a3.964,3.964,0,0,1,1.988,3.436V162.706a3.99,3.99,0,0,1-1.994,3.461C178.771,205.725,95.538,253.778,81.6,261.821a3.955,3.955,0,0,1-3.959,0Q40.821,240.566,4.015,219.3a4,4,0,0,1-2-3.464V111.078a4,4,0,0,1,2-3.462c6.643-3.835,28.842-16.65,51.034-29.458V40.438a4.057,4.057,0,0,1,2.03-3.511c23.186-13.382,44.835-25.886,59.583-34.4a3.982,3.982,0,0,1,3.985,0l32.693,18.875"/><path class="c" d="M277.714,260.328a6.227,6.227,0,0,0,3.168,3.949,10.166,10.166,0,0,0,5.029,1.007,6.16,6.16,0,0,0,5.027-2.272,4.785,4.785,0,0,0,.309-5.083,5.967,5.967,0,0,0-1.93-1.8,9.076,9.076,0,0,0-2.773-1.211,2,2,0,1,0-1.063,3.857c.2.049.405.105.6.173.1.035.2.073.3.113q-.345-.149-.036-.008c.322.17.642.331.948.53.08.052.16.106.239.161.178.131.151.107-.083-.07,0,0,.323.281.351.31.132.132.251.388-.07-.126.211.338-.072-.38.028.017.027.083.051.168.071.253q.061.328-.012-.147s0,.366.006.384q-.028.332.026-.152c-.016.083-.035.166-.058.247s-.049.162-.079.241q.186-.42.045-.131c-.008.012-.2.326-.2.324.186-.234.21-.27.07-.109-.059.062-.12.122-.184.178.24-.174.273-.2.1-.076-.073.049-.148.093-.225.135-.282.185.362-.112-.125.046-.175.056-.353.1-.532.142-.105.022-.209.042-.314.059q.4-.05.051-.012c-.384.021-.761.042-1.146.029-.217-.008-.435-.022-.652-.042-.114-.01-.8-.023-.262-.024a3.521,3.521,0,0,1-.974-.206c-.086-.027-.171-.055-.256-.086q-.3-.117.1.049a2.7,2.7,0,0,0-.369-.183c-.163-.088-.313-.191-.47-.288-.175-.127-.15-.1.075.064-.071-.058-.14-.118-.207-.181-.1-.093-.191-.2-.29-.293-.139-.166-.121-.137.054.084-.054-.074-.106-.15-.155-.228s-.095-.157-.138-.239c-.1-.2-.086-.164.027.1a1.506,1.506,0,0,1-.165-.544,2.018,2.018,0,0,0-2.46-1.4,2.042,2.042,0,0,0-1.4,2.46Z"/><path class="c" d="M277.273,260.543a10.724,10.724,0,0,1,.076,2.474l.072-.532a5.447,5.447,0,0,1-.34,1.3l.2-.477a6.648,6.648,0,0,1-.408.83c-.069.114-.15.219-.223.33.382-.581.124-.162-.019-.013-.09.094-.186.181-.283.269-.116.1-.329.216.194-.142-.053.036-.1.076-.157.112a4.128,4.128,0,0,1-.7.384l.478-.2a3.83,3.83,0,0,1-.927.255l.532-.071a3.436,3.436,0,0,1-.8,0l.531.071a3.145,3.145,0,0,1-.774-.209l.477.2a3.119,3.119,0,0,1-.465-.253c-.381-.255.324.294.091.071-.069-.066-.141-.13-.208-.2s-.129-.153-.2-.225c.423.451.178.229.076.074a4.171,4.171,0,0,1-.313-.562l.2.477a4.694,4.694,0,0,1-.314-1.171l.071.532a8.017,8.017,0,0,1,.026-2.053l-.071.532a12.282,12.282,0,0,1,.552-2.26,2.013,2.013,0,0,0-1.4-2.46,2.048,2.048,0,0,0-2.46,1.4,11.4,11.4,0,0,0-.571,5.425,5.739,5.739,0,0,0,2.559,3.92c2.612,1.649,6.04.264,7.541-2.215a7.056,7.056,0,0,0,.949-2.607,11.451,11.451,0,0,0,0-3,2.184,2.184,0,0,0-.586-1.415,2,2,0,0,0-2.828,0,1.93,1.93,0,0,0-.586,1.415Z"/><path class="a" d="M79.576,262.993V153.77L132.6,123.154V83.1l63.64-36.742V86.411l53.036-30.62V162.706a3.988,3.988,0,0,1-1.994,3.461Z"/><path class="d" d="M133.055,210.868V193.794l29.189,16.839c0,1.548,0,3.1,0,4.637-10.3,5.943-20.135,11.621-29.188,16.853Z"/><path class="d" d="M79.576,197.028V171.545L217.419,91.961l31.862-18.395V99.049Z"/><path class="d" d="M79.576,246.573V223.442l53.034-30.619c0,14.121,0,23.131,0,23.131l-41.793,24.13Z"/><path class="d" d="M206.488,150.169l20.033,11.565c7.824-4.517,15.6-9.007,22.76-13.141,0,0,0-9.01,0-23.131Z"/><path class="c" d="M240.633,58.475q-22.7,13.107-45.4,26.206l3.009,1.727V46.358a2.019,2.019,0,0,0-3.009-1.727Q171.571,58.29,147.91,71.955L131.6,81.371A2.014,2.014,0,0,0,130.6,83.1v40.06l.991-1.727q-25.644,14.795-51.282,29.6c-.531.307-1.081.595-1.6.924-1.681,1.065-1.139,3.522-1.139,5.249v96.063c0,2.574,4,2.578,4,0v-99.5l-.99,1.727q17.9-10.336,35.8-20.669l17.228-9.941a2.011,2.011,0,0,0,.99-1.727V83.1l-.99,1.727q26.218-15.13,52.433-30.27l11.207-6.47-3.01-1.727v40.05a2.019,2.019,0,0,0,3.01,1.727q22.7-13.1,45.4-26.207c2.228-1.286.216-4.744-2.019-3.453Z"/><path class="c" d="M80.585,173.272l64.176-37.052,63.5-36.659,36.532-21.092c2.229-1.287.217-4.745-2.018-3.454l-64.5,37.239-63.4,36.607-36.3,20.957c-2.228,1.287-.216,4.745,2.019,3.454Z"/><path class="c" d="M100.428,186.14V160.663c0-2.574-4-2.578-4,0V186.14c0,2.574,4,2.578,4,0Z"/><path class="c" d="M248.272,97.322l-63.679,36.765L120.837,170.9l-35.673,20.6c-2.229,1.287-.217,4.745,2.018,3.454l63.664-36.756,63.761-36.812,35.684-20.6c2.228-1.286.216-4.744-2.019-3.453Z"/><path class="c" d="M119.286,175.256V149.773c0-2.573-4-2.578-4,0v25.483c0,2.574,4,2.578,4,0Z"/><path class="e" d="M152.331,97.161V91.112a1,1,0,0,1,.5-.866l7.975-4.6V76.435a1,1,0,0,1,.5-.866l5.238-3.025a1,1,0,0,1,1.5.868c0,2.732,0,5.444,0,8.052l6.975-4.027a1,1,0,0,1,1.5.866v6.046a.989.989,0,0,1-.5.863l-7.981,4.608v9.215a.994.994,0,0,1-.5.861l-5.236,3.023a1,1,0,0,1-1.5-.866V94l-6.974,4.027A1,1,0,0,1,152.331,97.161Z"/><path class="c" d="M80.585,225.165Q101.34,213.181,122.1,201.2q5.445-3.145,10.889-6.293c2.228-1.288.216-4.746-2.019-3.454q-20.805,12.032-41.625,24.04l-10.775,6.22c-2.229,1.287-.217,4.745,2.019,3.454Z"/><path class="c" d="M138.141,158.383v-19.14c0-2.573-4-2.578-4,0v19.14c0,2.573,4,2.578,4,0Z"/><path class="c" d="M100.428,235.689V212.557c0-2.574-4-2.578-4,0v23.132c0,2.573,4,2.578,4,0Z"/><path class="c" d="M124.685,218.219,88.073,239.357c-2.229,1.287-.217,4.745,2.019,3.454L126.7,221.673c2.229-1.287.217-4.744-2.019-3.454Z"/><path class="c" d="M157,153.493V128c0-2.574-4-2.578-4,0v25.49c0,2.574,4,2.578,4,0Z"/><path class="c" d="M119.285,224.8V201.671c0-2.574-4-2.579-4,0V224.8c0,2.574,4,2.578,4,0Z"/><path class="c" d="M175.853,142.594V117.116c0-2.573-4-2.578-4,0v25.478c0,2.574,4,2.578,4,0Z"/><path class="c" d="M194.709,131.707V106.23c0-2.574-4-2.578-4,0v25.477c0,2.574,4,2.578,4,0Z"/><path class="c" d="M213.565,120.821V95.343c0-2.574-4-2.578-4,0v25.478c0,2.573,4,2.578,4,0Z"/><path class="c" d="M232.422,109.934V84.456c0-2.573-4-2.578-4,0v25.478c0,2.574,4,2.578,4,0Z"/><path class="c" d="M207.905,151.655q21.159-12.2,42.31-24.42c2.228-1.287.216-4.745-2.019-3.454q-21.15,12.22-42.31,24.42c-2.229,1.286-.217,4.744,2.019,3.454Z"/><path class="c" d="M213.565,152.628v-5.39a2,2,0,0,0-4,0v5.39a2,2,0,0,0,4,0Z"/><path class="c" d="M248.276,146.871q-11.184,6.444-22.36,12.9c-2.229,1.287-.217,4.745,2.019,3.454q11.178-6.453,22.36-12.9c2.23-1.285.218-4.742-2.019-3.454Z"/><path class="c" d="M232.422,159.117V136.349c0-2.573-4-2.578-4,0v22.768c0,2.574,4,2.579,4,0Z"/><path class="c" d="M124.828,76.545q-23.76-13.717-47.52-27.436l-13.4-7.731c-2.233-1.289-4.25,2.166-2.019,3.454q23.764,13.715,47.525,27.436L122.809,80c2.234,1.29,4.25-2.165,2.019-3.453Z"/><path class="c" d="M196.865,44.231q-21.258-12.278-42.519-24.552c-2.233-1.289-4.25,2.166-2.019,3.454q21.261,12.275,42.519,24.552c2.233,1.29,4.25-2.165,2.019-3.454Z"/><path class="c" d="M73.359,147.378Q49.6,133.664,25.846,119.945l-13.394-7.734c-2.234-1.289-4.25,2.166-2.019,3.454L57.95,143.1l13.39,7.73c2.234,1.289,4.251-2.166,2.019-3.454Z"/><path class="c" d="M154.345,23.135l10.5-6.066,3.745-2.162c.933-.539,2.2-1.615,3.336-1.433a8.994,8.994,0,0,1,2.706,1.409l3.125,1.8,6.25,3.609,12.276,7.09q24.44,14.114,48.882,28.22c1.249.722,2.111,1.194,2.114,2.73,0,.507,0,1.014,0,1.521V161.747c0,.312.021.632,0,.943-.085,1.267-.918,1.7-1.929,2.284l-5.024,2.9-41.921,24.2-40.728,23.514L121.66,236.386,94.543,252.041,85.427,257.3l-3.216,1.856c-.409.236-.816.476-1.226.708-1.454.822-2.316.234-3.68-.553q-24.584-14.19-49.162-28.389L15.8,223.8l-6.285-3.629L6.6,218.483c-.784-.452-1.847-.837-2.314-1.656s-.267-2.2-.267-3.122V121.174c0-3.328-.21-6.732,0-10.055.107-1.685,1.9-2.291,3.183-3.033l6.516-3.761L33.071,93.151,56.055,79.885a2.012,2.012,0,0,0,.99-1.727V43.6c0-1.287-.4-3.6.6-4.61a9.376,9.376,0,0,1,2.009-1.243l2.455-1.416L67.192,33.4l9.721-5.611Q93.95,17.95,110.987,8.112l3.742-2.16c1.069-.617,2.642-1.959,3.922-1.957a5.114,5.114,0,0,1,2.327,1.039l3.135,1.81,5.374,3.1,22.84,13.186c2.234,1.29,4.25-2.165,2.019-3.454L133.3,7.527,123,1.58c-1.5-.867-2.96-1.708-4.758-1.564a10.4,10.4,0,0,0-4.333,1.792Q97.123,11.5,80.342,21.186L60.089,32.878c-2.9,1.672-6.539,3.091-6.98,6.847a14.185,14.185,0,0,0-.063,1.687V78.158l.991-1.727L10.59,101.509,4.372,105.1c-2.4,1.388-4.247,3-4.357,5.993-.034.949,0,1.906,0,2.855V214.37c0,2.413.3,4.7,2.463,6.294a64.937,64.937,0,0,0,6.139,3.606L14.9,227.9l12.57,7.259q12.57,7.26,25.141,14.519l12.8,7.389,6.286,3.629c1.953,1.127,4.017,2.725,6.182,3.393,3.346,1.031,6.661-1.651,9.436-3.253L109.1,248.256l32.885-18.985,39.86-23.012L224.561,181.6,245.7,169.392c1.685-.973,3.606-1.807,4.676-3.517a6.4,6.4,0,0,0,.9-3.205c.013-.358,0-.719,0-1.078V58.485a6.591,6.591,0,0,0-1.012-3.83c-1.234-1.815-3.471-2.725-5.316-3.79q-12.5-7.214-25-14.431L194.956,22l-12.5-7.218-6.25-3.609c-1.957-1.13-3.8-2.121-6.124-1.505a15.272,15.272,0,0,0-3.509,1.786l-3.744,2.162-10.5,6.066c-2.228,1.288-.216,4.745,2.019,3.454Z"/><path class="a" d="M168.833,253.934l6.993-4.037v-41l-6.592-3.805-6.993,4.037v41.005l6.592,3.805"/><path class="a" d="M225.944,221.046l6.993-4.038V176l-6.592-3.806-6.993,4.037V217.24l6.592,3.806"/><path class="c" d="M160.242,210.635v38.5a3.09,3.09,0,0,0,.586,2.4,9.18,9.18,0,0,0,1.925,1.192c1.74,1.006,3.427,2.192,5.482,2.393,2.175.212,3.933-.807,5.729-1.845l2.317-1.339a2.639,2.639,0,0,0,1.541-2.539c.133-3.942,0-7.912,0-11.857V210.865c0-2.574-4-2.578-4,0V249.9l.991-1.727-2.558,1.478a9.662,9.662,0,0,1-2.963,1.486c-1.249.193-2.251-.543-3.271-1.133l-2.769-1.6.99,1.727v-39.49c0-2.574-4-2.578-4,0Z"/><path class="c" d="M217.352,185.735v29.3c0,.714-.042,1.442,0,2.155.108,1.815,2.491,2.636,3.859,3.427A12.808,12.808,0,0,0,224.03,222a7.259,7.259,0,0,0,5.474-.7c1.5-.809,2.967-1.713,4.448-2.567a2.012,2.012,0,0,0,.99-1.727v-39.12c0-2.574-4-2.578-4,0v39.12l.991-1.727-2.565,1.48a9.652,9.652,0,0,1-2.966,1.485c-1.249.193-2.25-.544-3.27-1.133l-2.77-1.6.99,1.727v-31.5c0-2.574-4-2.578-4,0Z"/><path class="a" d="M131.865,193.109l-.675-.389c0-2.65,0-5.945,0-8.512q33.555-19.374,67.118-38.759l36.679,21.176v10.08q-32.88,18.975-65.76,37.96l-.662-.382C160.059,209.371,136.41,195.729,131.865,193.109Z"/><path class="c" d="M133.192,191.565q0-1.558,0-3.117v-1.571a5.507,5.507,0,0,1,0-1.506c.176-.268.826-.481,1.093-.636l1.509-.871L139.026,182l12.721-7.347,25.445-14.695,12.722-7.347,6.252-3.61a9.407,9.407,0,0,1,2.138-1.245c.327-.027,1.417.818,1.712.989l1.713.988,25.26,14.584,3,1.73,1.5.865c.391.226,1.28.509,1.506.873a4.734,4.734,0,0,1,0,1.452v3.533a10.287,10.287,0,0,1,0,2.624c-.113.362.39-.07-.442.414-1.081.628-2.165,1.249-3.247,1.874l-6.277,3.623-12.772,7.372L184.713,203.42l-12.771,7.372a7.171,7.171,0,0,1-2.52,1.256,3.188,3.188,0,0,1-1.889-.673l-3.047-1.758q-14.859-8.573-29.721-17.144c-.2-.117-1.558-.737-1.573-.908-.222-2.544-4.224-2.568-4,0,.259,2.973,2.878,3.971,5.147,5.28l7.3,4.209,17.654,10.184c2.312,1.334,4.594,2.76,6.952,4.011a6.359,6.359,0,0,0,6.42-.254c2.32-1.311,4.618-2.665,6.926-4q13.746-7.934,27.49-15.87c9.161-5.288,18.4-10.458,27.491-15.868a4.411,4.411,0,0,0,2.423-3.954c.023-1.006,0-2.016,0-3.023,0-2.049.5-5.012-.739-6.8a7.766,7.766,0,0,0-2.75-2.031l-3.639-2.1-6.636-3.832-13.7-7.909-6.636-3.832c-2.122-1.225-4.115-2.746-6.587-1.483-2.355,1.2-4.61,2.662-6.9,3.984l-6.9,3.984-27.386,15.816-13.8,7.969-6.9,3.985c-1.9,1.1-4.584,2.055-5.122,4.44a16.342,16.342,0,0,0-.1,3.519q0,1.785,0,3.569C129.189,194.139,133.189,194.143,133.192,191.565Z"/><path class="c" d="M144.223,191.6l16.253,9.383c2.705,1.562,5.382,3.2,8.126,4.691a2.394,2.394,0,0,0,2.207.348,13.689,13.689,0,0,0,1.958-1.093l4.3-2.481L209.3,183.839l18.483-10.671c2.229-1.287.217-4.745-2.019-3.454l-44.058,25.437-12.679,7.319h2.019l-24.806-14.321c-2.233-1.29-4.25,2.166-2.019,3.454Z"/><path class="c" d="M135.055,232.128V193.8c0-2.574-4-2.578-4,0v38.33c0,2.574,4,2.578,4,0Z"/><path class="a" d="M270.982,163.612c0,3.774.025,8.731.025,11.728,0,1.743-2.422,3.2-5.441,3.2s-5.489-1.46-5.489-3.2c0-3.023-.024-8.014-.024-11.8"/><path class="c" d="M268.982,163.612q0,3.818.017,7.635,0,1.668.008,3.338c0,.249-.014.506,0,.755.009.157-.091.287.019-.09-.052.18-.079.085,0,.045.15-.073.017-.03-.068.105-.116.186.064-.059.079-.077-.071.088-.158.161-.23.248-.306.372.144-.074-.082.089a4.917,4.917,0,0,1-2.652.869,8.928,8.928,0,0,1-.9,0,6.234,6.234,0,0,1-.7-.064,7.472,7.472,0,0,1-.8-.186c-.144-.041-.285-.089-.426-.137-.282-.1-.062-.014-.208-.088-.208-.106-.4-.224-.6-.345-.068-.042-.276-.243-.037-.023-.085-.079-.165-.164-.251-.242-.032-.029-.186-.245-.054-.054.144.208-.039-.075-.061-.131-.09-.223.051.13.051.129.017-.5-.051.457-.023-.053.059-1.048,0-2.117,0-3.166q-.01-4.316-.019-8.63c0-2.574-4-2.578-4,0q0,4.372.019,8.747a19.59,19.59,0,0,0,.1,3.876,5.028,5.028,0,0,0,2.423,3.1,10.172,10.172,0,0,0,8.96.473,5.794,5.794,0,0,0,2.974-2.53,8.305,8.305,0,0,0,.475-3.883c-.007-3.24-.022-6.48-.023-9.72,0-2.574-4-2.578-4,0Z"/><path class="f" d="M268.916,126.361a5.124,5.124,0,0,0-6.266,0,31.035,31.035,0,0,0-9.722,13,25.042,25.042,0,0,0-1.43,4.786,39.888,39.888,0,0,0-.489,4.733c-.177,2.793-.339,5.688.669,8.3a10.087,10.087,0,0,0,4.775,5.271c2.158,1.1,6.915,1.691,9.332,1.691,1.823,0,7.174-.586,9.332-1.691a10.093,10.093,0,0,0,4.776-5.271c1.007-2.61.845-5.5.668-8.3a40.1,40.1,0,0,0-.488-4.733,25.117,25.117,0,0,0-1.431-4.786A31.036,31.036,0,0,0,268.916,126.361Z"/><path class="c" d="M269.925,124.634a7.2,7.2,0,0,0-5.771-1.151c-2,.462-3.594,1.913-5.051,3.28a32.785,32.785,0,0,0-7.01,9.579,31.319,31.319,0,0,0-2.233,5.947,38.208,38.208,0,0,0-.879,7.039c-.26,4.339.024,8.591,2.938,12.05,2.382,2.828,5.745,3.868,9.276,4.372a31.473,31.473,0,0,0,9.163-.032c3.426-.492,6.63-1.4,9.041-4.052,3.023-3.326,3.459-7.584,3.216-11.9a38.119,38.119,0,0,0-1.02-7.922,33.242,33.242,0,0,0-11.265-16.9,2.065,2.065,0,0,0-2.828,0,2.013,2.013,0,0,0,0,2.829,28.54,28.54,0,0,1,10.682,17.143,44.806,44.806,0,0,1,.476,5.741,15.6,15.6,0,0,1-.481,5.369,7.909,7.909,0,0,1-5.783,5.247,27.042,27.042,0,0,1-6.992.865,21.434,21.434,0,0,1-7.717-1.3,8.428,8.428,0,0,1-4.777-7.513,32.53,32.53,0,0,1,1.179-11.284,28.96,28.96,0,0,1,5.5-9.983c1.965-2.315,5.062-6.286,8.317-3.969a2.017,2.017,0,0,0,2.737-.717A2.044,2.044,0,0,0,269.925,124.634Z"/><path class="a" d="M105.6,258.766c0,3.774.025,8.731.025,11.728,0,1.742-2.422,3.2-5.441,3.2s-5.489-1.461-5.489-3.2c0-3.023-.024-8.014-.024-11.8"/><path class="c" d="M103.6,258.766q0,3.817.017,7.634,0,1.669.008,3.338c0,.25-.015.506,0,.756.009.157-.091.287.019-.091-.052.18-.079.086,0,.045.15-.072.017-.03-.068.106-.116.185.064-.059.079-.077-.071.088-.158.161-.23.248-.306.371.144-.075-.082.088a4.927,4.927,0,0,1-2.652.87c-.3.016-.6.017-.9,0a6.234,6.234,0,0,1-.7-.064,7.472,7.472,0,0,1-.8-.186c-.144-.042-.285-.089-.426-.137-.282-.1-.062-.014-.208-.089-.208-.1-.405-.223-.6-.345-.068-.042-.276-.242-.037-.023-.085-.078-.165-.164-.251-.242-.032-.028-.186-.244-.054-.053.144.208-.039-.075-.061-.131-.09-.224.051.129.051.129.017-.5-.052.457-.023-.053.059-1.048,0-2.117-.005-3.166q-.01-4.315-.019-8.631c0-2.574-4-2.578-4,0q0,4.374.019,8.748a19.59,19.59,0,0,0,.1,3.876,5.031,5.031,0,0,0,2.424,3.1,10.172,10.172,0,0,0,8.96.474,5.794,5.794,0,0,0,2.974-2.53,8.309,8.309,0,0,0,.475-3.884c-.007-3.24-.022-6.479-.023-9.719,0-2.574-4-2.578-4,0Z"/><path class="f" d="M103.536,221.515a5.124,5.124,0,0,0-6.266,0,31.038,31.038,0,0,0-9.722,13,25.1,25.1,0,0,0-1.431,4.786,40.1,40.1,0,0,0-.488,4.733c-.177,2.792-.339,5.688.669,8.3a10.081,10.081,0,0,0,4.775,5.27c2.158,1.106,6.915,1.692,9.332,1.692,1.823,0,7.174-.586,9.332-1.692a10.081,10.081,0,0,0,4.775-5.27c1.008-2.61.846-5.506.669-8.3a40.1,40.1,0,0,0-.488-4.733,25.1,25.1,0,0,0-1.431-4.786A31.03,31.03,0,0,0,103.536,221.515Z"/><path class="c" d="M104.545,219.788a7.2,7.2,0,0,0-5.771-1.152c-2,.462-3.594,1.914-5.051,3.281a32.78,32.78,0,0,0-7.01,9.578,31.3,31.3,0,0,0-2.233,5.948,38.2,38.2,0,0,0-.879,7.039c-.26,4.339.024,8.591,2.938,12.05,2.382,2.827,5.745,3.868,9.276,4.372a31.473,31.473,0,0,0,9.163-.033c3.426-.491,6.63-1.4,9.041-4.051,3.023-3.326,3.459-7.585,3.216-11.895a38.178,38.178,0,0,0-1.02-7.922,33.231,33.231,0,0,0-11.265-16.9,2.064,2.064,0,0,0-2.828,0,2.011,2.011,0,0,0,0,2.828A28.545,28.545,0,0,1,112.8,240.073a44.806,44.806,0,0,1,.476,5.741,15.6,15.6,0,0,1-.481,5.368,7.907,7.907,0,0,1-5.783,5.247,27,27,0,0,1-6.992.866,21.414,21.414,0,0,1-7.717-1.305,8.425,8.425,0,0,1-4.777-7.512,32.538,32.538,0,0,1,1.179-11.285,28.955,28.955,0,0,1,5.5-9.982c1.965-2.315,5.062-6.287,8.317-3.969a2.016,2.016,0,0,0,2.737-.718A2.043,2.043,0,0,0,104.545,219.788Z"/><path class="c" d="M284.989,209.267c.152.03.3.079.446.115.168.04-.4-.207,0,.008.052.029.388.191.386.245l-.2-.149c.068.057.133.116.2.177.1.093.184.195.277.291.309.322-.224-.355.019.022a7.92,7.92,0,0,1,.417.7q.061.12.117.243-.141-.343-.054-.126c.055.155.116.308.169.465.115.339.213.683.307,1.028.179.666.339,1.337.558,1.992a4.672,4.672,0,0,0,2.624,2.844,33.354,33.354,0,0,0,3.727,1.3,2.016,2.016,0,0,0,2.46-1.4,2.043,2.043,0,0,0-1.4-2.46c-.593-.19-1.192-.364-1.785-.555-.266-.086-.531-.175-.793-.272-.056-.021-.343-.084-.374-.146.277.119.318.134.123.047l-.113-.054c-.231-.112-.435-.267-.661-.383q-.187-.135.19.147c-.053-.045-.1-.091-.153-.14l-.07-.074c-.133-.155-.09-.1.131.173a1.179,1.179,0,0,1-.074-.123q-.111-.209.1.261a3.062,3.062,0,0,0-.157-.471c-.108-.342-.2-.688-.292-1.035a12.53,12.53,0,0,0-1.511-3.927,5.808,5.808,0,0,0-3.554-2.6,2,2,0,1,0-1.063,3.857Z"/><path class="c" d="M270.924,207.354a21.434,21.434,0,0,0-7.113,13.518,10.172,10.172,0,0,0,1.4,6.814,6.915,6.915,0,0,0,7.156,2.828,2.019,2.019,0,0,0,1.4-2.46,2.042,2.042,0,0,0-2.46-1.4c-3.68.693-3.818-4.372-3.323-6.694a18.014,18.014,0,0,1,5.771-9.781,2,2,0,0,0-2.828-2.828Z"/><path class="c" d="M272.2,220.211a14.654,14.654,0,0,0,.159,2.921,1.511,1.511,0,0,0,.173.77,1.492,1.492,0,0,0,.413.644,2,2,0,0,0,2.829,0l.312-.405a1.987,1.987,0,0,0,.273-1.009,14.654,14.654,0,0,1-.159-2.921,2.237,2.237,0,0,0-.586-1.414,2,2,0,0,0-2.829,0l-.312.405a1.987,1.987,0,0,0-.273,1.009Z"/><path class="c" d="M284.927,221.222c-.048,4.065,0,8.132.013,12.2.01,3.7.152,7.447-.043,11.149l1.469-1.929a26.357,26.357,0,0,1-6.952.877,47.912,47.912,0,0,1-8.937-.163l1.469,1.929c-.16-5.214-.247-10.432-.476-15.643-.113-2.564-4.113-2.578-4,0,.229,5.211.316,10.429.476,15.643a2.024,2.024,0,0,0,1.468,1.928,52.546,52.546,0,0,0,10,.306,30.946,30.946,0,0,0,8.015-1.019,2.074,2.074,0,0,0,1.468-1.929c.195-3.7.053-7.444.043-11.149-.01-4.065-.061-8.132-.013-12.2.031-2.574-3.969-2.576-4,0Z"/><path class="c" d="M269.371,245.445c.019,4.473.183,8.944.358,13.413a2.041,2.041,0,0,0,1.468,1.929,16.02,16.02,0,0,0,3.749.268,21.09,21.09,0,0,0,3.916-.387,2,2,0,1,0-1.064-3.858c-.222.047-.445.085-.669.119.274-.042.225-.027-.019,0l-.424.041c-.579.049-1.16.077-1.74.089s-1.137.008-1.705-.021c-.259-.013-.517-.037-.775-.059-.305-.026.058.044.132.02a1.239,1.239,0,0,1-.337-.065l1.468,1.928c-.175-4.469-.339-8.94-.358-13.413a2,2,0,0,0-4,0Z"/><path class="c" d="M281.314,258.338c-.085-3.965-.276-7.926-.356-11.891a2,2,0,1,0-4,0c.08,3.965.271,7.926.356,11.891a2,2,0,0,0,4,0Z"/><path class="c" d="M283.606,245.512c.128,3.784.221,7.57.358,11.353l.991-1.727c.719-.3.252-.117.049-.069s-.393.081-.591.113a1.022,1.022,0,0,0-.315.047c.229-.152.328-.039.051-.011s-.539.056-.809.078c-.5.04-.995.067-1.493.074-.245,0-.49,0-.735-.007-.194-.007-.906-.095-.168.011a2.055,2.055,0,0,0-2.46,1.4,2.022,2.022,0,0,0,1.4,2.46,15.613,15.613,0,0,0,3.609.053,11.229,11.229,0,0,0,3.484-.692,1.941,1.941,0,0,0,.99-1.727c-.137-3.783-.23-7.569-.358-11.353a2,2,0,1,0-4,0Z"/><path class="c" d="M330.567,257.993a13.044,13.044,0,0,0-4.472,6.317,63.867,63.867,0,0,0-1.509,6.36,2,2,0,1,0,3.857,1.064c.391-2.051.854-4.1,1.434-6.106.109-.375.23-.745.355-1.115.15-.445-.234.474.024-.055a8.138,8.138,0,0,1,.423-.758c.1-.155.2-.3.3-.455.072-.106.152-.214.026-.05.221-.288.465-.562.713-.827a17.252,17.252,0,0,1,1.675-1.546,2.007,2.007,0,0,0,0-2.829,2.056,2.056,0,0,0-2.828,0Z"/><path class="c" d="M276.55,191.664c2.752-.73,6.595.2,8.1,2.786s2.109,6.46.255,9.02c-1.648,2.276-4.792,3.058-7.479,2.7a6.6,6.6,0,0,1-5.567-5.783,8.808,8.808,0,0,1,.646-5.474,7.672,7.672,0,0,1,4.043-3.253c2.452-.758,1.406-4.621-1.063-3.857a11.873,11.873,0,0,0-5.687,4.048,10.9,10.9,0,0,0-2.04,7.215,12.064,12.064,0,0,0,1.888,6.595,10.993,10.993,0,0,0,5.1,3.925,12.266,12.266,0,0,0,12.368-2.582c3.509-3.5,3.5-8.9,1.654-13.217a9.534,9.534,0,0,0-5.057-5.18,12.587,12.587,0,0,0-8.223-.8C273,188.467,274.055,192.327,276.55,191.664Z"/><path class="c" d="M282.524,192.287a2.915,2.915,0,0,0-.194.289c-.1.2.248-.282.006-.007-.166.189-.328.378-.5.557s-.378.367-.577.541c-.1.09-.207.178-.313.265-.133.109-.281.219-.059.052a23.1,23.1,0,0,1-3.089,1.924q-.851.45-1.724.853-.438.2-.881.4l-.353.153c-.563.243.185-.075-.139.059-1.143.472-2.3.906-3.468,1.313a2,2,0,1,0,1.064,3.857,53.24,53.24,0,0,0,7.688-3.269,15.749,15.749,0,0,0,6-4.966,2.016,2.016,0,0,0-.718-2.736,2.044,2.044,0,0,0-2.736.717Z"/><path class="c" d="M286.782,224.668a11.921,11.921,0,0,0,7.787-.559,2.011,2.011,0,0,0,.717-2.736,2.05,2.05,0,0,0-2.736-.718c-.069.034-.138.066-.209.1l.478-.2a7.182,7.182,0,0,1-1.848.471l.532-.071a12.457,12.457,0,0,1-3.1-.012l.531.071c-.364-.049-.725-.114-1.084-.2a2,2,0,0,0-1.063,3.858Z"/><path class="a" d="M277.876,231.023a5.542,5.542,0,0,1-1.626.725,3.777,3.777,0,0,1-2.24-.221,5.006,5.006,0,0,1-3.018-2.488A3.407,3.407,0,0,1,272,225.13a7.382,7.382,0,0,1,4.743-.595A3.3,3.3,0,0,1,279.5,227.5a4.949,4.949,0,0,1-.792,2.744A3.456,3.456,0,0,1,277.876,231.023Z"/><path class="a" d="M300.723,220.455a6.086,6.086,0,0,0-2.6-5.924c-2.4-1.277-5.442-.446-6.044,2.007a5.688,5.688,0,0,0,.45,3.883C294.067,223.274,299.886,224.515,300.723,220.455Z"/><path class="c" d="M276.866,229.3a5.137,5.137,0,0,1-.517.3,1.989,1.989,0,0,1-.272.128c.432-.141.152-.066.061-.038s-.486.215-.567.166c.061.038.38-.013.082-.019-.018,0-.457-.008-.454-.018.012-.04.494.114.079,0-.1-.028-.2-.048-.3-.075-.189-.053-.372-.12-.557-.185-.258-.09.073-.053.126.059a1.367,1.367,0,0,0-.231-.106c-.172-.082-.34-.173-.5-.27-.146-.087-.283-.184-.424-.278-.218-.143.3.259.107.081-.06-.056-.126-.108-.187-.165a5.506,5.506,0,0,0-.383-.408c.045.034.254.388.091.107-.052-.089-.111-.174-.161-.265-.231-.42.1.362-.047-.1-.022-.069-.156-.637-.082-.276.064.31.013.052.01-.039s0-.163,0-.244.023-.364-.006-.038c-.031.344.012-.014.032-.095s.049-.157.068-.236c.076-.311-.035.084-.068.134.09-.134.145-.3.232-.436a2.367,2.367,0,0,0,.138-.206c.035.092-.278.32-.078.114.058-.059.117-.119.173-.18q.188-.171-.006,0t.018.03l.06-.026q.2-.093-.175.074a1.936,1.936,0,0,1,.252-.092c.173-.059.349-.11.526-.155s.365-.081.548-.118.168-.123-.11.01a1.147,1.147,0,0,1,.356-.034,7.519,7.519,0,0,1,1.143,0c.076.006.389.016.086,0s0,0,.081.017a4.337,4.337,0,0,1,.551.134,1.176,1.176,0,0,0,.226.081c-.2.024-.363-.173-.147-.055.142.076.278.161.419.24.282.16-.092-.05-.114-.1.028.064.17.145.225.2s.112.11.166.168c.225.244-.007.046-.054-.087a1.4,1.4,0,0,0,.127.194c.03.05.058.1.083.152.069.137.042.065-.083-.217,0,.068.156.669.105.289-.043-.33-.014-.062-.012.024,0,.1,0,.209-.009.312,0,.087-.014.173-.021.26-.032.453.1-.45,0,0-.048.2-.086.4-.146.591-.027.086-.06.169-.087.255-.073.233.195-.369.017-.056-.042.072-.089.149-.127.224-.172.344.3-.276-.008.021-.068.066-.136.135-.2.2-.279.287.31-.208-.049.044a2,2,0,0,0,2.019,3.454,5.682,5.682,0,0,0,2.349-3.276,5.88,5.88,0,0,0,.032-3.408c-.9-2.443-3.292-3.608-5.779-3.682a9.034,9.034,0,0,0-3.3.5,4.632,4.632,0,0,0-1.876,1.085,5.31,5.31,0,0,0-1,1.429,5.268,5.268,0,0,0,1.454,6.548,8.285,8.285,0,0,0,3.524,1.738,6.087,6.087,0,0,0,4.595-.937,2,2,0,1,0-2.019-3.454Z"/><path class="c" d="M302.651,220.987a8.368,8.368,0,0,0-.6-4.755,7.722,7.722,0,0,0-2.87-3.392,6.5,6.5,0,0,0-3.977-.87,5.918,5.918,0,0,0-3.787,1.735c-2.161,2.347-1.874,6.268.042,8.661a7.863,7.863,0,0,0,5.509,2.671,5.282,5.282,0,0,0,5.678-4.05,2,2,0,1,0-3.857-1.063c-.041.188-.1.369-.155.552-.11.344.246-.449.062-.149-.044.072-.078.152-.122.225a1.287,1.287,0,0,0-.136.209c.111-.359.3-.347.111-.154-.056.056-.113.113-.166.17-.309.327.36-.221.1-.067-.133.08-.263.163-.4.238-.21.117-.272-.007.193-.076a1.681,1.681,0,0,0-.223.077c-.128.039-.257.065-.386.1-.212.05-.356-.045.212-.022-.107,0-.221.02-.328.025a4.945,4.945,0,0,1-.5,0c-.085,0-.169-.016-.254-.021-.358-.02.545.093.192.025a7.124,7.124,0,0,1-1.095-.291c-.082-.03-.163-.065-.245-.1.613.225.3.128.157.059s-.261-.13-.388-.2q-.225-.127-.44-.275a2.331,2.331,0,0,0-.208-.15c.524.287.239.187.079.044a4.5,4.5,0,0,1-.354-.35,1.887,1.887,0,0,0-.159-.185c.372.306.242.341.12.147-.1-.15-.182-.3-.268-.454-.221-.4.126.424-.011-.018-.054-.176-.115-.348-.16-.527-.028-.113-.044-.229-.073-.341-.073-.288.033.51,0,.046a7.837,7.837,0,0,1-.024-.839,1.481,1.481,0,0,1,.032-.413l-.034.262c.014-.089.031-.177.05-.264.025-.116.054-.23.09-.342.16-.508-.168.269,0-.016.052-.09.1-.182.154-.27.132-.207.268-.188-.072.076a3.484,3.484,0,0,0,.432-.427c-.306.359-.265.195-.077.074.086-.055.174-.107.264-.154a1.768,1.768,0,0,0,.185-.092c-.321.131-.384.158-.191.083.066-.024.132-.047.2-.068.2-.063.418-.083.62-.144-.522.158-.307.038-.1.025.109-.006.219-.009.329-.008s.222.011.333.014c.416.012-.5-.1-.085-.016a6.2,6.2,0,0,1,.778.2l.11.038q.3.116-.151-.069a2.841,2.841,0,0,0,.426.229c.379.213-.325-.3,0,0,.093.086.19.166.282.254s.18.178.265.272c.057.062.113.125.167.19.134.165.109.129-.077-.108-.018.03.433.669.475.747.061.111.113.226.171.339.087.2.07.153-.053-.13.031.079.061.158.088.237a5.984,5.984,0,0,1,.229.852l.023.124c.034.219.027.166-.02-.157a1.849,1.849,0,0,0,.03.5q0,.189-.006.378c-.007.142-.095.729,0,.1a2.188,2.188,0,0,0,.2,1.541,2,2,0,0,0,3.655-.478Z"/><path class="c" d="M311.967,263.711c-1.416.818-2.883,1.582-4.262,2.461-1.126.719-1.166,1.858-1.1,3.054a2.344,2.344,0,0,0,1.42,1.99l9.919,5.727,3.344,1.93a2.022,2.022,0,0,0,2.019,0l4.374-2.525c2.229-1.287.217-4.744-2.019-3.454l-4.374,2.526h2.019l-11.946-6.9-1.747-1.008.991,1.727v-1.277l-.991,1.727,4.374-2.526c2.229-1.287.217-4.744-2.019-3.454Z"/><path class="g" d="M351.242,240.039q.013-.587.028-1.176l-10.826-1.75-.662,24.447,2.514.686a58.88,58.88,0,0,0,8.44.5C350.923,255,351.059,247.737,351.242,240.039Z"/><path class="c" d="M338.433,237.527l-.6,22.271c-.07,2.575,3.93,2.573,4,0l.6-22.271c.069-2.575-3.931-2.573-4,0Z"/><path class="a" d="M328.209,220.783a13.13,13.13,0,0,1,3.44-4.481,9.151,9.151,0,0,1,4.513-2.083l12.624,1.515c4.481,2.525,8.079,8.647,8.1,13.385.015,3-.222,5.932-2.3,7.776a16,16,0,0,1-3.836,2.26L327.4,229.639Z"/><path class="h" d="M325.129,238.157a8.3,8.3,0,0,0-5.152,4.306,10.63,10.63,0,0,0-.744,5.085l-.3,2.8,17.665,7.672,3.222-6.244a11.078,11.078,0,0,0-5.489-12.551Z"/><path class="c" d="M336.162,212.219c-4.288.4-7.882,3.808-9.68,7.555a2,2,0,0,0,3.454,2.019,14.705,14.705,0,0,1,1.33-2.237c.251-.348-.3.358-.021.03.064-.076.125-.153.19-.229q.213-.252.44-.494c.3-.322.617-.629.942-.926.139-.126.284-.246.424-.371.172-.155-.4.292-.126.1.088-.063.176-.127.266-.188a10.455,10.455,0,0,1,1.077-.644c.2-.105.431-.183.626-.3-.08.048-.378.15-.127.056.117-.044.234-.089.353-.13.193-.066.389-.125.587-.174.116-.028.231-.051.347-.075.373-.077-.479.049-.082.012a2.15,2.15,0,0,0,1.414-.586,2,2,0,0,0-1.414-3.414Z"/><path class="c" d="M349.27,238.863c-.192,7.96-.342,15.922-.534,23.882l2-2a58.41,58.41,0,0,1-8.44-.5,2.014,2.014,0,0,0-2,2,2.046,2.046,0,0,0,2,2,58.41,58.41,0,0,0,8.44.5,2.04,2.04,0,0,0,2-2c.192-7.96.342-15.922.534-23.882.062-2.575-3.938-2.574-4,0Z"/><path class="c" d="M347.777,217.461a15.4,15.4,0,0,1,6.9,9.78,13.094,13.094,0,0,1-.123,5.835c-.626,2.431-2.695,3.356-4.813,4.352a2.018,2.018,0,0,0-.717,2.737,2.044,2.044,0,0,0,2.736.717c2.818-1.325,5.3-2.881,6.4-5.934a16.675,16.675,0,0,0,.491-8.154,19.211,19.211,0,0,0-8.858-12.787c-2.229-1.3-4.245,2.158-2.018,3.454Z"/><path class="a" d="M343.543,240.485a5.136,5.136,0,0,1-1.584-3.639,3.916,3.916,0,0,1,2.961-3.6,4.833,4.833,0,0,1,4.377,1.144c1.221,1.081,1.243,3.713.664,4.828C348.815,241.424,345.4,242.259,343.543,240.485Z"/><path class="c" d="M344.957,239.071c-.087-.086-.174-.172-.256-.263l-.081-.09c-.135-.163-.106-.12.087.126a4.723,4.723,0,0,0-.325-.49c-.039-.067-.076-.135-.112-.2l-.053-.105c-.088-.192-.069-.139.06.158-.035-.219-.163-.453-.219-.673-.029-.117-.049-.235-.076-.353-.043-.188.062-.2.017.169.026-.211-.047-.452-.037-.67.012-.284.126-.131-.028.138a1.841,1.841,0,0,0,.08-.333c.02-.069.06-.149.072-.218-.132.3-.154.35-.066.157.034-.07.07-.14.108-.208s.079-.136.121-.2l.065-.1q.183-.256-.1.119c.128-.065.3-.331.405-.433.126-.118.409-.25-.04.01.066-.038.128-.092.193-.134.1-.064.2-.124.3-.178.068-.037.137-.071.208-.1q-.427.173-.212.095c.085-.024.605-.226.657-.163.005.007-.524.04-.128.019.131-.007.261-.018.393-.02a5.218,5.218,0,0,0,.633.034l-.288-.035q.122.021.24.048c.118.027.234.059.35.095a1.794,1.794,0,0,0,.338.12c-.3-.019-.335-.158-.152-.058s.382.2.564.323a1.349,1.349,0,0,0,.243.17l-.218-.168c.061.05.122.1.181.154s.087.081.128.124c.337.352-.192-.33-.032-.047.077.135.145.283.225.416-.282-.466-.122-.3-.059-.114.021.063.04.127.058.191.051.179.075.364.121.544.064.256-.052-.557-.025-.178.009.119.02.237.025.356.008.183.007.367,0,.55-.01.2-.151.726.013.036-.034.143-.051.289-.089.431-.021.079-.045.157-.07.234-.069.211-.191.24.09-.2-.082.127-.143.267-.228.394-.116.175-.292.241.083-.1-.069.062-.127.148-.192.215-.112.116-.247.212-.355.329.335-.362.292-.21.133-.108-.1.061-.189.127-.287.185-.176.1-.783.305-.137.1-.187.06-.367.137-.558.188-.094.025-.19.048-.286.067-.175.036-.476.007.146-.01-.195,0-.387.032-.582.029-.1,0-.193-.011-.289-.015-.371-.014.51.1.15.021-.187-.044-.37-.093-.555-.146-.358-.1.454.23.124.057-.085-.044-.172-.086-.255-.134s-.161-.119-.244-.157c.272.217.33.262.172.133-.051-.043-.1-.087-.148-.133a2,2,0,0,0-2.828,2.828,6.333,6.333,0,0,0,9.335-1.3,5.714,5.714,0,0,0,.859-3,7.113,7.113,0,0,0-.7-3.406,5.427,5.427,0,0,0-2.648-2.394,7.184,7.184,0,0,0-4.443-.508,5.777,5.777,0,0,0-3.372,2.2,5.629,5.629,0,0,0-1.029,2.03,6.111,6.111,0,0,0-.022,2.593,6.974,6.974,0,0,0,2.025,3.778,2,2,0,1,0,2.828-2.828Z"/><path class="c" d="M349.362,268.6a4.475,4.475,0,0,1-.127.615c-.026.093-.056.186-.089.277-.024.07-.166.346-.038.108.153-.285-.089.156-.1.173-.048.09-.1.18-.153.267s-.113.173-.168.261c-.217.345.241-.238-.06.085-.137.148-.268.3-.416.437-.027.025-.222.192-.222.194-.027-.065.323-.213.06-.059-.077.045-.161.092-.237.141-.34.222.113-.074.115-.035a1.438,1.438,0,0,1-.319.1c-.366.089-.066-.053.05.009a2.706,2.706,0,0,0-.659.012c-.073,0-.4-.012-.108,0s-.029-.007-.106-.022a5.349,5.349,0,0,1-.647-.169,1.5,1.5,0,0,0-.271-.1l.221.091c-.081-.039-.161-.08-.239-.124s-.145-.092-.219-.134c-.25-.143.08.079.094.078-.1.007-.323-.281-.395-.352-.041-.04-.374-.349-.356-.386-.013.026.253.377.036.04-.06-.092-.122-.181-.178-.275s-.3-.637-.2-.351-.08-.265-.1-.331c-.03-.111-.05-.224-.08-.334-.059-.223-.109-.078.006.115a1.96,1.96,0,0,1-.031-.73c0-.1.011-.2.015-.305.009-.2-.077-.194-.016.061a1.856,1.856,0,0,1,.136-.652c.06-.225.139-.443.218-.661.035-.1.07-.191.107-.286.085-.221.065-.265,0-.02a2.857,2.857,0,0,1,.309-.618c.049-.088.1-.174.155-.259.08-.124.162-.4-.007-.019a5.05,5.05,0,0,1,.407-.421c.021.026-.417.255-.054.052.162-.091.318-.184.484-.267-.078.039-.346.107,0,.008l.321-.091c.421-.122-.03-.019-.046-.009a1.139,1.139,0,0,1,.326-.019c.111,0,.22.009.33.008.507,0-.242-.079.056,0,.236.065.483.125.721.183.462.112-.235-.14.022,0,.115.061.234.114.346.18.091.054.176.112.264.17-.377-.25,0,.024.082.1.25.218.066.049,0-.031a4.039,4.039,0,0,1,.27.415c.055.095.1.192.154.289.237.445-.1-.358.048.126.079.265.149.527.212.8.021.089.058.39.006-.036.021.168.035.337.044.506a10.428,10.428,0,0,1-.065,1.731,2,2,0,0,0,2,2,2.058,2.058,0,0,0,2-2c.314-2.824-.437-6.144-3.138-7.595a6.2,6.2,0,0,0-8.205,1.841,9.393,9.393,0,0,0-1.372,3.515,7.258,7.258,0,0,0,.3,3.891A7.025,7.025,0,0,0,343,273.714a6.855,6.855,0,0,0,3.925,1.462c3.092.209,5.879-2.525,6.293-5.514a2.2,2.2,0,0,0-.2-1.541,2,2,0,0,0-3.656.478Z"/><path class="a" d="M331.988,278.114c-1.9-1.095-3.071-3.445-3.071-6.787,0-6.686,4.694-14.817,10.485-18.16,2.9-1.672,5.516-1.829,7.414-.734s3.07,3.444,3.07,6.787c0,6.686-4.694,14.817-10.484,18.16C336.506,279.052,333.885,279.209,331.988,278.114Z"/><path class="c" d="M333,276.387c-3.321-2.041-2.074-7.622-1.042-10.593a20.989,20.989,0,0,1,7.455-10.266c1.63-1.119,4-2.383,6.018-1.558,1.516.618,2.172,2.307,2.381,3.824.577,4.187-1.262,8.617-3.517,12.041a18.913,18.913,0,0,1-4.757,5.087c-1.791,1.259-4.381,2.622-6.538,1.465-2.268-1.216-4.291,2.236-2.019,3.454,5.556,2.978,11.72-1.5,15.13-5.755,3.486-4.346,6.178-10.183,5.739-15.876a9.469,9.469,0,0,0-3.158-6.891,8.255,8.255,0,0,0-8.2-.873c-5.436,2.091-9.465,7.261-11.686,12.48-2.212,5.2-3.539,13.4,2.172,16.915C333.177,281.193,335.189,277.734,333,276.387Z"/><path class="c" d="M346.35,228.274l-.892,2.622a1.522,1.522,0,0,0-.036.8,1.484,1.484,0,0,0,.238.744,2.238,2.238,0,0,0,1.195.919,2.027,2.027,0,0,0,1.541-.2l.4-.313a1.99,1.99,0,0,0,.514-.882l.892-2.621a1.506,1.506,0,0,0,.036-.8,1.486,1.486,0,0,0-.237-.743,2.233,2.233,0,0,0-1.195-.92,2.03,2.03,0,0,0-1.542.2l-.4.313a1.992,1.992,0,0,0-.515.882Z"/><path class="c" d="M324.6,236.229a10.24,10.24,0,0,0-7.364,11.319,2.047,2.047,0,0,0,2,2,2.02,2.02,0,0,0,2-2,10.076,10.076,0,0,1-.041-1.443c.01-.238.027-.477.051-.714.007-.072.015-.145.023-.217q.029-.23-.024.171a1.505,1.505,0,0,1,.059-.357,9.045,9.045,0,0,1,.364-1.413c.021-.061.044-.122.068-.182q.084-.215-.081.189c.012,0,.136-.28.148-.3q.173-.338.375-.659c.047-.076.29-.537.374-.541-.17.217-.208.269-.113.154.04-.05.081-.1.123-.146.069-.078.14-.156.212-.231.158-.165.323-.323.5-.472.072-.062.354-.207.085-.079s.026-.018.1-.067a9.24,9.24,0,0,1,1.2-.715c.132-.067.454-.295.6-.281l-.166.069.191-.077c.13-.051.261-.1.392-.149a2.044,2.044,0,0,0,1.4-2.46,2.022,2.022,0,0,0-2.46-1.4Z"/><path class="c" d="M333.325,240.947c.227.125.452.253.671.392q.164.1.324.213c-.011-.007.419.3.269.187s.152.124.178.145q.148.125.294.255c.193.172.38.352.56.538.2.209.4.427.585.649.074.086.176.222.048.053.078.1.154.209.228.315a11.074,11.074,0,0,1,.837,1.421c.057.117.114.233.165.352.129.295-.079-.216.043.114.1.272.194.545.275.823s.15.559.209.843c.037.177.071.355.1.534-.032-.215,0,.039.011.114a11.826,11.826,0,0,1,.037,1.735c-.01.181-.025.361-.044.541-.038.356.043-.239-.016.114-.054.322-.123.639-.2.956a2,2,0,1,0,3.857,1.063,13.262,13.262,0,0,0-6.409-14.81,2,2,0,1,0-2.018,3.453Z"/><path class="a" d="M335.479,221.844a9.928,9.928,0,0,0-5.612.216A8.562,8.562,0,0,0,326,224.329a8.68,8.68,0,0,0-1.543,2.579,11.332,11.332,0,0,0-.443,8.038,8.252,8.252,0,0,0,5.97,5.041,10.326,10.326,0,0,0,6.743-.44,8.211,8.211,0,0,0,4.23-4.327,12.776,12.776,0,0,0,.662-6.272,6.772,6.772,0,0,0-2.153-4.5,9.914,9.914,0,0,0-3.184-2.315A7.111,7.111,0,0,0,335.479,221.844Z"/><path class="i" d="M326.437,223.894c-.152.138-.3.283-.436.435a8.565,8.565,0,0,0-1.493,2.458l2.22.6c3.449.832,10.765,3.866,13.085,5.829l1.5.934a13.374,13.374,0,0,0,.305-5.2,6.772,6.772,0,0,0-2.153-4.5,9.914,9.914,0,0,0-3.184-2.315,7.111,7.111,0,0,0-.8-.284,9.928,9.928,0,0,0-5.612.216A9.092,9.092,0,0,0,326.437,223.894Z"/><path class="c" d="M336.011,219.915c-4.483-1.19-10.207.478-12.619,4.625-2.258,3.88-2.848,9.48-.1,13.272,2.7,3.733,7.552,5.1,11.981,4.3a10.586,10.586,0,0,0,5.5-3.018,10.875,10.875,0,0,0,2.831-6.331c.331-2.574.175-5.637-1.24-7.891a11.926,11.926,0,0,0-6.354-4.959c-2.465-.762-3.519,3.1-1.064,3.857a7.862,7.862,0,0,1,3.729,2.777,7.271,7.271,0,0,1,1.062,4.629c-.074,2.973-1.4,5.677-4.309,6.76a8.3,8.3,0,0,1-8.122-1.556c-2.346-2.264-2.162-5.863-1.021-8.695a5.845,5.845,0,0,1,3.282-3.41,8.478,8.478,0,0,1,5.379-.5C337.438,224.433,338.5,220.576,336.011,219.915Z"/><path class="c" d="M326.2,229.313a31.705,31.705,0,0,1,3.055.944q.906.321,1.8.674.507.2,1.012.408c.042.017.491.205.269.111-.191-.08.294.127.352.152,1.177.512,2.342,1.056,3.474,1.66.484.258.963.527,1.429.817.2.126.4.255.6.391a1.407,1.407,0,0,1,.286.206c-.1-.142-.34-.272-.071-.048a2.055,2.055,0,0,0,2.828,0,2.015,2.015,0,0,0,0-2.829,26.643,26.643,0,0,0-6.523-3.651,47.1,47.1,0,0,0-7.445-2.692,2,2,0,1,0-1.063,3.857Z"/><path class="a" d="M313.877,273c-2.766,1.285-5.716-.182-4.544-3.376a5.375,5.375,0,0,1,3.3-3.25c1.434-.567,3.9.054,4.328,2C317.2,270.65,315.738,272.2,313.877,273Z"/><path class="a" d="M320.86,276.012c-2.651,1.51-5.712.294-4.81-2.987a5.377,5.377,0,0,1,3.02-3.512c1.383-.685,3.887-.272,4.48,1.633C323.973,273.393,322.647,275.062,320.86,276.012Z"/><path class="a" d="M345.527,197.349a9.928,9.928,0,0,0-5.612.217,8.561,8.561,0,0,0-3.867,2.269,8.685,8.685,0,0,0-1.542,2.579,11.332,11.332,0,0,0-.443,8.038,8.249,8.249,0,0,0,5.97,5.04,10.326,10.326,0,0,0,6.743-.44,8.211,8.211,0,0,0,4.23-4.327,12.776,12.776,0,0,0,.662-6.272,6.772,6.772,0,0,0-2.153-4.5,9.914,9.914,0,0,0-3.184-2.315A7.313,7.313,0,0,0,345.527,197.349Z"/><path class="i" d="M338.156,198.269a7.275,7.275,0,0,0-2.108,1.566,8.685,8.685,0,0,0-1.542,2.579q-.147.354-.273.718l2.255.425c2.9.546,11.2,3.343,14.725,6.6a13.094,13.094,0,0,0,.455-5.7,6.772,6.772,0,0,0-2.153-4.5,9.914,9.914,0,0,0-3.184-2.315,7.313,7.313,0,0,0-.8-.284,9.928,9.928,0,0,0-5.612.217A11.031,11.031,0,0,0,338.156,198.269Z"/><path class="c" d="M346.059,195.42c-4.483-1.19-10.207.478-12.619,4.625-2.258,3.88-2.849,9.481-.1,13.273,2.7,3.732,7.552,5.1,11.981,4.3a10.579,10.579,0,0,0,5.5-3.018,10.872,10.872,0,0,0,2.831-6.33c.331-2.575.175-5.638-1.24-7.892a11.931,11.931,0,0,0-6.354-4.959c-2.465-.762-3.519,3.1-1.064,3.858a7.854,7.854,0,0,1,3.729,2.776,7.271,7.271,0,0,1,1.062,4.629c-.074,2.974-1.4,5.677-4.309,6.76a8.3,8.3,0,0,1-8.122-1.556c-2.346-2.264-2.162-5.863-1.021-8.695a5.844,5.844,0,0,1,3.282-3.409,8.472,8.472,0,0,1,5.379-.5C347.486,199.939,348.548,196.081,346.059,195.42Z"/><path class="c" d="M335.957,205.485a37.053,37.053,0,0,1,6.4,1.994q.465.181.927.373c.129.053.124.051-.012-.007l.186.08q.281.121.558.244.968.432,1.912.912a23.446,23.446,0,0,1,3.421,2.091,2.012,2.012,0,0,0,2.736-.717,2.05,2.05,0,0,0-.717-2.737,32.885,32.885,0,0,0-7.763-4.023,37.415,37.415,0,0,0-6.589-2.067,2.052,2.052,0,0,0-2.46,1.4,2.018,2.018,0,0,0,1.4,2.46Z"/><path class="c" d="M318.86,251.579a40.542,40.542,0,0,0-3.491,2.593,13.694,13.694,0,0,0-2.132,2.618,20.673,20.673,0,0,0-2.969,8.2,2.046,2.046,0,0,0,1.4,2.46,2.025,2.025,0,0,0,2.46-1.4,27.924,27.924,0,0,1,1.114-4.394c.054-.152.109-.3.167-.454.008-.02.243-.586.085-.222q.182-.42.39-.829a11.158,11.158,0,0,1,.738-1.242c.283-.41.582-.808.877-1.21.155-.211-.259.3-.025.036.071-.082.136-.17.209-.251a4.981,4.981,0,0,1,.4-.383c.211-.186.437-.357.648-.543.179-.159-.287.21.018-.016.129-.1.256-.191.385-.285.576-.419,1.164-.821,1.749-1.227a2,2,0,1,0-2.019-3.454Z"/><path class="c" d="M320.07,270.359c.27-1.282.564-2.559.89-3.828.165-.643.339-1.285.535-1.921.08-.26.164-.519.256-.776.043-.12.093-.237.135-.358.065-.184-.244.536-.118.28.024-.049.046-.1.07-.149a2.143,2.143,0,0,0,.2-1.542,2,2,0,0,0-3.655-.477,20.4,20.4,0,0,0-1.256,3.78c-.337,1.3-.638,2.612-.915,3.927a2,2,0,0,0,3.857,1.064Z"/><path class="a" d="M330.557,252.883c-1.584-.335-4.015.267-4.461,1.918-.622,2.3,1.511,3.79,3.546,3.769,2.086-.02,3.774-1.082,3.785-2.887C333.434,254.466,332.067,253.2,330.557,252.883Z"/><path class="a" d="M321.412,249.206c-1.584-.334-4.015.268-4.461,1.918-.622,2.3,1.511,3.79,3.546,3.77,2.086-.021,3.774-1.083,3.785-2.887C324.289,250.79,322.922,249.525,321.412,249.206Z"/><path class="c" d="M331.088,250.954a6.7,6.7,0,0,0-5.7,1.348,4.541,4.541,0,0,0-.576,5.9,5.977,5.977,0,0,0,5.471,2.324c2.18-.241,4.322-1.348,4.969-3.6.81-2.822-1.525-5.376-4.167-5.976a2,2,0,1,0-1.063,3.857,5.64,5.64,0,0,1,.544.157c.31.1-.141-.047-.163-.071a1.453,1.453,0,0,0,.3.154c.131.074.253.159.379.24.339.219-.342-.322-.06-.04.076.076.158.145.233.223.047.049.091.11.14.156-.341-.313-.2-.28-.1-.119.083.123.137.261.216.384-.254-.4-.144-.368-.09-.17.06.219-.039.241-.011-.22-.009.147-.009.309-.007.457-.008-.56.075-.406.019-.223-.021.069-.041.141-.058.211-.066.277.078-.241.11-.238-.007,0-.084.169-.1.19-.034.061-.074.119-.11.18-.144.248.141-.217.161-.2,0,0-.331.385-.365.365-.017-.01.449-.312.195-.151-.051.031-.1.067-.15.1-.13.082-.277.137-.405.218.4-.253.375-.146.215-.091-.092.032-.183.066-.276.1a4.791,4.791,0,0,1-.486.121c-.071.014-.42.065-.041.015s.021-.006-.049,0c-.16.013-.32.02-.48.019-.141,0-.283-.023-.423-.021.546-.008.393.066.2.025-.092-.021-.185-.037-.277-.06-.137-.034-.272-.074-.4-.121-.483-.173.417.214-.034-.021-.123-.064-.236-.139-.355-.21-.151-.09-.238-.258.149.126-.063-.063-.137-.116-.2-.177-.043-.041-.085-.083-.125-.127-.138-.147-.177-.336.087.133-.057-.1-.132-.193-.189-.3-.1-.194-.059-.34.054.157-.013-.055-.041-.114-.058-.168s-.028-.117-.046-.175c-.1-.332.012.559.014.12,0-.146.008-.293.009-.438,0,.537-.055.36-.014.173.018-.08.043-.158.062-.238.035-.152.186-.246-.113.247.035-.058.06-.122.095-.181a1.062,1.062,0,0,0,.111-.17c.018.059-.382.444-.1.154.038-.04.078-.079.119-.116.313-.286-.134.115-.143.1a4.451,4.451,0,0,1,.445-.268c.052-.026.109-.048.16-.076-.524.3-.314.127-.145.068a4.761,4.761,0,0,1,.524-.153c.2-.046.715-.076.008-.024.165-.012.328-.033.5-.038s.321,0,.481.009c.056,0,.114.013.17.014-.676-.019-.326-.048-.127-.008a2,2,0,1,0,1.063-3.857Z"/><path class="c" d="M321.943,247.278a6.7,6.7,0,0,0-5.7,1.348,4.54,4.54,0,0,0-.575,5.9,5.973,5.973,0,0,0,5.47,2.323c2.18-.241,4.322-1.348,4.969-3.6.811-2.822-1.525-5.376-4.167-5.975a2,2,0,1,0-1.063,3.857,5.64,5.64,0,0,1,.544.157c.31.1-.141-.048-.163-.072a1.456,1.456,0,0,0,.3.155c.131.073.253.158.379.239.34.219-.342-.322-.06-.04.076.076.158.145.233.223.047.05.091.111.14.156-.341-.312-.2-.28-.1-.119.083.123.137.261.216.384-.254-.395-.143-.367-.09-.17.06.219-.039.241-.011-.22-.009.148-.009.309-.007.457-.008-.56.075-.406.019-.222-.02.068-.041.141-.058.21-.066.277.078-.241.11-.238-.007,0-.084.17-.095.19-.035.062-.075.12-.111.181-.144.248.141-.218.161-.2,0,0-.331.385-.365.365-.017-.01.449-.313.195-.152-.051.032-.1.067-.15.1-.13.081-.277.136-.4.218.4-.253.375-.147.215-.092-.092.032-.183.066-.276.095-.16.049-.322.089-.486.122-.071.014-.42.064-.041.014s.021-.006-.049,0c-.16.013-.32.02-.48.02-.141,0-.283-.024-.423-.022.546-.008.393.066.205.025-.092-.02-.185-.036-.277-.059-.137-.034-.272-.075-.4-.122-.483-.172.418.214-.034-.021-.123-.063-.236-.139-.355-.209-.151-.09-.238-.258.149.125-.063-.062-.137-.116-.2-.177-.043-.041-.085-.083-.125-.126-.138-.148-.177-.336.087.133-.057-.1-.132-.194-.188-.3-.106-.193-.06-.34.053.158-.013-.056-.041-.115-.058-.169s-.028-.117-.046-.174c-.1-.332.012.558.014.119,0-.146.008-.292.009-.438,0,.538-.055.361-.014.174.018-.08.043-.159.062-.238.035-.153.186-.247-.113.247.035-.058.06-.123.095-.181a1.113,1.113,0,0,0,.111-.171c.018.06-.382.444-.1.154.038-.04.078-.078.119-.116.313-.286-.134.115-.143.1a4.444,4.444,0,0,1,.445-.269c.052-.026.109-.047.16-.076-.524.3-.314.128-.145.068a4.756,4.756,0,0,1,.524-.152c.2-.047.715-.077.008-.025.165-.012.328-.033.5-.037s.321,0,.481.008c.056,0,.114.013.17.015-.676-.019-.326-.048-.127-.008a2,2,0,1,0,1.063-3.857Z"/><path class="c" d="M312.868,271.274c-.366.166.466-.164.091-.04-.1.032-.192.069-.29.1-.158.048-.319.089-.481.121-.189.037-.449,0,.154-.014-.061,0-.126.013-.186.017a5.765,5.765,0,0,1-.588,0c-.184-.007-.346-.112.229.035-.082-.021-.167-.031-.25-.051-.134-.032-.261-.084-.393-.122.634.182.242.108.05-.008-.067-.04-.128-.089-.194-.13.521.324.284.228.143.089a1.725,1.725,0,0,0-.129-.14c.35.284.26.362.131.158-.034-.055-.063-.113-.1-.168-.1-.166-.032-.295.091.225-.025-.106-.139-.635-.085-.214.05.4.012.088.008.006-.007-.124,0-.246,0-.369,0-.162.1-.275-.039.238.027-.1.036-.206.06-.306a4.588,4.588,0,0,1,.164-.539c.066-.182.241-.369-.043.087.044-.071.073-.158.112-.234a5.263,5.263,0,0,1,.335-.571c.036-.052.086-.109.117-.165-.256.464-.186.234-.059.089a4.89,4.89,0,0,1,.354-.366c.076-.071.155-.137.233-.206.3-.26-.4.273-.07.057.185-.12.365-.242.557-.349a3.132,3.132,0,0,0,.515-.257l-.259.107c.06-.025.121-.049.183-.071.047-.017.1-.033.144-.048.231-.068.731-.055.015-.036.168,0,.333-.023.5-.018.221.007.645.149-.016-.021.155.04.314.062.469.108.071.02.14.046.21.068.34.107-.47-.232-.153-.067.156.081.306.167.455.261.3.187-.38-.345-.129-.1.041.041.086.078.127.119.062.062.114.135.176.194-.384-.368-.219-.317-.132-.155.035.064.074.13.111.193.183.307-.155-.492-.058-.142.022.079.077.373.035.019-.048-.4,0,.1,0,.183,0,.11-.01.22-.012.331-.006.395.1-.485.018-.108-.046.2-.1.4-.157.6-.107.37.225-.446.049-.106-.061.118-.119.236-.187.351-.034.056-.07.112-.106.167-.286.429.242-.257.014-.008-.135.148-.267.3-.415.432a1.128,1.128,0,0,1-.229.2l.246-.188c-.055.041-.109.081-.165.12a6.708,6.708,0,0,1-1.176.65,2,2,0,0,0-.919,1.2,2.043,2.043,0,0,0,.2,1.541,2.021,2.021,0,0,0,1.2.919,2.323,2.323,0,0,0,1.541-.2,7.089,7.089,0,0,0,2.549-1.838,6.381,6.381,0,0,0,1.525-3.561,4.73,4.73,0,0,0-4.016-5.031,5.774,5.774,0,0,0-1.589-.1,6.156,6.156,0,0,0-1.954.542,7.072,7.072,0,0,0-2.637,1.949c-1.451,1.785-2.447,4.614-1,6.708a4.592,4.592,0,0,0,3.01,1.953,6.95,6.95,0,0,0,4.111-.623,2.007,2.007,0,0,0,.919-1.195,2,2,0,0,0-2.938-2.259Z"/><path class="c" d="M319.85,274.285c-.179.1-.8.311-.146.1-.151.048-.3.112-.448.157-.176.052-.353.087-.533.124-.29.059.263-.045.27-.036a2.128,2.128,0,0,0-.343.022c-.154,0-.3-.014-.456-.02-.246-.011.576.106.253.029-.076-.018-.153-.032-.229-.053s-.146-.048-.22-.071c-.275-.085.3.112.268.116-.2.023-.69-.593-.1,0-.083-.084-.178-.168-.265-.249-.23-.217.283.452.131.174-.036-.065-.081-.125-.117-.191-.213-.39.16.5.022.051-.024-.077-.04-.156-.061-.235-.087-.332.037.526.022.195-.008-.186-.006-.367,0-.553.015-.385-.106.519-.018.131.015-.069.027-.14.042-.209a5.449,5.449,0,0,1,.178-.61c.021-.059.055-.128.07-.19q-.209.483-.083.2c.027-.06.056-.12.086-.179a4.9,4.9,0,0,1,.272-.472c.044-.07.093-.136.139-.2.214-.315-.326.374-.067.092.114-.124.224-.251.346-.368.074-.072.151-.141.229-.208.4-.345-.278.179.012-.015.154-.1.3-.207.463-.3.063-.037.529-.344.577-.308.022.016-.534.2-.268.116.074-.022.147-.049.222-.07s.155-.039.233-.054c.385-.076-.141.059-.208.023.088.048.394-.021.5-.018.234.007.637.138-.019-.023.169.042.339.066.506.117.055.017.109.038.164.055.314.1-.513-.252-.082-.03.1.049.549.364.234.117s.1.117.178.191c.246.246-.278-.432-.1-.13.03.05.064.1.093.15.105.183.083.359-.045-.151.048.191.061.569.043-.011.007.221.033.438.023.66-.008.191-.113.453.032-.113-.025.1-.035.2-.058.3s-.049.2-.079.293c-.021.063-.042.127-.066.189q-.113.288.087-.2c-.108.163-.18.355-.287.521-.053.083-.12.16-.17.245.3-.5.151-.2.027-.058a5.221,5.221,0,0,1-.47.459c-.05.043-.323.259-.035.038s-.071.046-.131.086c-.2.136-.411.26-.625.375a2.019,2.019,0,0,0-.717,2.737,2.042,2.042,0,0,0,2.736.717,6.706,6.706,0,0,0,3.76-5.8,4.422,4.422,0,0,0-1.5-3.426,5.692,5.692,0,0,0-3.369-1.3,6.8,6.8,0,0,0-5.764,3.292c-1.3,2-1.6,4.793.033,6.68,1.714,1.976,4.763,1.716,6.843.556a2.019,2.019,0,0,0,.717-2.736A2.04,2.04,0,0,0,319.85,274.285Z"/></svg>