<?xml version="1.0" encoding="utf-8"?>
<!-- Uploaded to: SVG Repo, www.svgrepo.com, Generator: SVG Repo Mixer Tools -->
<svg width="800px" height="800px" viewBox="-26.15 0 303.31 303.31" xmlns="http://www.w3.org/2000/svg"><defs><style>.a{fill:#a98a75;}.b{fill:#ffffff;}.c{fill:#211715;}.d{fill:#f8b8b4;}.e{fill:#f2635f;}</style></defs><path class="a" d="M186.834,22.166a30.343,30.343,0,0,0-3.815-3.327C169.5,6.181,156.7,2.6,143.683,2.429c-18.454-.241-33.7,5.933-44.349,16.986-6.15,6.381-10.884,15.92-13.01,24.553A90.305,90.305,0,0,0,84.947,74.5l0,.04c.269,19.539-7.063,39.559-6.88,55.541a20.72,20.72,0,0,0,8.689,16.706,18.192,18.192,0,0,0,1.728,1.114c-8.285-5.358,15.632,10.321,20.7,11.1,4.333.666,79.413,2.187,79.413,2.187,12.428-3.42,13.221-10.8,13.663-15.1a44.385,44.385,0,0,0-1.125-15.787c-1.584-7.065-4.379-21.378-1.884-46.109,1.482-7.078,1.978-17.489,2.133-21.494C201.948,48.378,196.051,31.6,186.834,22.166Z"/><path class="b" d="M172.049,78.2c1.518.844,8.143,3.928,10.129,3.13a7.828,7.828,0,0,1,5.732-.815c3.82.878,5.073,3.179,5.549,4.478,1.419,3.884.083,10.26-2.106,13.946a20.5,20.5,0,0,1-8.411,8.51,15,15,0,0,1-7.585,1.133l-.5,1.038c-1.086,1.888-3.566,5.149-3.566,5.149a69.953,69.953,0,0,1-8.225,8.871q.777,4.431,1.557,8.865a27.08,27.08,0,0,0,1.388,5.561c2.006,4.935,12.558,7.615,18.484,9.181a77.954,77.954,0,0,1-45.966,15.542c-6.19,0-12.48-.79-18.24-3.38a29.355,29.355,0,0,1-13.319-12.018c2.854-.984,5.629-1.967,7.594-2.82,3.4-1.135,7.871-3.53,6.327-8.123-9-1.006-16.61-4.731-23.617-11.406-8.086-7.7-11-19.106-11.42-31.5-.244-7.149-.339-14.907-.774-22.686l-.023-.4L86.871,69.4c.758-.435,1.945-1.048,2.934-1.631,9.054-5.3,18.833-11.935,27.9-18.335a.459.459,0,0,1,.688.552,32.913,32.913,0,0,0-2.13,7.761,2.073,2.073,0,0,0,2.485,2.325C132.2,57.3,145,51.331,153.989,42.862a141.3,141.3,0,0,0,4.367,15.718c2.034,5.838,7.927,16.076,13.778,19.732"/><path class="c" d="M189.243,163.5c5.456-1.538,11.036-4.426,13.569-9.782,2.112-4.465,2.347-10.043,2.052-14.869-.314-5.14-1.73-10.09-2.595-15.145-.4-2.34-.609-3.862-.852-6.1-.3-2.723-.5-5.457-.616-8.193a176.816,176.816,0,0,1,.853-25.216l-1.762,2.314h0a2.364,2.364,0,0,0,1.676-1.676,107.433,107.433,0,0,0,1.71-13.28c.279-3.565.545-7.163.545-10.741a63.9,63.9,0,0,0-6.275-27,50.809,50.809,0,0,0-8.188-12.462c-2.076-2.3-5.462,1.106-3.394,3.394,5.634,6.231,9.216,14.241,11.268,22.322a56.358,56.358,0,0,1,1.776,12.6c.077,3.355-.168,6.735-.4,10.08a104.162,104.162,0,0,1-1.671,13.811l1.676-1.676h0a2.472,2.472,0,0,0-1.762,2.314,157.332,157.332,0,0,0,.329,37.873c.542,3.787,1.419,7.485,2.147,11.236A42.081,42.081,0,0,1,200,144.658c-.052.655-.119,1.31-.19,1.963-.025.232-.167,1.25-.065.592a21.1,21.1,0,0,1-.476,2.349,10.539,10.539,0,0,1-2.9,4.989,19.349,19.349,0,0,1-8.4,4.322c-2.969.837-1.707,5.469,1.276,4.628Z"/><path class="c" d="M82.422,71.014c.768,12.768-1.982,25.308-4.278,37.786a137.388,137.388,0,0,0-2.389,17.553c-.258,4.9.182,9.6,2.432,14.03a24.874,24.874,0,0,0,13.877,11.848,2.423,2.423,0,0,0,2.952-1.677A2.449,2.449,0,0,0,93.34,147.6a19.978,19.978,0,0,1-10.686-9.032c-2.19-3.973-2.334-7.987-2.088-12.407.64-11.518,3.746-22.778,5.414-34.162a102.37,102.37,0,0,0,1.242-20.987c-.184-3.069-4.986-3.09-4.8,0Z"/><path class="c" d="M133.687,87.867c-.489-2.561.637-8.2,5.384-8.171,6.2.723,5.767,7.649,3.321,10.657C140.39,92.817,135.242,93.364,133.687,87.867Z"/><path class="c" d="M96.735,84.955c-.43-2.564.64-8.23,4.989-8.229,5.675.682,5.232,7.629,2.971,10.662C102.843,89.872,98.122,90.456,96.735,84.955Z"/><path class="c" d="M115.448,92.4c-.9,1.284-1.775,2.595-2.559,3.954a5.446,5.446,0,0,0-.791,2.275,3.347,3.347,0,0,0,1.113,2.669,5.025,5.025,0,0,0,1.985,1.187c.3.095.607.119.91.187a2.534,2.534,0,0,0,1.849-.241,2.4,2.4,0,0,0-.573-4.387,6.536,6.536,0,0,1-1.131-.271l.574.242a2.684,2.684,0,0,1-.464-.277l.486.375a3.681,3.681,0,0,1-.49-.477l.375.486a.782.782,0,0,1-.1-.159l.242.573a1.089,1.089,0,0,1-.071-.263l.086.638a1.562,1.562,0,0,1,.011-.282l-.085.638a2.51,2.51,0,0,1,.151-.486l-.242.574a19.415,19.415,0,0,1,1.434-2.4c.467-.719.944-1.432,1.437-2.133a2.4,2.4,0,0,0-2.71-3.526,2.707,2.707,0,0,0-1.435,1.1Z"/><path class="c" d="M159.122,129.853a67.331,67.331,0,0,0,11.338-10.338,58.96,58.96,0,0,0,6.466-8.687c1.562-2.672-2.585-5.091-4.145-2.422a48.72,48.72,0,0,1-2.919,4.282c-.165.224-.332.447-.5.67-.366.488.36-.439-.139.17-.712.871-1.421,1.743-2.158,2.592a62.113,62.113,0,0,1-10.367,9.588,2.471,2.471,0,0,0-.861,3.284,2.42,2.42,0,0,0,3.284.861Z"/><path class="c" d="M180.479,13.446c-8.257-6.625-17.74-11.3-28.287-12.763a71.129,71.129,0,0,0-29.118,1.965A57.574,57.574,0,0,0,99.655,15.733c-7.347,6.845-12.4,16.1-15.142,25.707a74.526,74.526,0,0,0-2.478,15.853,92.2,92.2,0,0,0,.654,18.251,2.415,2.415,0,0,0,2.952,1.677,2.465,2.465,0,0,0,1.676-2.953,82.426,82.426,0,0,1,1.016-28.347c1.947-8.9,6.144-17.86,12.432-24.53C112.792,8.634,130.673,3.742,147.809,5.005a52.819,52.819,0,0,1,29.276,11.836,2.475,2.475,0,0,0,3.394,0,2.419,2.419,0,0,0,0-3.4Z"/><path class="c" d="M146.709,130.141a59.386,59.386,0,0,1-20.582,4.184,37.729,37.729,0,0,1-18.443-4.494,35.855,35.855,0,0,1-13.807-12.988c-3.248-5.622-4.743-12.14-5.332-18.558-.836-9.1-.567-18.31-1.069-27.436-.169-3.072-4.97-3.091-4.8,0,.472,8.589.331,17.219.936,25.8.51,7.23,1.925,14.487,5.237,20.989,6.409,12.584,20.228,20.483,34.073,21.388,8.588.562,17.045-1.279,25.063-4.255a2.466,2.466,0,0,0,1.677-2.952,2.42,2.42,0,0,0-2.953-1.676Z"/><path class="c" d="M183.389,83.4a5.666,5.666,0,0,1,4.493-.414,5.6,5.6,0,0,1,2.747,1.725,9.628,9.628,0,0,1,.568,1.024c-.239-.515.02.095.091.33a7.93,7.93,0,0,1,.256,1.086,13.822,13.822,0,0,1-.1,4.248c-.943,5.739-4.494,11.392-9.8,14.015-.228.113.078-.026.105-.037-.186.077-.378.141-.568.2-.306.1-.616.192-.928.272a12.547,12.547,0,0,1-2.1.375,8.311,8.311,0,0,1-4.817-.757c-2.7-1.509-5.122,2.635-2.423,4.144,3.465,1.937,7.978,1.831,11.662.554,3.86-1.338,6.979-4.316,9.3-7.6a24.174,24.174,0,0,0,4.282-10.453c.53-3.61.45-7.594-1.944-10.558-3.092-3.829-9.052-4.675-13.25-2.305-2.69,1.518-.273,5.667,2.423,4.145Z"/><path class="c" d="M151.739,43.811c1.487,6.929,3.321,14.086,6.463,20.472,2.944,5.983,6.994,12.433,12.72,16.1,2.609,1.672,5.019-2.481,2.423-4.144a23.749,23.749,0,0,1-6.064-6.165,55.884,55.884,0,0,1-5.084-8.521,54.048,54.048,0,0,1-2.911-7.886c-1.118-3.67-2.113-7.381-2.919-11.133-.648-3.019-5.276-1.741-4.628,1.276Z"/><path class="c" d="M152.276,41.18c-8.121,7.588-18.5,12.525-29.157,15.393-1.381.372-2.776.675-4.165,1.011-.531.128-.416.069-.466.169-.033.068.243.26.154.321.134-.092.175-1.049.216-1.256A33.539,33.539,0,0,1,119.93,52.7c.558-1.674,1.535-3.439.029-4.945-1.47-1.469-3.226-.556-4.615.42q-1.941,1.365-3.891,2.718-4.133,2.863-8.316,5.654c-5.709,3.8-11.512,7.406-17.477,10.782-2.688,1.522-.272,5.67,2.423,4.145q7.7-4.359,15.088-9.206,3.9-2.556,7.75-5.195,1.971-1.35,3.933-2.716.975-.676,1.946-1.359a10.044,10.044,0,0,1,1.839-1.334h-1.276l.261.1-1.435-1.1.157.232-.328-1.211a7.856,7.856,0,0,1-.423.9c-.179.487-.343.978-.5,1.473-.308,1-.565,2.014-.779,3.038-.4,1.922-.85,3.871.4,5.574s3.135,2.017,5.091,1.629c1.889-.374,3.764-.862,5.616-1.385a80,80,0,0,0,20.487-8.9,63.235,63.235,0,0,0,9.758-7.448c2.262-2.113-1.138-5.5-3.395-3.394Z"/><path class="c" d="M161.1,126.284c.658,3.747,1.036,7.708,2.2,11.339a11.156,11.156,0,0,0,4.781,6.075c4.484,2.988,10.047,4.35,15.194,5.709,2.99.79,4.265-3.839,1.276-4.628-4.678-1.236-9.541-2.408-13.614-4.947a8.683,8.683,0,0,1-2.119-1.73c-.383-.405.123.225-.156-.185a5.412,5.412,0,0,1-.421-.7,10.878,10.878,0,0,1-.53-1.6c-.954-3.446-1.368-7.088-1.986-10.606a2.42,2.42,0,0,0-2.952-1.677,2.455,2.455,0,0,0-1.676,2.953Z"/><path class="c" d="M118.78,137.79c.1,1.718-1.069,2.689-2.726,3.568a40.913,40.913,0,0,1-5.4,2.185c-4.408,1.626-8.91,3-13.3,4.688a2.47,2.47,0,0,0-1.676,2.952,2.418,2.418,0,0,0,2.952,1.677c4.872-1.881,9.892-3.351,14.76-5.242a28.19,28.19,0,0,0,6.369-2.9c2.312-1.62,3.994-4,3.816-6.928a2.454,2.454,0,0,0-2.4-2.4,2.422,2.422,0,0,0-2.4,2.4Z"/><path class="c" d="M140.852,69.877a15.309,15.309,0,0,0,3.994,2.792,26.088,26.088,0,0,0,2.59,1.173,8.833,8.833,0,0,0,1.841.546,2.612,2.612,0,0,0,1.849-.242,2.4,2.4,0,0,0,.861-3.283,2.322,2.322,0,0,0-1.434-1.1,9.7,9.7,0,0,1-2.2-.692l.573.242a19.608,19.608,0,0,1-4.348-2.471l.486.375a7.514,7.514,0,0,1-.822-.732,2.423,2.423,0,0,0-3.394,0,2.449,2.449,0,0,0,0,3.395Z"/><path class="c" d="M117.5,115.646a4.192,4.192,0,0,1-.155-.463c.007.025-.074-.314-.065-.317.046-.013.017.514.046.237a4.613,4.613,0,0,0,.009-.485c0-.259-.023.218-.035.235a1.919,1.919,0,0,0,.093-.4c.024-.088.206-.581.071-.255s.134-.231.177-.3.095-.137.135-.208c.122-.221-.1.146-.128.155.112-.035.3-.332.394-.42.058-.054.334-.28.085-.087s0,0,.048-.024c.154-.094.309-.183.464-.274.047-.027.311-.187.038-.031s.043-.016.131-.046a5.831,5.831,0,0,1,.606-.177,2.385,2.385,0,0,0,.535-.1c-.069.116-.456.036-.095.026.091,0,.182-.01.273-.013.182,0,.365,0,.547,0,.091,0,.182.012.273.016.579.03-.319-.073-.014-.007.359.078.714.146,1.065.259.116.038.361.185.477.172-.017,0-.417-.2-.185-.075.1.053.2.1.3.15q.263.135.512.293c.085.053.325.283.417.283-.018,0-.346-.294-.155-.117.061.057.128.108.19.164a6.383,6.383,0,0,1,.473.472c.056.061.107.128.163.189.187.2-.128-.16-.119-.156.12.047.249.374.317.492.05.086.256.558.14.231s.105.319.129.407c.045.159.069.323.113.481.07.252-.027-.215-.025-.231a1.293,1.293,0,0,0,.022.246c.012.191.016.383.009.575,0,.081-.016.164-.015.245,0,.315.1-.457.024-.151-.05.212-.087.425-.151.633-.024.078-.051.154-.077.232-.11.337-.021-.082.055-.126-.11.063-.253.45-.32.562-.041.07-.215.244,0,.018.236-.253-.03.018-.076.067s-.121.119-.18.179c-.3.305.244-.115,0,0-.075.036-.154.092-.225.135-.337.208.061-.075.1-.03,0,0-.23.065-.246.072-.228.1.533.006.056-.01-.068,0-.362-.006-.011.011s-.07-.055-.164-.092a2.41,2.41,0,0,0-2.952,1.676,2.471,2.471,0,0,0,1.676,2.953c2.746,1.077,5.644-1.1,6.676-3.549a7.854,7.854,0,0,0-.454-7.027c-2.488-4.161-8.793-5.938-12.89-3.069-2.355,1.65-3.825,4.828-2.733,7.651a2.458,2.458,0,0,0,2.952,1.677,2.427,2.427,0,0,0,1.677-2.953Z"/><path class="c" d="M157.225,85.264a54.107,54.107,0,0,0-.682,6.334c-.065,1.851-.19,4.145.843,5.776a5.631,5.631,0,0,0,5.229,2.474,5.969,5.969,0,0,0,4.858-3.462,2.4,2.4,0,1,0-4.145-2.423c-.133.271-.293.517-.443.777-.14.244.33-.348.028-.041a2.833,2.833,0,0,0-.345.337c.042-.152.4-.268.022-.049a1.451,1.451,0,0,1-.145.078q-.238.119.184-.078c-.028.067-.359.092-.417.109-.275.079.525-.014.083-.023a2.546,2.546,0,0,0-.484-.014c.178-.058.5.094.081-.009-.034-.009-.38-.079-.384-.118q.45.2.209.08a2.337,2.337,0,0,1-.208-.115c-.369-.2.22.245.048.043-.334-.393,0,.085.014.074a1.309,1.309,0,0,1-.116-.194q-.122-.236.084.206c-.05-.012-.1-.367-.115-.411a2.071,2.071,0,0,0-.081-.431c.107.192.05.427.021.038-.026-.357-.033-.716-.038-1.073-.011-.773.008-1.546.053-2.317s.113-1.526.2-2.286c.021-.183.043-.364.065-.546s.064-.482.015-.13c.061-.444.127-.887.2-1.33a2.464,2.464,0,0,0-1.676-2.952,2.427,2.427,0,0,0-2.952,1.676Z"/><path class="d" d="M213.333,159.223c-.144-.121-.288-.24-.434-.359-7.009-5.7-12.129-7.709-27.928-11.976a78.012,78.012,0,0,1-46.446,15.9c-6.19,0-12.48-.79-18.24-3.38a29.388,29.388,0,0,1-13.9-13.06c-14.922,4.3-22.606,7.959-28.565,14.968-6.266,7.372-9.9,19.757-12.836,28.924a434.6,434.6,0,0,0-13.75,63.433c-.65,4.785-1.741,19.434,8.709,26.95,6.724,4.837,15.4,5.5,21.358,4.217a25.169,25.169,0,0,0,12.986-7.38c.018.142.031.23.031.23a137.324,137.324,0,0,0,4.01,19.074c.584,1.862,1.429,3.9,3.079,4.148,34.035,0,115.926-.278,144.271-.3a2.992,2.992,0,0,0,2.92-3.644c-4.779-21.622-16.036-78.227-19.756-102.238a94.951,94.951,0,0,0-4.455-19.154A36.784,36.784,0,0,0,213.333,159.223Z"/><path class="c" d="M104.893,148.6a32.345,32.345,0,0,0,11.284,11.373A40.121,40.121,0,0,0,133.533,165a75.5,75.5,0,0,0,34.023-5.559,84.02,84.02,0,0,0,17.75-9.828,2.469,2.469,0,0,0,.861-3.284,2.419,2.419,0,0,0-3.283-.861,78.434,78.434,0,0,1-29.753,13.383,70.312,70.312,0,0,1-15.966,1.526c-5.564-.109-11.31-.918-16.366-3.366a27.552,27.552,0,0,1-11.762-10.832c-1.573-2.655-5.724-.243-4.144,2.423Z"/><path class="c" d="M180.468,206.555a150.714,150.714,0,0,0,1.783,15.015c1.074,7.2,2.3,14.384,3.579,21.553,2.639,14.785,5.461,29.557,8.786,44.2,1,4.394,1.822,9.038,3.6,13.205a2.416,2.416,0,0,0,3.284.861,2.465,2.465,0,0,0,.861-3.284c.42.987.057.113-.031-.136-.111-.313-.213-.629-.311-.946-.25-.8-.475-1.608-.692-2.418-.6-2.241-1.142-4.5-1.666-6.761-1.517-6.542-2.884-13.119-4.208-19.7-3.025-15.039-5.839-30.136-8.182-45.3q-.4-2.6-.774-5.2c-.059-.421-.119-.841-.177-1.261-.019-.137-.038-.274-.056-.411-.015-.109-.134-.991-.051-.367q-.139-1.05-.271-2.1c-.288-2.311-.56-4.631-.67-6.957-.147-3.076-4.947-3.093-4.8,0Z"/><path class="c" d="M109.4,143.007c-11.7,3.221-24.634,6.734-32.935,16.216-4.836,5.524-7.722,12.486-10.161,19.327-2.584,7.247-4.783,14.641-6.772,22.071a430.767,430.767,0,0,0-10.119,48.936c-.712,4.864-1.287,9.65-.689,14.565.754,6.188,2.967,12.317,7.634,16.649,5.487,5.094,13.348,7.363,20.737,7a27.9,27.9,0,0,0,18.238-7.96,35.117,35.117,0,0,0,3.992-4.766,2.418,2.418,0,0,0-.861-3.283,2.45,2.45,0,0,0-3.283.861A24.106,24.106,0,0,1,79.75,282.7a25.051,25.051,0,0,1-18.6-4.152c-4.508-3.293-6.711-8.566-7.56-13.928a37.76,37.76,0,0,1-.319-6.715,51.858,51.858,0,0,1,.54-5.515,430.92,430.92,0,0,1,9.262-46.362q2.792-10.9,6.283-21.59c2.139-6.531,4.477-13.167,8.3-18.93,6.183-9.313,16.781-13.107,27.211-16.219,1.927-.574,3.862-1.121,5.8-1.655,2.975-.819,1.712-5.451-1.276-4.628Z"/><path class="c" d="M91.918,277.688a120.636,120.636,0,0,0,4,19.405,11.581,11.581,0,0,0,2.354,4.7,5.293,5.293,0,0,0,4.186,1.515q3.084,0,6.168,0,15.642-.014,31.285-.053,18.314-.039,36.626-.088l35.655-.092q14.177-.035,28.352-.061c1.706,0,3.429.066,5.133-.006a5.542,5.542,0,0,0,4.582-2.56,6.052,6.052,0,0,0,.527-4.691q-1.388-6.3-2.692-12.619-3.555-17.037-6.887-34.12c-2.337-11.911-4.621-23.833-6.779-35.777-.892-4.93-1.763-9.864-2.577-14.808a174.1,174.1,0,0,0-3.19-17.133c-1.982-7.356-4.773-14.3-9.859-20.08A42.9,42.9,0,0,0,203.981,150.5a87.789,87.789,0,0,0-9.879-3.528c-2.963-.895-4.23,3.736-1.276,4.628,5.743,1.735,11.284,3.758,16.189,7.285a35.6,35.6,0,0,1,12.2,15.056c4.409,10.474,5.334,22.122,7.272,33.22,1.945,11.14,4.043,22.253,6.185,33.356q3.365,17.438,6.919,34.839,1.48,7.238,3.008,14.465.618,2.916,1.252,5.829c.129.592.629,1.74.353,2.262-.238.448-1.078.3-1.59.3q-12.568.013-25.136.048-16.76.041-33.517.085-17.908.047-35.817.09-16.284.039-32.568.065-6.576.01-13.154.013H103.1a4.921,4.921,0,0,1-1.489,0c.365.163-.281-.632-.336-.735a11.216,11.216,0,0,1-.732-1.958c-.974-3.167-1.7-6.416-2.352-9.662-.555-2.743-1.144-5.976-1.477-8.467a2.48,2.48,0,0,0-2.4-2.4c-1.163,0-2.574,1.106-2.4,2.4Z"/><path class="e" d="M52.077,139.021c-8.556-.36-17.095-1.05-25.652-1.391a2.433,2.433,0,0,0-2.314,3.038c.694,4.046,1.751,8.02,2.528,12.05l2.314-3.038c-8.853-.691-17.7-1.466-26.553-2.166a2.419,2.419,0,0,0-2.4,2.4,2.449,2.449,0,0,0,2.4,2.4c8.853.7,17.7,1.475,26.553,2.166,1.669.131,2.586-1.63,2.314-3.038-.776-4.03-1.833-8-2.528-12.05l-2.314,3.038c8.557.341,17.1,1.031,25.652,1.391,3.089.13,3.083-4.67,0-4.8Z"/><path class="e" d="M66.53,123.236c-9.46-5.568-18.161-12.351-27.634-17.9a2.431,2.431,0,0,0-3.525,1.435c-1.287,3.9-2.22,7.9-3.427,11.826l3.526-1.435c-8.076-5.13-16.362-9.92-24.433-15.059-2.613-1.663-5.024,2.489-2.423,4.145,8.071,5.138,16.357,9.929,24.433,15.059a2.426,2.426,0,0,0,3.526-1.434c1.207-3.923,2.14-7.928,3.426-11.826l-3.525,1.434c9.472,5.547,18.173,12.33,27.634,17.9,2.668,1.57,5.086-2.577,2.422-4.145Z"/><path class="b" d="M144.059,169.717c-1.631-.373-3.447.04-6.057,1.374,3.1-3.156,6.137-6.258,7.815-7.912,3.181-3.136,3.515-4.409,3.394-5.939a4.636,4.636,0,0,0-1.788-2.818,4.244,4.244,0,0,0-4.182-.425,25.488,25.488,0,0,0-5.262,2.718c.681-.656,1.361-1.311,2.012-1.93a4.524,4.524,0,0,0,1.061-4,3.689,3.689,0,0,0-2.746-2.609,6.77,6.77,0,0,0-5.057,1.367,55.5,55.5,0,0,0-6.432,5.431l.088-.6c.229-1.193.605-2.329-1.226-2.634-1.979-.33-4.888,2.61-7.115,5.089s-9.143,11.245-12.4,14.991l.841.874a104.384,104.384,0,0,0-14.517,17.2A18.748,18.748,0,0,0,89.94,195.3c-.21.925-.68,3.411-.955,4.319-.606,2-6.055,18.045-6.782,20.681l-.379,1.373a10.827,10.827,0,0,0,3.209,3.9,46.583,46.583,0,0,0,17.087,8.554c1.38.376,3.863.346,4.68-.22,1.054-.73,1.6-2.977.677-4.666-3.425,10.892,3.028-13.658,3.863-16.533l.421-1.447a21.865,21.865,0,0,0,13.806-7.921,16.815,16.815,0,0,1,4.145-3.949,73.942,73.942,0,0,0,10.749-5.838,22.55,22.55,0,0,0,4.447-2.938,2.759,2.759,0,0,0-.1-4.1,5.3,5.3,0,0,0-4.017-1.025c-2.052.291-3.8.625-5.094.875l-.171.033c3.158-2.779,5.107-4.649,9.046-8.2a9,9,0,0,0,2.349-3.621,4.882,4.882,0,0,0-.288-2.985A3.881,3.881,0,0,0,144.059,169.717Z"/><path class="c" d="M84.517,220.942c1.59-5.688,3.67-11.266,5.533-16.869a61.584,61.584,0,0,0,1.975-7.048c.921-4.45,3.935-8.259,6.725-11.742a125.787,125.787,0,0,1,13.287-14.051c2.284-2.091-1.118-5.478-3.394-3.394A129.074,129.074,0,0,0,96.465,180.53c-3.216,3.873-6.766,8.132-8.483,12.936-.641,1.793-.787,3.725-1.321,5.55-.251.86-.551,1.708-.833,2.558-1.038,3.135-2.089,6.265-3.13,9.4-.958,2.885-1.991,5.764-2.81,8.693-.832,2.98,3.8,4.252,4.629,1.276Z"/><path class="c" d="M112.037,171.232c3.482-3.2,6.936-6.437,10.541-9.5,1.788-1.518,3.631-2.962,5.368-4.539,1.624-1.474,3.195-3.013,4.9-4.391,1.207-.973,3.115-2.639,4.818-2.312a1.435,1.435,0,0,1,1,.709c.269.407.071.169.029.046.045.133-.005.3.025.022-.028.257.042.642.017.83a2.44,2.44,0,0,1-1.016,1.539q-1.191,1.137-2.374,2.284-2.349,2.273-4.685,4.559c-3.553,3.464-7.112,6.924-10.782,10.265-2.289,2.085,1.114,5.471,3.394,3.394,3.78-3.441,7.442-7.008,11.1-10.575Q137,161,139.642,158.441c1.763-1.7,3.479-3.132,3.813-5.7.635-4.867-3.907-8.141-8.487-6.689-2.545.807-4.685,2.6-6.668,4.329s-3.84,3.578-5.853,5.261c-4.719,3.946-9.276,8.031-13.8,12.194-2.279,2.095,1.122,5.482,3.394,3.394Z"/><path class="c" d="M130.211,182.317c4.263-3.927,8.21-8.232,12.271-12.365,2.122-2.159,4.379-4.237,6.394-6.5,2.313-2.594,3.861-5.91,1.683-9.141a6.612,6.612,0,0,0-5.749-3.043c-2.549.139-4.968,1.5-7.114,2.775-2.651,1.58-.239,5.732,2.423,4.145a13.182,13.182,0,0,1,4.649-2.11c.928-.12,1.4.236,2.009,1.257.211.351.066.318.045.071a2.667,2.667,0,0,1,.009.334c-.016.3-.059.41.026.034a4.627,4.627,0,0,1-.2.71c.18-.455-.211.324-.279.432a19.165,19.165,0,0,1-2.846,3.147c-3.98,3.965-7.881,8.01-11.827,12.008-1.61,1.632-3.2,3.295-4.887,4.849-2.277,2.1,1.124,5.485,3.394,3.394Z"/><path class="c" d="M140.271,172.653a6.232,6.232,0,0,1,2.952-.655c.176.014.163.009-.037-.014a2.9,2.9,0,0,1,.369.084,2.279,2.279,0,0,1,.491.208c.183.106.327.286.416.316q.183.186.005.011c-.075-.176-.083-.177-.022,0a6.651,6.651,0,0,0,.207.826c0,.015-.015.558.029.274a3.772,3.772,0,0,1-.573,1.276,11.8,11.8,0,0,1-2.551,2.725c-3.549,3.222-7.066,6.473-10.709,9.59a2.421,2.421,0,0,0,0,3.4,2.45,2.45,0,0,0,3.394,0q3.376-2.891,6.657-5.887,1.548-1.414,3.095-2.833a24.708,24.708,0,0,0,3.75-3.777,8.129,8.129,0,0,0,1.711-4.674,6.289,6.289,0,0,0-1.9-4.6c-2.894-2.5-6.5-1.81-9.706-.408a2.415,2.415,0,0,0-.861,3.283,2.461,2.461,0,0,0,3.284.861Z"/><path class="c" d="M136.337,188.683c.874-.169,7.172-1.805,7.035.024-.029.387-.994.918-1.3,1.12-.74.484-1.519.9-2.284,1.344-1.35.78-2.666,1.618-4,2.421-1.228.737-2.475,1.442-3.754,2.089a30.332,30.332,0,0,0-4.22,2.08c-2.751,2-4.486,4.987-7.124,7.1a19.37,19.37,0,0,1-9.981,4.126,2.47,2.47,0,0,0-2.4,2.4,2.416,2.416,0,0,0,2.4,2.4,24.488,24.488,0,0,0,11.793-4.317,23.96,23.96,0,0,0,4.518-4.126c1.055-1.267,2.466-3.082,3.684-3.761,1.722-.962,3.609-1.646,5.346-2.6,1.528-.84,3.008-1.765,4.5-2.672,3.274-1.994,9.011-4.385,7.362-9.251-1.872-5.525-8.58-3.831-12.843-3.008a2.424,2.424,0,0,0-1.676,2.953,2.451,2.451,0,0,0,2.952,1.676Z"/><path class="c" d="M107.858,173.514c3.314-3.818,6.432-7.806,9.64-11.712,1.382-1.682,2.767-3.359,4.291-4.917a11.513,11.513,0,0,1,3.35-2.713q-.274.107.118-.03.438-.1.014-.028h.207a.172.172,0,0,1-.2-.051,1.435,1.435,0,0,1-.53-.7q-.061-.5-.059-.066.063-.438-.012,0c-.03.147-.059.3-.088.443a2.461,2.461,0,0,0,1.676,2.952,2.423,2.423,0,0,0,2.952-1.676c.265-1.339.5-2.676-.271-3.9a4.3,4.3,0,0,0-4.208-1.729c-2.965.4-5.38,3.039-7.3,5.126-2.889,3.136-5.488,6.552-8.181,9.854-1.579,1.936-3.155,3.877-4.793,5.764a2.46,2.46,0,0,0,0,3.394,2.423,2.423,0,0,0,3.4,0Z"/><path class="c" d="M79.091,219.452c-.332,3.8,2.737,6.69,5.489,8.8a45.241,45.241,0,0,0,8.7,5.2c3.327,1.52,7.169,3.278,10.887,3.327a6.284,6.284,0,0,0,4.556-1.351,6.477,6.477,0,0,0,1.462-5.738,2.416,2.416,0,0,0-2.952-1.676,2.46,2.46,0,0,0-1.676,2.952,1.71,1.71,0,0,1-.219,1.066c.185-.3.125-.1-.169-.088a9.594,9.594,0,0,1-3.3-.379,45.691,45.691,0,0,1-7.98-3.134A43.984,43.984,0,0,1,87.53,224.5c-1.582-1.181-3.831-2.852-3.639-5.05a2.419,2.419,0,0,0-2.4-2.4,2.45,2.45,0,0,0-2.4,2.4Z"/><path class="c" d="M109.026,212.074c-.894,3.095-1.68,6.225-2.487,9.344-.82,3.171-1.77,6.364-2.336,9.594a2.47,2.47,0,0,0,1.676,2.952,2.421,2.421,0,0,0,2.953-1.676c.565-3.23,1.516-6.422,2.336-9.594.806-3.119,1.592-6.249,2.487-9.344.859-2.973-3.771-4.242-4.629-1.276Z"/></svg>