<?xml version="1.0" encoding="utf-8"?>
<!-- Uploaded to: SVG Repo, www.svgrepo.com, Generator: SVG Repo Mixer Tools -->
<svg width="800px" height="800px" viewBox="-136.27 0 409.191 409.191" xmlns="http://www.w3.org/2000/svg"><defs><style>.a{fill:#ffffff;}.b{fill:#7a7473;}.c{fill:#211715;}.d{fill:#3d8dcc;}.e{fill:#85807f;}.f{fill:#febe69;}</style></defs><path class="a" d="M128.048,220.752l-.153-.449c-4.042.434-9.889.862-14.517,1.085.032,1.025.056,1.786.056,1.786.1,3.2.091,7.93.268,11.047a70.7,70.7,0,0,0,.787,8.26,4.692,4.692,0,0,0,2.282,3.054,3.328,3.328,0,0,0,1.607.255,3.457,3.457,0,0,0,1.973-.9c1.115-1.388.923-3.165.906-5.248V239.6c.224.638.35,1,.35,1a73.841,73.841,0,0,0,4.59,10.606,10.32,10.32,0,0,0,2.261,3.241,3.783,3.783,0,0,0,3.686.869c1.853-.706,2.348-2.277,2.472-4.256.266-4.24-1.151-9.5-2.331-14.429C130.909,230.875,129.623,225.442,128.048,220.752Z"/><path class="b" d="M86.558,393.878c-.6-.264-1.234-.468-1.85-.7a24.912,24.912,0,0,1-6.909-4.192c-1.428-1.12-4.132-4.051-4.611-5.619-.786-2.57-.687-6.245.493-8.434.834-1.546,1.171-2.2,2.891-2.555a4.607,4.607,0,0,1,2.8.672,35.61,35.61,0,0,0,6.071,2.548c2.824.881,6.156.3,11.345-1.576,2.67-.965,5.94,2.822,8.163,4.927a129.215,129.215,0,0,1,11.939,11.381,9.882,9.882,0,0,1,1.814,3.348,13.048,13.048,0,0,1,.577,3.632c.034,2.6-.306,5.45-2.159,7.278a8.552,8.552,0,0,1-3.869,1.983,18.086,18.086,0,0,1-9.316-.016c-5.812-1.569-10.432-5.91-14.484-10.364a10.658,10.658,0,0,0-1.879-1.768A6.651,6.651,0,0,0,86.558,393.878Z"/><path class="b" d="M52.3,393.878c.6-.264,1.234-.468,1.851-.7a24.907,24.907,0,0,0,6.908-4.192c1.428-1.12,4.132-4.051,4.611-5.619.786-2.57.688-6.245-.493-8.434-.833-1.546-1.171-2.2-2.891-2.555a4.607,4.607,0,0,0-2.8.672,35.538,35.538,0,0,1-6.071,2.548c-2.824.881-6.156.3-11.344-1.576-2.671-.965-5.941,2.822-8.164,4.927a129.469,129.469,0,0,0-11.939,11.381,9.863,9.863,0,0,0-1.813,3.348,13.013,13.013,0,0,0-.578,3.632c-.034,2.6.306,5.45,2.159,7.278a8.552,8.552,0,0,0,3.869,1.983,18.086,18.086,0,0,0,9.316-.016c5.813-1.569,10.432-5.91,14.484-10.364a10.658,10.658,0,0,1,1.879-1.768A6.7,6.7,0,0,1,52.3,393.878Z"/><path class="c" d="M52.832,395.807a36.23,36.23,0,0,0,6.6-3.14,28.806,28.806,0,0,0,4.878-3.995A13.644,13.644,0,0,0,67.6,383.9a14.684,14.684,0,0,0,.334-6.909,9.58,9.58,0,0,0-2.635-5.358A5.679,5.679,0,0,0,59.131,371c-3.478,1.565-6.684,3.528-10.632,2.805a27.609,27.609,0,0,1-2.918-.72,26.347,26.347,0,0,0-3.771-1.157c-2.1-.286-3.963.849-5.543,2.1-1.714,1.356-3.188,2.99-4.821,4.438-1.994,1.768-4,3.522-5.941,5.35a46.685,46.685,0,0,0-5.485,5.773,13.246,13.246,0,0,0-2.43,7.261,14.621,14.621,0,0,0,1.1,6.8,8.759,8.759,0,0,0,5.232,4.5c5.542,2.016,11.84.981,16.862-1.907a35.009,35.009,0,0,0,6.579-5.064c.95-.9,1.865-1.846,2.758-2.807a10.641,10.641,0,0,1,3.189-2.761,2.016,2.016,0,0,0,.717-2.736,2.045,2.045,0,0,0-2.736-.718c-2.015.942-3.345,2.719-4.85,4.288a45.768,45.768,0,0,1-4.549,4.223,18.96,18.96,0,0,1-11.405,4.512,13.046,13.046,0,0,1-6.3-1.259,5.241,5.241,0,0,1-2.508-4.232,12.14,12.14,0,0,1,.616-6.084c.8-1.935,2.478-3.434,3.922-4.891,3.161-3.189,6.7-5.967,9.9-9.111a18.257,18.257,0,0,1,3.971-3.365c1.466-.775,2.966.276,4.435.714,3.309.984,6.718,1.5,10.054.379a37.355,37.355,0,0,0,5.545-2.335c1.057-.56,2.138-1.027,2.848.079a8.924,8.924,0,0,1,1.19,5.459,6.718,6.718,0,0,1-1.963,4.538,23.458,23.458,0,0,1-4.282,3.806,30.592,30.592,0,0,1-6.14,3.078,2.067,2.067,0,0,0-1.4,2.46A2.012,2.012,0,0,0,52.832,395.807Z"/><path class="c" d="M87.09,391.95a31.043,31.043,0,0,1-5.485-2.627,24.252,24.252,0,0,1-4-3.233,10.261,10.261,0,0,1-2.584-3.578,10.8,10.8,0,0,1-.1-5.164c.242-1.015.763-2.8,1.9-2.981a3.219,3.219,0,0,1,1.918.623c.737.388,1.5.732,2.263,1.06a22.022,22.022,0,0,0,5.459,1.81,15.219,15.219,0,0,0,4.959-.195A27.049,27.049,0,0,0,94.145,377a28.838,28.838,0,0,1,3.306-1.089c1.192-.188,2.438,1.009,3.265,1.744,1.44,1.278,2.772,2.667,4.215,3.944,1.71,1.514,3.426,3.021,5.1,4.578,3.1,2.892,6.9,5.907,7.224,10.441a10.573,10.573,0,0,1-.773,5.5c-.911,1.747-2.82,2.35-4.628,2.735-4.876,1.038-9.647-.487-13.648-3.275a37.4,37.4,0,0,1-5.209-4.545c-1.7-1.728-3.181-3.833-5.427-4.883a2.057,2.057,0,0,0-2.736.718,2.016,2.016,0,0,0,.717,2.736c2.167,1.013,3.668,3.338,5.351,4.991a40.18,40.18,0,0,0,5.622,4.668,21.288,21.288,0,0,0,14.535,3.749,13.165,13.165,0,0,0,7.189-2.738,9.385,9.385,0,0,0,2.834-5.793,16.321,16.321,0,0,0-.564-7.694,17.57,17.57,0,0,0-4.4-6.254c-3.531-3.654-7.513-6.814-11.141-10.361a16.631,16.631,0,0,0-5.212-3.873c-2.251-.894-4.114.07-6.282.728A17.342,17.342,0,0,1,87.82,374a15.867,15.867,0,0,1-5.673-1.786c-1.882-.856-3.662-2.135-5.841-1.793a5.768,5.768,0,0,0-4.352,3.509,13.193,13.193,0,0,0-1.186,7.35,10.916,10.916,0,0,0,2.73,6.217,27.008,27.008,0,0,0,5.269,4.718,35.306,35.306,0,0,0,7.259,3.6,2.012,2.012,0,0,0,2.46-1.4A2.051,2.051,0,0,0,87.09,391.95Z"/><path class="a" d="M35.135,351.722c-1.548-41.666-2.624-81.658-4.416-125.351,6.344.445,18.993.5,22.135.415a16.9,16.9,0,0,0,10.028-3.378c2.584-2.173,3.675-5.519,4.661-8.67.588-1.88,1.231-6.36,1.661-8.486.4,2.129,1.074,6.606,1.662,8.486.985,3.151,2.077,6.5,4.66,8.67a16.9,16.9,0,0,0,10.029,3.378c3.04.081,15.719-.123,22.476-.579-2.061,50.249-3.175,95.6-5.146,144.213a55.3,55.3,0,0,1-15.236,2.351c-5.508-.054-14.239-.536-18.277-1.577-4.037,1.041-12.768,1.523-18.276,1.577A55.292,55.292,0,0,1,35.86,370.42Q35.477,361,35.135,351.722Z"/><path class="c" d="M106.08,224.907q-1.185,28.8-2.112,57.611-.937,27.99-1.879,55.98-.564,15.962-1.2,31.922l1.468-1.928a52.709,52.709,0,0,1-17.037,2.235c-5.089-.138-10.447-.221-15.412-1.461-2.5-.624-3.563,3.232-1.063,3.857,5.306,1.325,11.034,1.456,16.475,1.6a56.267,56.267,0,0,0,18.1-2.378,2.064,2.064,0,0,0,1.468-1.929q1.141-28.182,2.039-56.375.938-28.163,1.9-56.325.587-16.409,1.256-32.813c.106-2.574-3.895-2.57-4,0Z"/><path class="c" d="M28.665,224.907q1.185,28.8,2.112,57.611.938,27.99,1.879,55.98.564,15.962,1.2,31.922a2.064,2.064,0,0,0,1.468,1.929,56.3,56.3,0,0,0,18.1,2.378c5.44-.147,11.17-.279,16.475-1.6,2.5-.624,1.439-4.482-1.063-3.857-4.965,1.24-10.323,1.322-15.412,1.461a52.678,52.678,0,0,1-17.037-2.235l1.468,1.928q-1.142-28.182-2.039-56.375-.937-28.163-1.9-56.325-.586-16.409-1.256-32.813c-.1-2.565-4.106-2.579-4,0Z"/><path class="c" d="M67.372,237.4V371.041c0,2.574,4,2.578,4,0V237.4c0-2.573-4-2.578-4,0Z"/><path class="d" d="M127.98,220.291c.29-.032.571-.064.841-.1a5.214,5.214,0,0,0,3.409-1.418,4.249,4.249,0,0,0,.947-2.917c-.748-11.076-4.333-66.505-5.781-81.708-.916-9.625-2.35-15.934-6.237-20.792-4.748-5.933-13.606-10.347-24.6-14.776A55.713,55.713,0,0,0,87.888,91.7c-2.871,12.751-6.623,26.385-10.66,38.783-3.145,9.658-4.072,12.608-8.424,23.252-4.343-10.645-5.27-13.594-8.415-23.252-4.037-12.4-7.789-26.032-10.66-38.783A59.414,59.414,0,0,0,43.1,96.677l-3.741,1.539c-3.8,1.564-7.973,2.081-11.6,4.009a23.8,23.8,0,0,0-6.065,4.159c-2.145,2.217-3.433,5.1-4.63,7.939A248.441,248.441,0,0,0,3.512,157.09c-1.078,4.889-2.009,9.921-1.3,14.866s3.312,9.889,7.757,12.178c3.811,1.967,8.2,1.705,12.365.358l6.447-2.41c-.453,17.645-.857,34.762-.886,43.99,4,.718,21.216.813,24.957.714a16.9,16.9,0,0,0,10.028-3.378c2.584-2.173,3.675-5.519,4.661-8.67.588-1.88,1.231-6.36,1.661-8.486.4,2.129,1.074,6.606,1.662,8.486.985,3.151,2.077,6.5,4.66,8.67a16.9,16.9,0,0,0,10.029,3.378c3.845.1,23.1-.25,26.306-.994-.005-1.3-.017-2.751-.036-4.331l1.532-.073C118.023,221.166,123.928,220.733,127.98,220.291Z"/><path class="a" d="M97.967,47.925a4.5,4.5,0,0,1,3.256-1.192,4.18,4.18,0,0,1,3.755,2.086c1.276,2.212,1.222,6.289.366,8.812a13.613,13.613,0,0,1-4,6.479,4.958,4.958,0,0,1-3.828,1.105l-.367-.062a29.272,29.272,0,0,1-1.317,3.575c-1,2.707-6.621,12.369-13.667,15.772v2.058c-.54.437-11.555,9.122-12.39,9.714H67.838C67,95.68,55.988,87,55.448,86.558V84.089A26.623,26.623,0,0,1,47.6,77.41a34.245,34.245,0,0,1-6.5-12.263A4.866,4.866,0,0,1,36.96,64.11a13.6,13.6,0,0,1-3.995-6.479c-.857-2.523-.911-6.6.365-8.812a4.182,4.182,0,0,1,3.755-2.086,4.5,4.5,0,0,1,3.256,1.192S37.966,23.75,67.448,23.75,97.967,47.925,97.967,47.925Z"/><path class="e" d="M62.528,2.559a32.835,32.835,0,0,0-14.006,6,34.52,34.52,0,0,0-14.253,27.01,38.03,38.03,0,0,0,1.41,11.39,5.478,5.478,0,0,1,1.406-.223,4.5,4.5,0,0,1,3.256,1.192l4.6-3.867C48.4,40.207,54.5,34.4,58.783,32.157c.5-.263,1.146.093,1.35.932a5.519,5.519,0,0,1,.131,2.008,1.046,1.046,0,0,0,1.491,1.123c3.055-1.7,8.5-5.114,12.361-6.741a15.618,15.618,0,0,1,5.725.7A18.476,18.476,0,0,1,85.114,33.5c3.475,2.991,6.807,7.093,8.283,10.806l4.57,3.621a4.5,4.5,0,0,1,3.256-1.192,5.589,5.589,0,0,1,1.279.186,36.7,36.7,0,0,0,1.374-11.353C103.3,21.936,96.432,13.47,89.8,8.68A34.127,34.127,0,0,0,69.071,2,37.66,37.66,0,0,0,62.528,2.559Z"/><path class="a" d="M68.191,152.23c-3.826-9.443-4.811-12.56-7.8-21.746-3.707-11.382-7.173-23.808-9.937-35.634a4.058,4.058,0,0,1,.913-3.345c1.244-1.441,2.811-3.525,4.083-4.947C55.988,87,67,95.68,67.838,96.272h1.941c.835-.592,11.85-9.277,12.39-9.714,1.271,1.422,2.839,3.506,4.083,4.947a4.058,4.058,0,0,1,.913,3.345c-2.765,11.826-6.23,24.252-9.937,35.634-2.991,9.186-3.976,12.3-7.8,21.746Z"/><path class="f" d="M64.865,143.718c.884,2.39,1.91,5.018,3.326,8.512h1.235c3.522-8.693,4.636-12.025,7.125-19.666-1.207-10.347-2.8-22.65-2.8-23.013a8.617,8.617,0,0,1,.3-1.933c.075-.289.141-.577.2-.866.319-1.437.377-2.173.748-3.695l.022-.074c-1.776-2.4-3.926-5.238-5.235-6.711H67.838c-1.3,1.461-3.422,4.266-5.191,6.649.1.281.166.465.166.465a19,19,0,0,1,.908,2.954,12.319,12.319,0,0,1,.718,3.423c.01.609-1.669,12.276-3.226,23.251C62.621,137.336,63.6,140.281,64.865,143.718Z"/><path class="c" d="M39.566,103.754a19.871,19.871,0,0,1,4.948-5.661,53.763,53.763,0,0,1,6.224-4.665L47.8,92.233a446.352,446.352,0,0,0,14.037,48.958c1.363,3.9,2.876,7.742,4.426,11.571a2.063,2.063,0,0,0,2.46,1.4,2.014,2.014,0,0,0,1.4-2.46,378.815,378.815,0,0,1-14.8-45.58q-1.962-7.441-3.661-14.949a2.015,2.015,0,0,0-2.938-1.195,61.158,61.158,0,0,0-7.034,5.291,22.737,22.737,0,0,0-5.573,6.47c-1.16,2.292,2.289,4.319,3.454,2.019Z"/><path class="c" d="M60.468,151.627q-1.872-3.245-3.732-6.5a2,2,0,0,0-3.454,2.019q1.86,3.252,3.732,6.5a2,2,0,1,0,3.454-2.019Z"/><path class="c" d="M73.325,106.432c-2.871,0-5.741-.06-8.612-.061a2,2,0,1,0,0,4c2.871,0,5.741.06,8.612.061a2,2,0,0,0,0-4Z"/><path class="c" d="M73.063,102.525c-.356,1.512-.607,3.046-.947,4.562a9.6,9.6,0,0,0-.347,2.692c.1,1.536.373,3.08.563,4.606.757,6.07,1.514,12.139,2.223,18.214a2.061,2.061,0,0,0,2,2,2.012,2.012,0,0,0,2-2c-.7-5.975-1.441-11.944-2.185-17.912-.2-1.573-.454-3.153-.582-4.733a5.76,5.76,0,0,1,.185-1.8c.345-1.515.591-3.049.947-4.561.59-2.5-3.266-3.572-3.857-1.064Z"/><path class="c" d="M63.218,133.007c.862-6.075,1.739-12.149,2.578-18.228.215-1.562.518-3.145.62-4.721a9.617,9.617,0,0,0-.391-2.984,32.032,32.032,0,0,0-1.485-4.7,2.014,2.014,0,0,0-2.737-.718,2.052,2.052,0,0,0-.717,2.737,24.131,24.131,0,0,1,1.189,4.168,5.062,5.062,0,0,1,.118,1.7c-.162,1.541-.369,2.84-.586,4.4-.8,5.762-1.629,11.521-2.446,17.281a2.067,2.067,0,0,0,1.4,2.46,2.016,2.016,0,0,0,2.461-1.4Z"/><path class="c" d="M54.034,85.144c-1.078,1.218-2.073,2.5-3.1,3.766a9.992,9.992,0,0,0-2.394,3.872c-.519,2.125.393,3.609,1.475,5.29q1.881,2.921,4.033,5.653a21.186,21.186,0,0,0,4.771,4.741,2.049,2.049,0,0,0,2.737-.717c2.525-3.374,4.9-6.9,7.695-10.063a2.038,2.038,0,0,0-.4-3.141c-.252-.18-.494-.373-.74-.561.533.408-.284-.221-.413-.322l-.755-.588q-2.042-1.594-4.077-3.2c-2-1.574-4.018-3.135-6-4.733a2.058,2.058,0,0,0-2.828,0,2.013,2.013,0,0,0,0,2.828c4.2,3.389,8.407,6.878,12.795,10.027l-.4-3.141c-3.016,3.42-5.592,7.226-8.321,10.872l2.736-.718a11.075,11.075,0,0,1-1.725-1.521c-.677-.7-1.31-1.441-1.92-2.2-1.219-1.511-2.338-3.122-3.405-4.75-.382-.583-.759-1.171-1.12-1.768-.106-.177-.223-.352-.315-.536a.938.938,0,0,1-.095-.173c.122.491.121-.175.127-.19a4.7,4.7,0,0,1,.582-1.177c.382-.5.812-.98,1.21-1.473.882-1.095,1.752-2.2,2.684-3.254C58.561,86.05,55.743,83.21,54.034,85.144Z"/><path class="c" d="M80.6,153.646c4.786-8.3,9.526-16.623,14.111-25.034q3.373-6.187,6.611-12.446a6.759,6.759,0,0,0,1.142-3.109,4.278,4.278,0,0,0-1.348-2.763c-1.624-1.816-3.442-3.475-5.216-5.14L95.5,108.3l3.729-2.129c1.154-.658,2.635-1.337,2.671-2.879.046-1.934-1.9-3.948-3.111-5.271a50.6,50.6,0,0,0-9.89-8.042,2.015,2.015,0,0,0-2.938,1.195,446.143,446.143,0,0,1-14.036,48.959c-1.364,3.9-2.876,7.742-4.426,11.57a2.013,2.013,0,0,0,1.4,2.46,2.048,2.048,0,0,0,2.46-1.4,379.008,379.008,0,0,0,14.8-45.581q1.962-7.442,3.661-14.948l-2.938,1.195A53.848,53.848,0,0,1,93.1,98.093a35.093,35.093,0,0,1,2.971,2.878,15.154,15.154,0,0,1,1.109,1.344c.142.2.276.4.4.609.117.188.333.895.31.363l.273-1.009-.169.261.717-.718c-1.656,1.123-3.5,2.028-5.24,3.02a2.018,2.018,0,0,0-.405,3.141c1.558,1.462,3.109,2.934,4.588,4.476q.316.33.628.664.376.537.2-.175a5.347,5.347,0,0,1-.615,1.2q-.729,1.413-1.465,2.82-3.075,5.88-6.277,11.691c-4.232,7.71-8.587,15.351-12.981,22.969-1.289,2.234,2.166,4.251,3.454,2.019Z"/><path class="c" d="M80.755,87.972c.931,1.054,1.8,2.159,2.684,3.254a8.214,8.214,0,0,1,1.78,2.619c.025.082.064.559.088.306.016-.158.016-.042-.026.056a5.084,5.084,0,0,1-.334.568c-.36.6-.737,1.185-1.119,1.768-1.044,1.593-2.138,3.171-3.326,4.651-.635.792-1.293,1.567-2,2.3-.3.313-.615.619-.941.91-.149.133-.3.266-.457.39.29-.229-.269.183-.327.221l2.736.718c-2.729-3.646-5.3-7.453-8.321-10.872L70.788,98c4.388-3.149,8.59-6.638,12.8-10.027a2.012,2.012,0,0,0,0-2.828,2.047,2.047,0,0,0-2.828,0c-1.984,1.6-4,3.159-6,4.733q-2.037,1.6-4.077,3.2l-.755.588c-.14.109-.948.732-.414.322-.245.188-.488.381-.739.561a2.039,2.039,0,0,0-.405,3.141c2.792,3.165,5.17,6.689,7.7,10.063a2.037,2.037,0,0,0,2.736.717,21.169,21.169,0,0,0,4.772-4.741Q85.719,101,87.6,98.072c1.083-1.682,2-3.164,1.476-5.29a10.054,10.054,0,0,0-2.394-3.872c-1.027-1.261-2.022-2.548-3.1-3.766C81.875,83.211,79.055,86.049,80.755,87.972Z"/><path class="c" d="M63.536,72.719A12.3,12.3,0,0,0,69.459,74.1a9.749,9.749,0,0,0,6.082-1.839,2,2,0,0,0,0-2.828,2.062,2.062,0,0,0-2.829,0c.689-.537-.038,0-.257.111-.169.089-.627.23,0,.021-.162.054-.319.123-.482.175-.2.066-.413.122-.624.171a4.382,4.382,0,0,0-.725.137c.2-.089.316-.038.012-.008-.132.013-.265.024-.4.033-.32.021-.64.029-.96.027-.286,0-.573-.012-.859-.031q-.2-.013-.393-.033c-.075-.007-.15-.015-.224-.025-.157-.019-.1-.011.175.024-.117.054-.517-.092-.646-.121q-.31-.069-.615-.159c-.176-.053-.349-.116-.523-.176-.453-.155.415.2,0,0-.216-.1-.429-.208-.641-.32a2,2,0,0,0-2.019,3.454Z"/><path class="c" d="M68.2,59.081a26.6,26.6,0,0,1,.625,2.857l-.072-.531a1.729,1.729,0,0,1,.011.394l.071-.532a.906.906,0,0,1-.043.178l.2-.478a.845.845,0,0,1-.063.114l.313-.405a.629.629,0,0,1-.094.092l.405-.313a1.744,1.744,0,0,1-.226.12l.478-.2a1.64,1.64,0,0,1-.382.111l.532-.072a1.479,1.479,0,0,1-.358,0l.532.071c-.135-.019-.268-.051-.4-.07a1.512,1.512,0,0,0-.8-.035,1.486,1.486,0,0,0-.744.237,2,2,0,0,0-.718,2.736,1.914,1.914,0,0,0,1.2.919c.354.048.7.137,1.06.153a3.487,3.487,0,0,0,1.623-.395,2.459,2.459,0,0,0,1.328-1.607,3.8,3.8,0,0,0-.014-1.671c-.155-.92-.368-1.832-.605-2.735a2,2,0,0,0-2.46-1.4,2.017,2.017,0,0,0-1.195.919,2.1,2.1,0,0,0-.2,1.541Z"/><path class="c" d="M53.549,50.848c-.477,1.55-.166,5.117,2.771,5.42,3.883-.023,4.089-4.335,2.783-6.363C58.033,48.245,54.886,47.555,53.549,50.848Z"/><path class="c" d="M84.759,50.848c.477,1.55.166,5.117-2.771,5.42-3.883-.023-4.089-4.335-2.783-6.363C80.275,48.245,83.422,47.555,84.759,50.848Z"/><path class="c" d="M41.755,46.511a6.91,6.91,0,0,0-7.525-1.123,6.572,6.572,0,0,0-3.439,4.423,16.524,16.524,0,0,0,2.4,13.04c1.692,2.517,4.361,4.784,7.6,4.364a2.066,2.066,0,0,0,2-2,2.011,2.011,0,0,0-2-2c-2.283.3-3.779-1.592-4.77-3.419A13.217,13.217,0,0,1,34.4,54.762a8.632,8.632,0,0,1,.865-5.262c-.316.5.513-.449.237-.244a2.045,2.045,0,0,1,.97-.443,2.714,2.714,0,0,1,2.455.526c1.915,1.709,4.754-1.11,2.828-2.828Z"/><path class="c" d="M99.381,49.339a2.682,2.682,0,0,1,2.324-.554,2.143,2.143,0,0,1,1.1.471c-.275-.2.545.732.237.244a5.313,5.313,0,0,1,.787,2.124,12.023,12.023,0,0,1,.078,3.138A13.246,13.246,0,0,1,102.29,59.8c-.99,1.826-2.486,3.716-4.77,3.419a2.01,2.01,0,0,0-2,2,2.051,2.051,0,0,0,2,2c5.272.684,8.507-5.012,9.823-9.272,1.181-3.819,1.134-9.752-2.6-12.2a6.872,6.872,0,0,0-8.188.765c-1.925,1.717.912,4.538,2.828,2.828Z"/><path class="c" d="M95.768,62.506a29.155,29.155,0,0,1-1.312,4.375c-.193.508-.357.845-.585,1.413-.2.507.136-.275-.037.087-.063.132-.122.266-.185.4a37.251,37.251,0,0,1-3.2,5.334c-2.791,3.955-6.609,8.272-11.514,9.425-2.505.588-1.445,4.446,1.063,3.857,5.787-1.36,10.24-6.193,13.592-10.825a38.055,38.055,0,0,0,3.483-5.7c.207-.428.392-.863.576-1.3.216-.518-.147.343.081-.188.15-.347.3-.7.436-1.046a29.06,29.06,0,0,0,1.464-4.763c.524-2.512-3.331-3.586-3.857-1.064Z"/><path class="c" d="M38.6,63.467c2.486,10.9,10.688,22.785,22.468,24.562a2.065,2.065,0,0,0,2.461-1.4,2.016,2.016,0,0,0-1.4-2.46C51.644,82.59,44.664,72.083,42.457,62.4c-.572-2.509-4.429-1.447-3.857,1.063Z"/><path class="c" d="M89.3,5.919A37.891,37.891,0,0,0,53.723,3.2,36.827,36.827,0,0,0,34.08,25.152a39.188,39.188,0,0,0-.467,21.817c.633,2.493,4.492,1.436,3.857-1.064-2.655-10.457-.76-21.833,6.313-30.181a33.291,33.291,0,0,1,43.5-6.351c2.167,1.4,4.175-2.059,2.019-3.454Z"/><path class="c" d="M104.551,46.969a39.984,39.984,0,0,0-.663-22.487,35.51,35.51,0,0,0-9.7-14.809c-1.9-1.731-4.737,1.09-2.829,2.828a31.383,31.383,0,0,1,8.672,13.044,36.01,36.01,0,0,1,.663,20.36c-.609,2.5,3.247,3.568,3.857,1.064Z"/><path class="c" d="M78.832,31.909a22.512,22.512,0,0,1,7.335,5.342A30.874,30.874,0,0,1,89.214,40.9c.47.669.913,1.358,1.317,2.068q.276.485.527.983c.1.193.187.39.281.585a1.436,1.436,0,0,1,.129.3,2.064,2.064,0,0,0,2.461,1.4,2.012,2.012,0,0,0,1.4-2.46A29.754,29.754,0,0,0,89.166,34.6a25.94,25.94,0,0,0-8.315-6.146,2.066,2.066,0,0,0-2.737.717,2.015,2.015,0,0,0,.718,2.737Z"/><path class="c" d="M46.361,45.472a82.87,82.87,0,0,1,7.344-7.2,44.452,44.452,0,0,1,3.675-2.9,21.045,21.045,0,0,0,1.9-1.211q1.008-.441-1.076-.544a1.612,1.612,0,0,1,.087.474,6.826,6.826,0,0,0-.027,1,3.079,3.079,0,0,0,3.479,3.191c1.421-.245,2.856-1.39,4.088-2.109a85.112,85.112,0,0,1,9.3-4.973,2.013,2.013,0,0,0,.717-2.737,2.051,2.051,0,0,0-2.736-.717,85.284,85.284,0,0,0-9.3,4.973c-.685.4-1.368.8-2.055,1.2l-.523.3q-1.017.432,1.03.879a2.238,2.238,0,0,0,.032-.919c-.078-1.84-.917-4.015-3.062-4.1-1.484-.058-3,1.221-4.155,2.04-1.455,1.035-2.852,2.159-4.2,3.327a83.143,83.143,0,0,0-7.344,7.2c-1.72,1.907,1.1,4.745,2.829,2.828Z"/><path class="c" d="M107.708,130.246c.172,11.533.514,23.065.816,34.6.368,14.042.748,28.084,1.046,42.128.127,5.981.248,11.964.285,17.946.016,2.573,4.016,2.579,4,0-.074-11.916-.4-23.832-.7-35.745-.348-13.936-.734-27.872-1.078-41.809-.141-5.7-.282-11.41-.367-17.116-.039-2.572-4.039-2.58-4,0Z"/><path class="c" d="M28.6,228.177c6.418.772,13.022.625,19.475.641a39.144,39.144,0,0,0,9.362-.646,14.588,14.588,0,0,0,10.418-8.424c1.822-4.192,2.395-8.525,3.276-12.964H67.276c.749,4.061,1.3,8.092,2.852,11.951a15.136,15.136,0,0,0,3.984,6.087,16.555,16.555,0,0,0,6.658,3.3,37.045,37.045,0,0,0,9.658.662q5.465-.063,10.928-.255a103.031,103.031,0,0,0,10.33-.683,2.012,2.012,0,0,0,1.4-2.46,2.053,2.053,0,0,0-2.46-1.4c.591-.081-.174.015-.311.03-.244.026-.488.048-.733.07-.654.058-1.31.1-1.966.146-1.584.1-3.17.175-4.755.238q-5.279.21-10.56.285c-2.5.04-5.05.164-7.552-.01a15.421,15.421,0,0,1-6.35-1.8,9.755,9.755,0,0,1-4.154-4.692c-1.83-3.953-2.328-8.3-3.109-12.536-.354-1.922-3.481-1.9-3.857,0a78.2,78.2,0,0,1-2.315,10.5,13.293,13.293,0,0,1-2.923,5.253,11.987,11.987,0,0,1-5.662,2.843,34.132,34.132,0,0,1-8.168.5q-4.962-.011-9.924-.131c-3.222-.08-6.478-.125-9.682-.51a2.012,2.012,0,0,0-2,2,2.049,2.049,0,0,0,2,2Z"/><path class="c" d="M96.031,100.517c6.387,2.581,12.886,5.347,18.507,9.391a22.583,22.583,0,0,1,8.832,12.272,75.822,75.822,0,0,1,2.29,14.939c.315,3.66.6,7.323.871,10.986q1.114,14.835,2.1,29.678.949,13.931,1.865,27.863.294,4.457.589,8.914a9.654,9.654,0,0,1,.077,1.835c-.188,1.407-1.424,1.677-2.657,1.84-3.32.438-6.691.635-10.031.857q-2.56.171-5.123.3c-2.562.125-2.577,4.126,0,4q5.493-.269,10.974-.743c3.069-.268,7.34-.052,9.482-2.662,2.176-2.652,1.176-6.962.966-10.147q-.9-13.584-1.81-27.166-1.064-15.72-2.2-31.434c-.3-4.124-.615-8.247-.956-12.369a117.892,117.892,0,0,0-1.825-14.73c-1.188-5.6-3.526-10.762-7.755-14.713-4.994-4.665-11.346-7.734-17.552-10.433-1.849-.8-3.712-1.576-5.581-2.332a2.014,2.014,0,0,0-2.461,1.4,2.049,2.049,0,0,0,1.4,2.46Z"/><path class="c" d="M27.09,170.275c-.4,15.176-.817,30.352-1.074,45.531q-.078,4.554-.114,9.11c-.016,2.575,3.984,2.577,4,0,.085-13.622.483-27.245.831-40.863q.176-6.889.357-13.778c.068-2.575-3.932-2.573-4,0Z"/><path class="c" d="M21.805,182.564c-3.369,1.056-7.106,1.545-10.428.039a12.2,12.2,0,0,1-5.846-6.229c-3.093-6.76-1.058-14.652.534-21.519q2.563-11.054,6.128-21.842,1.854-5.614,3.976-11.135a104.768,104.768,0,0,1,4.187-10,15.871,15.871,0,0,1,3.374-4.68,22.735,22.735,0,0,1,4.653-3.039c3.613-1.934,7.728-2.5,11.508-4.012a2.062,2.062,0,0,0,1.4-2.46,2.014,2.014,0,0,0-2.46-1.4c-3.7,1.481-7.677,2.115-11.3,3.817a22.366,22.366,0,0,0-9.027,7.047c-2.233,3.169-3.558,7-4.986,10.579q-2.37,5.93-4.432,11.977a248.757,248.757,0,0,0-6.933,24.314c-1.8,7.8-3.634,16.2-.308,23.852a15.931,15.931,0,0,0,7.711,8.273c4.245,1.934,8.943,1.643,13.31.274,2.448-.767,1.4-4.63-1.063-3.857Z"/><path class="b" d="M31.838,100.927l.015.036a49.18,49.18,0,0,1,2.956,8.69c1.954,7.564,2.257,12.5,2.959,17.667.239,4.957.351,11.739.3,15.568-.077,5.285-.729,13.4-1.111,16.333l-.031.373a22.175,22.175,0,0,1,5.666.941,5.7,5.7,0,0,1,3.685,4.04q.063.285.116.568A116.07,116.07,0,0,0,48.2,150.331a135.949,135.949,0,0,0-1.455-25.667c-.664-4.52-1.506-8.694-3.161-15.844-.716-3.1-1.927-7.746-3.963-10.835A2.466,2.466,0,0,0,37.146,97a18.844,18.844,0,0,0-4.6,1.715A1.857,1.857,0,0,0,31.838,100.927Z"/><path class="c" d="M39.768,127.32c-1.142-8.5-1.992-17.143-5.249-25.173a16.7,16.7,0,0,0-.743-1.754c-.143-.261-.005-.107-.224.048a10.959,10.959,0,0,1,3.183-1.283c.824-.235,1.1-.32,1.547.453a20.069,20.069,0,0,1,1.356,2.829,83.969,83.969,0,0,1,3.27,12.454c.851,3.929,1.586,7.876,2.131,11.859a2.012,2.012,0,0,0,2.46,1.4,2.054,2.054,0,0,0,1.4-2.46c-.545-3.984-1.279-7.931-2.131-11.86-1.039-4.794-1.988-9.7-4-14.2-.977-2.192-2.23-4.5-4.919-4.657a9,9,0,0,0-3.569.8,9.812,9.812,0,0,0-3.474,1.782c-2.1,2.114-.5,4.634.331,6.888a64.793,64.793,0,0,1,2.207,7.623c1.191,5.038,1.735,10.14,2.423,15.259a2.067,2.067,0,0,0,2,2c.969,0,2.145-.922,2-2Z"/><path class="c" d="M46.22,150.027a101.355,101.355,0,0,1-2.035,15.885,2.048,2.048,0,0,0,1.4,2.46,2.02,2.02,0,0,0,2.46-1.4,108.264,108.264,0,0,0,2.178-16.948,2,2,0,0,0-4,0Z"/><path class="b" d="M16.229,228.947c-1.745-.037-3.217-1.6-4.011-2.991-1.326-2.316-.561-5.6-.3-6.815,3.059-14.029,5.128-22.17,7.827-33.591.913-3.862,3.123-13.741,5.37-21.365.812-2.756,3.962-4.73,6.835-4.734,5.034-.008,8.621.359,10.634,1.084a5.7,5.7,0,0,1,3.685,4.04c.644,2.9.456,5.68.273,9.045-.912,16.792-2.828,41.263-3.521,50.587a6.067,6.067,0,0,1-3.644,5.329c-1.98.855-2.715,1.389-6.143.758C27.132,229.169,23.593,229.1,16.229,228.947Z"/><path class="c" d="M16.761,227.018c-2.918-.448-3.559-3.466-3.187-5.953.474-3.163,1.354-6.307,2.062-9.425,1.343-5.922,2.756-11.828,4.173-17.732,1.232-5.131,2.418-10.272,3.644-15.4.759-3.174,1.543-6.341,2.389-9.492.729-2.714,1.025-5.7,3.831-7.024a8.9,8.9,0,0,1,4.156-.523c1.584.031,3.169.1,4.745.27,2.036.219,4.65.575,5.573,2.705a11.671,11.671,0,0,1,.57,4.271c.028,1.865-.106,3.731-.209,5.593q-.233,4.186-.5,8.372c-.741,11.691-1.613,23.373-2.5,35.053-.158,2.093-.261,4.2-.473,6.286a4.877,4.877,0,0,1-4.406,4.319,27,27,0,0,1-4.679-.114c-1.738-.1-3.475-.207-5.21-.331-3.511-.251-7.014-.587-10.515-.943a2.014,2.014,0,0,0-2,2,2.045,2.045,0,0,0,2,2c3.386.345,6.774.671,10.169.918a85.254,85.254,0,0,0,9.723.5,9.638,9.638,0,0,0,7.218-3.476c1.65-2.161,1.691-4.767,1.886-7.358.918-12.184,1.843-24.368,2.635-36.561q.314-4.812.589-9.626c.205-3.622.556-7.3-.162-10.89-1.422-7.114-10.186-7.01-15.851-7.006a9.821,9.821,0,0,0-8.425,4.371,17.619,17.619,0,0,0-1.646,4.731q-.72,2.61-1.381,5.237c-1.482,5.849-2.8,11.738-4.206,17.606-1.524,6.381-3.071,12.757-4.537,19.152-.813,3.548-1.654,7.1-2.378,10.665-.647,3.189-.607,6.414,1.542,9.042a7.118,7.118,0,0,0,4.292,2.621,2.064,2.064,0,0,0,2.46-1.4A2.015,2.015,0,0,0,16.761,227.018Z"/><path class="c" d="M25.229,191.839l13.545,1.589a2.011,2.011,0,0,0,2-2,2.049,2.049,0,0,0-2-2l-13.545-1.589a2.011,2.011,0,0,0-2,2,2.047,2.047,0,0,0,2,2Z"/><path class="c" d="M34.023,168.569c-.52,2.961-1,5.93-1.483,8.9q-.458,2.811-.9,5.623-.22,1.386-.438,2.773a13.276,13.276,0,0,1-.424,2.574l.919-1.2-.078.047,2.737.718-.04-.063-.718,2.736.046-.031c2.124-1.43.124-4.9-2.019-3.453l-.046.03a2.034,2.034,0,0,0-.717,2.737l.04.063a2.033,2.033,0,0,0,2.736.717c1.009-.609,1.071-1.583,1.234-2.628q.225-1.436.452-2.871.483-3.052.977-6.1c.514-3.172,1.027-6.345,1.583-9.51a2.057,2.057,0,0,0-1.4-2.46,2.017,2.017,0,0,0-2.46,1.4Z"/><path class="a" d="M53.189,126.635a3.927,3.927,0,0,0-2.6-.284c-4.328,1.1-7.856,2.25-12.736,3.891-1.175-2.709-3.236-1.654-4.682-.62-4.535,3.242-7.743,6.766-11.182,8.4a3.745,3.745,0,0,0-.12,1.085c.443,6.715,1.963,12.782,3.943,19.878l1.028-.461c1.176-.527,4.1-1.707,5.4-2.237a5.186,5.186,0,0,1,2.835-.443,17.431,17.431,0,0,0,5.975-.551c3.817-1.126,5.467-2.123,9.847-4.567a8.337,8.337,0,0,0,2.383-1.849,2.182,2.182,0,0,0,.421-2.123,3.381,3.381,0,0,0-1.9-2.188c.435-.191.844-.373,1.207-.54a3.223,3.223,0,0,0,1.762-2.274c.484-1.832.131-2.943-1.99-4a2.933,2.933,0,0,0,2.125-2.985,3.861,3.861,0,0,0-.753-1.7c-.389-.476-.966-.617-1.93-.991a3.165,3.165,0,0,0,2.292-3.989A2.426,2.426,0,0,0,53.189,126.635Z"/><path class="c" d="M23.61,139.439a25.478,25.478,0,0,0,6.148-4.463c1.089-.962,2.182-1.926,3.331-2.817a19.309,19.309,0,0,1,1.664-1.193,3.954,3.954,0,0,1,.767-.39c.073-.026.318-.113.106-.048.273-.083.215.038.016-.055a2.058,2.058,0,0,0,2.737-.718,2.017,2.017,0,0,0-.718-2.736c-1.94-.911-3.822-.307-5.5.876a53.57,53.57,0,0,0-4.231,3.372c-1.084.942-2.141,1.917-3.26,2.818-.033.027-.422.33-.254.2s-.221.162-.255.187c-.254.184-.511.363-.774.533a13.7,13.7,0,0,1-1.8.978,2.015,2.015,0,0,0-.718,2.736,2.048,2.048,0,0,0,2.736.718Z"/><path class="c" d="M37.442,132.489c2.851-.961,5.7-1.924,8.584-2.792q1.848-.558,3.713-1.057c.367-.1.734-.2,1.1-.289q.24-.066.485-.117-.27.04.109.012a1.472,1.472,0,0,1,.888.19c.111.059.283.223.2.1.1.153.074.182.089.182.041.207.038.156-.007-.152.01.1.016.2.019.294-.007.122-.114.742,0,.291a3.909,3.909,0,0,1-.146.518c.182-.448-.348.39-.085.1a1.755,1.755,0,0,1-.8.446c-2.228.848-4.485,1.649-6.766,2.343-2.456.746-1.409,4.608,1.063,3.857,2.1-.639,4.178-1.376,6.235-2.143a7.426,7.426,0,0,0,3.166-1.751,5.36,5.36,0,0,0,1.324-3.257,4.641,4.641,0,0,0-3.773-4.855c-2.461-.532-5.15.619-7.487,1.316-3.015.9-6,1.905-8.977,2.91a2.047,2.047,0,0,0-1.4,2.46,2.019,2.019,0,0,0,2.46,1.4Z"/><path class="c" d="M51.938,134.091c.168.063.335.124.5.188.074.028.147.056.22.086-.307-.134-.368-.158-.183-.074a3.694,3.694,0,0,0,.333.19q-.419-.341-.193-.141a1.448,1.448,0,0,1,.124.135q-.3-.4-.118-.134c.043.067.083.135.122.2s.076.144.112.218q.133.292-.056-.137c-.022.053.1.288.11.342.02.073.037.146.051.22q-.062-.547-.036-.241c0,.063,0,.126,0,.189q-.021.315.043-.243c-.041.123-.064.262-.1.389-.071.193-.044.13.083-.189-.031.065-.064.128-.1.19s-.077.126-.119.187q.3-.376.1-.134c-.084.085-.172.17-.253.257-.258.278.369-.234-.044.034a5.2,5.2,0,0,1-.471.268c-.2.1-.406.2-.613.295-.153.069-.913.374-.243.11-.543.214-1.081.437-1.626.646-.982.375-1.972.732-2.953,1.11a2.172,2.172,0,0,0-1.2.919,2.044,2.044,0,0,0-.2,1.541,2.023,2.023,0,0,0,2.461,1.4c1.93-.744,3.891-1.414,5.777-2.27a6.389,6.389,0,0,0,2.648-2.063,4.387,4.387,0,0,0,.534-4.017,5.005,5.005,0,0,0-1.35-2.169A7.66,7.66,0,0,0,53,130.234a2.01,2.01,0,0,0-2.46,1.4,2.053,2.053,0,0,0,1.4,2.46Z"/><path class="c" d="M52,139.592a6.973,6.973,0,0,1,.668.4c.355.248-.192-.188-.07-.057.076.082.171.15.249.23.035.037.186.163.18.2.005-.037-.325-.473-.117-.125.043.07.073.148.116.218-.269-.443-.149-.382-.089-.176.023.078.032.161.056.237-.175-.558-.045-.41-.033-.2,0,.086.005.173,0,.26s-.051.5.005.1,0-.014-.018.071c-.023.119-.049.237-.079.355-.05.2-.116.4-.182.594-.122.363.222-.433.035-.095-.052.093-.1.187-.156.277-.037.061-.077.12-.119.178l.179-.234c-.07.031-.173.178-.23.242-.24.271.394-.25-.01.01a3.521,3.521,0,0,1-.328.184c-.24.117-.486.222-.729.331-1.1.487-2.2.957-3.291,1.444a2,2,0,0,0-.919,1.195,2.045,2.045,0,0,0,.2,1.542,2.017,2.017,0,0,0,1.2.919,2.317,2.317,0,0,0,1.541-.2c1.247-.555,2.5-1.085,3.747-1.649a5.262,5.262,0,0,0,2.809-3.274,5.6,5.6,0,0,0,.129-3.5,5.522,5.522,0,0,0-2.724-2.935A2,2,0,0,0,52,139.592Z"/><path class="c" d="M51,146.377c.318.18.75.5.777.906.031.47-.429.752-.815,1.045a30.694,30.694,0,0,1-3.838,2.209,31.51,31.51,0,0,1-6.6,2.825,15.3,15.3,0,0,1-3.527.541,22.421,22.421,0,0,0-4.089.069,40.286,40.286,0,0,0-7.072,2.822,2.014,2.014,0,0,0-.718,2.736,2.051,2.051,0,0,0,2.737.718c1.243-.551,2.509-1.053,3.769-1.566a17,17,0,0,1,1.953-.753,7.848,7.848,0,0,1,2.4-.016,21.5,21.5,0,0,0,8.8-1.8,39.983,39.983,0,0,0,8.42-4.484c1.485-1.1,2.736-2.514,2.609-4.477a5.461,5.461,0,0,0-2.778-4.232c-2.244-1.269-4.262,2.185-2.019,3.454Z"/><path class="c" d="M22.538,133.307c-3.761,3.036-2.558,8.327-1.894,12.42a136.942,136.942,0,0,0,3.6,15.073c.7,2.474,4.555,1.423,3.857-1.064-1.241-4.415-2.465-8.846-3.3-13.359a62.4,62.4,0,0,1-.864-6.387,4.172,4.172,0,0,1,1.43-3.855,2.012,2.012,0,0,0,0-2.828,2.047,2.047,0,0,0-2.828,0Z"/><path class="c" d="M119.174,233.166c.067,2.157.06,4.314.083,6.472a24.119,24.119,0,0,1,0,2.551,3.624,3.624,0,0,1-.126.753c-.05.162-.495.815-.174.553-.818.669-1.648.22-2.15-.609a5.727,5.727,0,0,1-.659-2.618c-.6-5.683-.546-11.39-.713-17.094-.076-2.568-4.076-2.579-4,0,.158,5.4.137,10.786.623,16.168.222,2.458.45,5.053,2.317,6.892,2.278,2.244,6.426,2.064,8.064-.877.941-1.69.845-3.658.822-5.526-.028-2.222-.017-4.444-.086-6.665-.079-2.568-4.079-2.579-4,0Z"/><path class="c" d="M126.139,221.341c1.464,4.413,2.566,8.935,3.651,13.453,1.106,4.606,2.576,9.311,2.827,14.066.062,1.186.359,3.579-.792,4.4-1.446,1.037-2.867-1.172-3.433-2.187a70.774,70.774,0,0,1-4.856-11.01c-.849-2.412-4.715-1.374-3.857,1.063a86.7,86.7,0,0,0,4.358,10.23,13.015,13.015,0,0,0,3.493,4.881,5.6,5.6,0,0,0,5.623.8c3.584-1.589,3.7-5.844,3.387-9.227a94.37,94.37,0,0,0-2.667-13.142c-1.157-4.832-2.311-9.676-3.877-14.4-.807-2.431-4.671-1.39-3.857,1.063Z"/></svg>