<?xml version="1.0" encoding="utf-8"?>
<!-- Uploaded to: SVG Repo, www.svgrepo.com, Generator: SVG Repo Mixer Tools -->
<svg width="800px" height="800px" viewBox="-5.74 0 442.89 442.89" xmlns="http://www.w3.org/2000/svg"><defs><style>.a{fill:#ffffff;}.b{fill:#957f6e;}.c{fill:#211715;}.d{fill:#3d8dcc;}.e{fill:none;}.f{fill:#85807f;}.g{fill:#8bbbe0;}.h{fill:#a6a2a1;}</style></defs><path class="a" d="M399.231,72.679a4.344,4.344,0,0,1,3.141-1.149,4.03,4.03,0,0,1,3.621,2.012c1.23,2.133,1.178,6.065.352,8.5a13.128,13.128,0,0,1-3.853,6.249,4.789,4.789,0,0,1-3.692,1.065l-.352-.059a28.358,28.358,0,0,1-1.272,3.447c-.939,2.548-6.126,11.483-12.691,14.964.1,1.263.262,2.509.482,3.763.343,1.964.236,3.716,2.97,4.7.177.065,7.922,3.751,8.2,3.863,0,0,2.9,22.781-24.693,22.781-25.071,0-24.7-22.36-24.7-22.36.533-.178,9.171-4.219,9.348-4.284,2.734-.988,2.616-2.74,2.971-4.7.195-1.138.349-2.186.443-3.286a24.46,24.46,0,0,1-8.851-7.068,33.034,33.034,0,0,1-6.268-11.825,4.7,4.7,0,0,1-4-1,13.128,13.128,0,0,1-3.853-6.249c-.826-2.433-.878-6.365.353-8.5a4.03,4.03,0,0,1,3.621-2.012,4.342,4.342,0,0,1,3.14,1.149S334.151,42.8,371.444,42.8C406.944,42.8,399.231,72.679,399.231,72.679Z"/><path class="b" d="M362.725,27.594c-11.894,2.837-21.963,12.645-24.362,24.427a41.076,41.076,0,0,0,.03,13.743s1.555,6.74,1.606,5.812a4.209,4.209,0,0,1,.518-.046,4.44,4.44,0,0,1,2.5.656c13.34-4.416,31.2-13.3,39.883-21.125a84.326,84.326,0,0,0,5.356,10.562A34.4,34.4,0,0,0,399.774,72.25a4.421,4.421,0,0,1,2.6-.72,5.135,5.135,0,0,1,1.5.262c2.473-5.542,1.257-15.048.284-19.771q-.174-.856-.4-1.7a28.926,28.926,0,0,0-1.9-5.058,33.535,33.535,0,0,0-17.2-16.085,30.508,30.508,0,0,0-13.389-2.371,29.711,29.711,0,0,0-8.4.752Z"/><path class="b" d="M409.954,93.461a15.7,15.7,0,0,0-6.171-6.625,9.8,9.8,0,0,1-1.432,1.453,4.791,4.791,0,0,1-3.692,1.065l-.354-.06a28.207,28.207,0,0,1-1.27,3.448c-.939,2.548-6.127,11.483-12.69,14.967.1,1.26.261,2.506.48,3.76.343,1.964.237,3.716,2.97,4.7.044.016.553.254,1.3.606l1.091.376c4.278,1.555,11.338,4.164,15.615,5.719a31.813,31.813,0,0,1,4.058,1.811l-.114-.24a19.4,19.4,0,0,1-.92-12.87c1.03-4.29,3.11-8.75,2.62-13.13A15.2,15.2,0,0,0,409.954,93.461Z"/><path class="c" d="M402.772,88.562a13.955,13.955,0,0,1,5.637,6.289,13.788,13.788,0,0,1,.422,9.441c-.919,3.525-2.2,6.9-2.566,10.547a20.385,20.385,0,0,0,1.75,10.615,2.015,2.015,0,0,0,2.736.718,2.048,2.048,0,0,0,.718-2.737,17.084,17.084,0,0,1-.91-10.465c.772-3.794,2.354-7.364,2.823-11.229.811-6.675-2.887-13.259-8.591-16.633-2.221-1.314-4.235,2.143-2.019,3.454Z"/><path class="c" d="M347.28,122.385c.871-.305,1.716-.743,2.555-1.127q1.928-.883,3.85-1.778,1.512-.7,3.023-1.4c.1-.048.21-.093.313-.143s.269-.117-.163.067c-.513.22-.068.036.064-.017.253-.1.507-.2.752-.322a5.429,5.429,0,0,0,2.41-2.23,8.551,8.551,0,0,0,.815-2.852c.227-1.464.478-2.92.611-4.4a2.008,2.008,0,0,0-2-2,2.053,2.053,0,0,0-2,2,37.523,37.523,0,0,1-.89,5.287c-.059.246.2-.313.04-.115a1.95,1.95,0,0,0-.131.232c-.223.395.179-.131-.067.089a2.4,2.4,0,0,0-.212.2c.215-.252.157-.1.028-.023-.1.059-.193.123-.293.181-.037.021-.454.23-.275.149s-.146.054-.145.054c-.153.062-.333.138-.485.2l-.065.028-.3.137c-2.145.986-4.283,1.988-6.428,2.974-.556.255-1.113.511-1.671.762l-.532.236c-.445.2.5-.187.132-.058a2,2,0,0,0,1.064,3.857Z"/><path class="c" d="M382.511,108.026c.125,1.378.325,2.746.55,4.111a15.815,15.815,0,0,0,.4,2.119,5.4,5.4,0,0,0,1.471,2.432,6.1,6.1,0,0,0,1.309.917,10.563,10.563,0,0,0,.983.426c.638.244-.464-.225-.22-.1,1.906.976,3.883,1.833,5.819,2.748.925.437,1.844.89,2.788,1.286a2,2,0,0,0,2.46-1.4,2.063,2.063,0,0,0-1.4-2.46c.993.416.083.02-.15-.089l-1.242-.586-3.362-1.591c-.867-.41-1.733-.822-2.6-1.228l-.282-.131-.072-.032c-.144-.063-.338-.145-.484-.2-.059-.024-.364-.17-.06-.019-.179-.088-.352-.18-.524-.281-.057-.033-.342-.221-.112-.061.2.141.014.011-.023-.026-.063-.063-.13-.132-.2-.192-.291-.26.1.076.063.1a4.6,4.6,0,0,1-.288-.483c-.111-.167.088.174.078.2a2.467,2.467,0,0,0-.118-.352c-.048-.16-.086-.324-.121-.488-.081-.385-.133-.776-.192-1.165-.085-.564-.187-1.125-.272-1.689-.036-.241-.041-.277-.081-.615-.045-.383-.083-.766-.118-1.15a2,2,0,0,0-4,0Z"/><path class="c" d="M397.042,86.723a27.957,27.957,0,0,1-1.266,4.218c-.192.507-.323.766-.564,1.363-.2.5.145-.292-.028.067-.061.128-.118.257-.179.384a35.855,35.855,0,0,1-3.09,5.145c-2.681,3.8-6.351,7.948-11.062,9.056-2.5.588-1.444,4.446,1.063,3.857,5.6-1.316,9.907-5.99,13.151-10.473a36.685,36.685,0,0,0,3.359-5.5c.2-.418.383-.844.562-1.273.215-.512-.164.356.072-.164.153-.337.291-.682.428-1.026a28.057,28.057,0,0,0,1.411-4.594c.524-2.512-3.331-3.586-3.857-1.063Z"/><path class="c" d="M341.91,87.687c2.4,10.535,10.333,22.02,21.718,23.737a2.065,2.065,0,0,0,2.46-1.4,2.016,2.016,0,0,0-1.4-2.461c-10.092-1.522-16.8-11.631-18.924-20.943-.572-2.509-4.43-1.447-3.857,1.063Z"/><path class="c" d="M365.99,96.653A11.948,11.948,0,0,0,371.738,98a9.486,9.486,0,0,0,5.916-1.794,2,2,0,0,0,0-2.829,2.064,2.064,0,0,0-2.829,0c.692-.539-.015-.018-.233.1-.169.088-.618.229.015.012-.156.054-.307.119-.465.169-.422.136-.888.157-1.3.3.211-.071.331-.039.031-.01-.128.013-.256.024-.384.032-.308.02-.616.028-.925.026-.276,0-.553-.011-.828-.03-.127-.009-.254-.019-.38-.032q-.108-.011-.216-.024c-.157-.019-.094-.01.188.025a8.041,8.041,0,0,1-1.216-.27c-.17-.05-.336-.112-.5-.169-.446-.153.425.2.02.012-.208-.1-.414-.2-.618-.308a2,2,0,0,0-2.019,3.454Z"/><path class="c" d="M370.456,83.458a25.664,25.664,0,0,1,.6,2.755l-.072-.532a1.619,1.619,0,0,1,.011.381l.071-.532a.928.928,0,0,1-.042.171l.2-.478a.73.73,0,0,1-.06.11l.312-.405a.541.541,0,0,1-.09.089l.405-.313a1.821,1.821,0,0,1-.218.116l.478-.2a1.651,1.651,0,0,1-.368.108l.531-.072a1.422,1.422,0,0,1-.345,0l.532.072c-.13-.018-.258-.05-.388-.067a1.506,1.506,0,0,0-.8-.036,1.486,1.486,0,0,0-.743.237,2,2,0,0,0-.718,2.737l.313.4a2,2,0,0,0,.882.515c.349.047.687.134,1.042.149a3.433,3.433,0,0,0,1.6-.39,2.439,2.439,0,0,0,1.313-1.592,3.736,3.736,0,0,0-.013-1.65c-.15-.887-.355-1.767-.583-2.638a2,2,0,0,0-2.461-1.4,2.031,2.031,0,0,0-1.195.919,2.106,2.106,0,0,0-.2,1.542Z"/><path class="c" d="M405.846,72.221c1.689-4.039,1.664-8.773,1.321-13.066a42.654,42.654,0,0,0-2.734-12.982A35.507,35.507,0,0,0,383.487,26.6a39.6,39.6,0,0,0-15.645-1.775,34.029,34.029,0,0,0-12.805,3.447,35.118,35.118,0,0,0-17.4,19.025c-2.883,7.756-2.272,16.746.236,24.53.786,2.441,4.649,1.4,3.857-1.063-1.931-5.994-2.714-12.708-1.29-18.9A30.169,30.169,0,0,1,353.951,33.45,31.079,31.079,0,0,1,365,29.159a29.809,29.809,0,0,1,5.9-.367,39.929,39.929,0,0,1,7.579.555,31.6,31.6,0,0,1,20.849,15.394,33.9,33.9,0,0,1,3.723,13.173c.445,4.353.658,9.125-1.065,13.243a2.012,2.012,0,0,0,1.4,2.46,2.051,2.051,0,0,0,2.46-1.4Z"/><path class="c" d="M381.33,52.442a58.046,58.046,0,0,0,6.635,12.22,37.946,37.946,0,0,0,10.593,9.192c2.209,1.335,4.221-2.123,2.019-3.454a33.154,33.154,0,0,1-9.587-8.321,59.2,59.2,0,0,1-6.207-11.656,2.013,2.013,0,0,0-2.736-.718,2.05,2.05,0,0,0-.717,2.737Z"/><path class="c" d="M381.642,49.5c-5.223,4.722-11.509,8.309-17.721,11.552a146.9,146.9,0,0,1-21.26,9.144c-2.429.813-1.387,4.678,1.063,3.857a153.528,153.528,0,0,0,22.216-9.547c6.523-3.4,13.049-7.222,18.531-12.177,1.914-1.73-.922-4.552-2.829-2.829Z"/><path class="c" d="M345.071,71.265a6.739,6.739,0,0,0-7.344-1.094,6.405,6.405,0,0,0-3.348,4.309,16,16,0,0,0,2.32,12.631c1.644,2.445,4.243,4.652,7.389,4.243a2.066,2.066,0,0,0,2-2,2.012,2.012,0,0,0-2-2c-2.177.283-3.594-1.52-4.538-3.262A12.9,12.9,0,0,1,338,79.273a8.275,8.275,0,0,1,.826-5.038c-.327.524.511-.436.2-.211a1.829,1.829,0,0,1,.918-.419,2.5,2.5,0,0,1,2.3.489c1.915,1.709,4.754-1.111,2.828-2.829Z"/><path class="c" d="M400.646,74.094a2.473,2.473,0,0,1,2.171-.517,1.926,1.926,0,0,1,1.045.447c-.3-.221.52.72.2.211a8.252,8.252,0,0,1,.825,5.038,12.964,12.964,0,0,1-1.551,4.819c-.944,1.742-2.361,3.545-4.539,3.262a2.01,2.01,0,0,0-2,2,2.05,2.05,0,0,0,2,2c5.117.664,8.264-4.857,9.543-8.994,1.148-3.717,1.089-9.467-2.543-11.844a6.7,6.7,0,0,0-7.983.749c-1.925,1.718.912,4.538,2.829,2.829Z"/><path class="c" d="M356.453,75.5c-.461,1.5-.161,4.935,2.672,5.228,3.744-.022,3.944-4.181,2.683-6.136C360.776,72.989,357.742,72.323,356.453,75.5Z"/><path class="c" d="M386.436,75.5c.46,1.5.16,4.935-2.673,5.228-3.744-.022-3.943-4.181-2.683-6.137C382.112,72.989,385.146,72.323,386.436,75.5Z"/><path class="a" d="M332.892,439.558a9.347,9.347,0,0,1-1.457-.834,6.323,6.323,0,0,1-3-4.733,10.376,10.376,0,0,1,3.425-7.379c3.014-3,6.332-6.041,9.346-9.131,0,0,3.988-4.407,4.208-4.632,0,0,1.623-2.994,3.213-5.92a53.506,53.506,0,0,0,18.834-.244l.889,5.831a54.963,54.963,0,0,1,.358,5.613c.1,2.708.621,6.658-4.027,9.562-.724.452-2.984,2.017-5.54,3.8-4.007,2.792-8.743,6.116-9.447,6.521a20.584,20.584,0,0,1-12.814,2.63A13.806,13.806,0,0,1,332.892,439.558Z"/><path class="a" d="M395.556,438.43c-.258-.134-.512-.274-.764-.419-.7-.405-5.44-3.729-9.446-6.521-2.557-1.782-4.817-3.347-5.541-3.8-4.648-2.9-4.129-6.854-4.027-9.562a54.963,54.963,0,0,1,.358-5.613s.423-2.721.86-5.54a53.927,53.927,0,0,0,16.955,0q.99-.157,1.963-.354l3.158,6.229c.22.225,4.209,4.632,4.209,4.632,3.013,3.09,6.331,6.131,9.345,9.131a10.376,10.376,0,0,1,3.425,7.379,6.323,6.323,0,0,1-3,4.733,12.134,12.134,0,0,1-5.445,1.917A20.526,20.526,0,0,1,395.556,438.43Z"/><path class="d" d="M371.456,216.133H355.5l-17.8,4.6c-4.807,13.808-4.079,28.846-3.247,43.443,2.488,43.637,4.387,97.629,7.7,141.211a52.216,52.216,0,0,0,29.277.315,52.2,52.2,0,0,0,29.273-.315c3.311-43.582,5.21-97.574,7.7-141.211.832-14.6,1.56-29.635-3.247-43.443l-16.123-4.6Z"/><path class="c" d="M335.773,220.205c-4.65,13.541-3.9,28.045-3.385,42.127s1.075,28.13,1.756,42.19c1.388,28.67,3.116,57.322,5.008,85.963q.395,5.97.8,11.939c.123,1.824-.051,3.95,1.854,4.9a20.071,20.071,0,0,0,5.056,1.315,54.977,54.977,0,0,0,22.758-.379c2.5-.586,1.445-4.443-1.064-3.858a49.93,49.93,0,0,1-18.912.679c-1.568-.245-3.125-.562-4.661-.958-.082-.021-1.232-.329-1.23-.335.038-.131.146,1.236.291,0a17.122,17.122,0,0,0-.2-2.964q-.341-5.055-.675-10.111-1.374-20.784-2.611-41.578c-1.628-27.547-3.046-55.109-4.023-82.688-.534-15.051-1.884-30.679,3.1-45.182.838-2.439-3.025-3.487-3.857-1.063Z"/><path class="c" d="M369.112,257.365q0,12.357.031,24.714.033,17.338.076,34.678.043,18.607.092,37.213.039,15.892.079,31.784.022,9.45.038,18.9,0,.526,0,1.051c0,2.574,4,2.578,4,0q0-8.378-.032-16.756-.036-15.3-.075-30.6-.047-18.488-.092-36.974-.042-17.7-.079-35.391-.027-13.189-.039-26.381v-2.243c0-2.574-4-2.578-4,0Z"/><path class="c" d="M403.224,221.268c4.692,13.655,4.007,28.254,3.2,42.451-.748,13.188-1.406,26.381-2.044,39.575-1.328,27.432-2.562,54.872-4.306,82.282q-.348,5.474-.729,10.945-.186,2.673-.382,5.346c-.016.211-.141,2.434-.181,2.436l.323-.519c-.272.079-.544.154-.818.228q-.827.22-1.662.412A50.045,50.045,0,0,1,374.3,404.4c-2.5-.584-3.573,3.271-1.064,3.858a55.186,55.186,0,0,0,21.044.677,48.8,48.8,0,0,0,5.074-1.066c1.8-.484,3.179-1.123,3.4-3.162.354-3.265.483-6.572.708-9.849.957-13.913,1.745-27.838,2.473-41.765,1.464-28.008,2.647-56.03,4.191-84.033.9-16.276,2.353-33.147-3.045-48.855-.832-2.42-4.7-1.38-3.857,1.063Z"/><path class="c" d="M344,411.435c-1.2,1.262-2.348,2.577-3.517,3.868-1.96,2.163-4.107,4.156-6.212,6.177-2.756,2.647-5.839,5.182-7.21,8.864a8.106,8.106,0,0,0,2.519,9.464c5.756,4.666,15.206,3.514,21.194-.112,5.133-3.109,9.822-6.965,14.853-10.238a10.471,10.471,0,0,0,5.121-8.381,45.256,45.256,0,0,0-.469-9.092,2.012,2.012,0,0,0-2.46-1.4,2.052,2.052,0,0,0-1.4,2.46,52.893,52.893,0,0,1,.354,6.988,6.364,6.364,0,0,1-2.395,5.448c-2.2,1.711-4.658,3.169-6.943,4.762-2.422,1.689-4.836,3.39-7.274,5.056-4.517,3.088-10.7,4.714-15.994,2.638a6.934,6.934,0,0,1-3.087-2.282,4.2,4.2,0,0,1-.231-4.064c1.122-3.043,4.154-5.275,6.417-7.448,2.072-1.99,4.178-3.957,6.108-6.087,1.147-1.267,2.274-2.557,3.451-3.8,1.773-1.866-1.051-4.7-2.828-2.828Z"/><path class="c" d="M397.658,414.263c2.628,2.765,5.116,5.6,7.864,8.252,1.237,1.195,2.482,2.381,3.717,3.577a23.479,23.479,0,0,1,3.434,3.678,7.443,7.443,0,0,1,1.377,3.817,4.074,4.074,0,0,1-1.829,3.278c-2.426,1.9-5.948,2.129-8.9,1.855a17.975,17.975,0,0,1-7.913-2.684c-4.82-3.1-9.356-6.628-14.141-9.778-2.175-1.432-3.483-3.041-3.554-5.707a46.515,46.515,0,0,1,.35-7.5,2.067,2.067,0,0,0-1.4-2.46,2.014,2.014,0,0,0-2.461,1.4,58.047,58.047,0,0,0-.5,8.179,10.344,10.344,0,0,0,2.935,7.584,24.737,24.737,0,0,0,3.515,2.578c1.514,1.032,3.017,2.083,4.521,3.131,2.709,1.889,5.4,3.8,8.139,5.651,5.537,3.741,13.623,5.077,19.8,2.168,3.109-1.464,5.675-4.5,5.4-8.089-.3-3.947-2.75-6.8-5.462-9.439s-5.595-5.2-8.168-8.009c-1.309-1.429-2.576-2.9-3.911-4.3-1.777-1.87-4.6.962-2.829,2.828Z"/><path class="a" d="M386.679,114.737a2.91,2.91,0,0,1,1.411-1.832.825.825,0,0,1,.309-.11.8.8,0,0,1,.391.091,4.513,4.513,0,0,1,1.514,1.324c.908,1.1,1.733,2.265,2.575,3.414,8.416,3.219,18.373,7.625,22.1,11.5,5.457,5.684,6.523,11.045,8.548,16.746,1.986,5.588,5.676,27.355,5.909,32.205.072,1.515-1.4,2.026-2.514,2.026-3.273,0-13.437.041-19.394.058.489,9.325,1.5,28.716,1.5,28.716.185,6.421,1.5,23.943,1.527,30.933a2.73,2.73,0,0,1-1.14,2.14,3.123,3.123,0,0,1-1.68.37h-73.97a3.086,3.086,0,0,1-1.67-.37,2.74,2.74,0,0,1-1.15-2.14c.244-7.6,1.967-25.433,2.577-30.933,0,0,1.812-17.634,2.769-26.935-6.6.009-14.869.032-20.133-.191a2.752,2.752,0,0,1-2.677-3.347,322.284,322.284,0,0,1,6.091-32.864c1.508-5.861,3.091-11.065,8.544-16.747,4.227-4.391,15.6-9.154,24.451-12.386.591-.875,1.183-1.732,1.569-2.2a4.5,4.5,0,0,1,1.514-1.324.792.792,0,0,1,.391-.091.814.814,0,0,1,.308.11,2.908,2.908,0,0,1,1.412,1.832l-.7,1.623a34.029,34.029,0,0,0,6.348,5.874c4.121,2.507,7.665,4.318,8.816,4.3,1.151.018,4.695-1.793,8.816-4.3a34.061,34.061,0,0,0,6.348-5.874Z"/><path class="a" d="M344.823,213.539l-7.676-4.241a71,71,0,0,1-10.375-6.752c-6.985-5.645-9.332-12.934-9.312-20.744,5.87.19,14.52.143,20.885.14a8.853,8.853,0,0,0,5.073,8.759c.449.2.914.368,1.378.532l27.649,18.976a102.484,102.484,0,0,1,11.984,7.3,1.79,1.79,0,0,1,.685,1.41,3.122,3.122,0,0,1-2.428,2.777,4.53,4.53,0,0,1-2.664-.14c.022.2.036.338.036.338a2.2,2.2,0,0,1-.265,1.846,2.131,2.131,0,0,1-1.365,1.013,7.68,7.68,0,0,1-2.533-.831,1.737,1.737,0,0,1-.29,2.021,3.074,3.074,0,0,1-2.565.573c-.792-.269-1.851-.634-3.11-1.177-.254-.109-.508-.231-.762-.359l-.79.686c-1.493.941-3.652,3.021-6.614,2.6a18.142,18.142,0,0,1-3.594-1.2c-1.707-.775-4.158-3.653-6.111-5.913-.682-.79-3.083-5.134-5.75-7.168Z"/><path class="c" d="M331.516,208.879c-.558,5.055-1.027,10.122-1.47,15.189-.27,3.084-.525,6.169-.743,9.257-.094,1.333-.181,2.667-.253,4a11.366,11.366,0,0,0,.09,3.728,4.5,4.5,0,0,0,4.269,3.259c.5.03,1.017.009,1.523.009h47.953c8.236,0,16.486.137,24.721,0a4.61,4.61,0,0,0,4.42-2.448,8.409,8.409,0,0,0,.491-4.057c-.07-2.7-.209-5.394-.353-8.089-.318-5.926-.723-11.847-1.015-17.774-.05-1.025-.1-2.05-.127-3.075-.077-2.568-4.078-2.579-4,0,.154,5.145.533,10.286.835,15.425.171,2.927.339,5.854.477,8.783q.088,1.858.153,3.718a10.416,10.416,0,0,1,.035,3.1c-.264.79-3.051.421-3.832.421H355.124c-6.959,0-13.918.018-20.878,0-.772,0-1.267.088-1.3-.833-.035-1.114.1-2.263.169-3.374.168-2.774.382-5.545.61-8.315q.672-8.169,1.511-16.324.135-1.3.276-2.6a2.012,2.012,0,0,0-2-2,2.047,2.047,0,0,0-2,2Z"/><path class="e" d="M355.5,216.133h33.53"/><path class="c" d="M335.35,153.912c1.371,11.163,1.549,22.447,3.335,33.566a2.014,2.014,0,0,0,2.46,1.4,2.048,2.048,0,0,0,1.4-2.46c-1.728-10.762-1.865-21.7-3.192-32.5a2.063,2.063,0,0,0-2-2,2.013,2.013,0,0,0-2,2Z"/><path class="c" d="M402.944,153.912c-.978,11.326-1.772,22.667-2.721,34-.215,2.565,3.786,2.551,4,0,.949-11.328,1.743-22.669,2.721-34,.221-2.564-3.78-2.549-4,0Z"/><path class="c" d="M371.436,211.936q3.281,1.708,6.438,3.641,1.6.984,3.168,2.027.731.487,1.452.986c.241.166.476.342.72.5-.041-.027-.224-.236-.064-.054s-.032-.04-.068-.11c.194.377.006-.039.013-.042.039-.017.053.442.019.034,0,.029-.029.329,0,.1.032-.276-.149.244-.015.025s-.345.476-.072.149a2.739,2.739,0,0,1-.2.207c-.089.087-.341.252-.115.107-.108.07-.218.132-.33.193.032-.017.261-.092.041-.016a3.347,3.347,0,0,1-.684.166c.306-.036-.282-.023-.377-.026-.333-.009.26.061-.075,0q-.261-.051-.516-.126a22.852,22.852,0,0,1-3.157-1.435c-1.66-.8-3.324-1.6-4.941-2.482a2,2,0,1,0-2.019,3.453c1.664.91,3.377,1.73,5.084,2.552a18.115,18.115,0,0,0,4.79,1.945c2.963.458,6.224-1.225,6.554-4.441a3.825,3.825,0,0,0-1.645-3.506c-1.143-.84-2.339-1.619-3.53-2.389q-4.107-2.657-8.454-4.911a2.044,2.044,0,0,0-2.736.717,2.02,2.02,0,0,0,.718,2.736Z"/><path class="c" d="M378.129,222.426q.091.332.03-.065-.009.347.042-.04a2.238,2.238,0,0,1-.131.474c.1-.233.1-.255,0-.063-.126.184-.119.177.022-.023a2.3,2.3,0,0,1-.231.221L378,222.8c-.2.106-.184.1.047-.012q.537-.043.312-.03c-.041,0-.081,0-.121-.006.806.041.33.043.076-.03-.4-.115-.788-.273-1.176-.426-.5-.2.3.134-.032-.013-.108-.047-.217-.093-.324-.141q-.429-.189-.855-.386c-2.041-.943-4.052-1.962-6.025-3.04a2,2,0,0,0-2.018,3.454c1.761.962,3.555,1.872,5.368,2.733,1.037.491,2.085.967,3.155,1.382a4.519,4.519,0,0,0,2.549.4,4.324,4.324,0,0,0,3.026-5.32,2,2,0,0,0-3.857,1.063Z"/><path class="c" d="M366.146,225.685c-.46-.187.092.046.184.089.149.071.3.144.443.218.322.164.641.334.962.5.7.364,1.416.679,2.146.98a11.293,11.293,0,0,0,3.635,1.131,4.664,4.664,0,0,0,4.061-1.926,3.914,3.914,0,0,0-.493-4.517,2.009,2.009,0,0,0-2.828,0,2.05,2.05,0,0,0,0,2.828c-.358-.417-.185-.255-.111-.113.1.194-.116-.456-.062-.127.009.055.1.433.026.065-.076-.394-.042.039-.023.074.054-.326.066-.41.035-.254a1.266,1.266,0,0,1-.041.161c-.027-.054.234-.412.072-.181.207-.241.258-.305.155-.192s-.039.061.188-.128a2.459,2.459,0,0,0-.215.139c-.056.034-.114.064-.172.093q-.2.1.177-.069a1.226,1.226,0,0,0-.25.084,2.448,2.448,0,0,0-.38.09.89.89,0,1,0,.158-.027,1.919,1.919,0,0,0-.355,0c.068-.031.461.114.211.018-.193-.075-.4-.131-.593-.2-.437-.152-.872-.309-1.3-.474q-.376-.145-.75-.3c-.075-.03-.437-.2-.083-.033-.123-.057-.247-.11-.37-.168-1.129-.531-2.2-1.147-3.36-1.618a2.006,2.006,0,0,0-2.46,1.4,2.061,2.061,0,0,0,1.4,2.46Z"/><path class="c" d="M344.9,215.4a23.443,23.443,0,0,1,4.718,5.735,32.389,32.389,0,0,0,5.273,6.006,12.6,12.6,0,0,0,7.053,3.144c2.945.274,5.129-1.39,7.449-2.893,2.153-1.4.15-4.859-2.019-3.454-1.654,1.071-3.368,2.731-5.5,2.315a9.745,9.745,0,0,1-5.368-3.128c-.972-1.007-1.866-2.08-2.8-3.122-.717-.8.162.27-.127-.136-.1-.136-.189-.275-.283-.413-.255-.377-.5-.76-.754-1.139a24.139,24.139,0,0,0-4.813-5.743,2.064,2.064,0,0,0-2.829,0,2.014,2.014,0,0,0,0,2.828Z"/><path class="a" d="M408.107,209.221c.2-.162.386-.306.54-.43-3.137-4.677-21.7-31.347-32.372-45.166-4.95,3.189-29.8,21.8-32.329,23.894,5.141,8.217,27.4,39.81,31.914,46.072C380.73,230.148,402.729,213.481,408.107,209.221Z"/><path class="c" d="M409.521,210.636q.272-.215.54-.431a2,2,0,0,0,.313-2.424c-7.853-11.694-16.1-23.156-24.411-34.523-2.617-3.575-5.255-7.135-7.961-10.643a2.044,2.044,0,0,0-2.737-.717c-4.3,2.78-8.378,5.933-12.5,8.969Q355,176.6,347.293,182.433c-1.6,1.21-3.214,2.4-4.762,3.672a2.006,2.006,0,0,0-.312,2.424c3.742,5.968,7.837,11.73,11.848,17.519q7.392,10.67,14.888,21.268c1.719,2.433,3.438,4.867,5.178,7.285a2.029,2.029,0,0,0,2.737.717c9.094-6.443,17.9-13.327,26.746-20.109,1.976-1.515,3.953-3.029,5.905-4.573a2.012,2.012,0,0,0,0-2.829,2.05,2.05,0,0,0-2.828,0c-8.44,6.678-17.623,13.528-26.5,20.14-1.77,1.318-3.538,2.642-5.338,3.917l2.736.718q-13.464-18.7-26.412-37.782c-1.865-2.741-3.741-5.481-5.5-8.29l-.312,2.423c.17-.14.343-.276.516-.413s.931-.724.5-.389q1.224-.945,2.456-1.879,3.435-2.608,6.89-5.189c5.268-3.944,10.55-7.871,15.884-11.726,1.873-1.353,3.739-2.73,5.68-3.985l-2.736-.718c9.846,12.762,19.1,26,28.3,39.237,1.368,1.97,2.739,3.938,4.076,5.929l.313-2.424c-.179.145-.359.288-.54.431a2.013,2.013,0,0,0,0,2.829A2.049,2.049,0,0,0,409.521,210.636Z"/><path class="a" d="M422.328,197.464a24.219,24.219,0,0,0,4.281-12.282c.078-.946,0-2.848,0-3.8,0,0,0-.541.007-1.279-4.037,0-16.039.052-21.181.063.006,1.787.006,3.466.006,3.466-1.137,3.5-4.142,6.553-8.443,9.149-4.633,2.8-10.4,6.083-16.529,8.022l-.438-.434c-1.5-1.507-2.882-1.97-5.424-3.015a33.015,33.015,0,0,0-3.733-.8c-1.629-.246-2.829-.5-4.471-.625-2.173-.169-3.432-.374-4.32.525a2.494,2.494,0,0,0-.666,2.006c.166,3,5.464,4.749,7.936,6.5a28.517,28.517,0,0,1-7.211,2.236,40.836,40.836,0,0,1-4.493-1.428,3.125,3.125,0,0,0-3.349,1.308,2.833,2.833,0,0,0,.687,3.535,11.615,11.615,0,0,0,1.7,1.065,5.808,5.808,0,0,0,.329,4.334A7.124,7.124,0,0,0,359.588,219,14.85,14.85,0,0,0,363.252,226a6.917,6.917,0,0,0,4.3,1.379c6.226-1.407,12.612-5.246,17.565-9.1.714-.556,2.333-2.3,3.736-2.869,3.855-1.642,9.783-2.685,14.759-4.583a62.919,62.919,0,0,0,11.292-6.167,46.748,46.748,0,0,0,6.542-6.054Q421.907,198.05,422.328,197.464Z"/><path class="c" d="M368.343,203.232a27.027,27.027,0,0,1-6.732,2.035h1.063a36.971,36.971,0,0,1-4.358-1.377,5.034,5.034,0,0,0-5.606,1.973,4.849,4.849,0,0,0,.582,5.907,12.893,12.893,0,0,0,5.837,2.957c2.488.67,3.55-3.188,1.063-3.857a12.369,12.369,0,0,1-2.882-1.129c-.228-.128-.453-.263-.671-.406,0,0-.528-.35-.383-.26a.648.648,0,0,1-.278-.465c-.053-.241-.059-.268-.02-.083.015-.227.011-.278-.014-.155-.083.289.148-.556.091-.324-.024.087,0,.054.077-.1q-.2.271.045,0c-.3.139.23-.145.26-.161.19-.1.456-.232.627-.153-.292-.136.123.078.208.109.184.067.367.137.552.2q1.211.436,2.444.805c.355.106.71.214,1.071.3a4.7,4.7,0,0,0,1.99-.031,32.313,32.313,0,0,0,7.053-2.338,2.012,2.012,0,0,0,.718-2.736,2.055,2.055,0,0,0-2.737-.718Z"/><path class="c" d="M354.755,211.144a8.644,8.644,0,0,0,3.824,9.578l-.919-1.2c.8,2.983,2.234,6.656,4.9,8.481a8.953,8.953,0,0,0,3.666,1.3,10.628,10.628,0,0,0,4.972-.9,48.369,48.369,0,0,0,10.686-5.373,54.535,54.535,0,0,0,4.643-3.348,16.094,16.094,0,0,1,3.331-2.556,2.015,2.015,0,0,0,.718-2.736,2.049,2.049,0,0,0-2.737-.718,16.858,16.858,0,0,0-3.809,2.9,40.271,40.271,0,0,1-4.54,3.247,40.778,40.778,0,0,1-11.435,5.363c-.187.05-1.34.208-.848.216a2.812,2.812,0,0,1-.583-.075,5.067,5.067,0,0,1-1.727-.588,9.184,9.184,0,0,1-2.457-3.485,15.743,15.743,0,0,1-.766-2.221,3.055,3.055,0,0,0-.673-1.463c-.3-.3-.68-.455-.986-.737a4.6,4.6,0,0,1-1.4-4.637c.667-2.489-3.191-3.551-3.857-1.063Z"/><path class="c" d="M370.362,203.232c-1.851-1.279-4.258-2.16-5.891-3.508a6.917,6.917,0,0,1-.642-.6c-.157-.188-.184-.212-.081-.075a3.634,3.634,0,0,1-.215-.333c-.257-.435.031.253-.1-.224-.116-.433,0,.365-.032-.376-.014-.361.072-.3.343-.323q.2-.043.012,0c.163-.009.326-.012.49-.009.38,0,.76.036,1.139.065,1.67.127,3.3.371,4.952.635a19.8,19.8,0,0,1,4.371,1.062,13.1,13.1,0,0,1,3.332,1.7c.533.428,1.077,1.04,1.59,1.548,1.83,1.815,4.66-1.012,2.828-2.828a15.69,15.69,0,0,0-4.942-3.554,22.486,22.486,0,0,0-4.237-1.439c-1.519-.322-3.064-.557-4.6-.776-2.551-.365-6.239-1.2-8.186,1.037-1.978,2.27-1.016,5.451,1.06,7.244,2.043,1.766,4.587,2.688,6.786,4.208a2.019,2.019,0,0,0,2.737-.717,2.041,2.041,0,0,0-.718-2.737Z"/><path class="c" d="M389.381,217.341c3.772-1.569,7.832-2.345,11.725-3.549a52.208,52.208,0,0,0,9.582-4.174c6.4-3.489,12.75-8.474,15.708-15.319a31.1,31.1,0,0,0,2.213-12.915c-.015-2.573-4.015-2.578-4,0a28.266,28.266,0,0,1-1.424,10.25,22.379,22.379,0,0,1-6.431,8.878,44.9,44.9,0,0,1-15.888,9.163c-4.151,1.346-8.51,2.129-12.548,3.809a2.065,2.065,0,0,0-1.4,2.46,2.013,2.013,0,0,0,2.46,1.4Z"/><path class="c" d="M382.308,202.3a85.128,85.128,0,0,0,15.223-7.5c4.23-2.54,8.2-5.82,9.839-10.631.833-2.442-3.03-3.49-3.857-1.063-1.373,4.026-5.168,6.555-8.648,8.626a77.6,77.6,0,0,1-13.621,6.713c-2.409.855-1.371,4.721,1.064,3.857Z"/><path class="c" d="M336.29,182.742a10.724,10.724,0,0,0,2.052,6.238,11.787,11.787,0,0,0,2.564,2.564,12.765,12.765,0,0,0,3.359,1.617,2.012,2.012,0,0,0,2.46-1.4,2.052,2.052,0,0,0-1.4-2.461c-.284-.1-.568-.2-.848-.31l-.153-.061.1.041a1.014,1.014,0,0,1-.282-.134,10.511,10.511,0,0,1-1.12-.677c-.3-.2.245.206.057.05-.08-.067-.162-.131-.241-.2-.173-.149-.341-.3-.5-.466-.148-.147-.289-.3-.426-.457-.068-.078-.134-.159-.2-.239-.284-.336.257.373.009.008a11.347,11.347,0,0,1-.662-1.058c-.108-.2-.2-.41-.3-.618-.105-.226.159.414.035.074-.035-.1-.073-.2-.106-.293a8.534,8.534,0,0,1-.333-1.265c-.027-.146-.035-.539,0,.039,0-.083-.019-.166-.027-.248-.023-.249-.032-.5-.034-.749a2,2,0,0,0-4,0Z"/><path class="c" d="M315.47,182.768c.2,6.944,2.383,13.576,7.2,18.7,5.741,6.113,13.916,9.8,21.148,13.8,2.255,1.246,4.275-2.207,2.019-3.453-6.722-3.714-14.3-7.1-19.786-12.6-4.423-4.431-6.4-10.269-6.577-16.442-.072-2.569-4.072-2.58-4,0Z"/><path class="c" d="M338.963,179.942c-4.049,0-8.1.017-12.146,0q-2.957-.012-5.911-.057-1.337-.022-2.673-.059-.576-.017-1.152-.036c-.209-.007-.417-.017-.626-.023-.384-.012-.139.017-.268,0-.314-.051-.484-.045-.643-.36a3.209,3.209,0,0,1,0-1.643c.135-1.228.26-2.1.442-3.339.475-3.207,1.022-6.4,1.6-9.593,1.178-6.519,2.417-13.056,4.1-19.468,1.855-7.081,4.991-13.833,11.367-17.9a77.5,77.5,0,0,1,11.738-5.884c2.2-.925,4.429-1.795,6.667-2.632,1.274-.476,2.272-.742,3.089-1.9.456-.646,1.184-2.127,2.026-2.323H355.5c.123.044.262.351.323.546.766,2.448,4.628,1.4,3.857-1.064-.585-1.871-2.388-3.958-4.571-3.248-1.965.639-3.192,2.841-4.278,4.443l1.195-.919c-4.059,1.486-8.085,3.073-12.029,4.845a60.507,60.507,0,0,0-10.321,5.584c-6.622,4.7-9.97,12.109-11.949,19.742-1.705,6.577-2.964,13.282-4.158,19.968-.573,3.211-1.119,6.429-1.578,9.66-.393,2.764-1.348,6.289,1.135,8.356,1.462,1.218,3.307,1.139,5.1,1.189,2.186.061,4.372.088,6.558.1,4.724.036,9.448.013,14.172.013,2.574,0,2.578-4,0-4Z"/><path class="c" d="M398.371,146.082c-5.345-.012-10.69.012-16.035,0-2.574-.006-2.578,3.994,0,4,5.345.012,10.69-.012,16.035,0,2.574.006,2.578-3.994,0-4Z"/><path class="c" d="M355.638,117.774a31.028,31.028,0,0,0,7.6,6.695,58.129,58.129,0,0,0,5.443,2.955,6.2,6.2,0,0,0,7.078,0,57.987,57.987,0,0,0,5.442-2.955,31.01,31.01,0,0,0,7.6-6.695c1.656-1.952-1.16-4.8-2.828-2.828a27.2,27.2,0,0,1-6.368,5.818c-1.612.975-3.25,1.918-4.936,2.76a17.549,17.549,0,0,1-1.634.746c-.243.092-.489.164-.736.241-.417.131.283.023-.076.023-.392,0,.43.134-.077-.023-.207-.064-.414-.124-.618-.2a16.194,16.194,0,0,1-1.751-.791c-1.686-.843-3.326-1.783-4.936-2.76a27.288,27.288,0,0,1-6.368-5.818c-1.667-1.966-4.485.875-2.829,2.828Z"/><path class="c" d="M369.99,127.415V132.1a2.068,2.068,0,0,0,.586,1.414,2,2,0,0,0,3.414-1.414v-.415a2.065,2.065,0,0,0-.585-1.414,2,2,0,0,0-3.415,1.414v.415a2.068,2.068,0,0,0,.586,1.414,2,2,0,0,0,3.414-1.414v-4.682a2.065,2.065,0,0,0-.585-1.414,2,2,0,0,0-3.415,1.414Z"/><path class="c" d="M403.85,182.17c6.254,0,12.507-.038,18.761-.056,2.666-.008,6.87.7,8.376-2.131a6.323,6.323,0,0,0,.284-3.78c-.151-1.383-.34-2.763-.535-4.14-.958-6.77-2.14-13.528-3.6-20.209a68.51,68.51,0,0,0-2.055-7.577c-1.443-4.235-2.744-8.538-5.256-12.294a24.428,24.428,0,0,0-5.052-5.7,40.538,40.538,0,0,0-5.958-3.79,134.724,134.724,0,0,0-15.407-6.8l1.195.919c-1.334-1.825-2.718-4.405-4.807-5.456-2.314-1.164-4.4.965-5.049,3.046-.77,2.463,3.091,3.516,3.857,1.064.061-.2.2-.5.323-.546h-1.063c.915.213,1.776,1.85,2.3,2.568a15.217,15.217,0,0,0,1.294,1.748,5.165,5.165,0,0,0,1.845.885c2.289.888,4.564,1.814,6.811,2.8a61.817,61.817,0,0,1,11.626,6.242,23.141,23.141,0,0,1,7.294,10.092,83.18,83.18,0,0,1,3.233,9.606c1.672,6.3,2.756,12.779,3.8,19.2.459,2.823.878,5.487,1.176,8.152.051.456.1.912.136,1.369.014.167.008.351.037.515.067.373-.028.14.054.1-.807.37-2.276.1-3.145.1-6.828.017-13.656.06-20.483.061-2.574,0-2.578,4,0,4Z"/><path class="a" d="M92.32,435.589c-1.928-1.33-5.537-3.892-8.713-6.135-2.708-1.912-5.1-3.592-5.868-4.078-4.924-3.116-4.374-7.357-4.266-10.264a59.511,59.511,0,0,1,.378-6.024s.357-2.47.718-5.021a42.449,42.449,0,0,0,10.039,1.221,54.835,54.835,0,0,0,10.344-.927c1.538,2.445,3.2,5.084,3.2,5.084.233.242,4.458,4.972,4.458,4.972,3.193,3.317,6.708,6.581,9.9,9.8a11.206,11.206,0,0,1,3.629,7.921,6.8,6.8,0,0,1-3.177,5.08,12.748,12.748,0,0,1-5.769,2.058,21.561,21.561,0,0,1-13.575-2.823C93.427,436.345,92.968,436.037,92.32,435.589Z"/><path class="a" d="M16.574,437.579q-.284-.17-.553-.36a6.786,6.786,0,0,1-3.22-5.08c-.074-3.048,1.575-5.828,3.677-7.921,3.235-3.22,6.8-6.484,10.032-9.8,0,0,4.281-4.73,4.517-4.972,0,0,1.946-2.512,3.91-5.044a54.411,54.411,0,0,0,10.115.887,42.716,42.716,0,0,0,9.968-1.2c.3,2.412.627,5,.627,5a58.616,58.616,0,0,1,.384,6.024c.11,2.907.667,7.148-4.323,10.264-.777.486-3.2,2.166-5.947,4.078-4.3,3-9.384,6.565-10.139,7a22.09,22.09,0,0,1-13.756,2.823A13.607,13.607,0,0,1,16.574,437.579Z"/><path class="c" d="M96.734,410.859c2.742,2.919,5.33,5.915,8.2,8.724,1.378,1.352,2.768,2.692,4.146,4.045a24.141,24.141,0,0,1,3.654,4.015,8.385,8.385,0,0,1,1.387,3.708,4.349,4.349,0,0,1-1.71,3.765c-2.5,2.208-6.306,2.518-9.481,2.269a18.938,18.938,0,0,1-8.687-2.9c-5.064-3.29-9.84-7.025-14.845-10.4-2.353-1.589-3.885-3.3-3.985-6.241a49.092,49.092,0,0,1,.372-8.215,2.069,2.069,0,0,0-1.4-2.461,2.014,2.014,0,0,0-2.46,1.4,62.86,62.86,0,0,0-.523,8.752,10.958,10.958,0,0,0,3.288,8.233,31.477,31.477,0,0,0,3.658,2.657c1.6,1.106,3.185,2.229,4.772,3.351,2.844,2.009,5.671,4.046,8.547,6.011,5.841,3.99,14.6,5.42,21.068,2.128,3.273-1.665,5.755-4.937,5.346-8.727-.443-4.115-3.006-7.038-5.835-9.826-2.885-2.844-5.934-5.571-8.635-8.593-1.345-1.5-2.664-3.04-4.046-4.511-1.766-1.881-4.591.952-2.829,2.828Z"/><path class="c" d="M29.613,408.031c-1.28,1.344-2.5,2.746-3.748,4.122-2.094,2.312-4.386,4.443-6.635,6.6-2.93,2.815-6.249,5.517-7.729,9.422a8.57,8.57,0,0,0,2.515,10.009c6.108,5.087,16.341,3.827,22.726-.072,5.47-3.34,10.481-7.438,15.854-10.934a11.119,11.119,0,0,0,5.478-8.895,48.331,48.331,0,0,0-.5-9.729,2.013,2.013,0,0,0-2.46-1.4,2.053,2.053,0,0,0-1.4,2.461A58.935,58.935,0,0,1,54.1,417a7.075,7.075,0,0,1-2.584,6.088c-2.294,1.8-4.885,3.33-7.28,5-2.628,1.833-5.249,3.677-7.892,5.488-4.945,3.387-11.8,5.3-17.6,2.883a7.244,7.244,0,0,1-3.429-2.763,4.712,4.712,0,0,1-.1-4.088c1.132-3.234,4.28-5.568,6.665-7.858,2.3-2.214,4.658-4.4,6.8-6.766,1.246-1.375,2.469-2.778,3.748-4.122,1.775-1.865-1.049-4.7-2.828-2.828Z"/><path class="d" d="M61.239,320.825c-1.345,27.683-2.372,54.963-3.229,82.038-2.609,1.667-8.282,2.353-12.958,2.425a67.657,67.657,0,0,1-16.739-2.283c-2.289-52.556-4.648-111.083-6.1-164.575,22.092.072,57.378-.039,84.844.024-1.393,53.656-3.408,111.626-5.714,164.551a67.586,67.586,0,0,1-16.736,2.283c-4.678-.072-10.354-.759-12.96-2.428-1.468-46.324-3.43-93.246-6.635-141.766h-.368Q62.647,291.337,61.239,320.825Z"/><path class="c" d="M105.352,226.514q-.981,40.2-2.33,80.385-1.349,40.5-3.033,81-.23,5.488-.466,10.976a24,24,0,0,0-.118,2.724l.474-.3q-.471.111-.942.217-.708.161-1.418.312c-1.878.4-3.771.757-5.675,1.013a50.622,50.622,0,0,1-11.073.255c-2.675-.229-5.773-.533-8.114-1.962l.991,1.727q-.867-27.3-1.99-54.589-1.164-27.756-2.709-55.493-.892-15.847-1.936-31.684c-.169-2.555-4.17-2.574-4,0Q65.392,297.167,67,333.285q.8,17.709,1.466,35.424.327,8.733.627,17.466.156,4.533.305,9.065.066,2.025.131,4.05l.069,2.142a5.2,5.2,0,0,0,.319,2.438c.525.9,1.82,1.321,2.735,1.673a19.487,19.487,0,0,0,3.21.884,47.9,47.9,0,0,0,7.554.83,57.972,57.972,0,0,0,17.287-2.047c3.169-.879,2.722-4.143,2.835-6.792q.177-4.111.35-8.224.36-8.555.7-17.11,1.4-34.752,2.537-69.513,1.134-34.431,2.016-68.869.105-4.095.2-8.188c.063-2.575-3.937-2.574-4,0Z"/><path class="c" d="M62.645,261.094q-1.853,28.065-3.231,56.158-1.362,27.519-2.36,55.054-.564,15.277-1.044,30.557l.99-1.727c-2.063,1.257-4.73,1.608-7.09,1.862a50.023,50.023,0,0,1-9.673.106c-1.748-.152-3.483-.4-5.211-.71-.359-.064-5.213-.939-5.2-1.085l.415.448a4.125,4.125,0,0,0-.012-.648c-.009-.3-.026-.595-.039-.891q-.053-1.228-.106-2.456-.112-2.582-.223-5.161Q29,372.624,28.19,352.646q-1.669-41.193-3.025-82.4-.717-22.449-1.277-44.9c-.062-2.57-4.063-2.579-4,0q.838,34.27,2.07,68.529,1.217,34.736,2.669,69.462.7,16.989,1.439,33.976l.174,4.017a3.84,3.84,0,0,0,1.528,3.385,11.338,11.338,0,0,0,3.823,1.076c1.5.31,3,.587,4.519.812a53.387,53.387,0,0,0,16.728,0,17.025,17.025,0,0,0,5.957-1.876c1.42-.857,1.228-2.3,1.275-3.767q.077-2.382.154-4.764.29-8.834.6-17.665.634-17.785,1.4-35.567,1.574-36.474,3.841-72.914.282-4.477.579-8.955c.169-2.57-3.832-2.56-4,0Z"/><path class="a" d="M90.135,42.816c-3.252-6.738-10.658-13.294-27.166-13.294-33.96,0-27.741,27.742-27.741,27.742A4.464,4.464,0,0,0,32,56.082a4.143,4.143,0,0,0-3.723,2.068c-1.265,2.194-1.212,6.237-.363,8.738a13.5,13.5,0,0,0,3.962,6.424,4.829,4.829,0,0,0,4.107,1.03A33.973,33.973,0,0,0,42.427,86.5a25.134,25.134,0,0,0,9.1,7.266c-.1,1.133-.256,2.21-.457,3.379-.365,2.02-.243,3.82-3.054,4.836-.122.045-4.1,2.154-6.907,3.44-.124,2.132-.157,16.707,22.687,16.707,21.8,0,23.829-16.966,23.829-16.966-2.806-1.29-6.762-3.136-6.883-3.181-2.811-1.016-2.689-2.816-3.054-4.836a37.387,37.387,0,0,1-.493-3.86c6.753-3.578,12.093-12.773,13.058-15.394a29.084,29.084,0,0,0,1.307-3.545l.363.061a4.919,4.919,0,0,0,3.8-1.1,13.5,13.5,0,0,0,3.962-6.424c.849-2.5.9-6.544-.363-8.738A4.143,4.143,0,0,0,95.6,56.082a4.464,4.464,0,0,0-3.229,1.182A26.788,26.788,0,0,0,90.135,42.816Z"/><path class="c" d="M42.219,107.1c1.6-.74,3.182-1.534,4.754-2.339l1.6-.824c.125-.064.254-.124.376-.193.1-.058.311-.179-.215.095.313-.163.66-.264.977-.422A5.664,5.664,0,0,0,52.7,99.482a47.1,47.1,0,0,0,.83-5.712,2.007,2.007,0,0,0-2-2,2.053,2.053,0,0,0-2,2c-.025.28-.052.56-.084.84-.016.139-.032.278-.05.417.021-.149.022-.153,0-.01-.069.5-.149.993-.234,1.488-.109.637-.184,1.282-.321,1.914-.046.215-.266.62-.238.822-.029-.213.171-.352,0-.038-.039.071-.081.142-.126.21q-.18.26.089-.1a3.179,3.179,0,0,1-.272.288q-.241.207.079-.043c-.082.06-.165.117-.251.17-.139.088-.286.16-.429.24-.2.094-.211.1-.021.019q-.336.122-.661.27c-2.292,1.082-4.5,2.331-6.808,3.394a2.009,2.009,0,0,0-.717,2.737,2.057,2.057,0,0,0,2.736.717Z"/><path class="c" d="M88.635,103.436q-2.226-1.025-4.448-2.057c-.961-.446-1.915-.934-2.9-1.322-.559-.219.152.108-.123-.047-.165-.094-.339-.17-.5-.271-.085-.052-.167-.108-.247-.166.215.171.243.187.081.05-.009-.01-.277-.276-.271-.28.18.245.21.281.088.111-.044-.067-.087-.135-.126-.2s-.289-.5-.1-.189c.173.293-.029-.121-.055-.209-.045-.155-.082-.312-.115-.47-.124-.584-.194-1.178-.3-1.767-.206-1.208-.283-1.716-.384-2.844a2.043,2.043,0,0,0-2-2,2.022,2.022,0,0,0-2,2,48.331,48.331,0,0,0,.822,5.675,5.666,5.666,0,0,0,3.009,3.982c.314.155.641.289.968.416.619.242-.536-.251-.221-.1.123.059.248.113.371.17q.856.395,1.711.792,2.361,1.1,4.723,2.185a2.049,2.049,0,0,0,2.737-.718,2.024,2.024,0,0,0-.718-2.736Z"/><path class="f" d="M46.021,47.224a85.413,85.413,0,0,0-6.227,6.205l-4.566,3.835A4.464,4.464,0,0,0,32,56.082a5.289,5.289,0,0,0-1.393.223,37.717,37.717,0,0,1-1.4-11.3A34.225,34.225,0,0,1,43.34,18.227a33.505,33.505,0,0,1,20.375-6.5,33.945,33.945,0,0,1,21.149,7.064c6.388,4.824,12.809,13.114,13.363,26.22a36.38,36.38,0,0,1-1.363,11.257,5.5,5.5,0,0,0-1.268-.184,4.464,4.464,0,0,0-3.229,1.182l-4.531-3.591c-1.463-3.681-4.767-7.749-8.213-10.714a18.345,18.345,0,0,0-5.229-3.289l-5.676-.7c-3.829,1.613-9.228,5-12.258,6.684a1.036,1.036,0,0,1-1.477-1.113,5.471,5.471,0,0,0-.131-1.991c-.2-.832-.841-1.185-1.339-.924A41.1,41.1,0,0,0,46.021,47.224Z"/><path class="c" d="M36.642,55.849a6.871,6.871,0,0,0-7.483-1.115,6.53,6.53,0,0,0-3.417,4.395,16.4,16.4,0,0,0,2.381,12.944c1.68,2.5,4.332,4.752,7.548,4.335a2.066,2.066,0,0,0,2-2,2.012,2.012,0,0,0-2-2c-2.258.293-3.736-1.575-4.715-3.382a13.166,13.166,0,0,1-1.6-4.983,12.124,12.124,0,0,1,.078-3.107,5.222,5.222,0,0,1,.778-2.1c-.319.5.513-.446.229-.236a1.985,1.985,0,0,1,.957-.437,2.661,2.661,0,0,1,2.418.517c1.916,1.709,4.754-1.11,2.829-2.829Z"/><path class="c" d="M93.782,58.678a2.631,2.631,0,0,1,2.287-.545,2.088,2.088,0,0,1,1.088.465c-.282-.208.54.729.229.236a5.241,5.241,0,0,1,.778,2.1,12.033,12.033,0,0,1,.078,3.107,13.178,13.178,0,0,1-1.6,4.983c-.979,1.806-2.456,3.675-4.715,3.382a2.01,2.01,0,0,0-2,2,2.052,2.052,0,0,0,2,2c5.235.679,8.449-4.975,9.757-9.206,1.173-3.8,1.123-9.684-2.588-12.114a6.834,6.834,0,0,0-8.14.761c-1.925,1.718.912,4.539,2.829,2.829Z"/><path class="c" d="M90.171,71.718a28.888,28.888,0,0,1-1.3,4.337c-.193.508-.348.826-.58,1.4-.2.506.139-.279-.034.083-.063.131-.121.264-.184.395a36.918,36.918,0,0,1-3.178,5.289c-2.764,3.917-6.547,8.2-11.407,9.337-2.5.588-1.444,4.446,1.064,3.857,5.742-1.35,10.16-6.145,13.487-10.742a37.839,37.839,0,0,0,3.454-5.652c.2-.426.389-.859.572-1.3.216-.517-.149.347.079-.183.149-.345.3-.691.434-1.04a28.808,28.808,0,0,0,1.452-4.724c.524-2.512-3.331-3.586-3.857-1.063Z"/><path class="c" d="M33.485,72.679c2.466,10.814,10.6,22.6,22.291,24.367a2.066,2.066,0,0,0,2.46-1.4,2.015,2.015,0,0,0-1.4-2.46c-10.394-1.568-17.309-11.981-19.5-21.573-.572-2.509-4.429-1.447-3.857,1.063Z"/><path class="c" d="M83.783,15.6a37.58,37.58,0,0,0-35.295-2.7A36.563,36.563,0,0,0,29.033,34.584,38.851,38.851,0,0,0,28.54,56.32c.633,2.493,4.492,1.437,3.857-1.063-2.65-10.439-.719-21.779,6.39-30.069a32.994,32.994,0,0,1,42.977-6.136c2.167,1.4,4.175-2.059,2.019-3.454Z"/><path class="c" d="M98.912,56.32a39.648,39.648,0,0,0-.638-22.25,35.262,35.262,0,0,0-9.642-14.748c-1.9-1.73-4.736,1.091-2.829,2.829a31.079,31.079,0,0,1,8.614,12.983,35.709,35.709,0,0,1,.638,20.123c-.609,2.5,3.247,3.567,3.857,1.063Z"/><path class="c" d="M58.219,81.864A12.224,12.224,0,0,0,64.1,83.236a9.691,9.691,0,0,0,6.042-1.828,2,2,0,0,0,0-2.829,2.062,2.062,0,0,0-2.828,0c.69-.537-.033-.007-.252.108-.169.089-.625.23,0,.019-.161.054-.317.121-.479.173-.2.066-.41.122-.618.17a5.116,5.116,0,0,0-.72.136c.207-.084.318-.038.017-.008-.131.013-.263.024-.394.032q-.475.03-.951.027-.428,0-.852-.031c-.13-.009-.26-.019-.39-.032l-.222-.025q-.236-.028.178.024c-.093.056-.53-.095-.641-.12q-.308-.068-.609-.158c-.175-.052-.346-.115-.519-.174-.452-.155.417.2.008.007-.215-.1-.426-.207-.636-.317a2,2,0,1,0-2.018,3.454Z"/><path class="c" d="M62.835,68.33a26.393,26.393,0,0,1,.62,2.833l-.072-.531a1.7,1.7,0,0,1,.011.391l.071-.532a.887.887,0,0,1-.043.176l.2-.478a.688.688,0,0,1-.062.113l.312-.405a.572.572,0,0,1-.092.092l.405-.313a1.934,1.934,0,0,1-.225.119l.478-.2a1.606,1.606,0,0,1-.378.11l.531-.071a1.5,1.5,0,0,1-.354,0l.531.072c-.134-.019-.265-.051-.4-.07a1.512,1.512,0,0,0-.8-.035,1.489,1.489,0,0,0-.744.237,2,2,0,0,0-.718,2.736,1.919,1.919,0,0,0,1.2.92c.353.047.7.136,1.055.151a3.462,3.462,0,0,0,1.618-.393,2.454,2.454,0,0,0,1.325-1.6,3.793,3.793,0,0,0-.014-1.666c-.154-.912-.365-1.817-.6-2.712a2,2,0,0,0-2.46-1.4,2.025,2.025,0,0,0-1.2.919,2.1,2.1,0,0,0-.2,1.541Z"/><path class="c" d="M48.384,60.162c-.474,1.537-.165,5.074,2.747,5.375,3.85-.023,4.055-4.3,2.759-6.31C52.829,57.581,49.709,56.9,48.384,60.162Z"/><path class="c" d="M79.211,60.162c.473,1.537.165,5.074-2.747,5.375-3.85-.023-4.055-4.3-2.759-6.31C74.766,57.581,77.886,56.9,79.211,60.162Z"/><path class="c" d="M73.385,41.4a22.251,22.251,0,0,1,7.27,5.3,30.561,30.561,0,0,1,3.019,3.619c.465.663.9,1.346,1.3,2.05q.275.48.523.974c.1.193.185.387.278.581a1.3,1.3,0,0,1,.127.289,2.064,2.064,0,0,0,2.46,1.4,2.013,2.013,0,0,0,1.4-2.46,29.488,29.488,0,0,0-6.111-9.1,25.718,25.718,0,0,0-8.249-6.1,2.066,2.066,0,0,0-2.737.718,2.014,2.014,0,0,0,.718,2.736Z"/><path class="c" d="M41.208,54.843a82.843,82.843,0,0,1,6.99-6.882,45.33,45.33,0,0,1,3.934-3.127,21.915,21.915,0,0,0,1.884-1.2l.255-.143Q52.6,42.345,53,43.435a6.687,6.687,0,0,0-.015,1.267,3.071,3.071,0,0,0,3.731,2.987,16.917,16.917,0,0,0,3.951-2.15A83.445,83.445,0,0,1,69.727,40.7a2.012,2.012,0,0,0,.718-2.736,2.054,2.054,0,0,0-2.737-.718,84.806,84.806,0,0,0-9.216,4.931c-.679.4-1.357.794-2.038,1.185a3.711,3.711,0,0,0-.765.435q1.385,1.58,1.323.4A5.169,5.169,0,0,0,57,43.435c-.124-1.823-1.022-3.885-3.154-3.882-1.419,0-2.906,1.238-4.014,2.024-1.446,1.026-2.83,2.143-4.171,3.3a82.294,82.294,0,0,0-7.282,7.136c-1.72,1.907,1.1,4.745,2.828,2.828Z"/><path class="a" d="M35.607,238.454c-5.227,0-10.085-.012-14.4-.027a2.1,2.1,0,0,1-2.27-1.88c0-9.65.97-31.79,1.38-40.23,0,0,.636-16.121,1.14-28.8-5.641-.2-12.2-.471-17.82-.613a1.7,1.7,0,0,1-1.638-1.934c1.172-8.025,2.132-17.165,3.958-25.067,2.273-9.836,4.407-17.972,15.345-25.014a56.691,56.691,0,0,1,8.667-4.432c3.127-1.323,7.888-3.653,11.015-4.975,0,0,1.615-.747,2.728-1.26.832-1.231,1.9-2.841,2.488-3.558a6.639,6.639,0,0,1,.937-.973l2.068,3.183a34.965,34.965,0,0,0,6.526,6.037c4.236,2.578,7.878,4.439,9.062,4.421,1.183.018,4.826-1.843,9.062-4.421a34.989,34.989,0,0,0,6.525-6.037l2.17-3.1a7.312,7.312,0,0,1,.835.888c.5.608.979,1.235,1.445,1.872,6.33,2.21,18.947,5.955,22.848,7.941a41.643,41.643,0,0,1,6.6,3.9,30.042,30.042,0,0,1,9.629,14.961l1.137,4.934-15.78,59.675c.29,8.87,1.11,32.85,1.32,42.47a2.271,2.271,0,0,1-2.48,2.04C85.505,238.4,57.351,238.468,35.607,238.454Z"/><path class="a" d="M57.6,167.209a12.1,12.1,0,0,0,5.621-4.131c2.45-3.185,3.253-4.876,6.373-7.407a11.216,11.216,0,0,1,2.5-1.646,12.61,12.61,0,0,1,3.537-.794c2.24-.28,12.348-.262,14.781-.262h7.516c-5.079,7.84-10.771,16.647-15.621,24.2-1.054-.563-2.849,2.961-9.627,6.26-1.764.859-5.772.632-9.093-.107a206.47,206.47,0,0,1-27.279,11.024c-3.178,1-13.373,2.65-17.287,1.679C9.178,193.579,6.005,185.8,5.964,177.009c-.024-5.132-.005-9.31,0-10.04,8.4.251,18.21.713,23.932.773,0,2.581,0,5.518,0,5.518,9.5-2.246,18.459-2.667,27.713-6.051"/><path class="c" d="M47.786,104.289a31.761,31.761,0,0,0,7.769,6.856,61.813,61.813,0,0,0,5.451,2.974,9.451,9.451,0,0,0,3.782,1.214,9.446,9.446,0,0,0,3.781-1.214,61.813,61.813,0,0,0,5.451-2.974,31.74,31.74,0,0,0,7.769-6.856c1.656-1.953-1.16-4.8-2.828-2.828a27.948,27.948,0,0,1-6.542,5.98c-1.663,1.007-3.354,1.979-5.093,2.848-.536.267-1.075.536-1.634.751-.244.094-.5.156-.742.248-.477.18.086.045-.162.045-.364,0,.35.109-.069-.019-.281-.086-.56-.168-.836-.274-.5-.194-.989-.432-1.472-.671-1.8-.887-3.542-1.889-5.254-2.928a28.058,28.058,0,0,1-6.543-5.98c-1.667-1.967-4.484.875-2.828,2.828Z"/><path class="c" d="M51.85,100.675c-.758-2.424-3.194-4.441-5.636-2.773-1.831,1.251-3.019,3.51-4.234,5.312l.718-.718c-2.986,1.377-5.99,2.71-8.974,4.089-3.685,1.7-7.493,3.179-11.046,5.151-6.264,3.476-11.684,8.448-14.726,15.014-2.9,6.265-4.259,13.328-5.382,20.1-.728,4.386-1.294,8.8-1.891,13.2q-.209,1.547-.427,3.093a7.2,7.2,0,0,0-.1,3.156c.671,2.194,2.664,2.585,4.67,2.641,8.373.232,16.742.712,25.118.8,2.575.028,2.577-3.972,0-4-7.286-.081-14.569-.468-21.851-.706q-1.434-.047-2.866-.088a4.555,4.555,0,0,0-1.39-.038c-.553.2.12-.13.069.094-.117.508.5-.671.118-.149.223-.307.164-1.152.216-1.527q.108-.774.213-1.549.231-1.686.456-3.373c.582-4.332,1.171-8.665,1.955-12.965C8,139.179,9.28,132.425,12.4,126.8c3.645-6.561,9.952-10.759,16.654-13.781,3.84-1.732,7.673-3.487,11.523-5.2a20.777,20.777,0,0,0,4.338-2.028,12.277,12.277,0,0,0,1.959-2.692c.417-.6,1.051-1.787,1.808-1.963H47.622c.225.08.308.4.371.6.766,2.449,4.628,1.4,3.857-1.063Z"/><path class="c" d="M126.971,133.741a62.57,62.57,0,0,0-1.811-7.061,32.335,32.335,0,0,0-7.584-11.959c-5.23-5.246-12.512-7.619-19.381-9.892-4.277-1.415-8.584-2.741-12.839-4.221l1.2.919c-1.17-1.586-2.508-3.825-4.6-4.246-2.058-.413-3.686,1.661-4.228,3.394-.77,2.462,3.09,3.516,3.857,1.063.063-.2.146-.519.371-.6H80.89c1.117.26,1.761,2.053,2.52,2.812a7.483,7.483,0,0,0,2.844,1.183c1.928.645,3.863,1.269,5.8,1.895,3.939,1.276,7.9,2.523,11.772,3.982a40.815,40.815,0,0,1,8.425,4.324c3.612,2.46,6.487,6.581,8.286,10.5a45.73,45.73,0,0,1,2.58,8.968c.578,2.507,4.435,1.446,3.857-1.063Z"/><path class="c" d="M62.555,114.239v4.812a2.062,2.062,0,0,0,.586,1.414,2,2,0,0,0,3.414-1.414v-.426a2.064,2.064,0,0,0-.586-1.415,2,2,0,0,0-3.414,1.415v.426a2.062,2.062,0,0,0,.586,1.414,2,2,0,0,0,3.414-1.414v-4.812a2.064,2.064,0,0,0-.586-1.415,2,2,0,0,0-3.414,1.415Z"/><path class="c" d="M107.262,193.947c.329,10.048.673,20.1.979,30.143q.115,3.783.221,7.567.042,1.513.08,3.029c.01.436-.012.888.031,1.322.009.087-.085.492.036.335.093-.121-.213.095-.317.1-3.2.135-6.435,0-9.639,0q-5.15-.006-10.3-.006-20.538,0-41.076.021-9.321,0-18.641-.009-1.994,0-3.986-.009a21.308,21.308,0,0,1-3.636-.034c-.1-.019-.238-.084-.082.144a2.26,2.26,0,0,1,0-.672q0-.725.011-1.451.019-1.787.06-3.573c.246-11.515.749-23.03,1.307-34.534.125-2.573-3.875-2.567-4,0-.521,10.745-.979,21.5-1.253,32.251-.062,2.4-.113,4.794-.125,7.191a4.237,4.237,0,0,0,1.651,3.845c1.345.94,2.912.824,4.472.829q9.168.027,18.336.023,21.481,0,42.965-.022,10.521,0,21.043.017c1.673,0,3.551.249,5.071-.595a4.124,4.124,0,0,0,2.1-3.848c-.015-2.156-.108-4.314-.17-6.469-.313-10.948-.687-21.895-1.05-32.842q-.046-1.375-.091-2.75c-.084-2.568-4.084-2.579-4,0Z"/><path class="a" d="M122.042,139.115a186.368,186.368,0,0,1,6.539,26.179c.831,4.406,2.04,9.41,1.752,14.606-.248,4.477-3.871,13.973-11.794,15.259-5.52.9-11.2-1.3-15.324-5.078Z"/><path class="c" d="M120.114,139.646A225.862,225.862,0,0,1,127.5,170.2c.88,4.746,1.445,9.315-.074,13.694-1.2,3.455-3.442,6.915-6.819,8.551-5.274,2.555-11.941-.156-15.978-3.778-1.911-1.715-4.749,1.1-2.828,2.828,4.691,4.209,10.938,6.659,17.27,5.593,4.727-.8,8.425-4.385,10.623-8.481a23.059,23.059,0,0,0,2.541-13.366,101,101,0,0,0-1.649-10.076c-.616-3.215-1.245-6.425-1.955-9.62a168.958,168.958,0,0,0-4.66-16.962c-.812-2.429-4.677-1.388-3.857,1.063Z"/><path class="g" d="M74.469,191.071c13.328-1.307,29.609-2.932,35.014-3.738a.533.533,0,0,0,.374-.25c11.624-18.633,22.907-37.725,33.674-56.145a.539.539,0,0,0-.483-.814c-7.252.265-24.593,1.027-31.054,1.551a.509.509,0,0,0-.4.237c-2.169,3.32-28.47,43.786-37.636,58.332A.539.539,0,0,0,74.469,191.071Z"/><path class="c" d="M74.469,193.071c8.722-.855,17.445-1.707,26.157-2.664,2.959-.325,5.92-.653,8.868-1.07,2.232-.316,3.211-3.043,4.281-4.769q2.125-3.428,4.231-6.867,8.209-13.4,16.2-26.943,3.981-6.726,7.931-13.471l1.806-3.085c.608-1.039,1.668-2.29,1.668-3.549,0-2.4-2.357-2.538-4.138-2.47q-10.407.4-20.81.95c-2.852.153-5.729.243-8.571.535-1.8.185-2.475,1.628-3.354,2.978q-8.422,12.945-16.806,25.915c-6.433,9.946-12.878,19.885-19.2,29.9a3.977,3.977,0,0,0-.847,2.082A2.546,2.546,0,0,0,73.937,193c2.516.472,3.594-3.382,1.063-3.858l-.3-.056.883.514-.21-.2.514.883-.08-.277v1.063a12.22,12.22,0,0,1,1.327-2.1q.856-1.352,1.717-2.7,1.917-3.007,3.843-6.008,4.525-7.053,9.075-14.092,8.5-13.164,17.039-26.305,1.487-2.289,2.975-4.576l.946-1.455c.115-.177.228-.355.345-.53.107-.159.431-.46.11-.148l-.882.515a23.617,23.617,0,0,1,2.556-.2q1.81-.117,3.622-.218,4.372-.246,8.747-.451t8.742-.394q1.914-.082,3.828-.159a14.93,14.93,0,0,1,3.009-.128l-.883-.514.2.194-.515-.883.076.267v-1.064a11.988,11.988,0,0,1-1.433,2.473l-1.566,2.674q-1.635,2.79-3.274,5.577-3.183,5.412-6.386,10.812-6.534,11.007-13.192,21.939-1.911,3.13-3.835,6.251-.9,1.457-1.8,2.909a19.022,19.022,0,0,1-1.91,3.08l.883-.515a7.448,7.448,0,0,1-2.223.354c-1.137.143-2.274.276-3.413.407q-4.288.49-8.583.932c-6.823.714-13.651,1.387-20.478,2.057a2.056,2.056,0,0,0-2,2A2.014,2.014,0,0,0,74.469,193.071Z"/><path class="a" d="M95.193,187.394q-.206-.108-.412-.22c-3.761-2.046-10.94-10.666-11.762-11.979a5.012,5.012,0,0,1-.541-3.438,2.393,2.393,0,0,1,1.608-1.788,2.641,2.641,0,0,1,2.147.253l-.517-.773a3.678,3.678,0,0,1-.33-2.827,2.791,2.791,0,0,1,1.96-1.529,3.887,3.887,0,0,1,.821-.024l-.1-.509a4.4,4.4,0,0,1,.234-2.51,2.6,2.6,0,0,1,1.736-1.336,3.842,3.842,0,0,1,2.685.315l-.065-.234a3.469,3.469,0,0,1,.289-2.863,2.87,2.87,0,0,1,2.639-1.32,5.527,5.527,0,0,1,2.488,1.039c.377.3,1.415,1.324,2.673,2.57l.6.6.987-2.887c.478-1.4,1.742-1.664,3.216-1.536,1.248.108,2.721,1.4,3.855,2.6a11.192,11.192,0,0,1,3.17,6.618c.576,3.252,1.311,6.749,1.817,10.5a11.74,11.74,0,0,1,.014,2.77,6.629,6.629,0,0,1-1,2.538,18.35,18.35,0,0,1-6.967,6.393,12.327,12.327,0,0,1-3.331,1.425,7.992,7.992,0,0,1-2.591.039A19.024,19.024,0,0,1,95.193,187.394Z"/><path class="c" d="M92.712,174.5c-1.1-1.2-2.115-2.466-3.143-3.723a7,7,0,0,0-3.5-2.776,4.535,4.535,0,0,0-4.941,1.874,6.25,6.25,0,0,0-.392,5.139c.663,1.969,2.446,3.672,3.776,5.209a66.341,66.341,0,0,0,5.972,6.2,19.858,19.858,0,0,0,8.239,4.493,10.017,10.017,0,0,0,5.561.084,20.052,20.052,0,0,0,4.916-2.531,17.718,17.718,0,0,0,6.7-7.565,11.179,11.179,0,0,0,.355-5.811c-.308-2.187-.7-4.36-1.107-6.53a37.838,37.838,0,0,0-1.4-6.4,13.772,13.772,0,0,0-3.072-4.731c-1.522-1.582-3.334-3.032-5.624-3.059a4.594,4.594,0,0,0-4.645,3.03,2.013,2.013,0,0,0,1.4,2.46,2.05,2.05,0,0,0,2.46-1.4c.1-.254-.076.03-.03.007a1.558,1.558,0,0,1,.655-.1,1.987,1.987,0,0,1,1.29.414,11.129,11.129,0,0,1,2.923,2.977c1.521,2.276,1.7,5.248,2.189,7.869.316,1.692.626,3.384.892,5.084a9.662,9.662,0,0,1,.057,4.615,12.771,12.771,0,0,1-4.373,5.22c-2.041,1.5-4.6,3.224-7.244,2.714a15.024,15.024,0,0,1-6.275-2.785,58.248,58.248,0,0,1-8.812-9.237q-.178-.224-.356-.448c-.289-.367.183.264-.111-.149a4.657,4.657,0,0,1-.482-.714c-.23-.5-.536-1.941.24-2.081.747-.135,1.841,1.669,2.22,2.133.926,1.134,1.85,2.272,2.839,3.352,1.743,1.9,4.566-.933,2.829-2.829Z"/><path class="c" d="M87.443,168.44c-.032-.052-.061-.115-.1-.164-.139-.187.09.191.062.175-.083-.047-.119-.376-.141-.475a.8.8,0,0,0-.042-.215c.021.018.025.39.029.167,0-.169-.007-.341-.007-.51,0-.377-.078.411.016-.079,0-.016.058-.179.052-.185.01.009-.183.39-.072.2s-.108.132-.119.134c.03-.006.119-.132.143-.156s.156-.152.157-.15-.361.239.008,0c.084-.054.464-.206.2-.128-.376.11.407-.036,0,0-.319.026.271,0,.341,0,.364-.013-.359-.031.111.023.226.026-.156-.029-.144-.072l.193.112c.2.095-.131-.155-.057-.039a1.66,1.66,0,0,0,.23.229c1.31,1.338,2.559,2.738,3.836,4.107.666.714,1.33,1.433,2.022,2.122A2,2,0,0,0,97,170.711c-1.579-1.572-3.061-3.245-4.579-4.875a18.83,18.83,0,0,0-1.667-1.722,4.356,4.356,0,0,0-3.081-1.05,4.91,4.91,0,0,0-2.96,1.2c-1.766,1.453-1.884,4.326-.72,6.2a2,2,0,0,0,3.454-2.019Z"/><path class="c" d="M89.993,164.028a2.3,2.3,0,0,1,.093-1.054c.083-.242.09-.268.02-.08q-.216.222.026-.035l.14-.128q-.224.186.069-.009c.448-.131-.187.006.225-.079.237-.048.25-.058.041-.03.131-.011.263-.016.394-.014.5-.016-.228-.1.26.023a3.931,3.931,0,0,1,.386.106q.34.12.072.028c.064.034.521.331.242.117a1.917,1.917,0,0,1,.152.134c.129.121.26.241.388.364.412.393.818.794,1.224,1.194,2,1.966,3.944,4.029,6.112,5.808a2.056,2.056,0,0,0,2.828,0,2.015,2.015,0,0,0,0-2.828c-2-1.638-3.8-3.525-5.633-5.336-.7-.689-1.381-1.4-2.116-2.053a5.908,5.908,0,0,0-5.413-1.37,4.628,4.628,0,0,0-2.891,2.172,6.484,6.484,0,0,0-.477,4.133,2.017,2.017,0,0,0,2.461,1.4,2.046,2.046,0,0,0,1.4-2.46Z"/><path class="c" d="M94.583,160.263c-.044-.158-.081-.318-.11-.48.023.159.025.119.006-.118a3.409,3.409,0,0,1,.016-.391q-.039.337.032-.006.115-.33-.017-.015c.049-.106.1-.21.16-.312.125-.194.127-.2,0-.03.169-.155.17-.168,0-.041a2.609,2.609,0,0,1,.319-.187c-.186.074-.165.073.065-.006.236-.045.263-.06.079-.043a4.36,4.36,0,0,1,.442-.022q-.412-.079-.05,0c.12.03.239.066.355.107.406.122-.1-.084.239.1.207.113.413.223.617.341.078.048.155.1.23.152q-.438-.346-.241-.184c.127.145.3.266.439.4.458.429.9.871,1.351,1.312a76.964,76.964,0,0,0,7.259,6.79,2.011,2.011,0,0,0,2.736-.717,2.049,2.049,0,0,0-.717-2.736c.246.186.284.23.052.035-.1-.086-.206-.171-.308-.258-.235-.2-.466-.406-.695-.613-.547-.494-1.082-1-1.613-1.512-1.127-1.082-2.235-2.184-3.346-3.284-2.143-2.121-4.623-4.747-7.987-3.693-2.815.882-3.858,3.783-3.177,6.478a2,2,0,1,0,3.857-1.064Z"/><path class="c" d="M58.613,168.936a16.059,16.059,0,0,0,4.616-2.86,31.078,31.078,0,0,0,3.57-4.487,23.281,23.281,0,0,1,3.253-3.688,9.408,9.408,0,0,1,5.579-2.67c4.861-.552,9.9-.263,14.781-.262,2.574,0,2.578-4,0-4-5.209,0-10.592-.32-15.765.391-4.383.6-7.688,3.473-10.313,6.887a56.674,56.674,0,0,1-3.467,4.533,12.634,12.634,0,0,1-4.273,2.7,2.014,2.014,0,0,0-.717,2.737,2.049,2.049,0,0,0,2.736.717Z"/><path class="c" d="M77.056,162.807c-.425.33.153-.069.284-.138.06-.031.424-.2.132-.072s.113-.035.143-.044c.194-.064.392-.115.591-.161a1.379,1.379,0,0,0,.322-.066c-.007.021-.532.056-.133.029.364-.025.728-.075,1.09-.116,1.387-.158,2.773-.321,4.162-.45a2.159,2.159,0,0,0,1.414-.586,2,2,0,0,0-1.414-3.414c-1.473.137-2.943.313-4.413.478-.567.064-1.141.1-1.7.192a7.205,7.205,0,0,0-3.3,1.52,1.991,1.991,0,0,0-.586,1.414,2.036,2.036,0,0,0,.586,1.414,2.01,2.01,0,0,0,1.414.586,2.355,2.355,0,0,0,1.414-.586Z"/><path class="c" d="M78.438,170.2a37.418,37.418,0,0,1,3.987-1.012l-.531.071c.163-.022.326-.039.49-.053a2.133,2.133,0,0,0,1.415-.586,2,2,0,0,0,0-2.828,1.971,1.971,0,0,0-1.415-.586,15.044,15.044,0,0,0-2.745.5c-.757.206-1.5.445-2.264.64a2,2,0,1,0,1.063,3.857Z"/><path class="c" d="M61.193,184.772a30,30,0,0,0,6.395,1.144,13.056,13.056,0,0,0,5.39-.46c3.48-1.288,6.422-3.809,9.212-6.175a2.017,2.017,0,0,0,0-2.828,2.042,2.042,0,0,0-2.829,0c-.9.759-1.851,1.617-2.685,2.233q-1.062.785-2.19,1.474a24.906,24.906,0,0,1-2.734,1.5c.123-.049-.488.138-.661.175a3.72,3.72,0,0,1-.82.1,18.919,18.919,0,0,1-2.683-.029,24.873,24.873,0,0,1-5.332-1c-2.47-.743-3.526,3.116-1.063,3.857Z"/><path class="c" d="M60.1,152.156c3.138,1.351,6.3,2.7,9.367,4.2a2,2,0,0,0,2.019-3.454c-3.068-1.5-6.229-2.853-9.367-4.2a2.057,2.057,0,0,0-2.737.718,2.022,2.022,0,0,0,.718,2.736Z"/><path class="c" d="M61.99,181.873c-5.418,2.576-10.9,5.013-16.5,7.154A77.047,77.047,0,0,1,29.7,193.679c-4.7.72-9.4,1.3-13.664-.829-4.173-2.08-6.579-5.858-7.54-10.338a43.772,43.772,0,0,1-.546-9.166q0-3.254.01-6.506c.014-2.575-3.986-2.578-4,0-.055,9.951-1.208,21.9,8.117,28.323a17.972,17.972,0,0,0,7.773,3.015,31.192,31.192,0,0,0,7.089-.142,70.9,70.9,0,0,0,7.868-1.243,71.532,71.532,0,0,0,8.769-2.8c6.96-2.519,13.747-5.485,20.43-8.663,2.324-1.1.3-4.554-2.019-3.453Z"/><path class="c" d="M30.423,175.188c9.22-2.152,18.756-2.82,27.712-6.05,2.4-.867,1.367-4.734-1.063-3.857-8.957,3.23-18.492,3.9-27.712,6.05-2.506.585-1.445,4.443,1.063,3.857Z"/><path class="c" d="M98.218,133.154c-5.9-.014-11.794.013-17.69,0-2.575-.006-2.578,3.994,0,4,5.9.013,11.793-.014,17.69,0,2.574,0,2.578-4,0-4Z"/><path class="e" d="M28.754,166.337q1.588,3.155,2.862,6.453"/><path class="a" d="M251.237,48.454a4.463,4.463,0,0,1,3.229-1.182,4.144,4.144,0,0,1,3.723,2.068c1.265,2.194,1.211,6.237.362,8.738A13.489,13.489,0,0,1,254.59,64.5a4.923,4.923,0,0,1-3.8,1.095l-.364-.061a29.048,29.048,0,0,1-1.306,3.545c-.958,2.6-6.22,11.671-12.9,15.308a40.609,40.609,0,0,0,.552,4.645c.359,2.052.247,3.881,3.1,4.913.186.068,8.275,3.918,8.565,4.036,0,0-.376,18.127-24.955,18.127s-26.629-17.689-26.629-17.689c.556-.185,9.578-4.406,9.764-4.474,2.855-1.032,2.731-2.861,3.1-4.913a37.208,37.208,0,0,0,.516-4.145,25.3,25.3,0,0,1-8.947-7.2,33.953,33.953,0,0,1-6.444-12.159,4.835,4.835,0,0,1-4.108-1.029,13.489,13.489,0,0,1-3.961-6.425c-.849-2.5-.9-6.544.362-8.738a4.144,4.144,0,0,1,3.723-2.068,4.461,4.461,0,0,1,3.229,1.182s-4.291-26.278,26.278-26.278C253.818,22.176,251.237,48.454,251.237,48.454Z"/><path class="a" d="M211.952,199.825c.691-14.624,1.106-28.443,1.054-40.314-.055-12.815-1.562-20.072-3.279-30.111-2.016-11.788-4.023-24.724-5.243-37a4.364,4.364,0,0,1,.836-1.592c1.237-1.432,2.8-3.5,4.059-4.917.537.434,11.486,9.067,12.316,9.656h1.924c.83-.589,11.779-9.222,12.316-9.656,1.264,1.414,2.822,3.485,4.059,4.917a4.1,4.1,0,0,1,.611.981c-.483,4.613-.689,8.054-1.071,11.246-2.062,17.254-3.721,36.36-4.6,54.026-.287,9.154.1,31.6.737,55.739-8.532-.012-17.11-.021-24.383-.057C211.526,208.391,211.751,204.074,211.952,199.825Z"/><path class="d" d="M215.431,185.011c-1.078-1.073-2.114-2.139-3.2-3.267a7.848,7.848,0,0,1-1.473-1.948,5.571,5.571,0,0,1-.043-2.608c1.937-17.691,4.447-41.543,7.2-66.766v-.313a20.739,20.739,0,0,0-.513-2.743c-.329-1.408-.555-2.446-.833-3.853l-.276-1.024c1.8-2.434,4.051-5.418,5.4-6.937h1.924c1.436,1.614,3.886,4.882,5.736,7.387-.219.886-.382,1.55-.382,1.55-.2.781-.411,1.592-.7,2.476a11.723,11.723,0,0,0-.739,3.3c3,24.605,5.307,45.2,7.682,65.072a17.035,17.035,0,0,1,.258,3.341c-.074.852-.7,1.381-1.625,2.393-2.471,2.692-5.994,6.335-9.043,9.017a3.265,3.265,0,0,1-2.052,1.026,3.752,3.752,0,0,1-1.872-.982C218.762,188.249,217.049,186.622,215.431,185.011Z"/><path class="c" d="M227.044,103.957c-.367,1.448-.909,2.857-1.236,4.312a14.7,14.7,0,0,0,.115,5.189q.623,5.135,1.233,10.271,1.127,9.446,2.226,18.895,1.034,8.859,2.066,17.719.5,4.28,1,8.558c.339,2.869.827,5.761,1.018,8.643.08,1.206-.453,1.481-1.278,2.372q-1.487,1.606-3.011,3.179-1.5,1.545-3.051,3.043c-.992.955-2.227,1.813-3.131,2.834-.4.45-.349.062-.044.148a2.127,2.127,0,0,1-.658-.406c-.61-.462-1.171-1.046-1.735-1.563q-1.69-1.551-3.324-3.163-1.4-1.38-2.759-2.794c-.8-.824-1.962-1.644-1.887-2.88.325-5.326,1.161-10.672,1.731-15.978q.976-9.081,1.948-18.164,1.179-11,2.367-22l.633-5.843c.211-1.945.605-3.952.643-5.907.048-2.441-.946-5.072-1.417-7.441-.5-2.523-4.358-1.455-3.857,1.063.413,2.077,1.392,4.66,1.247,6.625-.27,3.676-.8,7.353-1.2,11.018q-1.119,10.34-2.225,20.68c-1.27,11.847-2.742,23.692-3.837,35.556-.3,3.264,2.165,5.239,4.257,7.365a83.657,83.657,0,0,0,6.837,6.466,4.677,4.677,0,0,0,3.88,1.269c1.52-.33,2.718-1.592,3.819-2.607,2.277-2.1,4.451-4.31,6.571-6.566a27.377,27.377,0,0,0,2.713-3.029,5.381,5.381,0,0,0,.718-3.8c-.3-2.979-.715-5.952-1.066-8.927q-1.072-9.089-2.126-18.18-1.282-11.007-2.58-22.013-.7-5.886-1.406-11.77a46.887,46.887,0,0,1-.711-5.868c.018-1.738.943-3.572,1.366-5.241.632-2.5-3.225-3.561-3.857-1.063Z"/><path class="c" d="M218.2,112.022c2.959,0,5.918-.066,8.877-.067a2,2,0,0,0,0-4c-2.959,0-5.918.066-8.877.067a2,2,0,0,0,0,4Z"/><path class="f" d="M201.288,9.63a17.38,17.38,0,0,1,9.7-6.026,43.421,43.421,0,0,1,14.284-1.527c9.934.847,19.654,5.439,25.9,13.113,6.994,8.6,8.032,22.588,5.329,32.558a4.89,4.89,0,0,0-2.033-.476,4.505,4.505,0,0,0-2.928.926,78.3,78.3,0,0,0-3.521-11.964,3.115,3.115,0,0,0-.948-1.516,4.54,4.54,0,0,0-1.98-.68c-4.445-.751-19.93.546-24.62-.562-2.755-.651-14.016-4.506-14.491-4.812a2.068,2.068,0,0,0-2.131.083,14.7,14.7,0,0,0-2.164,1.536c-5.865,5.725-7.357,10.818-7.126,18.6-.23-.2-.46-.424-.46-.424a4.461,4.461,0,0,0-3.229-1.182,5.115,5.115,0,0,0-1.681.322c-1.988-7-1.908-17.453-.382-22.6l.429-1.443c1.655-4.925,4.141-7.85,7.815-9.687Z"/><path class="c" d="M191.115,47.063a45.289,45.289,0,0,1-.988-18.767c.838-5.2,3.057-10.2,7.932-12.7,2.291-1.175.27-4.627-2.019-3.454-5.641,2.891-8.677,8.716-9.72,14.785a49.713,49.713,0,0,0,.938,21.2c.687,2.477,4.547,1.425,3.857-1.063Z"/><path class="c" d="M202.7,11.044c3.641-4.431,8.98-5.945,14.479-6.691a37.094,37.094,0,0,1,17.177,1.681,34.3,34.3,0,0,1,14.12,9.1,28.448,28.448,0,0,1,6.679,14.037,40.751,40.751,0,0,1-.461,17.57c-.627,2.5,3.23,3.563,3.857,1.064,2.818-11.236,1.505-24.8-5.97-34.025-7.947-9.812-21.421-14.8-33.852-13.6-6.964.673-14.224,2.4-18.858,8.039-1.622,1.974,1.192,4.82,2.829,2.829Z"/><path class="c" d="M196.557,48.878a26.37,26.37,0,0,1,1-8.929,19.626,19.626,0,0,1,4.681-7.383c.6-.625,1.923-2.1,2.746-2.168a7.71,7.71,0,0,1,1.663.668c2.032.744,4.084,1.435,6.137,2.12,3.932,1.31,7.635,2.555,11.8,2.709,5.37.2,10.743-.142,16.114-.1,1.136.008,2.276.024,3.408.126.1.009.661.075.412.04-.214-.03.593.109.75.15.8.2.841.715,1.107,1.457a67.533,67.533,0,0,1,3.233,11.176,2.018,2.018,0,0,0,2.461,1.4,2.045,2.045,0,0,0,1.4-2.46A66.013,66.013,0,0,0,250.415,37c-.611-1.722-1.147-3.5-2.925-4.34a10.686,10.686,0,0,0-3.862-.783c-5.536-.376-11.128.106-16.671.063a28.869,28.869,0,0,1-6.2-.458c-2.151-.538-4.262-1.281-6.365-1.977-2.26-.749-4.52-1.507-6.754-2.328-.265-.1-.526-.206-.791-.3-.335-.118.462.22.191.079a4.752,4.752,0,0,0-1.156-.462c-1.979-.442-3.722.855-5.179,2.015a22.83,22.83,0,0,0-6.562,9.167,28.073,28.073,0,0,0-1.579,11.2c.066,2.569,4.067,2.579,4,0Z"/><path class="c" d="M195.511,47.04a6.868,6.868,0,0,0-7.482-1.116,6.529,6.529,0,0,0-3.417,4.4,16.4,16.4,0,0,0,2.38,12.943c1.68,2.5,4.333,4.753,7.548,4.335a2.065,2.065,0,0,0,2-2,2.012,2.012,0,0,0-2-2c-2.258.293-3.735-1.575-4.714-3.381a13.136,13.136,0,0,1-1.6-4.984,12.169,12.169,0,0,1,.077-3.107,5.223,5.223,0,0,1,.779-2.1c-.319.506.513-.446.228-.236a2,2,0,0,1,.958-.437,2.662,2.662,0,0,1,2.418.517c1.915,1.709,4.754-1.11,2.828-2.828Z"/><path class="c" d="M252.651,49.868a2.633,2.633,0,0,1,2.288-.545,2.1,2.1,0,0,1,1.088.465c-.282-.208.539.73.228.236a5.233,5.233,0,0,1,.779,2.1,11.99,11.99,0,0,1,.077,3.107,13.182,13.182,0,0,1-1.6,4.984c-.979,1.806-2.456,3.674-4.715,3.381a2.01,2.01,0,0,0-2,2,2.05,2.05,0,0,0,2,2c5.235.68,8.449-4.975,9.757-9.206,1.173-3.8,1.123-9.684-2.588-12.113a6.833,6.833,0,0,0-8.14.761c-1.925,1.717.912,4.538,2.828,2.828Z"/><path class="c" d="M249.04,62.908a28.768,28.768,0,0,1-1.3,4.337c-.193.508-.349.826-.58,1.4-.2.506.138-.278-.034.083-.063.131-.122.264-.184.395a36.918,36.918,0,0,1-3.178,5.289c-2.765,3.918-6.547,8.2-11.407,9.337-2.5.589-1.444,4.446,1.063,3.857,5.743-1.349,10.161-6.144,13.488-10.741a37.76,37.76,0,0,0,3.453-5.653c.206-.425.39-.859.573-1.295.216-.517-.149.347.079-.182.149-.346.295-.692.434-1.041a28.8,28.8,0,0,0,1.451-4.724c.524-2.512-3.331-3.586-3.857-1.063Z"/><path class="c" d="M192.355,63.87c2.466,10.813,10.6,22.6,22.29,24.366a2.064,2.064,0,0,0,2.46-1.4,2.014,2.014,0,0,0-1.4-2.46c-10.4-1.568-17.31-11.981-19.5-21.573-.572-2.509-4.43-1.447-3.857,1.064Z"/><path class="c" d="M217.088,73.054a12.224,12.224,0,0,0,5.881,1.372,9.688,9.688,0,0,0,6.043-1.828,2,2,0,0,0,0-2.829,2.064,2.064,0,0,0-2.829,0c.69-.537-.033-.006-.251.108-.17.089-.625.23,0,.019-.16.054-.316.122-.478.174q-.306.1-.619.169a5.129,5.129,0,0,0-.719.136c.207-.084.318-.038.017-.008-.131.013-.263.024-.395.032-.316.021-.634.029-.951.027q-.426,0-.852-.031c-.13-.009-.26-.019-.39-.032-.074-.007-.148-.016-.222-.025-.156-.019-.1-.011.179.024-.093.056-.53-.095-.641-.12-.205-.045-.409-.1-.61-.158-.175-.052-.346-.115-.518-.174-.452-.155.417.2.007.007-.214-.1-.425-.206-.635-.317a2,2,0,0,0-2.019,3.454Z"/><path class="c" d="M221.705,59.52a26.442,26.442,0,0,1,.619,2.833l-.071-.531a1.7,1.7,0,0,1,.01.391l.072-.532a.962.962,0,0,1-.043.176l.2-.478a.688.688,0,0,1-.062.113l.313-.4a.616.616,0,0,1-.093.091l.405-.313a1.844,1.844,0,0,1-.224.119l.478-.2a1.617,1.617,0,0,1-.379.111l.532-.072a1.506,1.506,0,0,1-.355,0l.532.072c-.134-.019-.265-.051-.4-.069a1.506,1.506,0,0,0-.8-.036,1.486,1.486,0,0,0-.743.237,2,2,0,0,0-.718,2.737,1.919,1.919,0,0,0,1.195.919c.354.047.7.136,1.056.152a3.478,3.478,0,0,0,1.618-.394,2.453,2.453,0,0,0,1.324-1.6,3.788,3.788,0,0,0-.013-1.665c-.154-.913-.365-1.818-.6-2.713a2,2,0,0,0-2.46-1.4,2.025,2.025,0,0,0-1.195.919,2.1,2.1,0,0,0-.2,1.541Z"/><path class="c" d="M207.253,51.352c-.473,1.537-.165,5.074,2.748,5.375,3.85-.023,4.055-4.3,2.759-6.309C211.7,48.772,208.579,48.087,207.253,51.352Z"/><path class="c" d="M238.081,51.352c.473,1.538.165,5.074-2.748,5.375-3.849-.023-4.054-4.3-2.759-6.309C233.635,48.772,236.755,48.087,238.081,51.352Z"/><path class="c" d="M217.469,49.35c0,.073.009.145.009.218l3.929-.532c-.5-2.725-2.678-3.9-5.159-4.587a23.787,23.787,0,0,0-7.509-.69,21.955,21.955,0,0,0-7.938,1.595c-2.4,1.105-3.195,3.412-3.185,5.9a12.632,12.632,0,0,0,1.538,6.22,9.1,9.1,0,0,0,5.1,3.732,17.8,17.8,0,0,0,12.147-.4c4.8-1.96,5.681-7.389,5-11.986a2.014,2.014,0,0,0-2.46-1.4,2.051,2.051,0,0,0-1.4,2.46c.328,2.211.159,5.387-1.788,6.786a8.864,8.864,0,0,1-3.876,1.222,17.659,17.659,0,0,1-4.212.089,9.2,9.2,0,0,1-4.295-1.645,5.312,5.312,0,0,1-1.61-3.374c-.175-.94-.469-2.822.2-3.624a3.932,3.932,0,0,1,2.024-.849,21.618,21.618,0,0,1,3.1-.6,24.473,24.473,0,0,1,6.237.014,13.323,13.323,0,0,1,3.013.77,9.059,9.059,0,0,1,.88.444c.235.127.231.4.338.98.414,2.245,3.949,1.685,3.928-.531,0-.073-.008-.145-.009-.218C221.432,46.779,217.432,46.771,217.469,49.35Z"/><path class="c" d="M224.193,49.35c0,.073-.009.145-.009.218-.021,2.193,3.509,2.8,3.928.531.038-.2.095-.41.129-.614.074-.453.136-.333.015-.174a1.954,1.954,0,0,1,.742-.495,10.891,10.891,0,0,1,2.489-.754,21.641,21.641,0,0,1,5.62-.293,18.883,18.883,0,0,1,5.784,1.077,1.417,1.417,0,0,1,1.05,1.062,7.609,7.609,0,0,1,.074,2.163,7.089,7.089,0,0,1-1.263,3.853,6.7,6.7,0,0,1-3.65,1.816,12.107,12.107,0,0,1-3.975.246,13.248,13.248,0,0,1-4.566-.941c-2.487-1.1-2.807-4.689-2.44-7.163a2.065,2.065,0,0,0-1.4-2.46,2.015,2.015,0,0,0-2.46,1.4c-.6,4.015-.108,8.739,3.522,11.23A13.153,13.153,0,0,0,233.9,61.9a18.31,18.31,0,0,0,5.977-.231,11.557,11.557,0,0,0,5.694-2.91,10.663,10.663,0,0,0,2.389-6.126c.244-2.2.083-4.744-1.655-6.335-1.875-1.717-4.945-2.071-7.361-2.365a26.031,26.031,0,0,0-8.693.306c-2.746.6-5.437,1.763-6,4.8l3.929.532c0-.073.007-.145.009-.218C228.23,46.776,224.23,46.775,224.193,49.35Z"/><path class="c" d="M220.668,52.143a11.983,11.983,0,0,1,1.272-.243l-.531.071a11.4,11.4,0,0,1,2.9.008l-.532-.071a11.753,11.753,0,0,1,1.585.335,2,2,0,1,0,1.063-3.857,13.264,13.264,0,0,0-6.82-.1,2.019,2.019,0,0,0-1.4,2.46,2.041,2.041,0,0,0,2.46,1.4Z"/><path class="c" d="M200.124,47.679a12.112,12.112,0,0,0-3-.306,2.085,2.085,0,0,0-1.414.586,1.5,1.5,0,0,0-.414.643,1.516,1.516,0,0,0-.172.771,2,2,0,0,0,2,2,10,10,0,0,1,1.622.082l-.532-.072q.428.058.847.153a2.11,2.11,0,0,0,1.541-.2,2.238,2.238,0,0,0,.919-1.2,2,2,0,0,0-1.4-2.46Z"/><path class="c" d="M246.634,51.536q.42-.095.847-.153l-.532.072a10,10,0,0,1,1.622-.082,1.516,1.516,0,0,0,.771-.172,1.806,1.806,0,0,0,1.057-1.057,1.516,1.516,0,0,0,.172-.771,2.018,2.018,0,0,0-.586-1.414,2.129,2.129,0,0,0-1.414-.586,10.1,10.1,0,0,0-1.266.04,14.292,14.292,0,0,0-1.734.266,1.924,1.924,0,0,0-1.433,1.663,1.512,1.512,0,0,0,.036.8,2.017,2.017,0,0,0,.919,1.2l.478.2a2.018,2.018,0,0,0,1.063,0Z"/><path class="a" d="M247.283,436.805c-1.969-1.364-5.444-3.83-8.515-6-2.708-1.912-5.1-3.592-5.868-4.078-4.924-3.116-4.374-7.357-4.266-10.264a59.511,59.511,0,0,1,.378-6.024,44.3,44.3,0,0,0,.584-5.078c4.229.407,9.088.613,12.674.649a50.619,50.619,0,0,0,7.854-.629c1.526,2.593,3.185,5.415,3.185,5.415.233.242,4.458,4.972,4.458,4.972,3.193,3.317,6.708,6.581,9.9,9.8a11.206,11.206,0,0,1,3.629,7.921,6.8,6.8,0,0,1-3.177,5.08,12.748,12.748,0,0,1-5.769,2.058,21.561,21.561,0,0,1-13.575-2.823C248.569,437.686,248.036,437.326,247.283,436.805Z"/><path class="a" d="M176.2,438.442a6.677,6.677,0,0,1-3.04-4.951c-.074-3.048,1.574-5.828,3.676-7.921,3.235-3.22,6.8-6.484,10.032-9.8,0,0,4.281-4.73,4.517-4.972l3.408-5.5a51.252,51.252,0,0,0,8.362.7c3.472-.034,8.141-.227,12.275-.607.3,2.647.576,5.041.576,5.041a58.859,58.859,0,0,1,.383,6.024c.11,2.907.667,7.148-4.322,10.264-.778.486-3.2,2.166-5.947,4.078-4.3,3-9.385,6.565-10.14,7a22.087,22.087,0,0,1-13.755,2.823,13.023,13.023,0,0,1-5.846-2.058C176.315,438.529,176.255,438.486,176.2,438.442Z"/><path class="a" d="M186.762,401.448c-2.076-51.708-3.269-100.062-5.477-153.69l-.521-13.489s-.428-10.532-.879-21.569c26.657.1,55.9.149,85.6.189-.425,10.788-.843,21.38-.843,21.38l-.522,13.907C261.9,302.1,260.71,350.7,258.6,402.778a1,1,0,0,1-.708.92,59.489,59.489,0,0,1-15.624,2.313c-5.9-.059-15.229-.578-19.549-1.7-4.317,1.116-13.671,1.633-19.57,1.69a59.348,59.348,0,0,1-15.628-2.31,1,1,0,0,1-.707-.92Z"/><path class="c" d="M189.967,409.383c-1.279,1.344-2.5,2.746-3.748,4.122-2.094,2.312-4.385,4.443-6.634,6.6-2.931,2.815-6.249,5.517-7.73,9.422a8.571,8.571,0,0,0,2.516,10.009c6.107,5.087,16.34,3.827,22.726-.072,5.47-3.34,10.481-7.438,15.853-10.934a11.117,11.117,0,0,0,5.478-8.895,48.186,48.186,0,0,0-.5-9.729,2.012,2.012,0,0,0-2.46-1.4,2.054,2.054,0,0,0-1.4,2.461,58.935,58.935,0,0,1,.384,7.377,7.075,7.075,0,0,1-2.584,6.088c-2.294,1.8-4.884,3.33-7.28,5-2.628,1.833-5.248,3.677-7.892,5.488-4.944,3.387-11.8,5.3-17.595,2.883a7.242,7.242,0,0,1-3.43-2.763,4.708,4.708,0,0,1-.1-4.088c1.132-3.234,4.28-5.568,6.665-7.858,2.305-2.214,4.657-4.4,6.8-6.766,1.246-1.375,2.468-2.778,3.747-4.122,1.775-1.865-1.049-4.7-2.828-2.828Z"/><path class="c" d="M251.9,412.211c2.742,2.919,5.33,5.915,8.195,8.724,1.378,1.352,2.768,2.692,4.146,4.045A24.141,24.141,0,0,1,267.89,429a8.385,8.385,0,0,1,1.387,3.708,4.349,4.349,0,0,1-1.71,3.765c-2.5,2.208-6.306,2.518-9.481,2.269a18.938,18.938,0,0,1-8.687-2.9c-5.064-3.29-9.84-7.025-14.845-10.405-2.353-1.589-3.885-3.3-3.985-6.241a49.092,49.092,0,0,1,.372-8.215,2.069,2.069,0,0,0-1.4-2.461,2.014,2.014,0,0,0-2.46,1.4,62.86,62.86,0,0,0-.523,8.752,10.958,10.958,0,0,0,3.288,8.233,31.477,31.477,0,0,0,3.658,2.657c1.6,1.106,3.185,2.229,4.772,3.351,2.844,2.009,5.671,4.046,8.547,6.011,5.841,3.99,14.6,5.42,21.068,2.128,3.273-1.665,5.755-4.937,5.346-8.727-.443-4.115-3.006-7.038-5.835-9.826-2.885-2.844-5.934-5.571-8.635-8.593-1.345-1.5-2.664-3.04-4.046-4.511-1.766-1.881-4.591.952-2.829,2.828Z"/><path class="c" d="M222.183,406.244c5.61,1.408,11.67,1.55,17.424,1.714a60.588,60.588,0,0,0,10.136-.516q2.585-.359,5.134-.915c1.422-.312,3.314-.522,4.51-1.393,1.6-1.166,1.262-3.5,1.331-5.245q.12-3,.237-6,.231-5.96.451-11.921.441-11.927.846-23.854.807-23.634,1.573-47.27.807-24.158,1.72-48.311.531-13.716,1.064-27.431l.031-.834c.1-2.574-3.9-2.57-4,0-.854,22.761-1.764,45.519-2.536,68.283-1.041,30.686-1.982,61.376-3.177,92.056q-.132,3.363-.267,6.725l-.019.481q-.2.957.4.049c0-.007-1.263.341-1.367.367q-1.119.285-2.249.524a52.248,52.248,0,0,1-11.468,1.253q-4.936-.054-9.866-.433a52.42,52.42,0,0,1-8.844-1.187c-2.5-.627-3.563,3.23-1.064,3.857Z"/><path class="c" d="M222.179,402.39c-5.381,1.347-11.2,1.43-16.716,1.574a54.648,54.648,0,0,1-9.36-.471q-2.457-.36-4.882-.91-1.094-.248-2.176-.537l-.338-.093q-.739-.3.089.341s-.071-1.775-.077-1.925q-.918-22.994-1.679-45.993c-1.049-30.918-2-61.84-3.2-92.753q-.53-13.677-1.075-27.354c-.1-2.565-4.1-2.578-4,0q.442,11.462.9,22.922.952,24.125,1.746,48.256.8,23.642,1.572,47.285.8,23.7,1.726,47.4c.07,1.765-.236,4.091,1.523,5.161a15.254,15.254,0,0,0,4.5,1.279,61.5,61.5,0,0,0,10.576,1.409,104.314,104.314,0,0,0,18.451-1.082,33.6,33.6,0,0,0,3.479-.648c2.5-.624,1.439-4.483-1.063-3.857Z"/><path class="c" d="M220.7,256.591q.013,8.73.006,17.462,0,16.738,0,33.478,0,19.7,0,39.394,0,17.605,0,35.21,0,10.461,0,20.924v1.095c0,2.574,4,2.578,4,0q0-9.231,0-18.463l0-33.994q0-19.713,0-39.424,0-17.378,0-34.754,0-9.991-.006-19.983c0-.315,0-.63,0-.945,0-2.574-4-2.579-4,0Z"/><path class="a" d="M212.684,181.187c.233-7.706.351-15,.322-21.676-.055-12.815-1.562-20.072-3.279-30.111-2.1-12.3-4.2-25.846-5.405-38.587a70.626,70.626,0,0,1-7.163,5.722c-7.6,3.288-17.23,7.174-20.894,8.852a54.717,54.717,0,0,0-5.7,3.165c-4.87,3.534-7.125,8.1-8.789,14.09-3.677,13.106-6.175,23.509-8.993,35.391-1.7,7.175-2.954,14.9-.288,21.77,2.7,6.955,14.765,17.755,20.708,22.263a6.109,6.109,0,0,0,4.218.938l.052-.009c-2.545,27.494-7.617,62.228-8.761,84.433a3.517,3.517,0,0,0,.753,2.438,4.632,4.632,0,0,0,2.233.944c8.419,1.224,19.709,3.33,29.195,4.1a4.8,4.8,0,0,0,4.9-4.517C208.382,257.715,211.654,215.386,212.684,181.187Z"/><path class="a" d="M234.96,179.951c-.149-10.066-.178-18.209-.031-22.885.884-17.666,2.543-36.772,4.6-54.026.408-3.414.616-7.114,1.171-12.227a67.33,67.33,0,0,0,7.548,5.652c7.217,2.964,16.674,6.783,20.206,8.922,1.133.686,4.677,2.376,5.7,3.165,5,3.848,6.816,8.423,8.79,14.106,3.973,12.987,6.761,23.493,9.578,35.375,1.7,7.175,2.955,14.9.289,21.77-2.7,6.955-14.765,17.755-20.708,22.263a6.089,6.089,0,0,1-4.356.911c2.386,34.678,6.674,72.642,6.669,85.4a3.217,3.217,0,0,1-.919,2.14,5.552,5.552,0,0,1-2.629,1.07c-5.969.974-22.82,2.538-28.2,2.474a4.812,4.812,0,0,1-2.624-.536c-1.266-.83-1.507-2.593-1.6-4.13C237.412,272.471,235.473,214.734,234.96,179.951Z"/><path class="c" d="M212.129,214.752q10.706.049,21.41.05c2.574,0,2.578-4,0-4q-10.7-.013-21.41-.05c-2.574-.012-2.577,3.988,0,4Z"/><path class="c" d="M211.759,224.752q10.916.033,21.83.05c2.574,0,2.578-4,0-4q-10.914-.015-21.83-.05c-2.574-.008-2.577,3.992,0,4Z"/><path class="c" d="M197.393,100.351c.9-.316,1.778-.771,2.647-1.168q2.013-.923,4.022-1.857c1.052-.488,2.1-.978,3.157-1.462.108-.05.219-.1.327-.15.09-.044.272-.12-.16.066-.517.222-.055.03.078-.023.257-.1.515-.207.764-.327a5.581,5.581,0,0,0,2.485-2.3,8.9,8.9,0,0,0,.843-2.958c.235-1.521.5-3.034.634-4.569a2.007,2.007,0,0,0-2-2,2.052,2.052,0,0,0-2,2,38.226,38.226,0,0,1-.933,5.545c-.06.248.193-.3.034-.1a1.747,1.747,0,0,0-.137.243c-.222.39.163-.1-.084.111a2.35,2.35,0,0,0-.222.214c.216-.246.129-.082.011-.011s-.2.129-.306.189a3.2,3.2,0,0,0-.3.16c-.153.069-.7.29-1.028.439-2.241,1.029-4.473,2.077-6.713,3.106q-.873.4-1.746.8c-.185.084-.37.165-.555.247-.456.2.492-.183.116-.051a2.048,2.048,0,0,0-1.4,2.46,2.017,2.017,0,0,0,2.46,1.4Z"/><path class="c" d="M234.3,85.439c.13,1.432.337,2.853.572,4.271a16.583,16.583,0,0,0,.412,2.213,5.546,5.546,0,0,0,1.514,2.5,6.305,6.305,0,0,0,1.348.943,10.907,10.907,0,0,0,1.006.436c.66.254-.459-.224-.208-.095,1.988,1.022,4.056,1.914,6.077,2.87.959.453,1.912.924,2.891,1.334a2,2,0,0,0,2.46-1.4,2.063,2.063,0,0,0-1.4-2.46c1,.418.056.008-.178-.1q-.649-.3-1.3-.612-1.757-.829-3.512-1.662c-.905-.428-1.81-.858-2.717-1.282l-.295-.137-.075-.033c-.146-.064-.337-.145-.484-.2-.046-.019-.371-.164-.085-.029-.188-.089-.367-.189-.546-.294-.055-.032-.346-.231-.127-.071.2.143,0,0-.033-.034-.139-.143-.4-.476-.153-.11-.108-.162-.192-.343-.3-.5-.121-.18.1.169.073.183,0,0-.12-.352-.124-.367-.05-.168-.09-.338-.126-.509-.085-.4-.139-.811-.2-1.218-.2-1.319-.377-2.327-.5-3.631a2,2,0,0,0-4,0Z"/><path class="c" d="M200.7,92.8c-8.046,3.66-16.3,6.83-24.391,10.392a31.316,31.316,0,0,0-9.686,6.1c-3.519,3.515-5.448,8.11-6.78,12.825-3.228,11.431-6.045,22.97-8.787,34.525-1.364,5.751-2.6,11.723-1.911,17.659a24.386,24.386,0,0,0,5.372,12.576A86.563,86.563,0,0,0,165.3,198.088c1.666,1.491,3.37,2.943,5.121,4.334,2.087,1.658,4.181,2.942,6.994,2.582a2.065,2.065,0,0,0,2-2,2.012,2.012,0,0,0-2-2c-1.993.255-3.167-.606-4.584-1.745q-2.274-1.83-4.452-3.776a97.341,97.341,0,0,1-9.376-9.4c-2.644-3.1-4.743-6.214-5.578-10.167-1.151-5.442-.147-11.147,1.079-16.483q3.75-16.321,8.151-32.493c1.26-4.6,2.378-9.432,5.389-13.257,2.4-3.048,5.763-4.95,9.226-6.565,8.355-3.9,17.053-7.047,25.447-10.865a2.017,2.017,0,0,0,.718-2.737A2.049,2.049,0,0,0,200.7,92.8Z"/><path class="c" d="M242.538,96.237c7.611,3.224,15.451,6.043,22.844,9.756,1.3.651,2.537,1.4,3.822,2.071a22.659,22.659,0,0,1,4.776,2.923c3.463,3.081,5.273,7.179,6.785,11.468,1.924,5.462,3.376,11.147,4.907,16.731q2.175,7.936,4.1,15.937c1.316,5.43,2.72,10.922,2.574,16.553a20.176,20.176,0,0,1-4.131,12.019,75.627,75.627,0,0,1-10.028,10.65q-2.474,2.261-5.065,4.387c-1.634,1.336-2.929,2.567-5.234,2.272a2.009,2.009,0,0,0-2,2,2.05,2.05,0,0,0,2,2c4.411.565,7.832-3.17,10.873-5.819a102.194,102.194,0,0,0,9.923-9.764c2.792-3.2,5.4-6.627,6.625-10.752,1.7-5.753,1.073-11.9-.087-17.687-2.31-11.527-5.593-22.948-8.944-34.208-1.489-5-2.958-10.312-5.986-14.648a21.67,21.67,0,0,0-5.266-5.4A55.368,55.368,0,0,0,270,103.96c-8.111-4.476-16.925-7.569-25.44-11.177a2.069,2.069,0,0,0-2.737.718,2.014,2.014,0,0,0,.718,2.736Z"/><path class="c" d="M273.314,174.354q2.2.061,4.409.189,1.056.061,2.113.139.528.039,1.056.081l.616.051.264.023a1.173,1.173,0,0,1-.872-.4,2.163,2.163,0,0,0,1.414.585,2,2,0,0,0,1.414-3.414,3.175,3.175,0,0,0-1.838-.758c-.39-.042-.783-.069-1.174-.1q-1.232-.1-2.465-.174-2.466-.153-4.937-.221a2.016,2.016,0,0,0-2,2,2.04,2.04,0,0,0,2,2Z"/><path class="c" d="M171.618,170.354q-2.47.069-4.937.221-1.233.077-2.465.174c-.391.031-.784.055-1.174.1a3.232,3.232,0,0,0-1.838.758,2.005,2.005,0,0,0,0,2.829,2.058,2.058,0,0,0,2.828,0,1.173,1.173,0,0,1-.872.4l.176-.015c.2-.013.411-.035.616-.052.352-.028.7-.056,1.056-.082q1.1-.081,2.2-.145,2.2-.129,4.409-.189a2,2,0,0,0,0-4Z"/><path class="c" d="M264.964,118.848c-.465,16.616-1.125,33.227-.809,49.852.329,17.268,1.518,34.505,2.918,51.715,1.265,15.542,2.756,31.064,4.049,46.6.452,5.442.9,10.888,1.157,16.344.048.993.088,1.986.114,2.98.018.7.277,2.014-.175,2.6-.649.849-2.683.838-3.695.976-1.056.144-2.57.324-3.817.465-6.344.716-12.724,1.327-19.1,1.6-1.1.047-2.212.1-3.315.058-.719-.026-1.247-.082-1.528-.8a6.934,6.934,0,0,1-.322-2.109c-.094-1.5-.171-3-.247-4.493-.481-9.448-.833-18.9-1.173-28.357q-.671-18.643-1.185-37.292-.5-18.059-.828-36.122c-.135-8.275-.3-16.565-.1-24.841.214-8.83,1.012-17.686,1.748-26.485.8-9.577,1.792-19.133,2.9-28.679.467-4.012.72-8.046,1.151-12.062l-3.414,1.415a63.405,63.405,0,0,0,8.488,6.32c2.155,1.423,4.16-2.04,2.019-3.454A57.041,57.041,0,0,1,242.12,89.4a2.028,2.028,0,0,0-3.415,1.414c-.453,4.221-.725,8.459-1.224,12.674q-.853,7.2-1.577,14.419-1.5,14.931-2.451,29.911c-.6,9.593-.66,19.119-.54,28.726.148,11.8.42,23.6.73,35.4q.5,19.281,1.171,38.559c.355,10.3.732,20.6,1.218,30.9q.124,2.646.266,5.291c.124,2.288-.009,4.9,1.174,6.928,1.77,3.032,5.749,2.492,8.747,2.346,3.173-.153,6.343-.4,9.507-.681,3.335-.291,6.667-.62,9.991-1.008,1.44-.169,2.878-.35,4.313-.554a8.892,8.892,0,0,0,4.631-1.585c2.171-1.817,1.78-4.743,1.683-7.267-.091-2.4-.238-4.788-.4-7.178-.971-14.279-2.4-28.528-3.644-42.785-1.479-16.955-2.884-33.928-3.647-50.934-.777-17.3-.606-34.577-.082-51.883q.2-6.619.394-13.239c.072-2.574-3.928-2.572-4,0Z"/><path class="c" d="M197.261,98.918a80.131,80.131,0,0,0,8.475-6.69l-3.414-1.415c1.444,15.106,3.945,30.067,6.5,45.017a143.007,143.007,0,0,1,2.09,18.788c.23,6.226.1,12.475-.024,18.7-.267,13.246-.876,26.485-1.617,39.712-.791,14.119-1.748,28.228-2.782,42.331q-.741,10.118-1.531,20.232-.373,4.8-.753,9.607l-.366,4.639a3.242,3.242,0,0,1-1.7,2.871c-1.272.585-3.27.02-4.606-.123q-2.682-.285-5.355-.651c-3.659-.5-7.307-1.073-10.953-1.655q-2.581-.413-5.163-.821c-1.441-.226-2.946-.34-4.36-.7a3.133,3.133,0,0,1-.669-.224c-.254-.131-.1-.021-.027.062a1.08,1.08,0,0,1-.2-.391,6.094,6.094,0,0,1-.024-1.94q.1-1.877.238-3.75c.826-11.83,2.195-23.62,3.562-35.4,1.49-12.828,3.06-25.648,4.352-38.5,1.151-11.433,1.954-22.853,2.112-34.345.2-14.51-.151-29.023-.548-43.528q-.164-5.953-.336-11.907c-.074-2.568-4.074-2.579-4,0,.441,15.419.924,30.842.939,46.268.013,12.149-.393,24.235-1.481,36.335-1.168,13-2.728,25.955-4.248,38.913-1.46,12.452-2.954,24.908-3.988,37.4-.218,2.637-.413,5.275-.568,7.917a8.286,8.286,0,0,0,.567,4.645,5.012,5.012,0,0,0,3.5,2.352c3.311.736,6.779,1.061,10.131,1.594,3.759.6,7.52,1.177,11.292,1.68,1.881.251,3.764.483,5.652.678a13.078,13.078,0,0,0,4.96.04,6.9,6.9,0,0,0,3.774-2.891,9.064,9.064,0,0,0,1.191-4.492q.786-9.921,1.55-19.843c1.091-14.235,2.124-28.475,3.022-42.724.884-14.013,1.647-28.037,2.123-42.072.442-13.015,1.11-26.269-.343-39.237-.714-6.378-1.927-12.683-2.992-19.008-1.339-7.95-2.588-15.919-3.607-23.917q-.743-5.829-1.309-11.677a2.028,2.028,0,0,0-3.414-1.414,72.2,72.2,0,0,1-7.666,6.065,2.057,2.057,0,0,0-.717,2.736,2.016,2.016,0,0,0,2.736.718Z"/><path class="a" d="M191.766,164.115c-3.6-3.945-5.152-11.661-5.52-17.139a55.893,55.893,0,0,1,4.453-24.187,126.44,126.44,0,0,1,2.625-13.334c2.251-7.782,4.71-14.289,8.713-17.192a.645.645,0,0,1,1,.313l1.422,4.394a6.918,6.918,0,0,1-.144,5.1c-2.485,5.61-4.914,15.969-4.651,20.519,3.506,10.3,11.113,19.216,11.72,31.03a13.987,13.987,0,0,1-.389,4.224c-1.383,5.327-4.686,8.186-8.8,10.108-1.214.566-2.723,1.145-3.889,1.8a15.863,15.863,0,0,1-3.388,1.558c-2.16.492-4.01-1.688-4.278-3.614a3.574,3.574,0,0,1,1.944-3.836c2.148-1.057,4.119-.427,6.407-1.636,2.143-1.132,2.656-1.6,4.343-5.166,2-4.223-1.4-11.062-3.333-15.611-1.021-2.4-4.042-8.714-4.875-10.2a55.3,55.3,0,0,0-.964,16.2,54.934,54.934,0,0,0,4.62,13.9"/><path class="h" d="M190.663,166.369a3.446,3.446,0,0,1,1.916-2.508,12.093,12.093,0,0,1,3.9-.859,15.977,15.977,0,0,1,1.616,6.87,14.964,14.964,0,0,1-3.181,1.439c-2.16.492-4.01-1.688-4.278-3.614A4.08,4.08,0,0,1,190.663,166.369Z"/><path class="h" d="M199.9,172.583c-.056-.058-.111-.12-.163-.185a6.6,6.6,0,0,1-1.3-2.718c1.146-.63,2.589-1.187,3.758-1.732a21.739,21.739,0,0,0,2.209-1.182l1.249.487a3.43,3.43,0,0,1,1.689,3.973,4.409,4.409,0,0,1-3.893,2.465,3.417,3.417,0,0,1-.722-.008A4.367,4.367,0,0,1,199.9,172.583Z"/><path class="c" d="M193.18,162.7c-2.906-3.275-3.943-8.154-4.578-12.358a44.964,44.964,0,0,1,.01-12.355,56.488,56.488,0,0,1,1.453-7.393q.508-1.923,1.166-3.8a39.411,39.411,0,0,0,1.481-3.952c.62-2.67.878-5.44,1.411-8.131a73.017,73.017,0,0,1,2.035-7.735,50.912,50.912,0,0,1,2.993-7.758,21.145,21.145,0,0,1,1.926-3.192,11.787,11.787,0,0,1,.866-1.014q.252-.267.521-.517.157-.149.322-.289.51-.366-.167-.04l-1.009-.273.253.148-.718-.717c-.2-.322.023-.006.081.155.109.3.2.608.295.91l.756,2.334a6.679,6.679,0,0,1-.025,5.114,64.514,64.514,0,0,0-3.943,13.9,35.15,35.15,0,0,0-.666,6.177c.012,2.373,1.49,4.915,2.47,7.034,2.167,4.683,4.814,9.15,6.715,13.955,1.95,4.928,3.681,10.906,1.712,16.076a12.023,12.023,0,0,1-3.875,5.2,32.479,32.479,0,0,1-6.248,3.276c-1.459.692-3.912,2.955-5.283,1.18a2.3,2.3,0,0,1-.393-2.287c.448-.9,1.711-1.065,2.6-1.2,2.48-.371,4.73-.881,6.711-2.515a13,13,0,0,0,3.332-5.321c2.019-5.211-1.295-11.419-3.33-16.111-1.6-3.694-3.248-7.432-5.2-10.956a2.022,2.022,0,0,0-3.656.477,51.085,51.085,0,0,0-1.192,15.2c.414,5.706,2.632,11.306,5.05,16.432,1.1,2.326,4.547.3,3.454-2.019-2.146-4.549-4.213-9.666-4.526-14.74a47.933,47.933,0,0,1,1.071-13.81l-3.655.478c1.388,2.5,2.569,5.137,3.769,7.732a80.032,80.032,0,0,1,3.935,9.546,12.574,12.574,0,0,1,.794,5.426,10.118,10.118,0,0,1-1.905,4.086c-2.195,2.808-7.04,1.408-9.7,4-3,2.912-1.679,8.217,2,9.874,2.047.921,4,.153,5.867-.814s3.772-1.788,5.643-2.725a17.016,17.016,0,0,0,7.747-7.369c2.138-4.256,2.124-8.8,1.2-13.383-1.671-8.317-6.466-15.449-9.815-23.118-.393-.9-.745-1.816-1.087-2.736a4.407,4.407,0,0,1-.176-1.881,36.155,36.155,0,0,1,.622-4.794,69.844,69.844,0,0,1,3.026-11.2c.66-1.8,1.544-3.46,1.554-5.43a13.116,13.116,0,0,0-.831-4.106c-.343-1.06-.655-2.135-1.031-3.183-.774-2.162-2.9-2.52-4.611-1.168-2.879,2.282-4.611,5.719-6,9.041a71.556,71.556,0,0,0-3.974,12.8c-.459,2.194-.813,4.409-1.182,6.62a14.84,14.84,0,0,1-.771,3.439c-.449,1.056-.867,2.123-1.238,3.209a59.4,59.4,0,0,0-2.734,12.8c-.8,7.354-.129,15.171,2.911,21.984a17.865,17.865,0,0,0,2.939,4.616c1.712,1.929,4.533-.908,2.828-2.829Z"/><path class="c" d="M187.4,149.448q2.719-.164,5.426-.472a2.179,2.179,0,0,0,1.415-.586,2,2,0,0,0,0-2.828,1.934,1.934,0,0,0-1.415-.586q-2.706.309-5.426.472a2.117,2.117,0,0,0-1.414.586,2,2,0,0,0,1.414,3.414Z"/><path class="c" d="M203.616,147.032l.227-.1-.478.2a25.721,25.721,0,0,1,4.14-1.337,2,2,0,1,0-1.063-3.857,28.56,28.56,0,0,0-4.845,1.635,2.006,2.006,0,0,0-.919,1.2,2.043,2.043,0,0,0,.2,1.541,2.017,2.017,0,0,0,1.195.919l.532.071a1.987,1.987,0,0,0,1.009-.273Z"/><path class="a" d="M250.606,136.941c2.357-12.784,2.154-20.082,1.026-28.816A28.5,28.5,0,0,0,243.6,92.244c-.259-.245-.874-.172-.973.171l-.94,3.273a7.848,7.848,0,0,0,.384,4.972,43.646,43.646,0,0,1,1.617,5.367c2.145,12.167,1.75,18.743-.069,29.067"/><path class="c" d="M252.534,137.472A95.741,95.741,0,0,0,254.4,116.8c-.221-6.1-.867-12.176-3.525-17.742a29.081,29.081,0,0,0-2.6-4.418,17.483,17.483,0,0,0-3.465-3.968,2.647,2.647,0,0,0-4.116,1.221c-.278.784-.464,1.614-.694,2.414a10.822,10.822,0,0,0-.548,3.655,20.685,20.685,0,0,0,1.332,5.09,49.613,49.613,0,0,1,1.893,9.678,75.643,75.643,0,0,1-.988,21.832,2.056,2.056,0,0,0,1.4,2.46,2.017,2.017,0,0,0,2.46-1.4,79.4,79.4,0,0,0,1.058-23.518,53.161,53.161,0,0,0-2.453-11.563,7.371,7.371,0,0,1-.4-4.794c.164-.581.334-1.161.5-1.741l.216-.753c.078-.272.237-.363,0-.006l-.717.718-.045.059h-1.064q-.417-.27.1.173c.182.186.362.374.537.566.354.386.7.783,1.023,1.194a24.712,24.712,0,0,1,1.721,2.519,27.711,27.711,0,0,1,2.441,5.122,38.323,38.323,0,0,1,1.736,9.776,88.266,88.266,0,0,1-1.519,23.031c-.46,2.517,3.394,3.6,3.857,1.063Z"/><path class="c" d="M194.939,164.393a16.427,16.427,0,0,1,1.083,4l-.072-.532q.083.624.12,1.251a2.114,2.114,0,0,0,.586,1.414,2,2,0,0,0,2.828,0,2,2,0,0,0,.586-1.414,17.909,17.909,0,0,0-1.274-5.783,2.2,2.2,0,0,0-.919-1.2,2.039,2.039,0,0,0-1.541-.2,2.017,2.017,0,0,0-1.2.919,1.929,1.929,0,0,0-.2,1.541Z"/><path class="c" d="M205.117,169.182c-.653-.275-.164-.009-.04.036-.266-.213-.32-.253-.164-.119.053.047.1.1.152.147.363.379-.15-.273.028.016.077.126.159.248.229.38.035.066.068.133.1.2-.125-.308-.149-.364-.074-.168.045.141.094.279.129.422.026.1.034.216.064.318-.167-.566-.031-.24-.034-.015-.008.519.111-.359.017-.05-.15.5.237-.392.035-.022-.076.139-.147.28-.233.414-.042.065-.086.129-.131.191q.3-.376.1-.138c-.079.081-.152.166-.233.244-.054.052-.11.1-.167.15-.16.131-.114.1.14-.107a2.183,2.183,0,0,0-.383.241c-.066.037-.134.072-.2.106q-.286.132.16-.06c-.3.04-.623.213-.929.277-.064.014-.6.092-.239.05s-.218.01-.284.011c-.087,0-.513.031-.568-.038.308.044.352.049.132.017q-.13-.021-.261-.045c-.17-.033-.338-.071-.5-.119-.081-.023-.162-.048-.243-.076-.2-.075-.159-.054.128.063a2.278,2.278,0,0,0-.435-.239c-.339-.191.273.3.009,0-.029-.032-.34-.39-.347-.388.185.242.217.279.095.113-.044-.062-.086-.124-.127-.188-.079-.123-.153-.249-.221-.378-.034-.065-.066-.13-.1-.2q-.129-.284.065.163a6.9,6.9,0,0,0-.354-1.04,2,2,0,0,0-3.858,1.064,7.688,7.688,0,0,0,2.41,4,5.644,5.644,0,0,0,2.225,1.036,7.39,7.39,0,0,0,2.5.2,7.022,7.022,0,0,0,4.262-1.872,5.668,5.668,0,0,0,1.348-2.155,4.758,4.758,0,0,0,.072-2.335,5.432,5.432,0,0,0-.873-2.1,5.1,5.1,0,0,0-2.335-1.873,2,2,0,0,0-1.541.2,2,2,0,0,0-.718,2.737,2.382,2.382,0,0,0,1.2.919Z"/><path class="a" d="M243.577,151.459a5.87,5.87,0,0,1-2.3-1.069c-2.97-2.292-3.08-6.691-2.154-10.042a6.942,6.942,0,0,1,9.182-4.735c4.017,1.26,5.083,5.819,4.232,9.536C251.625,149.143,248.358,152.548,243.577,151.459Z"/><path class="c" d="M244.109,149.531a4.088,4.088,0,0,1-1.908-.981,2.734,2.734,0,0,1-.566-.65c-.095-.147-.187-.293-.272-.446-.04-.071-.331-.712-.238-.473a8.553,8.553,0,0,1-.434-4.35c.067-.676-.081.341.047-.321.033-.173.062-.348.1-.521.068-.327.142-.656.239-.976.039-.129.087-.254.128-.381.127-.392.024.134-.058.124.013,0,.142-.306.157-.338a10.238,10.238,0,0,1,.655-1.106c.063-.1.357-.43.012-.029.092-.107.179-.217.274-.321.2-.218.408-.417.623-.615.074-.069.473-.334.07-.065.085-.058.166-.123.255-.176a9.39,9.39,0,0,1,.841-.46c-.411.188.346-.1.479-.136.173-.045.348-.08.524-.113-.426.079.162-.009.214-.012a5.291,5.291,0,0,1,2.047.218c.231.06.462.127.687.207.393.14.189.074.106.037a5.123,5.123,0,0,1,.538.286c.114.069.225.141.334.217-.141-.12-.122-.1.058.046a6.056,6.056,0,0,1,.674.685c-.249-.295.127.189.141.211.07.107.136.217.2.328a5.749,5.749,0,0,1,.663,1.893c0,.024.1.666.052.256.016.132.027.265.037.4a10.534,10.534,0,0,1,.019,1.2c-.006.134-.014.268-.024.4,0,.022-.081.674-.021.264a9.961,9.961,0,0,1-.249,1.184,6.319,6.319,0,0,1-.944,2.16c-.108.171-.221.341-.341.5.189-.254-.172.2-.193.222a7.029,7.029,0,0,1-.862.828c.289-.23-.231.15-.237.154a6.542,6.542,0,0,1-.693.39,4.477,4.477,0,0,1-.857.276s-.665.119-.3.071a5.676,5.676,0,0,1-.652.039,5.016,5.016,0,0,1-1.327-.133,2.048,2.048,0,0,0-2.461,1.4,2.021,2.021,0,0,0,1.4,2.46,9.242,9.242,0,0,0,6.568-.841,9.845,9.845,0,0,0,3.99-4.428c1.693-3.68,1.764-8.406-.805-11.715a9.154,9.154,0,0,0-11.289-2.156,9.793,9.793,0,0,0-4.591,6.789,13.3,13.3,0,0,0,.35,7.007,8.315,8.315,0,0,0,5.777,5.344C245.544,154.009,246.609,150.153,244.109,149.531Z"/><path class="c" d="M244.988,146.149a1.986,1.986,0,0,1-.778-.362,3.21,3.21,0,0,1-.73-3.4,2.352,2.352,0,0,1,3.111-1.6,2.6,2.6,0,0,1,1.434,3.231A2.533,2.533,0,0,1,244.988,146.149Z"/><path class="a" d="M209.379,85.9c-1.264,1.414-2.822,3.485-4.059,4.917a3.918,3.918,0,0,0-.849,3.508c.475.949,5.727,9.37,9.263,11.635,1.118-1.489,5.747-7.914,7.961-10.4C220.865,94.963,209.916,86.33,209.379,85.9Z"/><path class="a" d="M235.935,85.9c1.264,1.414,2.822,3.485,4.059,4.917a3.918,3.918,0,0,1,.849,3.508c-.475.949-5.727,9.37-9.263,11.635-1.118-1.489-5.746-7.914-7.961-10.4C224.449,94.963,235.4,86.33,235.935,85.9Z"/><path class="c" d="M207.964,84.481c-1.07,1.212-2.06,2.491-3.08,3.744a9.955,9.955,0,0,0-2.383,3.854c-.516,2.115.391,3.594,1.468,5.268q1.871,2.9,4.011,5.621a21.059,21.059,0,0,0,4.745,4.715,2.048,2.048,0,0,0,2.736-.717c2.51-3.353,4.874-6.855,7.648-10a2.038,2.038,0,0,0-.405-3.141c-.25-.179-.491-.371-.735-.558.535.41-.279-.217-.408-.318l-.751-.585q-2.03-1.584-4.052-3.177c-1.991-1.565-3.994-3.117-5.965-4.706a2.062,2.062,0,0,0-2.829,0,2.016,2.016,0,0,0,0,2.829c4.181,3.369,8.359,6.838,12.721,9.969l-.4-3.142c-3,3.4-5.56,7.185-8.274,10.81l2.737-.718a11,11,0,0,1-1.713-1.511c-.672-.7-1.3-1.431-1.909-2.184-1.2-1.494-2.321-3.1-3.382-4.719-.38-.58-.754-1.164-1.113-1.758-.106-.175-.221-.349-.313-.532a.963.963,0,0,1-.095-.172c.124.5.123-.169.128-.181a4.818,4.818,0,0,1,.575-1.164c.38-.5.807-.973,1.2-1.464.878-1.088,1.743-2.187,2.669-3.234C212.492,85.387,209.673,82.548,207.964,84.481Z"/><path class="c" d="M234.521,87.31c.926,1.047,1.791,2.146,2.669,3.234a8.22,8.22,0,0,1,1.766,2.6c.024.077.065.553.088.3.015-.158.017-.046-.025.053a5,5,0,0,1-.332.565c-.359.594-.733,1.178-1.113,1.758-1.037,1.582-2.13,3.158-3.3,4.621-.631.787-1.285,1.557-1.987,2.282-.3.312-.611.617-.935.906-.148.132-.3.264-.454.387.293-.233-.265.18-.324.218l2.737.718c-2.714-3.625-5.275-7.41-8.273-10.81l-.405,3.142c4.362-3.131,8.54-6.6,12.721-9.969a2.014,2.014,0,0,0,0-2.829,2.049,2.049,0,0,0-2.829,0c-1.971,1.589-3.974,3.141-5.965,4.706q-2.024,1.59-4.052,3.177l-.751.585c-.139.109-.945.73-.408.318-.244.187-.485.379-.735.558a2.039,2.039,0,0,0-.405,3.141c2.774,3.145,5.138,6.646,7.648,10a2.037,2.037,0,0,0,2.736.717,21.059,21.059,0,0,0,4.745-4.715q2.14-2.712,4.011-5.621c1.078-1.675,1.984-3.151,1.468-5.268a10.006,10.006,0,0,0-2.383-3.854c-1.02-1.253-2.01-2.532-3.08-3.744C235.641,82.549,232.821,85.387,234.521,87.31Z"/></svg>