<!DOCTYPE svg PUBLIC "-//W3C//DTD SVG 1.1//EN" "http://www.w3.org/Graphics/SVG/1.1/DTD/svg11.dtd">
<!-- Uploaded to: SVG Repo, www.svgrepo.com, Transformed by: SVG Repo Mixer Tools -->
<svg width="800px" height="800px" viewBox="0 0 64 64" xmlns="http://www.w3.org/2000/svg" xmlns:xlink="http://www.w3.org/1999/xlink" aria-hidden="true" role="img" class="iconify iconify--emojione" preserveAspectRatio="xMidYMid meet" fill="#000000">
<g id="SVGRepo_bgCarrier" stroke-width="0"/>
<g id="SVGRepo_tracerCarrier" stroke-linecap="round" stroke-linejoin="round"/>
<g id="SVGRepo_iconCarrier"> <path d="M62 52c0 5.5-4.5 10-10 10H12C6.5 62 2 57.5 2 52V12C2 6.5 6.5 2 12 2h40c5.5 0 10 4.5 10 10v40z" fill="#0671D3"> </path> <g fill="#ffffff"> <path d="M12 32.1c0-2 .3-3.6.9-5c.5-1 1.1-1.9 1.9-2.7c.8-.8 1.7-1.4 2.7-1.7c1.3-.5 2.8-.8 4.4-.8c3 0 5.5.9 7.3 2.6c1.8 1.8 2.7 4.2 2.7 7.4c0 3.1-.9 5.6-2.7 7.3c-1.7 1.9-4.1 2.8-7.2 2.8c-3.1 0-5.5-.9-7.3-2.6c-1.8-1.8-2.7-4.2-2.7-7.3m4.3-.1c0 2.2.5 3.8 1.6 5c1.1 1.1 2.4 1.7 4.1 1.7c1.7 0 3-.6 4.1-1.7c1.1-1.1 1.6-2.8 1.6-5s-.5-3.9-1.6-5s-2.4-1.6-4.1-1.6c-1.7 0-3.1.6-4.1 1.7c-1.1 1-1.6 2.7-1.6 4.9"> </path> <path d="M34 42V22h4v8.9l8.1-8.9h5.4L44 29.8L52 42h-5.2l-5.5-9.4L38 36v6h-4z"> </path> </g> </g>
</svg>