<?xml version="1.0" encoding="utf-8"?>
<!-- Uploaded to: SVG Repo, www.svgrepo.com, Generator: SVG Repo Mixer Tools -->
<svg width="800px" height="800px" viewBox="0 -6.06 381.945 381.945" xmlns="http://www.w3.org/2000/svg"><defs><style>.a{fill:#ffffff;}.b{fill:#85807f;}.c{fill:#211715;}.d{fill:#5394cf;}.e{fill:#b3b3b3;}</style></defs><path class="a" d="M174.58,132.367c-2.486,21.581-9.843,39.331-21.324,52.428a71.825,71.825,0,0,1-8.178,7.949c1.493,8.914,2.234,14.524,3.834,25.582-10.8-5.416-17.09-8.7-25.394-13.277q-3.636,1.323-7.487,2.31a101.734,101.734,0,0,1-36.294,2.161c-.343-.032-.7-.063-1.055-.106-16.609-1.908-30.9-6.947-42.478-14.63C11.041,178.126-1.378,149.037,2.83,112.554c4.185-36.34,29.782-66,65.378-73.971a91.11,91.11,0,0,1,30.327-1.474C149.137,42.948,179.928,86.036,174.58,132.367Z"/><path class="a" d="M120.554,48.324a4.338,4.338,0,0,1,3.472-1.015,4.1,4.1,0,0,1,2.947,1.958,5.791,5.791,0,0,1,.606,2.331,17.351,17.351,0,0,1-1.77,9.2,11.041,11.041,0,0,1-2.853,3.745,3.354,3.354,0,0,1-3.775.623c-.465,1.389-1.069,2.637-1.269,3.243-.909,2.467-5.662,10.714-11.831,14.726.012,2.182-.155,4.892.644,6.876.523,1.294,3.142,3.2,5.964,4.948,0,0-4,16.952-21.829,16.952S70.086,95.091,70.086,95.091c2.643-1.787,5.157-3.753,5.693-5.077.8-1.968.642-4.673.651-6.847a30.7,30.7,0,0,1-6.693-6.083,34.055,34.055,0,0,1-6.244-11.449l-.37.1a4.145,4.145,0,0,1-3.76-1.188A11.044,11.044,0,0,1,56.509,60.8a17.371,17.371,0,0,1-1.77-9.2,5.776,5.776,0,0,1,.607-2.331,4.1,4.1,0,0,1,2.946-1.958,4.338,4.338,0,0,1,3.472,1.015S57.416,20.692,90.305,20.692,120.554,48.324,120.554,48.324Z"/><path class="a" d="M330.051,166.47a6.538,6.538,0,0,1,4.734-.982,5.9,5.9,0,0,1,4.86,3.441c1.388,3.162.609,8.546-1.021,11.733a17.118,17.118,0,0,1-6.562,7.534,12.585,12.585,0,0,1-6.237,1.35c-.225.509-.39.885-.39.885-.806,1.631-2.7,4.479-2.7,4.479a58.829,58.829,0,0,1-6.146,7.577q.87,2.532,1.744,5.066a22.953,22.953,0,0,0,1.9,4.471c2.264,3.742,7.085,5.719,11.014,7.64.673.329,1.42.663,2.2,1l-2.024,1.491a64.627,64.627,0,0,1-38.061,12.835,36.609,36.609,0,0,1-15.13-2.8,23.787,23.787,0,0,1-11-9.863c2.367-.793,4.656-1.583,6.29-2.274a9.126,9.126,0,0,0,5.3-4.7,33.361,33.361,0,0,1-17.24-7.982c-7.144-5.993-10.17-15.344-11.174-25.654-.58-5.946-1.067-12.406-1.839-18.866,0,0-7.587-29.691,31.45-32.43C327.527,127.081,330.051,166.47,330.051,166.47Z"/><path class="b" d="M255.166,122.714a49.522,49.522,0,0,0-6.962,17.662,75.424,75.424,0,0,0,.4,25.212c.143-.844.238-1.419.238-1.419.7-4.25,8.729-16.006,14.558-19.373.684-.395,1.6.064,1.932,1.22a7.661,7.661,0,0,1,.3,2.787,1.457,1.457,0,0,0,2.138,1.478c3.253-1.985,8.849-6.694,15.359-9.609a62.484,62.484,0,0,1,13.75-.807c2.61,1.011,14.65,5.049,23.7,20.837.864,1.483,1.623,3.044,2.487,4.527a9.136,9.136,0,0,0,.874,1.319.959.959,0,0,0,.618.325,13.489,13.489,0,0,0,5.5-.4,6.538,6.538,0,0,1,4.734-.982,5.9,5.9,0,0,1,4.86,3.441,7.813,7.813,0,0,1,.5,1.664c3.191-5.7,3.532-16,3.829-20.42a40.475,40.475,0,0,0-1.128-12.432c-2.01-8.075-5.078-14.69-11.347-20.479l-1.243-1.148-6.52-4.622a45.033,45.033,0,0,0-29.919-8.75c-15.392.769-27.77,6.716-36.067,16.488A34.933,34.933,0,0,0,255.166,122.714Z"/><path class="c" d="M314.662,203.016a79.147,79.147,0,0,0,3.264,8.948,14.946,14.946,0,0,0,5.485,5.849c4.538,2.973,9.792,4.884,14.787,6.919a2.013,2.013,0,0,0,2.461-1.4,2.052,2.052,0,0,0-1.4-2.461,88.8,88.8,0,0,1-13.276-6.162,11.528,11.528,0,0,1-4.515-4.587,65.678,65.678,0,0,1-2.952-8.174c-.831-2.42-4.7-1.381-3.857,1.064Z"/><path class="c" d="M259.972,226.912c3.62-1.362,7.332-2.465,10.977-3.756a32.24,32.24,0,0,0,5.167-2.087,10.92,10.92,0,0,0,4.431-4.716,2.056,2.056,0,0,0-.717-2.736,2.017,2.017,0,0,0-2.737.717c-1.531,3.243-4.859,4.153-8,5.242-3.389,1.176-6.828,2.216-10.186,3.479a2.057,2.057,0,0,0-1.4,2.461,2.015,2.015,0,0,0,2.46,1.4Z"/><path class="c" d="M330.089,118.676c5.557,5.186,8.8,11.718,10.685,19.013,1.835,7.12,1.4,14.64.42,21.874-.471,3.493-1.149,7.2-2.929,10.291-1.288,2.235,2.167,4.251,3.454,2.019,3.44-5.968,3.758-13.518,4.167-20.231a49.415,49.415,0,0,0-4.8-24.849,37.591,37.591,0,0,0-8.174-10.945c-1.88-1.755-4.715,1.067-2.828,2.828Z"/><path class="c" d="M296.342,141.794c.475.183.952.36,1.425.549l.481.2c.376.154-.375-.165.048.021.395.173.788.347,1.178.531a40.2,40.2,0,0,1,5.719,3.3,46.934,46.934,0,0,1,13.653,15.315c1.288,2.228,4.746.216,3.454-2.019-5-8.656-12.271-16.239-21.489-20.368-1.12-.5-2.261-.946-3.406-1.387a2.015,2.015,0,0,0-2.46,1.4,2.045,2.045,0,0,0,1.4,2.46Z"/><path class="c" d="M250.769,164.7c.482-2.656,2.2-5.183,3.742-7.5a46.269,46.269,0,0,1,7.1-8.543,19.267,19.267,0,0,1,1.547-1.308,8.69,8.69,0,0,0,.942-.638c.24-.24.707-.16-.187-.19-.715-.023-.489-.029-.393.494a18.822,18.822,0,0,0,.353,3.192,3.494,3.494,0,0,0,2.392,2.17c1.831.479,3.417-.927,4.813-1.905,1.521-1.066,3.027-2.155,4.566-3.2,4.195-2.838,8.641-5.412,13.612-6.584,2.5-.59,1.444-4.448-1.063-3.857a42.2,42.2,0,0,0-13.027,5.967c-1.745,1.128-3.44,2.329-5.135,3.53-.693.491-1.385.982-2.089,1.457a5.8,5.8,0,0,0-.811.534,3.334,3.334,0,0,0-.376.235c-.049-.852.884.236.871.249.207-.213-.03-1.474-.064-1.744a8.4,8.4,0,0,0-.435-1.934,3.7,3.7,0,0,0-2.467-2.374c-1.906-.456-3.656,1.169-5,2.3a45.907,45.907,0,0,0-7.771,8.905c-1.977,2.826-4.347,6.212-4.976,9.68-.457,2.517,3.4,3.6,3.857,1.064Z"/><path class="c" d="M275.592,197.879a14.035,14.035,0,0,0,6.711,1.452,13.68,13.68,0,0,0,3.37-.441,25.306,25.306,0,0,0,3.625-1.57,2.008,2.008,0,0,0,.717-2.737,2.058,2.058,0,0,0-2.736-.717c-.506.227-1,.479-1.5.72l-.363.172c-.555.261.177-.056-.137.059-.2.071-.394.138-.595.195s-.412.108-.62.151c-.107.022-.215.043-.323.062-.045.008-.4.063-.148.027s-.112.01-.157.015c-.115.012-.23.021-.345.03q-.393.029-.789.034c-.474.007-.95-.009-1.423-.048-.118-.01-.236-.022-.354-.033-.2-.019-.187-.023,0,0-.23-.033-.459-.071-.688-.116a11.684,11.684,0,0,1-1.377-.354c-.1-.033-.2-.068-.3-.1-.046-.017-.374-.137-.122-.041s-.059-.028-.106-.051c-.109-.054-.217-.107-.325-.164a2,2,0,0,0-2.019,3.454Z"/><path class="c" d="M289.971,173.621c-.542-2.109.1-6.871,4.057-7.093,5.2.277,5.209,6.071,3.329,8.707C295.817,177.393,291.556,178.12,289.971,173.621Z"/><path class="c" d="M259.023,173.138c-.494-2.115.1-6.893,3.725-7.121,4.764.27,4.761,6.083,3.036,8.73C264.371,176.914,260.468,177.649,259.023,173.138Z"/><path class="c" d="M275.073,178.246c-.683,1.118-1.342,2.256-1.925,3.429a5.006,5.006,0,0,0-.6,1.877,2.713,2.713,0,0,0,.868,2.151,4.274,4.274,0,0,0,1.694,1.01,7.2,7.2,0,0,0,1.293.191l-.532-.071c.035,0,.069.009.1.015a2.183,2.183,0,0,0,1.541-.2,2,2,0,0,0,.717-2.736,1.936,1.936,0,0,0-1.195-.919c-.34-.054-.682-.086-1.023-.129l.532.072a2.315,2.315,0,0,1-.572-.153l.478.2a2.4,2.4,0,0,1-.425-.258l.405.313a2.6,2.6,0,0,1-.352-.336l.313.405a.6.6,0,0,1-.073-.127l.2.477a1.008,1.008,0,0,1-.052-.21l.072.532a1.432,1.432,0,0,1,.006-.227l-.071.531a2.276,2.276,0,0,1,.136-.47l-.2.477a30.582,30.582,0,0,1,2.114-3.825,2,2,0,0,0-3.454-2.019Z"/><path class="c" d="M313.685,207.874a56.169,56.169,0,0,0,8.851-9.3,46.221,46.221,0,0,0,4.626-7.13,2.05,2.05,0,0,0-.717-2.737,2.021,2.021,0,0,0-2.737.718,50.046,50.046,0,0,1-12.852,15.623,2.015,2.015,0,0,0,0,2.829,2.046,2.046,0,0,0,2.829,0Z"/><path class="c" d="M324.75,109.765a48.347,48.347,0,0,0-24.194-8.953,58.538,58.538,0,0,0-23.872,3.2A48.069,48.069,0,0,0,257.973,116a46.938,46.938,0,0,0-11.389,22.3,70.726,70.726,0,0,0,.217,28.467c.509,2.521,4.365,1.454,3.857-1.063-3.024-14.99-1.756-32.919,8.511-45.054,9.443-11.163,24.025-16.2,38.39-15.969a44.606,44.606,0,0,1,25.172,8.544c2.11,1.483,4.111-1.984,2.019-3.454Z"/><path class="c" d="M302.7,209.184c-10.18,4.52-22.138,6.59-32.517,1.476a29.759,29.759,0,0,1-12.09-10.3,39.311,39.311,0,0,1-5.247-15.171c-1.16-7.383-1.394-14.926-2.273-22.349a2.062,2.062,0,0,0-2-2,2.013,2.013,0,0,0-2,2c.849,7.169,1.2,14.4,2.151,21.554a45.176,45.176,0,0,0,5.347,17.057c6.042,10.278,18.083,16.288,29.832,16.214,7.285-.045,14.2-2.1,20.816-5.031a2.015,2.015,0,0,0,.717-2.737,2.049,2.049,0,0,0-2.736-.717Z"/><path class="c" d="M331.061,168.2c2.26-1.464,5.606-.785,6.726,1.462a9.494,9.494,0,0,1,.565,3.917,16.486,16.486,0,0,1-.991,5,15.829,15.829,0,0,1-5.14,7.126c-2.047,1.517-5.577,2.639-8.154,1.416a2.055,2.055,0,0,0-2.736.717,2.018,2.018,0,0,0,.718,2.737,12.3,12.3,0,0,0,9.827-.093,16.348,16.348,0,0,0,7.367-6.8,21.015,21.015,0,0,0,3.056-9.245c.249-2.9-.147-6.077-2.13-8.338-2.676-3.051-7.8-3.515-11.127-1.358-2.153,1.394-.151,4.858,2.019,3.454Z"/><path class="a" d="M200.536,302.1a9.848,9.848,0,0,0-5.152,6.335c.075,6.156,5.616,26.066,8.178,32.376a49.335,49.335,0,0,0,7.54,12.411,18.123,18.123,0,0,0,12.457,6.361c7.263.346,17.644-6.305,20.107-11.85l1.663-3.744c.575,5.71,1.134,11.46,1.651,17.067H352.62a24.668,24.668,0,0,0,9.753-2.982c5.763-3.22,9.976-8.981,12.085-14.983,4.7-13.373,5.086-37.949,5.391-48.639a189.219,189.219,0,0,0-1.523-31.5c-.705-5.167-2.4-11.738-4.911-16.231-2.754-4.925-8.227-10.658-11.122-13.084-6.8-5.7-16.443-10.368-27.357-14.251a65.052,65.052,0,0,1-41.568,15.6,36.609,36.609,0,0,1-15.13-2.8,23.591,23.591,0,0,1-11.576-10.956c-1.195.3-3.158.807-3.99,1.052-8.82,2.594-20.539,7.4-27,13.282Z"/><path class="a" d="M77.453,193.019l-28.646-1.145L29.155,178.8c1.5-28.52,3.07-51.79,5.95-61.38a15.492,15.492,0,0,1,4.58-7.32,32.842,32.842,0,0,1,5.76-3.74c5.26-2.54,17.79-7.99,23.39-10.6l3.046-1.419c2.012,21.541,11.125,39.274,18.607,56.31A160.761,160.761,0,0,0,98.118,135c3-7.129,7.406-19.6,8.75-23.26A108.638,108.638,0,0,0,111.3,93.448c1.415.475,2.522.839,2.522.839,5.75,2.667,17.7,7.555,23.417,10.315a18.315,18.315,0,0,1,5.293,3.531A16.4,16.4,0,0,1,146,113.475c4.025,10.5,4.652,15.858,8.519,26.123,1.158-3.867,2.266-7.694,3.441-11.728,6.039,2.013,17.611,5.778,22.08,6.958-1.973,9.776-3.881,20.27-7.063,30.186-2.211,6.888-5.537,13.441-12.306,16a17.867,17.867,0,0,1-15.658-1.225c-4.562-2.658-9.982-8.85-12.745-11.555-.286,2.609,1.341,17.5,2.085,27.064Z"/><path class="b" d="M70.751,34.293a8.526,8.526,0,0,1-1.517,1.726c-1.073.9-2.562,1.536-3.739,2.374a7.129,7.129,0,0,0-3.083,5.021c-.2,1.373-.352,3.064-.476,5.076a4.3,4.3,0,0,0-3.644-1.181,3.931,3.931,0,0,0-.744.185,37.867,37.867,0,0,1-1.581-11.927A34.767,34.767,0,0,1,91.181,2.008a34.98,34.98,0,0,1,21.976,7.419c6.384,4.906,12.686,13.192,13.24,26.14a35.577,35.577,0,0,1-1.269,10.868l-.271,1.086a4.187,4.187,0,0,0-.831-.212,4.268,4.268,0,0,0-3.668,1.217c-.624-2.839-1-5.04-1.446-6.612-.667-2.333-1.042-4-1.923-6.5-.779-2.212-.875-3.748-5.833-4.267-1.344-.14-3.448-.156-4.808-.157-2.808,0-5.616,0-8.422.057a30.067,30.067,0,0,1-5.64-.2c-2.973-.5-5.343-1.932-8.026-2.91s-6.341-1.428-8.611-.072A6.39,6.39,0,0,0,73.637,30l-2.5,3.722C71.013,33.91,70.884,34.1,70.751,34.293Z"/><path class="c" d="M147.9,187.529c-1.195,1.154-2.421,2.273-3.69,3.345a2.359,2.359,0,0,0-1.059,2.4c.095.64.213,1.277.317,1.916q.6,3.671,1.155,7.349c.818,5.434,1.575,10.878,2.362,16.316l2.938-2.258c-4.616-2.315-9.223-4.645-13.8-7.039q-3.031-1.586-6.042-3.208-1.448-.78-2.89-1.568c-1.007-.55-2.268-1.545-3.409-1.7-1.226-.165-2.877.769-4.047,1.138q-2.1.662-4.238,1.208-3.738.96-7.552,1.584a96.694,96.694,0,0,1-16.39,1.2c-20.3-.152-41.174-5.275-57.671-17.486A73.235,73.235,0,0,1,7.033,150.446a96,96,0,0,1-2.974-27.017,97.3,97.3,0,0,1,4.6-28.123A83.221,83.221,0,0,1,40.546,52.692q2.736-1.858,5.612-3.494c2.234-1.277.221-4.734-2.019-3.454A86.591,86.591,0,0,0,9.807,82.1C1.858,98.026-.978,116.135.291,133.816,1.44,149.83,6.4,165.668,16.12,178.588c10.141,13.482,24.507,22.905,40.463,28.13a115.443,115.443,0,0,0,29.852,5.34,100.3,100.3,0,0,0,30.128-2.771q3.8-.974,7.486-2.31l-1.541-.2c8.37,4.609,16.854,8.994,25.395,13.277a2.03,2.03,0,0,0,2.938-2.259c-1.234-8.534-2.413-17.076-3.834-25.582l-.514,1.946q2.187-1.822,4.234-3.8c1.855-1.792-.975-4.618-2.828-2.829Z"/><path class="c" d="M135.355,51.971A82.112,82.112,0,0,1,165.669,86.9a2.015,2.015,0,0,0,2.736.717,2.046,2.046,0,0,0,.718-2.736,85.861,85.861,0,0,0-31.75-36.362c-2.175-1.39-4.184,2.071-2.018,3.454Z"/><path class="a" d="M207.27,101.865a.812.812,0,0,1-.138-.39.968.968,0,0,1,.126-.389,3.479,3.479,0,0,0,.128-2.79c-.283-.811-.7-1.382-2.135-1.929-1.206-.458-2.262-.477-4.2.46-.5-1.363-3.008-2.345-4.428-2.137a12.055,12.055,0,0,0-3.82,1.583c-5.1,2.7-14.661,7.234-19.431,7.876a28.292,28.292,0,0,0,1.251-8.238,2.981,2.981,0,0,0-.937-2.136,2.306,2.306,0,0,0-2.3-.592,4.659,4.659,0,0,0-1.977,1.838,115.061,115.061,0,0,0-5.554,11.682c-1.78,4.422-1.362,9.068-.465,13.737-.045.54-.1,1.236-.1,1.236-.1,1.155-1.165,5.176-1.761,7.375,5.1,1.675,11.69,3.8,15.969,5.057.649-2.323,1.633-6.13,2.185-7.642a3.317,3.317,0,0,1,.748-1.338,3.36,3.36,0,0,1,1.156-.615c7.537-2.906,20.728-10.6,24.42-14.8a2.383,2.383,0,0,0,.249-2.81A4.338,4.338,0,0,0,207.27,101.865Z"/><path class="c" d="M163.164,130.652c.606-2.222,1.22-4.445,1.726-6.693a21.1,21.1,0,0,0,.445-2.851c.159-1.884-.524-3.886-.653-5.785a19.339,19.339,0,0,1,.336-5.635A29.543,29.543,0,0,1,167,104.359c.663-1.486,1.374-2.95,2.11-4.4a29.7,29.7,0,0,1,2.2-4.2c.256-.347.556-.79.958-.568.578.319.339,1.435.315,1.921a26.216,26.216,0,0,1-1.142,6.508c-.5,1.607,1.047,2.665,2.46,2.46,4.715-.684,9.334-2.963,13.609-4.955q3.186-1.485,6.3-3.123c1.043-.553,2.348-1.512,3.6-1.319a2.506,2.506,0,0,1,1.915,1.155,2.039,2.039,0,0,0,2.736.718c1.226-.566,3.793-.813,3.545,1.211-.085.7-.521,1.229-.438,1.976.059.527.385.96.477,1.475a2.483,2.483,0,0,1-.806,2.278,2.055,2.055,0,0,0-.313,2.424c.3.6-1,1.46-1.368,1.788-.829.729-1.7,1.4-2.6,2.045-2.48,1.787-5.081,3.407-7.723,4.939-2.671,1.549-5.4,3.008-8.189,4.328-1.142.541-2.3,1.051-3.47,1.518a5.3,5.3,0,0,0-3.457,3.489c-1.008,2.8-1.609,5.752-2.454,8.6-.733,2.474,3.127,3.53,3.857,1.064.8-2.689,1.415-5.431,2.283-8.1a1.865,1.865,0,0,1,.643-1.129,13.468,13.468,0,0,1,2.088-.855c1.306-.558,2.594-1.159,3.868-1.787a94.934,94.934,0,0,0,16.38-9.977,22.771,22.771,0,0,0,2.78-2.438,4.613,4.613,0,0,0,.816-5.511l-.312,2.424c2.124-2.056,2.332-4.732,1.393-7.379v1.063c.807-2.5.684-5.306-1.761-6.862-2.373-1.51-4.829-1.167-7.258-.045l2.737.718c-1.11-2.459-4.628-3.542-7.095-2.983A18.722,18.722,0,0,0,191.3,94.8q-1.764.921-3.555,1.791c-4.656,2.267-9.725,4.874-14.907,5.626l2.46,2.46a30.4,30.4,0,0,0,1.249-6.952c.139-2.076.031-3.977-1.584-5.487a4.309,4.309,0,0,0-5.791-.011c-1.387,1.178-2.083,2.91-2.9,4.488-1.9,3.693-4.078,7.627-5.068,11.681a22.823,22.823,0,0,0-.53,6.923c.141,2.091.77,4.192.611,6.276-.018.245.031-.173.032-.178-.021.15-.048.3-.077.448-.066.343-.139.686-.215,1.027-.182.808-.383,1.612-.588,2.415-.365,1.429-.75,2.854-1.138,4.278-.679,2.486,3.179,3.547,3.857,1.063Z"/><path class="c" d="M74.433,83.926a34.6,34.6,0,0,1-.089,3.528c-.007.076-.061.509-.006.124-.018.122-.037.244-.059.366-.048.267-.107.533-.179.794-.039.142-.088.28-.128.421-.107.37.043-.064.042-.065.032.034-.254.435-.277.472-.158.251.086-.07.084-.1,0,.06-.187.221-.224.262-.151.17-.309.333-.471.492-.372.365-.766.709-1.169,1.041q-.183.151-.369.3c-.042.033-.376.292-.137.11-.243.186-.488.367-.735.547-.539.393-1.087.774-1.639,1.148A2,2,0,1,0,71.1,96.818c2.17-1.472,4.578-3.042,6.095-5.233a8.165,8.165,0,0,0,1.1-3.661,30.492,30.492,0,0,0,.141-4,2,2,0,0,0-4,0Z"/><path class="c" d="M104.078,84.055a29.39,29.39,0,0,0,.144,3.914,7.733,7.733,0,0,0,1.143,3.67c1.6,2.157,4.069,3.652,6.315,5.049a2.018,2.018,0,0,0,2.736-.717,2.041,2.041,0,0,0-.717-2.736c-1.093-.68-2.155-1.4-3.2-2.148-.3-.212.062.056-.1-.075-.091-.073-.183-.145-.274-.219-.213-.173-.422-.35-.626-.534-.166-.149-.328-.3-.484-.462-.108-.111-.3-.424-.435-.488.069.032.234.359.109.128-.04-.072-.089-.151-.135-.221-.172-.264.119.066.039.109,0,0-.1-.3-.11-.323a8.255,8.255,0,0,1-.214-.85c-.024-.118-.043-.236-.064-.354-.1-.563.008.228-.015-.1-.084-1.216-.119-2.419-.111-3.639a2,2,0,0,0-4,0Z"/><path class="c" d="M156.441,139.057c-3.336-8.906-5.093-18.447-8.948-27.152-1.978-4.467-5.622-7.319-9.935-9.357-3.515-1.662-7.1-3.184-10.668-4.719-4.03-1.733-8.08-3.428-12.062-5.269a2.059,2.059,0,0,0-2.737.718,2.016,2.016,0,0,0,.718,2.736c6.915,3.2,14,6,20.938,9.158a45.929,45.929,0,0,1,4.934,2.476,13.3,13.3,0,0,1,4.542,4.676,36.625,36.625,0,0,1,2.761,7.013c.693,2.069,1.331,4.156,1.945,6.25,1.435,4.888,2.867,9.76,4.655,14.533a2.055,2.055,0,0,0,2.46,1.4,2.016,2.016,0,0,0,1.4-2.46Z"/><path class="c" d="M67.826,94.033c-5.72,2.661-11.511,5.169-17.26,7.767-6,2.712-12.685,5.4-15.927,11.535-2.41,4.564-2.993,10.109-3.669,15.151-.912,6.8-1.493,13.642-2,20.482-.739,9.935-1.289,19.884-1.813,29.832-.135,2.573,3.865,2.565,4,0,.826-15.679,1.553-31.422,3.4-47.022a82.936,82.936,0,0,1,2.405-13.572,14.079,14.079,0,0,1,5.784-7.9,51.115,51.115,0,0,1,8.076-4.247c6.329-2.885,12.72-5.634,19.026-8.568a2.016,2.016,0,0,0,.717-2.736,2.046,2.046,0,0,0-2.736-.718Z"/><path class="c" d="M50.807,191.874c.516-5.968,1.128-11.929,1.578-17.9a51.18,51.18,0,0,0-.261-10.665c-1.172-9.037-3.051-17.941-4.539-26.925-1.027-6.2-1.838-12.452-3.055-18.623-.5-2.523-4.354-1.455-3.858,1.064,1.058,5.363,1.793,10.789,2.659,16.185.739,4.6,1.625,9.176,2.452,13.763C46.6,153.3,47.369,157.839,48,162.4a48.107,48.107,0,0,1,.5,9.891c-.426,6.538-1.133,13.058-1.7,19.586-.222,2.564,3.78,2.549,4,0Z"/><path class="d" d="M92.113,97.851H90.3a3.521,3.521,0,0,0-1.214-.687c-6.246-2.513-11.457-6.345-13.74-9.413a15.8,15.8,0,0,0-3.606,4.89c1.679,22.312,11.074,40.528,18.752,58.01A160.761,160.761,0,0,0,98.118,135c3-7.129,7.406-19.6,8.75-23.26a109.032,109.032,0,0,0,4.583-19.371,15.379,15.379,0,0,0-3.46-4.613c-2.282,3.068-7.493,6.9-13.739,9.413a3.528,3.528,0,0,0-1.215.687Z"/><path class="c" d="M137.69,119.007c-1.391,10.886-3.077,21.694-5,32.5-.833,4.678-1.66,9.371-2.2,14.094a54.427,54.427,0,0,0,.192,10.789c.527,6.305,1.174,12.6,1.668,18.908.2,2.549,4.2,2.571,4,0-.441-5.624-1-11.237-1.492-16.856-.33-3.772-.85-7.637-.514-11.425.79-8.887,2.9-17.645,4.323-26.442,1.159-7.166,2.1-14.364,3.023-21.564a2.01,2.01,0,0,0-2-2,2.052,2.052,0,0,0-2,2Z"/><path class="c" d="M109.425,92.527A111.179,111.179,0,0,1,103.89,114.1c-2.542,7.041-5.02,14.136-7.979,21.015-2.135,4.964-4.551,9.791-7.151,14.527-1.239,2.258,2.213,4.279,3.454,2.019a189.4,189.4,0,0,0,11.05-24.29c2.448-6.477,5.109-13.006,6.991-19.677a112.591,112.591,0,0,0,3.027-14.1,2.067,2.067,0,0,0-1.4-2.461,2.014,2.014,0,0,0-2.46,1.4Z"/><path class="c" d="M69.745,92.782c1.3,16.431,6.955,31.743,13.576,46.694,1.76,3.974,3.565,7.928,5.317,11.905a2.014,2.014,0,0,0,2.736.718,2.051,2.051,0,0,0,.718-2.737c-6.148-13.956-12.817-27.75-16.214-42.706a97.322,97.322,0,0,1-2.133-13.874c-.2-2.549-4.2-2.571-4,0Z"/><path class="a" d="M117.361,143.227a5.192,5.192,0,0,1-2.064-.871c-2.7-1.929-2.939-5.814-2.229-8.805a6.139,6.139,0,0,1,7.962-4.482c3.591.983,4.681,4.978,4.048,8.29C124.4,140.919,121.621,144.034,117.361,143.227Z"/><path class="c" d="M117.893,141.3a3.916,3.916,0,0,1-1-.309c-.134-.074-.261-.153-.393-.23-.534-.31.14.19-.238-.177-.134-.131-.265-.269-.4-.4-.254-.241-.107-.11-.041-.026a5.483,5.483,0,0,1-.654-1.117c.14.311.011.023-.008-.04-.056-.179-.12-.355-.171-.536a9.143,9.143,0,0,1-.2-.926c.073.431-.017-.186-.021-.229q-.024-.286-.031-.576a11.359,11.359,0,0,1,.026-1.152c.013-.19.031-.379.053-.569-.01.086-.065.365.007-.028.059-.322.111-.645.2-.962.03-.115.063-.229.1-.341.026-.079.057-.156.083-.235.095-.284.178-.037-.062.136.209-.151.411-.808.563-1.043.1-.158.509-.581.112-.185.2-.2.362-.422.563-.615.08-.077.168-.146.246-.224.319-.318-.367.217.024-.022.2-.123.39-.257.6-.368.094-.05.536-.222.055-.043.119-.044.237-.089.357-.127s.25-.074.377-.1c.109-.026.775-.09.28-.062a8.906,8.906,0,0,1,.895-.02c.029,0,.651.056.244,0,.172.022.344.058.514.094a6.566,6.566,0,0,1,1.081.309c-.336-.134.028.02.107.068.179.107.358.209.532.326-.353-.238.09.083.137.127.084.078.166.16.245.243.042.044.39.483.127.125.1.139.2.283.287.431.069.115.422.84.263.456a6.991,6.991,0,0,1,.325,1.01c.043.174.073.35.111.525.125.561-.011-.394.027.182.019.3.042.6.042.9s-.025.6-.043.9c-.035.578.092-.385-.023.179-.049.238-.092.477-.152.714a9.638,9.638,0,0,1-.335,1.046c.133-.348-.009.02-.052.106-.1.188-.189.377-.3.559q-.135.234-.285.456c-.026.039-.378.476-.114.165a8.13,8.13,0,0,1-.8.817c-.246.219.381-.234-.081.064-.2.127-.392.256-.6.367.012-.006-.509.236-.244.126.191-.08-.376.119-.442.138-.179.049-.359.088-.541.123.405-.078-.181.011-.229.014-.2.01-.4.01-.6,0-.138-.006-.276-.016-.413-.03.181.028.145.021-.106-.022a2.06,2.06,0,0,0-2.461,1.4,2.018,2.018,0,0,0,1.4,2.461,8.425,8.425,0,0,0,5.963-.93,8.981,8.981,0,0,0,3.49-4.1c1.5-3.462,1.332-7.781-1.159-10.752a8.325,8.325,0,0,0-10.268-1.485,8.885,8.885,0,0,0-3.924,6.221,12.068,12.068,0,0,0,.5,6.305,7.548,7.548,0,0,0,5.4,4.744,2.048,2.048,0,0,0,2.46-1.4A2.021,2.021,0,0,0,117.893,141.3Z"/><path class="c" d="M122.735,128.148a93.011,93.011,0,0,0,.6-20.2c-.547-5.591-1.756-11.956-6.015-16-1.867-1.771-4.7,1.053-2.828,2.829,3.7,3.514,4.559,9.4,4.938,14.243a96.5,96.5,0,0,1-.691,19.12,2.012,2.012,0,0,0,2,2,2.049,2.049,0,0,0,2-2Z"/><path class="c" d="M64.874,122.033c-.251-5.352-.737-10.769-.261-16.122.365-4.105,1.615-8.015,4.667-10.9,1.873-1.774-.959-4.6-2.828-2.829-7.951,7.527-6.038,20.033-5.578,29.855.12,2.563,4.121,2.578,4,0Z"/><path class="c" d="M197.042,106.268c-1.61.783-3.172,1.66-4.763,2.479-.769.395-1.547.772-2.339,1.119.4-.175-.071.028-.159.063-.213.086-.428.169-.644.247-.436.16-.877.3-1.322.432a2,2,0,0,0,1.063,3.858c3.622-1.058,6.815-3.106,10.183-4.744a2.01,2.01,0,0,0,.717-2.736,2.051,2.051,0,0,0-2.736-.718Z"/><path class="c" d="M196.894,100.829c-2.432,1.024-4.791,2.223-7.2,3.292-1.117.5-2.23,1-3.345,1.5-.541.241-1.083.482-1.626.719-.253.111-.508.22-.762.33-.228.1-.071.028.066-.027-.125.05-.248.1-.372.153a2.063,2.063,0,0,0-1.4,2.46,2.012,2.012,0,0,0,2.46,1.4c2.247-.918,4.449-1.941,6.666-2.928,1.086-.483,2.178-.947,3.252-1.455.633-.3,1.264-.607,1.9-.909.308-.147.616-.294.927-.438l.345-.158c.045-.02.6-.26.158-.074a2.07,2.07,0,0,0,1.4-2.461,2.014,2.014,0,0,0-2.461-1.4Z"/><path class="c" d="M181.149,109.09q3.528,2.934,6.758,6.2a2,2,0,1,0,2.828-2.828q-3.227-3.264-6.758-6.2a2.146,2.146,0,0,0-1.414-.585,2,2,0,0,0-1.414,3.414Z"/><path class="a" d="M149.918,154.218c3.177-9.551,5.446-17.444,8.039-26.348,6.039,2.013,17.611,5.778,22.08,6.958-1.973,9.776-3.881,20.27-7.063,30.186-2.211,6.888-5.537,13.441-12.306,16a17.867,17.867,0,0,1-15.658-1.225c-4.045-2.357-8.764-7.491-11.711-10.51"/><path class="c" d="M151.847,154.75c2.894-8.718,5.471-17.53,8.039-26.348l-2.46,1.4c7.308,2.435,14.633,4.976,22.08,6.957l-1.4-2.46c-1.183,5.869-2.3,11.751-3.653,17.584a106.548,106.548,0,0,1-4.735,16.288c-1.658,4.061-4.13,8.032-8.07,10.2a16,16,0,0,1-14.93.082c-4.706-2.481-8.347-6.828-12.008-10.587-1.8-1.847-4.626.983-2.828,2.829,3.634,3.731,7.22,7.784,11.679,10.559a20.08,20.08,0,0,0,17.179,1.857c10.907-3.842,14.089-16.2,16.623-26.236,1.795-7.112,3.152-14.322,4.6-21.509a2.042,2.042,0,0,0-1.4-2.461c-7.447-1.981-14.772-4.523-22.08-6.957a2.027,2.027,0,0,0-2.46,1.4c-2.569,8.817-5.145,17.63-8.039,26.347-.813,2.449,3.048,3.5,3.857,1.064Z"/><path class="c" d="M63.168,152.412c-.158-.046-.3-.5-.278-.172-.025-.338.874-.794.829-.492,0,.01-.4-.609-.383-.581a11.59,11.59,0,0,1-.631-2.638c-.41-2-.8-4-1.144-6.012a54.224,54.224,0,0,1-.965-12.368c.1-1.72.315-3.977,1.765-5.128a3.575,3.575,0,0,1,4.138-.193c1.651.9,2.375,2.5,3.038,4.2a52.736,52.736,0,0,1,1.99,6.475c.6,2.408,1.07,4.845,1.47,7.294.214,1.314.408,2.632.59,3.952.077.554.174,1.112.208,1.672a4.2,4.2,0,0,0,0,.768l.015.078q1.566-.463.931.776c2.265-1.225.248-4.68-2.019-3.454-3.455,1.868-1.137,7.614,2.628,6.331,3.8-1.294,2.183-6.732,1.752-9.58a91.029,91.029,0,0,0-2.174-10.625c-.869-3.145-1.847-6.854-3.981-9.4a8.539,8.539,0,0,0-8.1-2.881c-3.2.763-5.136,3.385-5.822,6.473-1.434,6.448.052,13.6,1.281,19.967.543,2.815.8,7.9,4.335,8.657,4.509.967,5.848-5.724,1.591-6.974-2.475-.727-3.532,3.132-1.063,3.857Z"/><path class="c" d="M88.487,159.539c.142,7.739-.06,15.481.081,23.22.047,2.571,4.048,2.58,4,0-.141-7.739.061-15.481-.081-23.22-.047-2.571-4.047-2.579-4,0Z"/><path class="c" d="M103.9,109.707a65.679,65.679,0,0,0,7.855-11.481q.806-1.525,1.538-3.087a3.7,3.7,0,0,0,.617-2.089,5.639,5.639,0,0,0-.752-1.725,18.957,18.957,0,0,0-3.757-4.988,2.038,2.038,0,0,0-3.141.405,23.819,23.819,0,0,1-5.473,4.746,42.014,42.014,0,0,1-4.2,2.431A46.224,46.224,0,0,0,92.24,95.94c-3.034,1.965.228,4.634,1.739,6.207,2.385,2.484,4.871,4.932,7.1,7.56a2.016,2.016,0,0,0,2.828,0,2.042,2.042,0,0,0,0-2.829c-1.8-2.126-3.829-4.043-5.723-6.083-.8-.862-1.6-1.72-2.431-2.549-.235-.233-.467-.468-.7-.7-.08-.079-.15-.167-.228-.248.408.427.1.133-.079-.189l.273,1.009.024-.267-.585,1.414c-.14.146.507-.239.677-.314.5-.219,1-.419,1.5-.639q1.167-.517,2.3-1.1a41.242,41.242,0,0,0,4.419-2.632,26.9,26.9,0,0,0,6.366-5.816l-3.141.405a18.073,18.073,0,0,1,3.645,5.159V92.306a64.688,64.688,0,0,1-9.146,14.572,2.055,2.055,0,0,0,0,2.829A2.016,2.016,0,0,0,103.9,109.707Z"/><path class="c" d="M82.258,106.878a64.692,64.692,0,0,1-9.147-14.572v2.019a18.093,18.093,0,0,1,3.645-5.159l-3.141-.405a26.9,26.9,0,0,0,6.367,5.816A41.327,41.327,0,0,0,84.4,97.209q1.135.585,2.3,1.1c.5.22,1,.42,1.5.639.17.075.817.46.678.314L88.3,97.851l.025.267.273-1.009c-.132.237-.6.693-.08.189-.08.077-.147.17-.227.248-.211.2-.415.414-.623.621-.861.854-1.687,1.738-2.512,2.628-1.893,2.04-3.922,3.958-5.723,6.083a2.055,2.055,0,0,0,0,2.829,2.017,2.017,0,0,0,2.829,0c2.226-2.628,4.711-5.075,7.1-7.56,1.511-1.573,4.781-4.237,1.739-6.207a45.708,45.708,0,0,0-4.353-2.021,41.6,41.6,0,0,1-4.2-2.431,23.819,23.819,0,0,1-5.474-4.746,2.038,2.038,0,0,0-3.141-.405,18.746,18.746,0,0,0-3.685,4.855,8.156,8.156,0,0,0-.787,1.592,3.129,3.129,0,0,0,.5,2.194q.77,1.642,1.613,3.248a65.733,65.733,0,0,0,7.855,11.481,2.017,2.017,0,0,0,2.829,0A2.044,2.044,0,0,0,82.258,106.878Z"/><path class="c" d="M103.2,154.919l8.491-8.844a2,2,0,0,0-2.829-2.829l-8.491,8.845a2,2,0,0,0,2.829,2.828Z"/><path class="c" d="M117.791,62.386a18.3,18.3,0,0,1-1.405,4.484c-.167.4-.325.8-.478,1.208-.107.281.2-.414-.051.105-.065.135-.127.271-.193.406a37.995,37.995,0,0,1-3.233,5.333c-2.773,3.9-6.558,8.141-11.4,9.279-2.5.588-1.444,4.446,1.064,3.857,5.731-1.346,10.145-6.106,13.483-10.684a38.75,38.75,0,0,0,3.509-5.694,25.143,25.143,0,0,0,2.566-7.23,2.068,2.068,0,0,0-1.4-2.46,2.013,2.013,0,0,0-2.46,1.4Z"/><path class="c" d="M60.515,62.042a36.534,36.534,0,0,0,7.661,16.277c3.936,4.784,9.3,8.89,15.563,9.848a2.065,2.065,0,0,0,2.46-1.4,2.016,2.016,0,0,0-1.4-2.461c-5.665-.866-10.239-4.494-13.8-8.818a32.494,32.494,0,0,1-6.631-14.512c-.484-2.525-4.34-1.456-3.858,1.063Z"/><path class="c" d="M111.637,5.927A38.633,38.633,0,0,0,75.893,3.108,37.047,37.047,0,0,0,55.916,24.8a38.648,38.648,0,0,0-.59,22.164c.64,2.491,4.5,1.435,3.857-1.064-2.722-10.594-.692-22.056,6.594-30.4a34.022,34.022,0,0,1,43.841-6.117c2.175,1.391,4.184-2.07,2.019-3.454Z"/><path class="c" d="M127.057,46.967a39.729,39.729,0,0,0-.384-21.613,35.5,35.5,0,0,0-9.057-14.708c-1.842-1.8-4.673,1.025-2.828,2.829a31.233,31.233,0,0,1,8.028,12.943A35.645,35.645,0,0,1,123.2,45.9c-.616,2.5,3.24,3.566,3.857,1.064Z"/><path class="c" d="M121.968,49.739a2.251,2.251,0,0,1,3.278.538,5.485,5.485,0,0,1,.392,2.422,14.549,14.549,0,0,1-.208,2.918,15.4,15.4,0,0,1-2.064,5.456,7.6,7.6,0,0,1-1.627,1.906,1.505,1.505,0,0,1-1.588.418c-2.49-.664-3.552,3.194-1.063,3.858,3.18.848,5.671-1.2,7.405-3.67a18.578,18.578,0,0,0,3.011-8.371c.34-2.785.332-6.314-1.922-8.339a6.393,6.393,0,0,0-8.442.035,2.016,2.016,0,0,0,0,2.829,2.044,2.044,0,0,0,2.828,0Z"/><path class="c" d="M63.179,46.91a6.4,6.4,0,0,0-8.442-.035c-2.315,2.08-2.26,5.724-1.892,8.567A18.276,18.276,0,0,0,56,63.825c1.791,2.457,4.462,4.542,7.657,3.838a2,2,0,0,0-1.064-3.857c-1.363.3-2.82-1.493-3.479-2.485a15.169,15.169,0,0,1-2.194-5.549,14.4,14.4,0,0,1-.241-2.872,5.751,5.751,0,0,1,.4-2.623,2.25,2.25,0,0,1,3.277-.538,2.057,2.057,0,0,0,2.829,0,2.018,2.018,0,0,0,0-2.829Z"/><path class="c" d="M86.141,72.4a12.3,12.3,0,0,0,5.917,1.38,9.749,9.749,0,0,0,6.076-1.837,2,2,0,0,0,0-2.829,2.064,2.064,0,0,0-2.829,0c.69-.537-.037,0-.256.111-.169.089-.626.23,0,.02-.162.055-.319.123-.482.175-.2.066-.413.122-.623.171a4.53,4.53,0,0,0-.725.137c.2-.088.317-.038.014-.008-.133.013-.265.024-.4.033-.319.021-.638.029-.958.027q-.429,0-.858-.031-.2-.013-.393-.033c-.074-.007-.149-.015-.223-.025-.157-.019-.1-.011.175.024-.114.055-.518-.092-.645-.121q-.309-.067-.614-.159c-.176-.053-.348-.116-.522-.175-.453-.156.415.2,0,.005q-.324-.153-.64-.319A2,2,0,0,0,86.141,72.4Z"/><path class="c" d="M90.8,58.778a26.522,26.522,0,0,1,.624,2.853L91.35,61.1a1.729,1.729,0,0,1,.011.394l.072-.532a1,1,0,0,1-.044.177l.2-.478a.6.6,0,0,1-.063.114l.313-.405a.578.578,0,0,1-.093.092l.405-.312a2.032,2.032,0,0,1-.226.119l.477-.2a1.719,1.719,0,0,1-.381.111l.532-.072a1.523,1.523,0,0,1-.357,0l.531.071c-.135-.019-.267-.052-.4-.07a1.512,1.512,0,0,0-.8-.035,1.492,1.492,0,0,0-.744.237,2,2,0,0,0-.717,2.736,1.91,1.91,0,0,0,1.195.919c.354.048.7.137,1.059.153a3.48,3.48,0,0,0,1.622-.395,2.454,2.454,0,0,0,1.328-1.606,3.8,3.8,0,0,0-.014-1.67c-.155-.92-.367-1.831-.6-2.733a2.06,2.06,0,0,0-.919-1.2,2.039,2.039,0,0,0-1.541-.2A2.017,2.017,0,0,0,91,57.237a2.1,2.1,0,0,0-.2,1.541Z"/><path class="c" d="M76.37,50.626c-.454,1.476-.158,4.872,2.638,5.161,3.7-.023,3.893-4.128,2.649-6.058C80.638,48.149,77.643,47.492,76.37,50.626Z"/><path class="c" d="M107.136,50.626c.455,1.476.159,4.872-2.637,5.161-3.7-.023-3.893-4.128-2.649-6.058C102.868,48.149,105.864,47.492,107.136,50.626Z"/><path class="c" d="M89.689,52.032a11.725,11.725,0,0,1,1.234-.236l-.532.072a11.027,11.027,0,0,1,2.812.008l-.531-.072a11.336,11.336,0,0,1,1.536.325,2,2,0,1,0,1.064-3.857,12.944,12.944,0,0,0-6.646-.1,2.02,2.02,0,0,0-1.4,2.46,2.041,2.041,0,0,0,2.46,1.4Z"/><path class="c" d="M69.767,47.587a11.807,11.807,0,0,0-2.926-.3,2.085,2.085,0,0,0-1.414.586,2.216,2.216,0,0,0-.586,1.414,2,2,0,0,0,2,2,9.733,9.733,0,0,1,1.573.079l-.532-.071q.414.057.821.148a1.515,1.515,0,0,0,.8.035,1.486,1.486,0,0,0,.743-.237,1.511,1.511,0,0,0,.561-.515,1.5,1.5,0,0,0,.358-.68,2,2,0,0,0-1.4-2.46Z"/><path class="c" d="M114.87,51.444q.406-.091.821-.148l-.532.071a9.733,9.733,0,0,1,1.573-.079,1.516,1.516,0,0,0,.771-.172,2.057,2.057,0,0,0,1.229-1.828,2.018,2.018,0,0,0-.586-1.414,2.129,2.129,0,0,0-1.414-.586,9.482,9.482,0,0,0-1.227.039,13.94,13.94,0,0,0-1.7.26,1.5,1.5,0,0,0-.68.358,1.511,1.511,0,0,0-.515.561,1.486,1.486,0,0,0-.237.743,1.515,1.515,0,0,0,.035.8,2.022,2.022,0,0,0,.92,1.2l.477.2a2.022,2.022,0,0,0,1.064,0Z"/><path class="c" d="M104.31,57.689a8.962,8.962,0,0,1-4.222-.994c-.109-.065-.777-.558-.508-.33a7,7,0,0,1-.768-.762c-.047-.053-.221-.3-.02-.018q-.157-.22-.3-.451c-.079-.13-.153-.263-.223-.4-.037-.07-.292-.643-.146-.281a8.4,8.4,0,0,1-.664-4.08c-.024.346-.011.047,0-.031.037-.183.085-.361.138-.54.162-.547-.182.3.077-.2.055-.109.114-.218.177-.323a4.375,4.375,0,0,1,1.116-1.134,9.326,9.326,0,0,1,4.441-1.3,12.1,12.1,0,0,1,5.367.742,7.463,7.463,0,0,1,1.381.862c.12.109.631.676.443.43a4.865,4.865,0,0,1,.563.953c-.149-.332.01.041.035.131.042.152.091.3.127.456.008.034.105.651.057.237.016.133.024.268.03.4a9.748,9.748,0,0,1-.041,1.3c0,.035-.048.393-.007.111-.04.276-.1.552-.163.823a7.566,7.566,0,0,1-.371,1.157c.12-.282-.018.02-.04.063-.117.231-.242.459-.381.678.023-.036-.334.483-.176.271.078-.1-.279.322-.341.387-.134.141-.275.273-.419.4-.3.266.148-.078-.213.174a7.974,7.974,0,0,1-4.956,1.259c-2.575-.035-2.576,3.965,0,4,4.494.061,8.664-1.824,10.383-6.173,1.539-3.889.7-8.415-2.878-10.807a13.018,13.018,0,0,0-6.523-1.858,15.414,15.414,0,0,0-7.3,1.268,7.891,7.891,0,0,0-4.153,4.362,10.345,10.345,0,0,0,.071,5.938,9.382,9.382,0,0,0,3.533,5.315,12.19,12.19,0,0,0,6.866,1.955C106.884,61.767,106.882,57.767,104.31,57.689Z"/><path class="c" d="M79.109,61.685a12.878,12.878,0,0,0,6.292-1.7,9.075,9.075,0,0,0,3.581-4.463,12.049,12.049,0,0,0,.682-6.055,7.263,7.263,0,0,0-3.309-4.8,12.828,12.828,0,0,0-6.666-1.838A15.739,15.739,0,0,0,72.5,44.174a8.146,8.146,0,0,0-4.17,4.386,9.8,9.8,0,0,0-.106,5.951,9.472,9.472,0,0,0,3.7,5.374,11.728,11.728,0,0,0,7.18,1.8c2.566-.09,2.579-4.09,0-4a11.3,11.3,0,0,1-2.471-.133,9.515,9.515,0,0,1-1.077-.28,3.364,3.364,0,0,1-.859-.37,3.939,3.939,0,0,1-1.425-1.108c-.085-.093-.17-.189-.249-.287.248.307-.122-.188-.136-.209a7.2,7.2,0,0,1-.552-1.014c.158.359-.081-.243-.086-.257-.042-.127-.082-.255-.119-.384a8.83,8.83,0,0,1-.264-1.213c.014.095.031.312-.006-.107-.02-.219-.036-.439-.042-.659,0-.171-.006-.342,0-.514,0-.088.092-.738.022-.352a3.559,3.559,0,0,1,1.665-2.612,9.083,9.083,0,0,1,4.442-1.325,11.58,11.58,0,0,1,5.43.714c-.2-.089.122.067.13.071.191.095.379.2.562.308a5.644,5.644,0,0,1,.513.342c-.073-.057-.222-.194.06.062.144.13.278.267.413.406.408.421-.1-.169.1.108a4.524,4.524,0,0,1,.251.389c.061.107.119.215.172.326q-.115-.3.007.034c.04.117.076.235.107.355.012.048.107.642.06.211a6.955,6.955,0,0,1,.014,1.031,7.456,7.456,0,0,1-.271,2.051,8.613,8.613,0,0,1-.376,1.187c.032-.079.15-.314-.022.031-.108.218-.221.432-.348.639-.063.1-.129.2-.2.3-.136.187-.139.2-.011.026-.075.092-.154.183-.234.271-.1.11-.207.218-.317.322-.056.054-.533.448-.226.217a8.107,8.107,0,0,1-4.662,1.421,2.043,2.043,0,0,0-2,2A2.019,2.019,0,0,0,79.109,61.685Z"/><path class="c" d="M63.884,49.248c.135-2.223-.01-4.994.925-7.07,1.091-2.423,3.942-3.13,5.839-4.745C72.917,35.5,74,32.509,75.9,30.267c1.51-1.784,4.418-1.363,6.421-.844,2.676.694,5.071,2.165,7.72,2.948,3.054.9,6.233.691,9.375.645,3.047-.045,6.1-.078,9.148-.008a21.925,21.925,0,0,1,3.482.263,8.344,8.344,0,0,1,1.411.352c.517.194.006-.025.441.2.062.032.537.371.264.167.424.316.44.6.64,1.178.427,1.226.837,2.458,1.2,3.706.853,2.963,1.542,5.93,2.171,8.947.525,2.519,4.381,1.453,3.857-1.063-.616-2.953-1.291-5.853-2.116-8.755-.539-1.9-1.051-4.286-2.183-5.954-1.386-2.043-3.826-2.574-6.129-2.856a73.674,73.674,0,0,0-9.209-.2c-3.4.015-7.106.532-10.441-.25-2.983-.7-5.606-2.4-8.564-3.173-2.7-.7-5.9-.937-8.449.409-2.818,1.486-4.158,4.98-5.985,7.42-1.008,1.346-2.4,1.961-3.791,2.831a10.153,10.153,0,0,0-3.642,3.63C60,42.621,60.07,46.183,59.884,49.248c-.156,2.571,3.845,2.562,4,0Z"/><path class="c" d="M237.091,236.975c4.712-4.238,10.731-7.111,16.566-9.452a112.544,112.544,0,0,1,14.569-4.63c2.5-.627,1.438-4.485-1.063-3.857a111.82,111.82,0,0,0-15.317,4.933c-6.251,2.566-12.519,5.624-17.584,10.178-1.918,1.725.918,4.546,2.829,2.828Z"/><path class="c" d="M237.948,295.075q3.294,27.3,5.954,54.674.887,9.031,1.688,18.071a2.053,2.053,0,0,0,2,2,2.016,2.016,0,0,0,2-2c-1.771-20.116-3.888-40.2-6.18-60.265q-.713-6.242-1.462-12.48a2.063,2.063,0,0,0-2-2,2.011,2.011,0,0,0-2,2Z"/><path class="c" d="M199.527,300.369a11.855,11.855,0,0,0-4.139,3.53,8.925,8.925,0,0,0-2,4.84,38.582,38.582,0,0,0,1.041,7.13c1.244,6.138,2.89,12.211,4.725,18.2a59.284,59.284,0,0,0,8.023,17.346,24.758,24.758,0,0,0,8.537,7.983,17.812,17.812,0,0,0,11.142,1.942,27.828,27.828,0,0,0,11.072-4.723c2.929-2.016,5.939-4.582,7.462-7.876a2.06,2.06,0,0,0-.718-2.737,2.017,2.017,0,0,0-2.736.718,16.13,16.13,0,0,1-5.3,5.927,27.267,27.267,0,0,1-8.571,4.328c-6.663,1.888-12.835-1.437-16.825-6.751a51.254,51.254,0,0,1-7.717-15.591c-1.724-5.436-3.235-10.951-4.512-16.508-.335-1.461-.652-2.926-.933-4.4-.212-1.108-.459-2.537-.55-3.351a4.4,4.4,0,0,1,.392-2.98,8.047,8.047,0,0,1,3.627-3.572c2.29-1.176.269-4.629-2.019-3.454Z"/><path class="c" d="M264.892,222.148a25.413,25.413,0,0,0,10.2,10.677,35.2,35.2,0,0,0,16.229,4.124,65.178,65.178,0,0,0,31.816-7.318,72.173,72.173,0,0,0,11.8-7.72,2.011,2.011,0,0,0,0-2.828,2.05,2.05,0,0,0-2.828,0A65.324,65.324,0,0,1,309.2,230.809a59.844,59.844,0,0,1-14.769,2.165c-5.243.1-10.7-.428-15.512-2.67a22.032,22.032,0,0,1-10.569-10.175c-1.143-2.306-4.594-.282-3.454,2.019Z"/><path class="c" d="M329.166,219.535c16.041,5.208,33.13,12.423,42.164,27.577,4.61,7.732,5.436,17.475,6.094,26.248a253.491,253.491,0,0,1,.278,26.427c-.217,7.4-.546,14.8-1.27,22.169-.707,7.194-1.6,14.713-4.235,21.5-3.138,8.085-10.094,14.356-18.818,15.518a23.091,23.091,0,0,1-12.646-1.834,33.326,33.326,0,0,1-6.48-4.2,161.218,161.218,0,0,1-15.185-14.115c-4.4-4.522-8.691-9.165-12.785-13.968q-.986-1.155-1.945-2.331a2.013,2.013,0,0,0-2.828,0,2.048,2.048,0,0,0,0,2.829c3.684,4.536,7.649,8.857,11.663,13.1a201.767,201.767,0,0,0,15.952,15.424,60.477,60.477,0,0,0,7.182,5.406,26.58,26.58,0,0,0,11.686,3.776,26.888,26.888,0,0,0,24.116-11.217c4.758-6.5,6.343-14.681,7.442-22.5a241.7,241.7,0,0,0,1.973-24.264c.318-8.2.589-16.422.293-24.625q-.289-8.061-1.3-16.074a61.908,61.908,0,0,0-3.121-13.64c-2.844-7.723-8.6-14.594-15.063-19.626-7.364-5.736-16-9.64-24.709-12.875-2.444-.908-4.911-1.755-7.392-2.56-2.454-.8-3.5,3.064-1.063,3.857Z"/><path class="e" d="M199.637,243.944c-1.767-5.216-3.852-11.658-5.3-16.511a5.371,5.371,0,0,1,3.679-6.7c7.961-2.27,19.491-5.446,27.155-7.54a5.365,5.365,0,0,1,6.539,3.565c3.788,12.015,12.45,39.131,16.386,51.293a5.371,5.371,0,0,1-3.345,6.727c-6.123,2.142-16.829,5.668-19.509,6.552Z"/><path class="c" d="M201.565,243.412c-1.811-5.354-3.6-10.727-5.191-16.153-.576-1.968.1-3.926,2.175-4.6,2.4-.778,4.872-1.379,7.3-2.058q7.77-2.172,15.552-4.3l3.325-.911a4.693,4.693,0,0,1,3.053-.179c1.789.685,2.125,2.467,2.641,4.1q7.71,24.39,15.573,48.732c.683,2.115.17,4.053-2.045,4.906-2.3.887-4.686,1.61-7.026,2.4q-6.1,2.052-12.211,4.06c-2.433.8-1.391,4.667,1.064,3.857q5.937-1.96,11.867-3.944c2.272-.764,4.542-1.531,6.806-2.317,2.6-.9,4.719-2.381,5.584-5.124.717-2.275-.009-4.359-.7-6.515q-.927-2.874-1.851-5.75-2.251-7.005-4.492-14.016-4.334-13.55-8.632-27.11c-.72-2.279-1.34-4.484-3.347-5.992-2.244-1.687-4.747-1.669-7.342-.959q-8.358,2.286-16.707,4.608c-3.047.849-6.1,1.683-9.137,2.569a7.535,7.535,0,0,0-5.637,6.333,10.525,10.525,0,0,0,.668,4.387q.728,2.394,1.487,4.777,1.637,5.151,3.37,10.27c.82,2.426,4.685,1.385,3.857-1.063Z"/><path class="a" d="M204.286,239.59a5.483,5.483,0,0,1,4.026-1.3,3.446,3.446,0,0,1,3.168,3.284,7.552,7.552,0,0,1-1.241,3.647c-3.768,5.575-8.387,12.335-11.823,17.229,4.173-3.671,7.119-6.454,11.1-8.443,3.834-2.284,8.153-4.348,12.165-4.906,2.03-.282,3.87.055,4.744,1.664a4.08,4.08,0,0,1-.106,4.567,15.25,15.25,0,0,1-1.522,1.72,4.118,4.118,0,0,1,4.278,1.685,4.2,4.2,0,0,1-.592,5.145c-.666.741-2,1.824-3.075,2.808,2.052-.983,3.822-1.366,5.2.325a4.745,4.745,0,0,1,.128,5.107c-2.658,3.1-4.953,5.636-8.077,9.215,2.65,7.087,2.8,11.139,1.558,17.8a5.008,5.008,0,0,1-.84,2.246c-3.665,3.932-10.3,7.217-15.613,6.38a4.748,4.748,0,0,1-2.668-1.107c-1.149-1.137-1.079-2.967-1.14-4.581-.307-8.185-5.371-12.793-9.821-19.677-.888-1.746-4.343-5.571-5.149-9.648a33.111,33.111,0,0,1-.169-8.788,17.337,17.337,0,0,1,1.974-6.993,125.445,125.445,0,0,1,13.138-17.029Q204.1,239.754,204.286,239.59Z"/><path class="c" d="M204.527,230.1c1.734-.511,3.472-1.011,5.209-1.513a2.075,2.075,0,0,0,1.2-.919,2,2,0,0,0-2.259-2.938c-1.737.5-3.474,1-5.209,1.512a2.088,2.088,0,0,0-1.195.92,2,2,0,0,0,2.259,2.938Z"/><path class="c" d="M200.1,263.628a79.116,79.116,0,0,1,7.1-5.911,55.427,55.427,0,0,1,7.9-4.438,28.711,28.711,0,0,1,4.26-1.627,10.2,10.2,0,0,1,4.141-.612,1.807,1.807,0,0,1,1.538,1.645c.207,1.25-.876,2.147-1.66,2.955-1.794,1.848,1.031,4.68,2.828,2.828,1.387-1.429,2.661-2.92,2.841-4.988a6.485,6.485,0,0,0-1.584-4.672c-2.519-2.847-7.1-1.728-10.2-.69a52.937,52.937,0,0,0-10.8,5.3,69.75,69.75,0,0,0-9.194,7.38c-1.935,1.707.9,4.527,2.828,2.829Z"/><path class="c" d="M207.764,269.745c1.869-1.678,3.653-3.473,5.636-5.019a34.29,34.29,0,0,1,7.617-4.366,21.758,21.758,0,0,1,3.916-1.287,2.317,2.317,0,0,1,2.441.685c1.467,2.082-1.935,4.218-3.227,5.376-1.92,1.723.916,4.544,2.828,2.829,2.632-2.361,5.831-5.007,4.387-9.006a5.76,5.76,0,0,0-3.375-3.526,7.9,7.9,0,0,0-5.261.088,35.226,35.226,0,0,0-10.162,4.884,83.85,83.85,0,0,0-7.628,6.514c-1.919,1.724.917,4.545,2.828,2.828Z"/><path class="c" d="M215.011,277.489a49.147,49.147,0,0,1,5.076-4.848,24.681,24.681,0,0,1,6.871-4.464,3.382,3.382,0,0,1,1.409-.324c-.271-.016.354.1.308.074a3.165,3.165,0,0,1,.331.277c-.038-.045.284.492.179.252a3.294,3.294,0,0,1,.209.757,5.038,5.038,0,0,1-.021,1.1,1.248,1.248,0,0,1-.39.793c-.384.451-.773.9-1.162,1.343q-1.183,1.361-2.378,2.709c-2.056,2.328-4.112,4.656-6.141,7.007a2.051,2.051,0,0,0,0,2.828,2.017,2.017,0,0,0,2.828,0c2.084-2.414,4.2-4.8,6.307-7.195q1.359-1.539,2.707-3.09a7.447,7.447,0,0,0,2.162-3.771c.5-3.209-1.136-6.8-4.715-7.07a9.367,9.367,0,0,0-4.661,1.3,26.869,26.869,0,0,0-4.326,2.771,56.054,56.054,0,0,0-7.422,6.721,2.044,2.044,0,0,0,0,2.829,2.022,2.022,0,0,0,2.829,0Z"/><path class="c" d="M200.666,262.716q4.947-7.075,9.775-14.231c1.457-2.149,3.2-4.476,3.03-7.23a5.476,5.476,0,0,0-5.159-4.963c-2.883-.1-4.884,1.218-6.751,3.262-2.044,2.237-3.967,4.576-5.813,6.979-1.8,2.34-3.508,4.748-5.172,7.186a19.142,19.142,0,0,0-3.1,6.276,31.354,31.354,0,0,0-.872,6.953,24.977,24.977,0,0,0,.678,7.255,24.3,24.3,0,0,0,3.572,6.833c1.238,1.8,2.377,3.654,3.646,5.433,2.869,4.021,6.106,7.988,7.139,12.939.525,2.518-.072,5.385,1.277,7.687,1.374,2.344,4.438,2.864,6.934,2.795a20.326,20.326,0,0,0,8.57-2.38c2.37-1.206,5.32-3,6.793-5.283a12.06,12.06,0,0,0,1.312-4.837,36.49,36.49,0,0,0,.437-4.654,29.921,29.921,0,0,0-1.543-9.536c-.772-2.446-4.635-1.4-3.857,1.063a28.047,28.047,0,0,1,.722,14.343,3.854,3.854,0,0,1-1.457,2.471,19.031,19.031,0,0,1-2.741,2.033,19.364,19.364,0,0,1-5.873,2.467c-1.443.329-4.508.866-5.707-.336-.57-.571-.5-1.676-.53-2.409a29,29,0,0,0-.338-3.721c-.732-4.4-3.067-8.223-5.62-11.8-2.354-3.3-4.7-6.6-6.863-10.03a13.8,13.8,0,0,1-2.344-6.105,33.251,33.251,0,0,1-.157-5.391,24.061,24.061,0,0,1,1.031-5.954,21.081,21.081,0,0,1,3.1-5.2,114.6,114.6,0,0,1,9.6-12.252,5.264,5.264,0,0,1,2.555-1.975c.876-.2,1.865-.269,2.372.618.389.68-.007,1.65-.3,2.3a23.2,23.2,0,0,1-2.148,3.315q-4.787,7.054-9.655,14.054c-1.479,2.114,1.988,4.115,3.454,2.019Z"/><path class="a" d="M273.319,263.7q-.966-.324-1.9-.621c-3.314-1.053-6.193-1.638-8.365-.853a3.737,3.737,0,0,0-2.35,3.311,3.489,3.489,0,0,0,1.627,3.106,17.141,17.141,0,0,0,3.527,1.932c4.68,2.094,11.675,5.132,16.287,7.594q-4.132,3.569-7.921,7.511c-1.281,1.331-2.493,2.736-2.527,4.583-.054,2.866,1.641,4.684,5.725,6.2-.232,1.438-.317,2.285.531,3.479,1.062,1.5,2.71,2.366,5.78,2.358a7.033,7.033,0,0,0,1.54,4.236c2.945,3.907,6.366,6.335,11.145,6.133.6.272.991.452.991.452,1.442.668,2.936,1.368,3.818,1.711a7.464,7.464,0,0,1,2.044,1.039,8.267,8.267,0,0,1,1.439,1.762,23.191,23.191,0,0,0,1.657,2.1c3.6-4.183,9.135-10.655,13.765-16.023-.594-.6-1.178-1.278-1.826-2.067-2.481-3.027-4.288-6.546-6.258-9.942a113.406,113.406,0,0,0-9.17-13.477,20.45,20.45,0,0,0-4.154-4.251,26.778,26.778,0,0,0-4.956-2.34C287.1,268.832,279.693,265.836,273.319,263.7Z"/><path class="c" d="M296.4,314.841c.909.423,1.818.85,2.736,1.254.468.207.939.409,1.414.6.191.077.383.152.575.228.462.185-.24-.122.017.009.113.059.231.108.345.167a6.524,6.524,0,0,1,.589.355c.213.141-.207-.222-.049-.023.076.1.183.178.267.271.033.036.2.185.2.23-.139-.185-.166-.22-.079-.1q.046.062.09.123c.135.186.262.377.392.566a27.531,27.531,0,0,0,2.059,2.621,2.011,2.011,0,0,0,2.828,0,2.047,2.047,0,0,0,0-2.828c-.318-.361-.621-.731-.923-1.105-.187-.231.281.381-.03-.04-.066-.089-.132-.177-.2-.266-.156-.215-.3-.435-.455-.653a7.68,7.68,0,0,0-2.537-2.53,14.1,14.1,0,0,0-1.595-.708l-.589-.234c-.243-.1.062.023.137.059-.1-.049-.207-.09-.31-.135-.962-.421-1.913-.868-2.865-1.311a2.049,2.049,0,0,0-2.737.717,2.025,2.025,0,0,0,.718,2.737Z"/><path class="c" d="M282.35,276.017c-5.461-2.817-11.191-5.039-16.7-7.735-.94-.459-2.664-1.133-2.923-2.272a1.747,1.747,0,0,1,1.184-1.961,7.318,7.318,0,0,1,3.825.091,46.028,46.028,0,0,1,5.073,1.489c6.364,2.135,12.595,4.664,18.789,7.246,3.056,1.273,5.958,2.276,8.235,4.79A74.639,74.639,0,0,1,306.113,286c2.163,3.193,4.094,6.512,6.007,9.858a44.769,44.769,0,0,0,6.606,9.26c1.8,1.844,4.63-.985,2.828-2.828a42.114,42.114,0,0,1-6.2-8.845c-1.947-3.421-3.948-6.8-6.177-10.041a70.224,70.224,0,0,0-6.951-9.034c-2.656-2.761-6.113-3.914-9.565-5.353-6.882-2.868-13.816-5.726-20.94-7.945-3.091-.962-7.071-2.051-10.119-.369a5.674,5.674,0,0,0-1.66,8.4,12.928,12.928,0,0,0,4.913,3.2c1.607.722,3.22,1.431,4.829,2.15,3.582,1.6,7.162,3.22,10.651,5.02,2.284,1.178,4.31-2.272,2.019-3.454Z"/><path class="c" d="M281.019,276.5q-2.894,2.5-5.632,5.17c-1.66,1.623-3.6,3.3-4.76,5.339a7.039,7.039,0,0,0-.43,6.072,8.674,8.674,0,0,0,4.366,4.32,2.049,2.049,0,0,0,2.737-.718,2.021,2.021,0,0,0-.718-2.736,7.862,7.862,0,0,1-1.859-1.192,2.885,2.885,0,0,1-.819-1.117,3.515,3.515,0,0,1,.853-3.58,83.609,83.609,0,0,1,9.091-8.73,2.018,2.018,0,0,0,0-2.828,2.041,2.041,0,0,0-2.829,0Z"/><path class="c" d="M286.494,283.525a37.408,37.408,0,0,0-6.116,5.135c-1.75,1.839-3.747,4-4.645,6.411a6.483,6.483,0,0,0,1.27,6.85,8.726,8.726,0,0,0,6.206,2.368,2,2,0,1,0,0-4,6.662,6.662,0,0,1-2.37-.448c.241.1-.08-.048-.162-.1-.14-.079-.278-.159-.411-.248-.462-.309.217.231-.176-.148-.11-.105-.216-.214-.32-.325a1.738,1.738,0,0,1-.5-1.3,4.481,4.481,0,0,1,.806-2.381,30.681,30.681,0,0,1,8.436-8.36,2.05,2.05,0,0,0,.718-2.737,2.02,2.02,0,0,0-2.737-.717Z"/><path class="c" d="M291.908,289.321l-4.534,4.59a50.707,50.707,0,0,0-4.112,4.312c-2.6,3.345-1.407,7.224,1.013,10.26A16.479,16.479,0,0,0,291.636,314c2.9,1,7.538,1.4,9.324-1.7a5.361,5.361,0,0,0-.243-5.413,8.726,8.726,0,0,0-1.991-2.09c-.407-.333-.823-.652-1.216-1-.136-.121-.271-.243-.4-.37s-.274-.275-.4-.42q-.33-.4.066.258l-.273,1.009a11.152,11.152,0,0,1,2.1-2.224c1.806-1.837-1.02-4.668-2.829-2.829-1.158,1.178-3.054,2.5-3.014,4.315.038,1.684,1.679,2.911,2.865,3.87.667.54,2.306,1.583,1.967,2.7-.256.841-1.805.59-2.449.551a9.875,9.875,0,0,1-6.193-2.953c-1.642-1.582-4.34-4.415-2.707-6.814a32.586,32.586,0,0,1,3.961-4.148l4.533-4.591c1.811-1.833-1.016-4.663-2.828-2.828Z"/><path class="c" d="M354.469,315.176c-8.373-7.244-16.512-14.76-24.709-22.2a2.046,2.046,0,0,0-2.829,0c-1.149,1.085-2.157,2.351-3.2,3.538q-3.048,3.477-6.057,6.988-6.5,7.55-12.985,15.117c-1.143,1.329-2.248,2.722-3.471,3.979-1.8,1.846,1.028,4.677,2.828,2.829,3.105-3.189,5.874-6.773,8.77-10.149,4.362-5.084,8.714-10.177,13.12-15.223,1.243-1.423,2.444-2.951,3.821-4.251h-2.829c8.2,7.441,16.337,14.956,24.71,22.2,1.938,1.677,4.779-1.14,2.828-2.828Z"/></svg>