<?xml version="1.0" encoding="utf-8"?>
<!-- Uploaded to: SVG Repo, www.svgrepo.com, Generator: SVG Repo Mixer Tools -->
<svg width="800px" height="800px" viewBox="-20.46 0 389.263 389.263" xmlns="http://www.w3.org/2000/svg"><defs><style>.a{fill:#ffffff;}.b{fill:#211715;}.c{fill:#64a4d6;}.d{fill:#7a7473;}.e{fill:#85807f;}.f{fill:#3d8dcc;}</style></defs><path class="a" d="M164.723,73.708a3.557,3.557,0,0,0-.378.629c-1.275,2.746-2.185,4.889-3.286,7.123-4.1-4.035-6.254-2.012-7.77.9-1.094,2.105-1.972,5.807-1.466,7.465l1.325,5.905a51.5,51.5,0,0,1-1.269,7.226c2.422,1.323,6.332,4.136,10.644,7.166,4.755-3.5,10.142-7.535,10.142-7.535a77.138,77.138,0,0,0,6.264-5.782c5.035-5.4,2.593-9.394-1.582-13.363a3.966,3.966,0,0,1-1.365-2.382,5.909,5.909,0,0,0-4.707-4.406,3.96,3.96,0,0,0-2.384-3.919A3.319,3.319,0,0,0,164.723,73.708Z"/><path class="a" d="M99.6,2.164l-.269.031c-5.812.7-12.448,3.786-15.962,7.842l-4.911,5.176c-3.825,3.2-5.8,8.1-6.561,12.681a31.536,31.536,0,0,0,1.06,14c1.208,4.008,4.859,9.691,7.893,12.738C84.89,58.683,88.26,61.24,88.7,64.823a6.651,6.651,0,0,1-.01,1.1c.083.034.165.067.246.1A105.342,105.342,0,0,1,99.088,70.7a98.164,98.164,0,0,1,10.3,6.881c.793-1.8,1.5-3.415,1.5-3.415l1.483-3.68a36.3,36.3,0,0,0,1.305-4.183,1.322,1.322,0,0,1,1.542-.816,18.29,18.29,0,0,0,9.776-1.006,7.592,7.592,0,0,0,4.086-3.955,16,16,0,0,0,1.2-3.871,37.706,37.706,0,0,0,.671-5.748,6.087,6.087,0,0,1,1.321-2.612c1.029-1.165,2.713-2.094,1.8-4.051a3.709,3.709,0,0,0-1.729-1.656c-3.683-1.882-3.964-7.393-4.178-11.366a30.3,30.3,0,0,0-.4-5.773c-1.011-11.755-7.56-17.7-13.109-20.586A26.066,26.066,0,0,0,99.6,2.164Z"/><path class="b" d="M155.077,95.2c-.419-1.866-.822-3.736-1.257-5.6-.04-.173-.074-.348-.122-.518-.058-.206,0,.361-.007-.031-.007-.352-.016-.7.009-1.048a13.812,13.812,0,0,1,2.062-5.889c.081-.111.083-.119,0-.023l.132-.16c.132-.154.275-.289.415-.434.232-.242-.037,0,.119-.1a2.828,2.828,0,0,1,.4-.225c-.462.186.4-.04-.127.033a2.356,2.356,0,0,1,.385-.01c-.327-.008.23.053.3.073a1.82,1.82,0,0,1,.433.185,2.047,2.047,0,0,0,2.736-.717A2.021,2.021,0,0,0,159.839,78a5.3,5.3,0,0,0-6.283.6,12.109,12.109,0,0,0-3.012,5.21,13.423,13.423,0,0,0-.817,5.57,68.2,68.2,0,0,0,1.492,6.878,2,2,0,0,0,3.858-1.063Z"/><path class="b" d="M161.393,85.142c1.59-2.9,2.9-5.932,4.283-8.936.527-1.148,1.125-2.36,2.563-1.556a2.025,2.025,0,0,1,1.036,2.007,2.027,2.027,0,0,0,1.469,1.929,4.353,4.353,0,0,1,2.729,1.649c.709.978.7,2.267,1.344,3.3,1.288,2.049,3.53,3.292,4.53,5.591.947,2.175-.04,4.237-1.507,5.913a69.205,69.205,0,0,1-6.589,6.14c-1.936,1.7.9,4.524,2.829,2.828,4.416-3.885,11.773-9.105,9.125-15.944a13.729,13.729,0,0,0-2.3-3.767,23.137,23.137,0,0,0-1.595-1.732,5.029,5.029,0,0,1-1.214-1.346c-.326-.727-.4-1.533-.756-2.269a7.542,7.542,0,0,0-1.359-1.923,8.265,8.265,0,0,0-4.171-2.294l1.468,1.928a6.075,6.075,0,0,0-2.007-4.737,5.728,5.728,0,0,0-6.559-.825c-2.037,1.187-2.735,3.633-3.651,5.659-.975,2.156-1.982,4.293-3.119,6.369-1.237,2.259,2.216,4.279,3.454,2.019Z"/><path class="b" d="M151.482,102.353c4.531,2.947,9.148,5.76,13.669,8.723.509.333,1.016.667,1.518,1.009.17.116.337.234.506.352.457.318-.239-.2-.071-.058a2.05,2.05,0,0,0,2.828,0,2.018,2.018,0,0,0,0-2.829,49.006,49.006,0,0,0-5.86-3.933q-4.119-2.643-8.26-5.252c-.771-.487-1.547-.969-2.311-1.466a2,2,0,0,0-2.019,3.454Z"/><path class="a" d="M165.413,104.488c-2.263-1.373-4.652-2.765-6.755-3.911a2.242,2.242,0,0,0-2.868.644c-.324.434-.65.886-.964,1.332a2.236,2.236,0,0,0,.549,3.131c1.758,1.22,4.45,3.081,6.572,4.512a2.238,2.238,0,0,0,3.22-.79c.346-.637.716-1.32,1.051-1.936A2.239,2.239,0,0,0,165.413,104.488Z"/><path class="b" d="M166.423,102.761q-1.938-1.174-3.9-2.308-.9-.519-1.812-1.027a8.559,8.559,0,0,0-2.132-1,4.353,4.353,0,0,0-4.516,1.788c-.884,1.174-1.793,2.385-1.628,3.947a4.217,4.217,0,0,0,.751,2.106,6.965,6.965,0,0,0,1.747,1.539q1.527,1.059,3.058,2.111a33,33,0,0,0,3.217,2.164,4.252,4.252,0,0,0,4.383-.251,5.563,5.563,0,0,0,1.639-2.031,12.181,12.181,0,0,0,1.1-2.237,4.317,4.317,0,0,0-1.906-4.8,2.016,2.016,0,0,0-2.737.718,2.045,2.045,0,0,0,.718,2.736c.35.23-.012.01-.025-.023.107.267.056.052-.011-.052.055.085.1.176.155.262-.047-.074-.111-.388-.039-.053.057.269.1.014,0-.083.031.032-.029.3,0,.306-.068,0,.161-.5-.012-.076-.089.218-.059.084.02-.035-.29.439-.512.944-.763,1.407-.121.221-.254.44-.368.665.02-.04.243-.357.029-.045-.205.3.157-.14,0,.013-.048.048-.347.185-.086.066.238-.108.016-.017-.034,0-.406.141.118-.014.1.005.011-.012-.276.029-.292,0,.1.15.373.014.094,0s-.07-.026.052.045c-.219-.127-.426-.262-.637-.4q-1.293-.874-2.579-1.76-1.222-.84-2.442-1.684c-.334-.231-.666-.463-1-.693-.059-.041-.272-.247-.106-.071.226.238-.219-.209.026.028.183.177-.017-.057-.062-.111-.161-.2.183.321,0-.009-.208-.375.012.109-.007.089a1.681,1.681,0,0,1,0-.3s-.116.5,0,.082c.046-.163.145-.2-.033.044.3-.416.584-.857.887-1.276.253-.349.1-.117.035-.053.076-.08.152-.155.231-.232-.3.291-.062.092-.012.039,0,0-.414.237-.042.019.105-.062.371-.018-.069-.017.1,0,.214,0,.315,0-.114,0-.374-.12-.061.009.353.145-.162-.138.063.031a14.26,14.26,0,0,0,1.584.88q.826.467,1.648.944,1.729,1,3.438,2.04a2,2,0,0,0,2.019-3.454Z"/><path class="a" d="M71.246,142.928a41.471,41.471,0,0,1-6.5,1.993,37.009,37.009,0,0,0,2.069,7.559,18.183,18.183,0,0,0,1.547,2.736c1.771-4.9,3.411-8.658,4.406-12.883C72.293,142.518,71.787,142.72,71.246,142.928Z"/><path class="a" d="M91.224,341.15H2v46.113H346.333V251.93H232v45.11H117v44.11Z"/><path class="c" d="M281.4,123.24c-19.25,8.865-40.031,18.218-62.652,23.944a1.453,1.453,0,0,0-.106,2.79l20.908,6.934a1.46,1.46,0,0,1,.624,2.361c-32.738,36.818-120.435,78.07-174.291,96a1.456,1.456,0,0,0,.7,2.818c35.954-6.083,104.538-25.927,126.123-36.275,22.489-10.78,45.055-25.277,60.84-41.227a1.448,1.448,0,0,1,2.325.342c2.748,5.332,6.27,12.485,9.574,19.923a1.455,1.455,0,0,0,2.732-.192c6.006-21.671,11.539-51.209,15.266-75.888A1.45,1.45,0,0,0,281.4,123.24Z"/><path class="b" d="M119,387.263V297.04l-2,2H232c2.574,0,2.578-4,0-4H117a2.029,2.029,0,0,0-2,2v90.223c0,2.574,4,2.578,4,0Z"/><path class="b" d="M4,387.263V341.15l-2,2H117c2.574,0,2.578-4,0-4H2a2.029,2.029,0,0,0-2,2v46.113c0,2.574,4,2.578,4,0Z"/><path class="b" d="M346.333,385.263H2c-2.574,0-2.578,4,0,4H346.333c2.574,0,2.578-4,0-4Z"/><path class="b" d="M234,387.263V251.93l-2,2H346.333l-2-2V387.263c0,2.574,4,2.578,4,0V251.93a2.029,2.029,0,0,0-2-2H232a2.029,2.029,0,0,0-2,2V387.263c0,2.574,4,2.578,4,0Z"/><path class="d" d="M49.411,329.756c-3.373-2.027-6.882-4.131-10.885-6.392a8.752,8.752,0,0,1-4.738-7.655,9.891,9.891,0,0,1,.859-4.468c1.841-4.156,4.628-8.047,8.967-9.2l5.545-1.48c5.642,1.836,11.325,3.646,16.233,4.938.015,2.307.03,4.011.03,4.011.032,3.731,2.389,7.031,4.977,9.72s5.554,5.116,7.357,8.382,2.105,7.764-.512,10.423a8.336,8.336,0,0,1-6.714,2.1,18.376,18.376,0,0,1-6.905-2.167C58.51,335.233,54.092,332.568,49.411,329.756Z"/><path class="b" d="M63.422,309.506C63.647,316.852,69.9,320.92,74.208,326c1.817,2.14,3.259,4.851,2.913,7.748-.339,2.847-2.688,4.384-5.438,4.434-3.442.063-6.483-1.6-9.4-3.216-2.977-1.644-5.91-3.367-8.829-5.113-2.984-1.784-5.956-3.588-8.954-5.349-1.646-.967-3.319-1.891-4.963-2.862a7.829,7.829,0,0,1-2.817-2.624c-1.711-2.823-.834-6.048.629-8.753,1.518-2.807,3.624-5.385,6.8-6.3,2.471-.708,1.42-4.569-1.063-3.857a14.659,14.659,0,0,0-7.948,6.1c-2.005,2.9-3.508,6.279-3.337,9.868a10.907,10.907,0,0,0,4.947,8.536c1.692,1.152,3.572,2.075,5.339,3.111q2.684,1.572,5.347,3.178c3.322,1.994,6.638,4,10,5.924,3.436,1.965,6.945,4.193,10.875,4.989,3.625.734,7.8.37,10.469-2.494,2.4-2.576,2.82-6.3,1.957-9.609-1.06-4.064-4.1-7.133-7.007-9.986-2.83-2.775-6.174-5.977-6.3-10.217-.079-2.568-4.079-2.579-4,0Z"/><path class="d" d="M156.789,294.867c-3.764-.079-7.539-.107-11.3.066a8.827,8.827,0,0,1-8.152-3.992,10.166,10.166,0,0,1-1.613-5.052c.051-6.128.4-12.225,8.4-14.548,6,.193,13.509.444,19.795.58a18.777,18.777,0,0,0,7.1,3.5c3.584,1.035,7.368,1.655,10.562,3.583s5.7,5.672,4.766,9.284a8.333,8.333,0,0,1-4.764,5.176,18.521,18.521,0,0,1-7.064,1.575C168.7,295.248,162.761,294.992,156.789,294.867Z"/><path class="b" d="M160.129,270.5c3.537,5.737,10.3,6.625,16.205,8.43,2.823.864,5.675,2.154,7.27,4.772a5,5,0,0,1-.976,6.765c-2.567,2.217-6.295,2.539-9.528,2.616-3.687.088-7.375.01-11.061-.083-3.73-.094-7.461-.206-11.192-.19-1.789.008-3.573.079-5.36.127a7.885,7.885,0,0,1-4.07-.828c-2.9-1.588-3.753-4.7-3.67-7.8.086-3.246.424-6.617,2.9-8.971,1.87-1.777-.962-4.6-2.828-2.828-2.6,2.469-3.6,5.784-3.93,9.263-.353,3.673-.233,7.279,1.888,10.45a10.907,10.907,0,0,0,8.492,4.7c2.012.132,4.072-.1,6.089-.112,2.193-.016,4.386.014,6.579.061,4.272.091,8.544.249,12.817.247,4.139,0,8.314,0,12.189-1.644,3.23-1.368,6.028-4.039,6.516-7.646.469-3.473-1.338-6.908-3.931-9.134-3.256-2.794-7.474-3.737-11.516-4.8-3.5-.924-7.419-2.151-9.43-5.411-1.349-2.188-4.81-.181-3.454,2.018Z"/><path class="a" d="M85.5,181.117c-.771-.212-1.524-.431-2.255-.652-4.848-1.47-9.431-2.828-13.086-4.12-.326,4.741-.214,9.119-.746,15.418a181.851,181.851,0,0,1-3.25,20.25c-5.944,28.374-14.428,53.356-23.938,83.879a2.336,2.336,0,0,0,1.562,2.913c7.379,2.4,15.293,5.042,21.809,6.744a4.238,4.238,0,0,0,1.581.272c1.335-.173,1.937-1.7,2.415-2.953,16.637-43.779,28.705-76.226,34.42-90.656,7.6.774,20.026,1.987,26.265,3.137,3.69.679,5.565,1.352,7.164,3.317,1.809,2.237,2.179,5.6,2.139,8.181-.224,14.5-.309,25.46-.675,41.556a2.773,2.773,0,0,0,2.67,2.858c6.708.209,16.272.544,23.711.688a2.753,2.753,0,0,0,2.808-2.658c.479-13.738,1.294-31.942,1.278-45.111-.009-6.881-.321-10.9-2.014-17.028-1.056-3.815-4.323-7.609-7.25-10.222a42.521,42.521,0,0,0-8.278-5.333c-10.9-5.4-19.4-6.542-32.772-12.615a13.987,13.987,0,0,1-4.172,2.788C107.2,185.485,95,183.737,85.5,181.117Z"/><path class="b" d="M118.933,181.106c7.227,3.2,14.73,5.514,22.163,8.158,6.738,2.4,13.89,5.3,19.033,10.432a25.517,25.517,0,0,1,3.769,4.642,18.017,18.017,0,0,1,2.071,5.405,51.6,51.6,0,0,1,1.363,10.862c.209,7.84-.088,15.71-.334,23.546-.251,8-.577,16-.861,24.007-.017.488.132,1.243-.287,1.611-.486.428-1.54.161-2.129.148q-3.019-.066-6.037-.154c-4.071-.114-8.141-.247-12.211-.378l-2.65-.085c-.53-.016-1.35.151-1.739-.309-.466-.549-.147-1.887-.132-2.554q.036-1.662.07-3.325.129-6.3.225-12.61c.123-7.941.3-15.885.338-23.826.018-3.6-.69-7.551-3.392-10.149-2.27-2.184-5.433-2.787-8.431-3.291-6.909-1.164-13.913-1.817-20.88-2.524l-4.87-.489a2.014,2.014,0,0,0-2,2,2.044,2.044,0,0,0,2,2c7.172.72,14.362,1.38,21.5,2.384,2.887.406,6.435.57,8.981,2.087,2.891,1.721,3.124,5.592,3.081,8.6q-.175,12.328-.352,24.658-.1,6.641-.246,13.282c-.044,2.042-.421,4.278.845,6.04,1.283,1.786,3.152,1.968,5.182,2.032,4.1.13,8.207.267,12.311.389q3.188.094,6.375.175c1.84.045,4.043.431,5.747-.421a5.068,5.068,0,0,0,2.679-4.722q.1-2.944.214-5.887.232-6.216.458-12.432c.288-8.192.554-16.389.584-24.587a86.084,86.084,0,0,0-.579-12.067c-.53-3.844-1.31-7.9-3.333-11.258-4.217-7.011-11.323-11.34-18.657-14.49-7.009-3.01-14.373-5.039-21.5-7.743q-3.213-1.22-6.355-2.611a2.064,2.064,0,0,0-2.737.718,2.014,2.014,0,0,0,.718,2.736Z"/><path class="b" d="M68.274,174.938c-.384,4.506-.359,9.033-.624,13.546a131.648,131.648,0,0,1-1.811,14.767c-1.666,9.617-3.942,19.147-6.4,28.589-5.345,20.524-12,40.677-18.324,60.911-.756,2.416-1.749,4.922.379,6.964a7.577,7.577,0,0,0,3.072,1.445q1.983.647,3.966,1.294c4.966,1.616,9.94,3.226,14.979,4.606,2.3.63,4.606,1.391,6.429-.649,1.572-1.76,2.175-4.565,2.993-6.718q2.91-7.666,5.812-15.335,9.438-24.936,18.848-49.884c4.663-12.3,9.539-24.513,14.207-36.809q1.13-2.976,2.255-5.953a2.018,2.018,0,0,0-1.4-2.461,2.045,2.045,0,0,0-2.461,1.4c-4.7,12.406-9.6,24.734-14.323,37.133Q87.337,250.207,78.9,272.672q-5.519,14.6-11.06,29.2c-.181.476-.666,1.93-.968,2a15.887,15.887,0,0,1-2.7-.776c-2.38-.659-4.745-1.371-7.1-2.105-2.5-.778-4.99-1.582-7.479-2.392l-3.527-1.151c-.552-.18-1.873-.267-1.928-.951a7.39,7.39,0,0,1,.61-1.972l.591-1.887q.621-1.983,1.244-3.964,1.222-3.885,2.449-7.767,2.331-7.39,4.64-14.79c2.96-9.54,5.835-19.107,8.439-28.751,2.557-9.471,4.863-19.016,6.764-28.642q1.279-6.479,2.089-13.033c.6-4.809.815-9.613.971-14.453.068-2.1.16-4.2.338-6.3.219-2.564-3.782-2.55-4,0Z"/><path class="e" d="M100.581,2.072a25.912,25.912,0,0,1,14.074,2.791A23.683,23.683,0,0,1,127.1,21.154l-5.552,3.029c-2.47,1.462-5.862,4.327-7.783,5.778a.72.72,0,0,1-1.1-.69,4.224,4.224,0,0,0-.252-1.429c-.205-.585-.668-.79-.985-.563-3.145,2.254-7.937,8.671-9.592,12.312a5.156,5.156,0,0,0-2.857-1.922,3.786,3.786,0,0,0-3.192.574,5.551,5.551,0,0,0-1.712,4.63,9.628,9.628,0,0,0,2.808,6.4c-.111.152-.193.262-.193.262-2.3,3.188-6.051,8.714-9.556,11.628-1.447-2.006-3.734-3.972-6.288-6.538-3.034-3.047-6.685-8.73-7.893-12.738a31.536,31.536,0,0,1-1.06-14c.764-4.584,2.736-9.483,6.561-12.681l4.911-5.176c3.514-4.056,10.15-7.144,15.962-7.842Q99.955,2.12,100.581,2.072Z"/><path class="b" d="M102.881,37.758a6.7,6.7,0,0,0-6.357-2.033,5.981,5.981,0,0,0-4.183,4.543,11.379,11.379,0,0,0,3.006,10.293,14.83,14.83,0,0,0,5.383,3.316,2.014,2.014,0,0,0,2.46-1.4,2.046,2.046,0,0,0-1.4-2.46c-.13-.049-.259-.1-.388-.153.161.069.133.056-.086-.04-.181-.086-.362-.169-.541-.259a13.03,13.03,0,0,1-1.172-.666c-.157-.1-.308-.211-.463-.314-.48-.318.256.237-.176-.131a11.679,11.679,0,0,1-.914-.851c-.121-.129-.233-.264-.351-.394-.144-.178-.148-.181-.013-.007-.053-.07-.1-.141-.154-.213a11.261,11.261,0,0,1-.595-.974c-.03-.057-.288-.6-.2-.4s-.139-.371-.161-.435a10.366,10.366,0,0,1-.325-1.171q-.072-.332-.124-.667c.055.352-.02-.194-.026-.264a6.431,6.431,0,0,1,.007-1.38c-.044.346.052-.208.066-.267.047-.2.11-.39.168-.585q.128-.339.023-.082c.055-.119.115-.237.18-.352.037-.064.348-.51.125-.232a2.608,2.608,0,0,1,.4-.4c-.318.253.534-.226.209-.106.057-.021.614-.142.325-.1a3.183,3.183,0,0,1,.683,0,3.791,3.791,0,0,1,.9.3s.507.343.265.155a5.912,5.912,0,0,1,.6.57,2,2,0,0,0,2.828-2.829Z"/><path class="b" d="M124.425,36.894c.512,1.214.607,4.13-1.623,4.63-2.988.317-3.551-3.158-2.736-4.913C120.733,35.174,123.088,34.343,124.425,36.894Z"/><path class="b" d="M125.712,25.322c.881,4.614.026,9.478,1.644,13.978a9,9,0,0,0,3.839,4.941c.431.252,1.259.6,1.054,1.2-.107.311-.533.576-.764.8a10.6,10.6,0,0,0-1.291,1.49c-1.507,2.171-1.227,4.732-1.631,7.222-.39,2.4-.927,5.212-2.91,6.855-1.583,1.312-4.076,1.727-6.061,1.9a13.93,13.93,0,0,1-3.2-.02c-1.4-.206-2.628-.388-3.769.677a4.593,4.593,0,0,0-1.133,2.383,33.385,33.385,0,0,1-1.078,3.277c-.471,1.207-.969,2.405-1.453,3.607a2.013,2.013,0,0,0,1.4,2.46,2.049,2.049,0,0,0,2.46-1.4c.457-1.135.922-2.268,1.372-3.407.309-.778.585-1.569.834-2.369q.228-.732.423-1.474a1.421,1.421,0,0,0,.093-.362c-.119-.658-.506.612-.642.365.111.2,1.509.247,1.652.261a15.259,15.259,0,0,0,1.67.068,22.862,22.862,0,0,0,4.307-.494,12.345,12.345,0,0,0,6.2-2.872,13.248,13.248,0,0,0,3.439-7.012,40.513,40.513,0,0,0,.644-4.372,5.866,5.866,0,0,1,.731-3.126c.548-.771,1.349-1.33,1.914-2.1a4.143,4.143,0,0,0,.728-3.571,5.349,5.349,0,0,0-2.232-3.01,6.511,6.511,0,0,1-2.06-1.657c-1.253-1.832-1.462-4.321-1.617-6.471a75.167,75.167,0,0,0-.7-8.838c-.482-2.525-4.338-1.456-3.857,1.064Z"/><path class="b" d="M94.971,48.529c-.658.912-1.307,1.831-1.965,2.743q-.55.762-1.108,1.517-.3.409-.611.817L91,53.979c-.375.492.235-.3-.147.192a35.775,35.775,0,0,1-5.221,5.658,2.007,2.007,0,0,0,0,2.828,2.055,2.055,0,0,0,2.828,0A36.162,36.162,0,0,0,93.8,56.85c1.6-2.06,3.1-4.188,4.625-6.3a2.008,2.008,0,0,0-.717-2.736,2.056,2.056,0,0,0-2.737.717Z"/><path class="b" d="M130.664,51.371A23.022,23.022,0,0,1,128,51.21l.531.072a10.436,10.436,0,0,1-1.957-.457,2,2,0,0,0-2.258,2.938,2.2,2.2,0,0,0,1.2.919,16.64,16.64,0,0,0,5.154.689,2.056,2.056,0,0,0,1.414-.586,2,2,0,0,0-1.414-3.414Z"/><path class="b" d="M77.048,13.8c-6.791,5.83-8.378,15.766-7.032,24.187A30.861,30.861,0,0,0,74.5,49.63a52.914,52.914,0,0,0,8.187,9.58c1.383,1.36,2.987,2.823,3.726,4.664.584,1.453.232,3.2-.1,4.811-.514,2.513,3.341,3.588,3.857,1.064.711-3.479.832-6.63-1.328-9.633-2.368-3.29-5.726-5.685-8.28-8.813-5.3-6.488-8.177-14.845-6.668-23.24.783-4.354,2.576-8.509,5.984-11.436,1.956-1.68-.884-4.5-2.828-2.828Z"/><path class="b" d="M104.442,38.918a43.135,43.135,0,0,1,3.915-5.68c.712-.875,1.453-1.728,2.24-2.538.349-.359.707-.711,1.079-1.047a3.611,3.611,0,0,1,.938-.725l-1.01.273q-1.278-1.119-.938-.2a1.027,1.027,0,0,0,.007.271,5.128,5.128,0,0,0,.181.958,2.779,2.779,0,0,0,1.837,1.763c1.539.448,2.668-.741,3.762-1.6a60.3,60.3,0,0,1,6.108-4.479c2.2-1.325.195-4.785-2.019-3.454a45.278,45.278,0,0,0-4.3,3.05c-.7.544-1.405,1.1-2.1,1.648-.3.238-.6.477-.905.714-.007.005-.285.222-.141.112-.145.111-.457.222-.22.181h1.064c.267.037.81,1.816.715.721-.023-.269-.06-.54-.106-.8a4.511,4.511,0,0,0-.52-1.505,2.718,2.718,0,0,0-2.953-1.3c-1.439.4-2.786,2.032-3.767,3.087a47.286,47.286,0,0,0-6.318,8.54c-1.287,2.235,2.168,4.252,3.454,2.019Z"/><path class="b" d="M84.787,11.452c5.129-5.781,13.943-8.328,21.46-7.23a22.788,22.788,0,0,1,15.7,9.711,25.025,25.025,0,0,1,3.8,11.358,2.056,2.056,0,0,0,2,2,2.014,2.014,0,0,0,2-2c-.762-7.862-4.053-15.014-10.431-19.84a28.259,28.259,0,0,0-24.681-4.32A27.021,27.021,0,0,0,81.959,8.623c-1.7,1.92,1.115,4.759,2.828,2.829Z"/><path class="f" d="M149.289,102.769a1.26,1.26,0,0,1,1.668-.321c2.945,1.5,13.562,9.109,16.814,11.354a2.159,2.159,0,0,1,.492,2.439c-3.031,7.563-5.552,11.459-13.239,19.116-4.3,4.287-12.02,8.107-18.326,7.3a29.824,29.824,0,0,1-9.189-2.631c-1.207,9.181-2.055,15.921-3.6,26.429a34.2,34.2,0,0,1-1.654,6.46c-1.78,4.892-2.829,6.664-7.37,8.858-8.312,4.016-21.9,1.648-31.641-1.305-7.634-2.314-14.612-4.353-18.344-6.291a3.718,3.718,0,0,1-1.974-2.047,4.16,4.16,0,0,1,.333-2.536l4.8-13.537c1.885-5.318,3.655-9.259,4.707-13.722a48.769,48.769,0,0,1-7.844,2.558,2.509,2.509,0,0,1-2.88-1.63,192.121,192.121,0,0,1-6.61-24.65c-.99-5.22-1.3-8.98.93-13.99C61.087,94,68.122,88.874,75.026,81.937c.208-.293.42-.582.634-.871,2.7-3.633,5.982-6.728,8.07-10.772.515-1.233,1.112-2.109,1.52-3.267.48-1.356,2.291-1.617,3.685-1A105.342,105.342,0,0,1,99.088,70.7a108.845,108.845,0,0,1,15.971,11.466,24.548,24.548,0,0,1,2.116,1.974c.65.759,1.252,1.52,1.686,2.04a51.386,51.386,0,0,1,4.889,6.75c2.921,4.737,4.4,8.036,7.293,12.453,2.275,3.2,5.468,6.713,8.708,6.918,3.914.248,5.551-3.269,7.463-6.046.952-1.383,1.582-2.715,2.231-3.664"/><path class="b" d="M70.09,154.211a19.459,19.459,0,0,1-1.345-2.3c-.046-.094-.083-.194-.134-.285-.124-.224.155.393.062.153-.061-.156-.125-.311-.185-.468q-.219-.582-.41-1.174a40.315,40.315,0,0,1-1.236-4.713,2.014,2.014,0,0,0-2.461-1.4,2.052,2.052,0,0,0-1.4,2.461,26.357,26.357,0,0,0,3.651,9.737,2,2,0,1,0,3.454-2.018Z"/><path class="b" d="M72.5,81.626c-3.739,3.649-7.687,7.1-11.034,11.132-3.638,4.376-7.2,9.727-8.363,15.382-1.108,5.382.3,10.928,1.5,16.178,1.259,5.5,2.715,10.97,4.452,16.34.87,2.692,1.719,6.2,5.2,6.284a15.819,15.819,0,0,0,5.045-1.188c1.353-.45,2.679-.974,4.006-1.5a2.061,2.061,0,0,0,1.4-2.461,2.016,2.016,0,0,0-2.461-1.4,55.148,55.148,0,0,1-6.929,2.346c-1.058.261-1.239.3-1.576-.687-.4-1.187-.8-2.376-1.179-3.572-1.538-4.894-2.859-9.861-4.013-14.86-1.032-4.468-2.49-9.434-1.66-14.039.9-5,4-9.832,7.167-13.708,3.4-4.153,7.447-7.69,11.276-11.427,1.846-1.8-.984-4.628-2.828-2.828Z"/><path class="b" d="M81.829,69.615c-1.7,3.083-4.073,5.643-6.276,8.361a40.753,40.753,0,0,0-5.915,9.215C66.5,94.4,67.1,102.455,68.421,110.018c1.225,6.993,3.079,14,3.3,21.125a40.732,40.732,0,0,1-.835,10.434,72.863,72.863,0,0,1-3.076,9.39c-1.388,3.677-2.686,7.386-4,11.09l-2.068,5.835c-.646,1.824-1.375,3.719-.416,5.581,1.339,2.6,5.032,3.616,7.585,4.545,3.382,1.23,6.835,2.267,10.279,3.31A98.928,98.928,0,0,0,99.21,185.7c6.136.541,12.588.164,18.062-2.912a12.631,12.631,0,0,0,5.042-4.921,34.449,34.449,0,0,0,2.811-7.428,78.945,78.945,0,0,0,1.642-9.886q.727-5.175,1.409-10.357.322-2.436.64-4.873a2.009,2.009,0,0,0-2-2,2.052,2.052,0,0,0-2,2c-.857,6.547-1.736,13.09-2.688,19.624a38.431,38.431,0,0,1-1.8,7.436c-.715,2-1.5,4.111-3.067,5.563-3.752,3.475-9.679,4.044-14.529,3.949a69.912,69.912,0,0,1-18.269-3.151c-3.517-1.036-7.031-2.1-10.519-3.23a52.735,52.735,0,0,1-7.8-2.943c-.4-.2-1.033-.45-1.241-.887-.267-.561.259-1.491.447-2.025.712-2.024,1.434-4.046,2.15-6.068,1.227-3.462,2.426-6.935,3.718-10.373,2.3-6.133,4.375-12.106,4.518-18.733.145-6.764-1.12-13.485-2.427-20.095-1.532-7.745-3.3-16.132-.712-23.86,2.482-7.419,8.993-12.211,12.678-18.893,1.244-2.256-2.209-4.276-3.453-2.019Z"/><path class="b" d="M101.281,113.1a63.489,63.489,0,0,0,5.907,9.764,111.142,111.142,0,0,0,7.869,9.979c5.765,6.454,13.254,11,22,11.854,4.7.461,9.577-1.253,13.6-3.568,4.225-2.43,7.618-6,10.79-9.651a44.89,44.89,0,0,0,6.769-10.127c.847-1.778,2.182-3.978,2.215-5.983.035-2.071-1.335-3.066-2.849-4.126-3.248-2.275-6.483-4.569-9.764-6.8-1.448-.984-2.9-1.966-4.394-2.882-1.727-1.062-3.915-2.074-5.548-.2-1.688,1.93,1.13,4.77,2.828,2.828-.481.55-.842-.233-.387.188a3.516,3.516,0,0,0,.585.337c.525.311,1.04.638,1.553.967,1.3.833,2.576,1.7,3.849,2.565,2.69,1.835,5.352,3.709,8.016,5.581q.707.5,1.415.993c.206.144.409.308.626.437a1.44,1.44,0,0,1,.274.19c-.414-.554-.136-.18-.2-.075a15.072,15.072,0,0,0-.78,2c-.369.856-.756,1.7-1.168,2.541a40.828,40.828,0,0,1-5.864,8.741c-5.332,6.137-12.385,12.734-21.2,12.078-7.49-.557-14.074-4.726-19.021-10.147a99.428,99.428,0,0,1-7.653-9.591,63.845,63.845,0,0,1-6.009-9.909,2.016,2.016,0,0,0-2.737-.717,2.045,2.045,0,0,0-.717,2.736Z"/><path class="b" d="M85.41,71.4c.332-.766.732-1.494,1.092-2.246.167-.349.368-1.3.7-1.442.314-.134.845.11,1.126.216.9.335,1.768.756,2.648,1.128a68.359,68.359,0,0,1,8.473,4.164A100.14,100.14,0,0,1,113.645,83.58c4.485,3.893,7.759,9.1,10.655,14.231,1.625,2.878,3.142,5.853,5.016,8.582,1.883,2.744,4.331,5.709,7.428,7.115a7.6,7.6,0,0,0,8.9-1.682c2.286-2.39,3.722-5.493,5.525-8.225,1.422-2.155-2.04-4.16-3.454-2.019-1.559,2.363-2.784,5.064-4.689,7.187-1.844,2.056-4.03,1.785-6.114.175-2.778-2.144-4.669-5.256-6.4-8.243-1.693-2.919-3.263-5.907-5.036-8.78A51.148,51.148,0,0,0,114.6,79.153,95.928,95.928,0,0,0,99.676,68.742a86.9,86.9,0,0,0-10.21-4.648,4.42,4.42,0,0,0-6.249,2.68c-.392.882-.876,1.718-1.261,2.605a2.066,2.066,0,0,0,.718,2.737A2.015,2.015,0,0,0,85.41,71.4Z"/></svg>