<?xml version="1.0" encoding="utf-8"?>
<!-- Uploaded to: SVG Repo, www.svgrepo.com, Generator: SVG Repo Mixer Tools -->
<svg width="800px" height="800px" viewBox="-16.32 0 310.173 310.173" xmlns="http://www.w3.org/2000/svg"><defs><style>.a{fill:#ffffff;}.b{fill:#7a7473;}.c{fill:#211715;}.d{fill:#f2635f;}</style></defs><path class="a" d="M138.7,79.392a7.784,7.784,0,0,1,5.665-1.029c3.83.727,5.162,2.966,5.685,4.239,1.558,3.8.473,10.192-1.562,13.938a20.38,20.38,0,0,1-8.033,8.776,15,15,0,0,1-7.412,1.429c-.319.607-.543,1.037-.543,1.037-1.008,1.918-3.348,5.252-3.348,5.252a73.772,73.772,0,0,1-5.721,6.976l1.074,6.467a27.4,27.4,0,0,0,1.349,5.627c1.917,4.843,7.154,8.286,12.525,10.324,0,0,.4.152.788.312a76.136,76.136,0,0,1-44.614,15.8c-6.052.092-12.206-.584-17.875-3.032a27.963,27.963,0,0,1-13.352-11.8c3.56-1.083,7.247-2.207,9.706-3.177a10.983,10.983,0,0,0,5.684-4.137c-8.481-.86-15.824-4.246-22.723-10.332-8.328-7.345-11.656-18.566-12.548-30.87-.455-6.274-.813-13.025-1.4-19.835,0,0-5.731-39.568,48.269-39.568C140.311,35.789,138.7,79.392,138.7,79.392Z"/><path class="b" d="M62.455,54.111c-.049-.307-.117-.63-.206-.974-.36-1.386-1.438-1.96-2.264-1.51-7.643,4.167-18.662,20.034-17.943,23.73l-.15,1.356a89.7,89.7,0,0,1,.134-30.794C43.81,37.259,48.15,27.6,54.019,21.025,64.183,9.636,79.094,2.92,97.441,2.457c11.578-.292,23.1,2.137,35.362,11.3l7.626,5.7,1.446,1.4c7.293,7.077,10.75,15.042,12.906,24.715a48.236,48.236,0,0,1,.977,14.833c-.484,5.252-1.193,17.511-5.159,24.2a9.4,9.4,0,0,0-.551-2c-.523-1.273-1.855-3.512-5.685-4.239a7.784,7.784,0,0,0-5.665,1.029,13.935,13.935,0,0,1-3.053.953c-1.445.222-8.061-8.1-8.061-8.1-10.308-19.062-24.524-24.223-27.6-25.5a52.661,52.661,0,0,0-10.672-1.336C79.137,47.82,69.886,55.481,65.022,58.286a1.734,1.734,0,0,1-2.5-1.823A9.048,9.048,0,0,0,62.455,54.111Z"/><path class="c" d="M121.114,120.65c.88,5.258,1.093,11.307,4.421,15.713,3.056,4.046,7.547,6.588,12.205,8.384a2.418,2.418,0,0,0,2.952-1.677,2.454,2.454,0,0,0-1.676-2.952c-3.6-1.387-7.442-3.485-9.721-6.7a14.485,14.485,0,0,1-2.2-5.946c-.5-2.689-.9-5.4-1.354-8.1a2.419,2.419,0,0,0-2.952-1.676,2.456,2.456,0,0,0-1.676,2.952Z"/><path class="c" d="M56.746,148.307c4.069-1.412,8.228-2.555,12.329-3.868,1.871-.6,3.756-1.213,5.579-1.947a14,14,0,0,0,6.116-4.878,2.417,2.417,0,0,0-.861-3.284,2.454,2.454,0,0,0-3.283.861c-2.2,3.016-6.413,3.862-9.785,4.923-3.788,1.192-7.618,2.262-11.371,3.564a2.458,2.458,0,0,0-1.676,2.952,2.423,2.423,0,0,0,2.952,1.677Z"/><path class="c" d="M140.181,22.549c6.433,6.3,10.086,14.167,12.1,22.86,1.945,8.38,1.264,17.116-.061,25.552-.663,4.225-1.535,8.671-3.707,12.41-1.555,2.676,2.591,5.095,4.144,2.423,4.093-7.043,4.68-15.882,5.361-23.821a56.4,56.4,0,0,0-.682-15.868,60.927,60.927,0,0,0-4.44-13.9,44.73,44.73,0,0,0-9.324-13.054c-2.208-2.163-5.6,1.228-3.394,3.394Z"/><path class="c" d="M99.345,49.057q.578.24,1.157.475c.5.2-.447-.2-.069-.029.122.055.245.1.367.159q.513.225,1.02.461a46.566,46.566,0,0,1,4.689,2.523,50.06,50.06,0,0,1,12.039,10.476,61.237,61.237,0,0,1,6.964,10.335c1.478,2.714,5.624.294,4.144-2.422-5.69-10.442-14.137-19.657-24.967-24.846-1.334-.639-2.7-1.2-4.068-1.76a2.415,2.415,0,0,0-2.953,1.676,2.461,2.461,0,0,0,1.677,2.952Z"/><path class="c" d="M44.4,74.9a11.089,11.089,0,0,1,1.509-3.717,51.678,51.678,0,0,1,3.16-5.069,55,55,0,0,1,8.8-10.033,19.485,19.485,0,0,1,1.845-1.458c.341-.237.744-.429,1.068-.687.457-.364.971-.164-.478-.09-.336.017-.208-.214-.366-.072.031-.028.232,1.565.233,1.693a10.742,10.742,0,0,0,.034,1.964,4.185,4.185,0,0,0,2.509,3.149c2.288.944,4.264-.633,6.086-1.839,1.875-1.241,3.728-2.516,5.62-3.733,5.119-3.29,10.527-6.255,16.536-7.508,3.022-.63,1.743-5.258-1.276-4.628-5.705,1.189-11.019,3.861-15.95,6.9-2.074,1.278-4.094,2.641-6.116,4-.824.553-1.647,1.106-2.484,1.638A6.625,6.625,0,0,0,64,56.1c-.272.275-.25-.16.175,0-.1-.037.918.215.722.363.225-.17.058-1.431.036-1.71a10.979,10.979,0,0,0-.372-2.257,4.6,4.6,0,0,0-2.986-3.281c-2.283-.642-4.447,1.306-6.095,2.625a54.647,54.647,0,0,0-9.6,10.512c-2.408,3.28-5.277,7.2-6.11,11.27a2.458,2.458,0,0,0,1.676,2.952A2.423,2.423,0,0,0,44.4,74.9Z"/><path class="c" d="M90.772,86.726c-.584-2.526.321-8.177,5.038-8.324,6.187.482,6.023,7.38,3.707,10.463C97.621,91.389,92.526,92.129,90.772,86.726Z"/><path class="c" d="M53.942,85.24c-.525-2.532.323-8.2,4.644-8.368,5.665.462,5.49,7.382,3.358,10.482C60.2,89.893,55.53,90.653,53.942,85.24Z"/><path class="c" d="M72.854,91.835c-.834,1.29-1.643,2.605-2.36,3.963A5.866,5.866,0,0,0,69.8,97.51a3.433,3.433,0,0,0,.894,3.124,5.041,5.041,0,0,0,1.978,1.247,7.309,7.309,0,0,0,1.555.27l-.638-.086c.062.009.123.019.184.03a2.584,2.584,0,0,0,1.849-.242,2.4,2.4,0,0,0,.861-3.284,2.364,2.364,0,0,0-1.434-1.1c-.358-.066-.722-.1-1.083-.148l.638.086a3.084,3.084,0,0,1-.734-.183l.573.242a2.749,2.749,0,0,1-.492-.287l.486.375a2.99,2.99,0,0,1-.5-.482l.375.486a.783.783,0,0,1-.085-.162l.242.573a.759.759,0,0,1-.043-.175l.085.638a1.648,1.648,0,0,1,0-.281l-.086.638A2.561,2.561,0,0,1,74.6,98.2l-.242.574A23.356,23.356,0,0,1,75.675,96.4q.644-1.078,1.323-2.137a2.419,2.419,0,0,0-.861-3.284,2.453,2.453,0,0,0-3.283.861Z"/><path class="c" d="M118.05,128.173a64.374,64.374,0,0,0,10.51-10.444,58.217,58.217,0,0,0,6.01-8.736c1.456-2.723-2.687-5.151-4.145-2.422a59.505,59.505,0,0,1-15.769,18.208,2.414,2.414,0,0,0,0,3.394,2.459,2.459,0,0,0,3.394,0Z"/><path class="c" d="M134.014,11.682A57.473,57.473,0,0,0,105.37.33,69.758,69.758,0,0,0,76.876,3.479a57.247,57.247,0,0,0-22.624,13.8c-7.037,7.078-11.737,16.429-14.106,26.077-2.685,10.939-2.52,22.956-.569,33.995a2.421,2.421,0,0,0,2.953,1.676,2.454,2.454,0,0,0,1.676-2.952,81.742,81.742,0,0,1-.091-28.352c1.63-8.971,5.5-18.145,11.6-25C67.314,9.694,84.856,4.176,101.97,4.891c10.919.456,20.884,4.459,29.621,10.936a2.418,2.418,0,0,0,3.284-.861,2.456,2.456,0,0,0-.861-3.284Z"/><path class="c" d="M105.4,129.21A59.185,59.185,0,0,1,85.1,134.176a37.551,37.551,0,0,1-18.715-3.827,35.559,35.559,0,0,1-14.163-12.457c-3.385-5.465-5.1-11.833-5.932-18.163-.555-4.2-.723-8.459-1-12.686-.312-4.792-.639-9.583-1.087-14.365a2.465,2.465,0,0,0-2.4-2.4,2.418,2.418,0,0,0-2.4,2.4c.8,8.506.986,17.075,1.91,25.565.771,7.1,2.38,14.194,5.843,20.5C53.953,131.1,68,138.608,81.878,139c8.581.24,16.916-1.886,24.8-5.158a2.479,2.479,0,0,0,1.676-2.952,2.414,2.414,0,0,0-2.952-1.676Z"/><path class="c" d="M139.909,81.464a5.907,5.907,0,0,1,7.364,1.057c.258.307-.165-.249.042.061.059.087.122.175.174.267.095.169.191.335.28.507.04.077.076.156.111.235.126.292-.14-.391.013.078a10.906,10.906,0,0,1,.3,1.069,13.68,13.68,0,0,1,.07,4.483c-.681,5.532-4.059,11.432-9.1,14.066a3.276,3.276,0,0,1-.441.2c-.3.112-.6.214-.912.3a14.182,14.182,0,0,1-2.211.494,8.1,8.1,0,0,1-4.67-.539c-2.747-1.4-5.179,2.74-2.423,4.145,3.538,1.8,7.961,1.59,11.611.179a19.63,19.63,0,0,0,9-7.857,24.945,24.945,0,0,0,3.925-10.812c.417-3.519.06-7.382-2.293-10.188-3.125-3.728-9.216-4.39-13.258-1.9-2.625,1.618-.217,5.772,2.422,4.145Z"/><path class="c" d="M97.247,71.966a11.883,11.883,0,0,0,3.142,2.288,11.637,11.637,0,0,0,3.57,1.18,1.823,1.823,0,0,0,.957.043,1.8,1.8,0,0,0,.893-.285,2.4,2.4,0,0,0,.861-3.284,2.3,2.3,0,0,0-1.435-1.1,9.623,9.623,0,0,1-2.371-.652l.573.242a10.55,10.55,0,0,1-2.314-1.339l.486.375a9.868,9.868,0,0,1-.968-.859,2.4,2.4,0,0,0-3.394,3.394Z"/><path class="c" d="M112,85.429a57.741,57.741,0,0,0-.612,6.733c-.034,1.985-.122,4.415,1.011,6.143a5.967,5.967,0,0,0,6.062,2.349,6.137,6.137,0,0,0,4.366-3.586,2.455,2.455,0,0,0-.861-3.283,2.43,2.43,0,0,0-3.284.861,6.586,6.586,0,0,1-.434.8c-.244.378-.1.008.035-.02a3.136,3.136,0,0,0-.338.357c-.3.3.275-.142.031-.021-.078.039-.271.223-.366.208q.426-.169.169-.082a2.572,2.572,0,0,1-.26.074c-.426.131.337.005.049,0-.141,0-.289,0-.43.01-.524.027.46.138-.048,0-.136-.036-.277-.085-.415-.111-.269-.051.4.232.023.012a2.4,2.4,0,0,1-.219-.127q-.222-.144.146.13c-.1-.014-.233-.23-.3-.292-.2-.191.238.4.049.013.266.538.037.054,0-.091s-.061-.306-.1-.456c-.079-.3.035.457,0-.006-.032-.371-.053-.742-.066-1.115q-.043-1.239,0-2.478c.031-.856.092-1.711.173-2.563q.056-.587.124-1.171c.027-.236.056-.471.086-.707.011-.089.1-.764.039-.314a2.652,2.652,0,0,0-.242-1.85,2.447,2.447,0,0,0-1.434-1.1c-1.127-.256-2.773.346-2.953,1.677Z"/><path class="c" d="M74.34,115.363c.311-.217.663-.385.969-.6.237-.17-.349.075.054-.026.107-.027.217-.057.323-.089.425-.127-.3-.029-.11.019a1.65,1.65,0,0,0,.365,0c.291-.022-.027-.007-.156-.034l.184.053q-.366-.153-.132-.019c.11.074.115.074.017,0-.129-.1-.095-.074.1.092l.356.317c.331.3.664.581,1.017.851a4.732,4.732,0,0,0,2.922,1,5.266,5.266,0,0,0,2.7-.858,10.507,10.507,0,0,1,.989-.554c.38-.18-.453.114.256-.1a4.256,4.256,0,0,1,.484-.128c-.37.066.091.018.181.018.184,0,.483.136.044-.007.127.042.266.057.395.094.059.016.58.213.3.09-.264-.116.741.5.32.158.113.091.212.2.32.294.436.395-.156-.287.169.22a2.453,2.453,0,0,0,3.284.861,2.428,2.428,0,0,0,.861-3.284,6.858,6.858,0,0,0-4.889-3.138,6.2,6.2,0,0,0-2.986.277,11.3,11.3,0,0,0-1.616.734c-.181.1-.358.209-.535.317-.078.048-.542.448-.25.18l-.218.057q.349-.04.084-.036c-.252.038.137.064.244.094q-.312-.2-.154-.072t-.15-.127c-.157-.136-.31-.276-.464-.414a5.427,5.427,0,0,0-7.7-.378,2.464,2.464,0,0,0-.861,3.284,2.422,2.422,0,0,0,3.284.861Z"/><path class="a" d="M15.2,171.775C8.359,184.825,5.62,199.838,4.053,214.35c-1.638,15.178-1.5,32.765-1.613,38.027-.574,24.24,8.746,33.288,11.282,35.763,2.48,2.422,10,6.154,13.385,6.557,20.608,2.451,45.48-2.139,67.782-5.7,5.006-.8,11.3-1.582,12.678-6.65a10.3,10.3,0,0,0,.252-3.2c6.126-1.635,12.266-3.212,16.757-4.178a27.941,27.941,0,0,1,6.957-.537c-3.465,13.111-7.835,29.542-8.661,32.391H171.9c7.068-32.724,13.551-59.315,19.256-89.607,2.149-11.414,2.931-29.279-.741-40.3-5.47-16.417-20.975-29.868-49.175-35.8a76.4,76.4,0,0,1-46.687,17.43c-6.052.092-12.206-.584-17.875-3.032a27.828,27.828,0,0,1-13.545-12.171c-17.783,1.53-34.348,7.163-44.517,22.623Q16.753,168.792,15.2,171.775Z"/><path class="d" d="M221.1,212.367c7.552-4.039,15.256-7.785,22.8-11.841a2.433,2.433,0,0,0,.485-3.769c-2.655-3.131-5.584-6.017-8.3-9.093l-.485,3.77c7.976-3.905,15.988-7.734,23.968-11.63a2.423,2.423,0,0,0,.861-3.284,2.449,2.449,0,0,0-3.283-.861c-7.98,3.9-15.993,7.726-23.969,11.63a2.428,2.428,0,0,0-.486,3.77c2.717,3.075,5.647,5.961,8.3,9.092l.486-3.769c-7.543,4.055-15.247,7.8-22.8,11.84-2.725,1.457-.3,5.6,2.423,4.145Z"/><path class="d" d="M216.677,233.3c10.978-.013,21.919,1.406,32.9,1.368a2.432,2.432,0,0,0,2.314-3.038c-.874-4.011-2.1-7.935-3.06-11.926l-2.314,3.038c9.562.313,19.133.227,28.7.55,3.09.1,3.086-4.7,0-4.8-9.562-.323-19.133-.237-28.7-.55a2.427,2.427,0,0,0-2.315,3.038c.955,3.992,2.187,7.915,3.06,11.926l2.315-3.038c-10.977.038-21.918-1.381-32.9-1.368-3.088,0-3.093,4.8,0,4.8Z"/><path class="c" d="M61.256,144.924c12.266,21.524,43.053,17.946,62.377,9.655a80.335,80.335,0,0,0,16.746-9.764,2.476,2.476,0,0,0,.861-3.284,2.416,2.416,0,0,0-3.283-.861A76.71,76.71,0,0,1,109.314,154.3,69,69,0,0,1,93.64,156.15c-5.513.009-11.2-.653-16.272-2.942A25.883,25.883,0,0,1,65.4,142.5c-1.529-2.683-5.678-.268-4.144,2.423Z"/><path class="c" d="M174,308.448c6.129-28.416,12.911-56.695,18.446-85.237,2.372-12.232,3.851-24.7,2.315-37.145a48.817,48.817,0,0,0-4.143-15.04A46.364,46.364,0,0,0,182.6,159.3c-9-9.7-21.494-15.445-34.069-18.9-2.983-.82-4.256,3.809-1.276,4.628,10.836,2.979,21.555,7.658,29.793,15.486a41.49,41.49,0,0,1,12.631,23.648c1.907,11.561.836,23.667-1.35,35.1-2.58,13.5-5.449,26.932-8.417,40.347-3.508,15.855-7.12,31.688-10.544,47.562-.649,3.012,3.977,4.3,4.629,1.276Z"/><path class="c" d="M147.448,202.975c-4.867,19.03-9.64,38.086-14.613,57.088q-4.346,16.605-8.781,33.186c-1.15,4.312-2.257,8.642-3.5,12.93-.859,2.973,3.772,4.243,4.629,1.276,2.771-9.593,5.2-19.3,7.751-28.949q4.79-18.093,9.412-36.226l9.727-38.029c.765-2.994-3.863-4.271-4.629-1.276Z"/><path class="a" d="M104.234,245.025c4.047-.59,7.946-1.542,9.98-2.888a48.457,48.457,0,0,1,21.413-14.979c2.976-1.022,7.317-3.016,10.234-1.837,3.478,1.405,3.92,5.776-.54,10.029l-1.9,1.827-.256.246a107.2,107.2,0,0,0,18.854,1.874c4.468-.072,12.466.195,16.822.034a4.722,4.722,0,0,1,4.337,2.191,4.688,4.688,0,0,1-2.788,7.008l1.936.428a4.736,4.736,0,0,1,3.635,4,4.813,4.813,0,0,1-2.484,4.619A15.582,15.582,0,0,1,178,259.357l-.689.1,1.5,1.026a4.122,4.122,0,0,1,1.731,4.442c-.881,2.07-2.55,2.616-4.669,3-.867.159-1.737.3-2.593.423,1.941,3.682-1.652,6.386-5.616,6.854a109.8,109.8,0,0,1-21.923.747c-6.974-.492-14.076-2.525-21.158-.993-4.479.963-10.6,2.535-16.708,4.165"/><path class="c" d="M104.872,247.339a42.03,42.03,0,0,0,6.9-1.508,19.33,19.33,0,0,0,2.874-1.172,7.214,7.214,0,0,0,2.171-1.911,45.935,45.935,0,0,1,9.223-8.141,54.29,54.29,0,0,1,11.7-5.666,20.025,20.025,0,0,1,5.621-1.568,3.588,3.588,0,0,1,1.814.266,1.6,1.6,0,0,1,.915.97,2.591,2.591,0,0,1-.1,1.664,7.074,7.074,0,0,1-1.546,2.54c-.844.94-1.8,1.79-2.711,2.667-2.228,2.147,1.169,5.539,3.395,3.394,2.636-2.542,5.431-5.162,5.807-9.027.455-4.664-3.786-7.655-8.113-7.231a28.293,28.293,0,0,0-6.864,1.884,66.726,66.726,0,0,0-7.1,2.923,51.245,51.245,0,0,0-12.091,8.463q-1.36,1.276-2.62,2.658a7.5,7.5,0,0,1-2.207,2.114,30.558,30.558,0,0,1-8.342,2.052,2.417,2.417,0,0,0-1.676,2.953,2.46,2.46,0,0,0,2.952,1.676Z"/><path class="c" d="M108.506,281.442c4.743-1.264,9.491-2.513,14.273-3.619a32.781,32.781,0,0,1,6.756-1.014,50.621,50.621,0,0,1,7.308.484,131.632,131.632,0,0,0,14.768,1.31,115.542,115.542,0,0,0,13.816-.74c2.519-.273,5.043-.489,7.256-1.847a6.988,6.988,0,0,0,3.533-5.561,2.422,2.422,0,0,0-2.4-2.4,2.447,2.447,0,0,0-2.4,2.4c-.069.97-1.557,1.743-2.548,2.05a28.974,28.974,0,0,1-5.853.8,107.166,107.166,0,0,1-13.006.465c-4.751-.137-9.395-.847-14.107-1.391a39.678,39.678,0,0,0-13.622.636c-5.045,1.145-10.051,2.465-15.05,3.8-2.981.795-1.717,5.426,1.276,4.628Z"/><path class="c" d="M142.477,239.732a124.029,124.029,0,0,0,13.274,1.7c4.842.306,9.688.258,14.536.317,2.321.028,4.643.06,6.964.025,1.561-.024,3.613-.307,4.078,1.547.481,1.918-.988,2.795-2.678,3.292-2.407.707-5.169.659-7.663.872a144.934,144.934,0,0,1-18.78.02c-3.088-.136-3.081,4.664,0,4.8a144.381,144.381,0,0,0,18.582,0c2.923-.246,6.132-.229,8.967-1.01,2.613-.719,5.449-2.405,6.2-5.191a7.35,7.35,0,0,0-2.071-7.4c-2.284-1.947-4.963-1.728-7.764-1.712-5.162.029-10.36.046-15.519-.128a122.539,122.539,0,0,1-16.85-1.75,2.47,2.47,0,0,0-2.952,1.676,2.421,2.421,0,0,0,1.676,2.953Z"/><path class="c" d="M181.693,251.273a2.585,2.585,0,0,1,1.47.912c-.042-.055.371.641.3.475-.032-.075.144.815.1.3a2.6,2.6,0,0,1-1.614,2.709c-2.99,1.524-6.62,1.754-9.914,2.057-3.882.357-7.8.333-11.7.335-3.013,0-6.063.053-9.067-.216a2.417,2.417,0,0,0-2.4,2.4,2.452,2.452,0,0,0,2.4,2.4c2.718.244,5.472.21,8.2.215,3.741.008,7.5.034,11.235-.226a49.252,49.252,0,0,0,10.444-1.5c3.145-.935,6.262-2.664,7.007-6.122a7.039,7.039,0,0,0-5.188-8.365c-2.99-.791-4.265,3.837-1.277,4.629Z"/><path class="c" d="M177.593,262.558a1.97,1.97,0,0,1,.7,1.6,2.686,2.686,0,0,1-1.413,1.072c-2.63.919-5.744,1.049-8.5,1.283-5.808.494-11.576.024-17.38-.312-3.086-.178-3.075,4.622,0,4.8,3.912.226,7.827.565,11.748.568a75.376,75.376,0,0,0,10.111-.753c3.312-.445,7.193-.731,9.242-3.761s.612-6.617-2.087-8.64a2.417,2.417,0,0,0-3.284.861,2.458,2.458,0,0,0,.861,3.284Z"/><path class="c" d="M62.815,140.966c-13.786,1.248-27.687,4.982-38.233,14.39C12.9,165.778,7.254,181.815,4.257,196.769,1.154,212.248.362,228.081.142,243.83a169.847,169.847,0,0,0,.181,17.726A55.493,55.493,0,0,0,4.645,279.2a34.351,34.351,0,0,0,5.707,8.91,28.8,28.8,0,0,0,10.054,6.866,34.064,34.064,0,0,0,4.331,1.661,24.839,24.839,0,0,0,4.624.7,114,114,0,0,0,11.92.443,215.535,215.535,0,0,0,25.5-2.058c8.576-1.127,17.112-2.532,25.65-3.912,5.709-.922,14.12-1.243,16.9-7.367a12.449,12.449,0,0,0,.833-6.162c-.168-2.356-.391-4.71-.618-7.061-.439-4.537-.947-9.068-1.468-13.6s-1.056-9.068-1.545-13.607c-.234-2.171-.649-4.206-2.918-5.091-1.741-.679-3.81-.023-5.6.243-14.924,2.217-29.857,4.365-44.786,6.549-.794.116-1.589.23-2.384.349-.669.1.172,0-.235.032-.241.02-.481.044-.723.052-.21.008-.419,0-.629,0-.239,0-.656-.064-.162.014a6.669,6.669,0,0,1-1.211-.312c.659.237-.869-.584-.411-.228a5.51,5.51,0,0,1-.536-.489c-.079-.08-.5-.57-.281-.289a10.415,10.415,0,0,1-1.645-3.595c-.569-2-.878-4.07-1.306-6.1q-.707-3.355-1.356-6.724c-.842-4.39-1.6-8.8-2.2-13.228q-.882-6.508-1.278-13.068c-.187-3.069-4.989-3.091-4.8,0a212.936,212.936,0,0,0,3.375,26.14c.807,4.322,1.63,8.665,2.6,12.952.607,2.68,1.641,5.616,3.72,7.528,3.92,3.6,9.484,1.775,14.145,1.095q10.963-1.6,21.928-3.194,10.817-1.578,21.629-3.182a2.137,2.137,0,0,0,.534-.08c.09-.137.011.554-.1-.029.018.095-.3-.125-.211-.145-.242.055.086-.214-.047.066s.124,1.148.158,1.465q.106.975.215,1.95.364,3.282.747,6.562c.513,4.444,1.033,8.888,1.5,13.337.456,4.317,1.077,8.71,1.16,13.053.057,2.977-1.37,4.585-4.077,5.526a53.466,53.466,0,0,1-9.1,1.827c-4.125.664-8.249,1.341-12.376,1.992-15.957,2.514-32.261,4.874-48.451,3.713a24.083,24.083,0,0,1-8.148-1.678,41.251,41.251,0,0,1-4.1-2.029,30.988,30.988,0,0,1-3.094-1.964,19.712,19.712,0,0,1-2.223-2.188c-.407-.451-.793-.918-1.176-1.39-.26-.32.3.422-.048-.062-.1-.13-.194-.259-.289-.389q-.354-.487-.69-.988a35.825,35.825,0,0,1-5.04-11.667c-1.61-6.263-1.855-12.643-1.766-19.078.189-13.678.374-27.343,2.059-40.938,1.881-15.184,5.409-30.794,14.094-43.649,7.463-11.049,19.49-17.035,32.285-19.579a90.5,90.5,0,0,1,9.518-1.341,2.464,2.464,0,0,0,2.4-2.4,2.418,2.418,0,0,0-2.4-2.4Z"/></svg>