<!DOCTYPE svg PUBLIC "-//W3C//DTD SVG 1.1//EN" "http://www.w3.org/Graphics/SVG/1.1/DTD/svg11.dtd">
<!-- Uploaded to: SVG Repo, www.svgrepo.com, Transformed by: SVG Repo Mixer Tools -->
<svg width="800px" height="800px" viewBox="0 0 64 64" xmlns="http://www.w3.org/2000/svg" xmlns:xlink="http://www.w3.org/1999/xlink" aria-hidden="true" role="img" class="iconify iconify--emojione" preserveAspectRatio="xMidYMid meet" fill="#000000">
<g id="SVGRepo_bgCarrier" stroke-width="0"/>
<g id="SVGRepo_tracerCarrier" stroke-linecap="round" stroke-linejoin="round"/>
<g id="SVGRepo_iconCarrier">
<circle cx="32" cy="32" r="30" fill="#0671D3"/>
<path d="M20.4 17.1h6.2v17.8c0 2 .2 3.4.7 4.4c.7 1.6 2.3 2.4 4.8 2.4c2.4 0 4-.8 4.8-2.4c.5-.9.7-2.4.7-4.4V17.1h6.2V35c0 3.1-.5 5.5-1.4 7.2c-1.8 3.1-5.2 4.7-10.2 4.7c-5 0-8.4-1.6-10.2-4.7c-1-1.7-1.4-4.1-1.4-7.2l-.2-17.9" fill="#ffffff"/>
</g>
</svg>